<?xml version="1.0" encoding="utf-8"?>
<!-- Generator: Adobe Illustrator 20.1.0, SVG Export Plug-In . SVG Version: 6.00 Build 0)  -->
<svg version="1.1" id="Слой_1" xmlns="http://www.w3.org/2000/svg" xmlns:xlink="http://www.w3.org/1999/xlink" x="0px" y="0px"
	 width="962.3px" height="190.4px" viewBox="0 0 962.3 190.4" style="enable-background:new 0 0 962.3 190.4;" xml:space="preserve"
	>
<style type="text/css">
	.st0{fill:#FFFFFF;}
	.st1{clip-path:url(#SVGID_4_);}
	.st2{clip-path:url(#SVGID_6_);fill:#FFFFFF;}
	.st3{clip-path:url(#SVGID_8_);}
	.st4{clip-path:url(#SVGID_10_);fill:none;}
	.st5{clip-path:url(#SVGID_10_);}
	.st6{clip-path:url(#SVGID_12_);}
	.st7{fill:#F9F9F9;}
</style>
<g>
	<g>
		<g>
			<path id="SVGID_1_" class="st0" d="M950.6,185.8H15.3c-5.3,0-9.6-4.3-9.6-9.6V14.4c0-5.3,4.3-9.6,9.6-9.6h935.4
				c5.3,0,9.6,4.3,9.6,9.6v161.8C960.2,181.5,955.9,185.8,950.6,185.8z"/>
		</g>
		<g>
			<defs>
				<path id="SVGID_2_" d="M950.6,185.8H15.3c-5.3,0-9.6-4.3-9.6-9.6V14.4c0-5.3,4.3-9.6,9.6-9.6h935.4c5.3,0,9.6,4.3,9.6,9.6v161.8
					C960.2,181.5,955.9,185.8,950.6,185.8z"/>
			</defs>
			<clipPath id="SVGID_4_">
				<use xlink:href="#SVGID_2_"  style="overflow:visible;"/>
			</clipPath>
			<g class="st1">
				<g>
					<rect id="SVGID_3_" x="-1.3" y="-108.6" class="st0" width="971.3" height="412.5"/>
				</g>
				<g>
					<defs>
						<rect id="SVGID_5_" x="-1.3" y="-108.6" width="971.3" height="412.5"/>
					</defs>
					<clipPath id="SVGID_6_">
						<use xlink:href="#SVGID_5_"  style="overflow:visible;"/>
					</clipPath>
					<rect x="-519.7" y="-204.4" class="st2" width="969.8" height="412.5"/>
				</g>
			</g>
			<g class="st1">
				<g>
					<defs>
						<path id="SVGID_7_" d="M950.7,185.9H15.3c-5.3,0-9.6-4.3-9.6-9.6V14.5c0-5.3,4.3-9.6,9.6-9.6h935.4c5.3,0,9.6,4.3,9.6,9.6
							v161.8C960.3,181.6,956,185.9,950.7,185.9z"/>
					</defs>
					<clipPath id="SVGID_8_">
						<use xlink:href="#SVGID_7_"  style="overflow:visible;"/>
					</clipPath>
					<g class="st3">
						<g>
							<defs>
								<rect id="SVGID_9_" x="0.7" y="-110.5" width="971.3" height="412.5"/>
							</defs>
							<clipPath id="SVGID_10_">
								<use xlink:href="#SVGID_9_"  style="overflow:visible;"/>
							</clipPath>
							<rect x="-517.7" y="-206.3" class="st4" width="969.8" height="412.5"/>
							<g class="st5">
								<g>
									<defs>
										<rect id="SVGID_11_" x="5.2" y="-52.1" width="1299.3" height="551.8"/>
									</defs>
									<clipPath id="SVGID_12_">
										<use xlink:href="#SVGID_11_"  style="overflow:visible;"/>
									</clipPath>
									<g class="st6">
										<polygon class="st7" points="426.2,-640 485.6,286.5 545.1,-640 										"/>
										<polygon class="st7" points="142.8,-576.2 485.6,286.5 255.9,-613 										"/>
										<polygon class="st7" points="-107,-428.1 485.6,286.5 -10.8,-498 										"/>
										<polygon class="st7" points="-298.8,-210 485.6,286.5 -228.9,-306.2 										"/>
										<polygon class="st7" points="-413.8,56.7 485.6,286.5 -377.1,-56.4 										"/>
										<polygon class="st7" points="-440.8,345.9 485.6,286.5 -440.8,227 										"/>
										<polygon class="st7" points="-377.1,629.3 485.6,286.5 -413.8,516.2 										"/>
										<polygon class="st7" points="-228.9,879.1 485.6,286.5 -298.8,782.9 										"/>
										<polygon class="st7" points="-10.8,1070.9 485.6,286.5 -107,1001 										"/>
										<polygon class="st7" points="255.9,1185.9 485.6,286.5 142.8,1149.2 										"/>
										<polygon class="st7" points="545.1,1212.9 485.6,286.5 426.2,1212.9 										"/>
										<polygon class="st7" points="828.4,1149.2 485.6,286.5 715.4,1185.9 										"/>
										<polygon class="st7" points="1078.3,1001 485.6,286.5 982.1,1070.9 										"/>
										<polygon class="st7" points="1270.1,782.9 485.6,286.5 1200.2,879.1 										"/>
										<polygon class="st7" points="1385.1,516.2 485.6,286.5 1348.3,629.3 										"/>
										<polygon class="st7" points="1412.1,227 485.6,286.5 1412.1,345.9 										"/>
										<polygon class="st7" points="1348.3,-56.3 485.6,286.5 1385.1,56.7 										"/>
										<polygon class="st7" points="1200.2,-306.2 485.6,286.5 1270.1,-210 										"/>
										<polygon class="st7" points="982.1,-498 485.6,286.5 1078.3,-428.1 										"/>
										<polygon class="st7" points="715.4,-613 485.6,286.5 828.5,-576.2 										"/>
									</g>
								</g>
							</g>
						</g>
					</g>
				</g>
			</g>
		</g>
	</g>
</g>
</svg>
