<svg width="197px" height="147px" viewBox="0 0 197 147" version="1.1" xmlns="http://www.w3.org/2000/svg" xmlns:xlink="http://www.w3.org/1999/xlink">
    <!-- Generator: Sketch 44 (41411) - http://www.bohemiancoding.com/sketch -->
    <desc>Created with Sketch.</desc>
    <defs></defs>
    <g id="Page-1" stroke="none" stroke-width="1" fill="none" fill-rule="evenodd">
        <g id="Первая" transform="translate(-90.000000, -120.000000)" fill-rule="nonzero">
            <g id="dunkel" transform="translate(90.000000, 120.000000)">
                <path d="M2.60690634,134.576549 C11.5355605,135.747345 20.5945601,135.617257 29.5232143,136.397788 C33.7594371,136.788053 37.9956599,136.853097 42.2318827,137.04823 C44.1870624,137.178319 45.8815516,139.19469 47.9670766,139.584956 C50.7043283,140.10531 53.4415799,140.040265 56.1788316,140.170354 C63.73886,140.495575 70.5168165,144.007965 77.7509816,141.080973 C83.9423841,138.544248 89.9382687,143.682743 96.5207072,145.438938 C113.139735,149.926991 129.889108,139.324779 146.834,137.633628 C155.110927,136.788053 162.866474,133.730973 170.947883,131.779646 C172.772718,131.324336 174.597552,131.194248 176.487559,130.999115 C178.573084,130.803982 181.179991,131.389381 183.13517,130.478761 C185.025177,129.633186 186.524149,128.917699 188.609674,128.917699 C189.913127,128.917699 190.043472,129.177876 190.760371,127.942035 C190.890717,127.681858 190.890717,127.226549 190.760371,127.031416 C190.499681,126.576106 190.108645,126.315929 189.782781,125.860619 C189.652436,125.600442 189.326573,125.795575 189.326573,126.120796 L189.326573,126.380973 C188.02312,125.665487 186.328631,123.388938 185.611731,122.608407 C184.177933,121.112389 182.809307,120.396903 180.984473,119.876549 C177.334804,118.770796 173.294099,118.965929 169.579257,119.030973 C161.56302,119.161062 153.546783,119.681416 145.530546,119.941593 C137.253619,120.20177 128.976691,120.266814 120.699763,119.421239 C112.422836,118.575664 104.471772,115.843805 96.2600166,114.412832 C89.2213694,113.176991 82.3782403,115.323451 75.6654565,117.990265 C72.7326868,119.161062 69.7347446,120.396903 66.7368023,121.242478 C63.2174787,122.218142 59.6981552,121.89292 56.1136589,121.697788 C51.4864002,121.502655 47.1850047,121.177434 43.0791272,124.364602 C41.8408467,125.340265 38.5822138,124.819912 37.0832427,124.95 C34.541509,125.210177 31.9997753,125.470354 29.4580416,125.860619 C20.4642148,127.356637 11.5355605,128.072124 2.54173368,129.307965 C-0.0651726585,129.633186 -0.0651726585,134.186283 2.60690634,134.576549 Z" id="Shape" fill="#F2F2F2"></path>
                <g id="Group" transform="translate(12.382805, 0.000000)">
                    <path d="M0.195517975,5.20353982 C0.456208609,12.9438053 1.5641438,21.2044248 6.25657521,27.6438053 C8.60279092,30.8960177 11.3400426,33.5628319 14.7290208,35.6442478 C17.7269631,37.530531 21.376632,38.9615044 23.853193,41.5632743 C24.048711,41.9535398 24.2442289,42.2137168 24.3745743,42.2787611 C23.9835383,43.059292 23.5925024,43.9048673 23.2666391,44.7504425 C22.5497398,46.8318584 22.4845672,48.9783186 23.1362938,51.0597345 C24.048711,54.3119469 27.8938978,56.1331858 28.3501064,59.320354 C28.8714877,63.0278761 27.5680345,67.3858407 27.2421712,71.1584071 C26.8511353,75.5163717 26.72079,79.8743363 27.3073439,84.2323009 C28.4152791,92.8181416 32.1301206,100.428319 39.0384224,105.826991 C41.8408467,108.038496 45.4905156,109.989823 47.1198321,113.30708 C48.4232852,116.038938 46.2725875,119.030973 46.5332781,121.89292 C46.7287961,124.559735 48.0322493,127.031416 50.3132923,128.527434 C50.9650189,128.917699 51.6167455,129.24292 52.2684721,129.503097 C52.3336447,129.568142 52.3988174,129.69823 52.4639901,129.828319 C52.5943354,130.088496 52.7246807,130.348673 52.9201987,130.673894 C55.3967597,134.121239 58.8509106,136.397788 63.2826514,135.812389 C70.4516438,134.836726 73.840622,129.69823 74.9485572,123.584071 C89.2865421,123.25885 103.95039,122.673451 117.506303,117.925221 C121.221145,116.624336 125.001159,114.54292 128.846346,113.632301 C129.041864,113.567257 132.235324,112.981858 132.170151,113.762389 C131.974633,115.388496 130.931871,116.754425 130.606008,118.380531 C129.889108,121.89292 130.345317,125.340265 133.408432,127.55177 C134.386022,128.202212 135.428784,128.657522 136.536719,128.852655 C139.73018,132.560177 145.269856,133.926106 149.897114,131.649558 C155.762654,128.722566 157.066107,122.413274 155.632308,116.494248 C155.045754,114.217699 153.546783,110.965487 154.524373,108.623894 C155.371618,106.607522 157.261625,105.111504 158.630251,103.35531 C159.34715,105.696903 160.389912,107.973451 162.214747,109.469469 C166.516142,113.111947 171.404092,113.372124 175.509969,111.420796 C180.267573,110.380088 184.243105,106.022124 183.85207,100.75354 C183.591379,97.5013274 178.507912,96.330531 177.791012,99.9079646 C177.465149,101.729204 176.487559,103.485398 175.118933,104.721239 C173.554789,105.50177 171.534437,105.306637 170.100639,103.550442 C167.884768,100.883628 167.363387,97.1761062 166.907178,93.8588496 C166.385797,90.2814159 166.059934,86.3137168 164.104754,83.1265487 C162.019229,79.7442478 158.956114,77.5977876 155.241272,76.1668142 C145.791237,72.5893805 135.950166,69.4022124 125.848404,67.9712389 C117.050095,66.7353982 106.687642,67.7761062 98.6714049,63.4831858 C94.6307001,61.3367257 91.1113765,58.279646 87.0054991,56.3283186 C83.4210028,54.6371681 79.1196074,54.5070796 77.7509816,50.2792035 C74.8833846,41.3681416 72.8630322,32.0668142 68.496464,23.7411504 C66.0850757,19.1880531 63.0219607,14.8951327 59.0464286,11.6429204 C53.050544,5.20353982 43.6005085,2.60176991 34.9325449,5.59380531 C32.3256386,6.50442478 29.3276963,8.00044248 26.4600993,8.00044248 C24.048711,7.93539823 21.8328406,7.15486726 19.6821429,6.11415929 C15.3155747,3.90265487 11.0141793,1.56106195 6.1262299,0.650442478 C3.25863292,0.130088496 0.0651726585,1.95132743 0.195517975,5.20353982 Z M11.2748699,11.7079646 C13.2300497,12.6185841 15.0548841,13.7243363 16.9448912,14.5699115 C21.376632,16.5212389 26.134236,17.4969027 30.9570128,16.1960177 C35.3235809,15.0252212 40.0160123,12.1632743 44.6432711,13.2690265 C48.5536306,14.179646 51.7470908,16.1309735 53.8326159,19.5783186 C54.8753784,21.3345133 56.5698675,21.8548673 58.0688387,21.5946903 C63.1523061,29.4650442 64.4557592,38.3761062 66.8019749,47.2871681 C67.9099101,51.3849558 68.8875,57.3690265 72.4068236,60.2309735 C75.8609745,63.0278761 80.1623699,63.4181416 83.9423841,65.629646 C87.9179163,67.9061947 91.6327578,70.7030973 95.8689806,72.5243363 C100.170376,74.3455752 104.667289,75.2561947 109.294548,75.7115044 C114.378016,76.2318584 119.461483,76.2969027 124.479778,76.9473451 C129.4329,77.5977876 134.386022,78.7035398 139.208798,79.9393805 C143.836057,81.110177 148.854352,81.890708 153.351265,83.5168142 C151.98264,84.2973451 151.070222,85.7933628 151.656776,87.6146018 C153.025402,91.7774336 154.654719,96.2654867 151.135395,99.7778761 C148.332971,102.574779 145.85641,105.306637 145.465374,109.404425 C145.074338,113.30708 146.964345,116.754425 146.964345,120.592035 C146.964345,123.779204 144.031575,124.559735 142.597777,121.697788 C142.011223,120.526991 140.772942,119.74646 139.404316,119.486283 C139.469489,119.29115 139.534662,119.161062 139.599834,118.965929 C139.860525,118.315487 140.121216,117.730088 140.316734,117.079646 C140.70777,115.45354 141.098806,113.437168 140.577424,111.811062 C139.599834,108.819027 137.644655,106.672566 134.711885,105.50177 C131.192561,104.070796 127.47772,104.851327 123.893224,105.892035 C120.3739,106.932743 116.854577,107.713274 113.27008,108.233628 C98.4758869,110.380088 83.6165208,111.030531 68.7571547,111.290708 C65.4333491,111.355752 62.3050615,114.152655 62.4354068,117.6 C62.4354068,117.990265 62.5657521,120.65708 62.4354068,122.218142 C61.4578169,120.917257 60.4150544,119.811504 58.9160833,119.030973 C59.2419465,117.209735 59.3071192,115.518584 59.0464286,113.632301 C58.5250473,110.119912 56.6350402,106.737611 54.1584792,104.200885 C49.5963931,99.5176991 42.8184366,96.4606195 40.5373936,89.8911504 C38.1911779,83.0615044 38.4518685,76.0367257 39.2991131,68.8818584 C39.7553217,64.9792035 40.4070482,61.2066372 39.885667,57.3690265 C39.3642857,53.6615044 37.2787606,50.9946903 34.737027,48.3929204 C34.541509,48.1977876 34.4111637,48.0026549 34.2808184,47.8725664 C34.2808184,47.8075221 34.345991,47.7424779 34.345991,47.7424779 C35.1280629,45.9212389 35.5842715,44.4252212 35.8449622,42.4088496 C36.2359981,39.0265487 33.3032285,35.3190265 30.8266675,33.3026549 C25.8735454,29.3349558 18.509035,26.9933628 15.1200568,21.4646018 C13.4255676,18.4075221 12.1872871,15.0902655 11.2748699,11.7079646 Z" id="Shape" fill="#FFFFFF"></path>
                    <path d="M157.457143,98.8022124 C158.239215,94.1190265 158.630251,88.6553097 155.632308,84.4924779 C153.611956,81.7606195 151.591604,78.9637168 148.463316,77.4026549 C143.379849,74.9309735 138.361554,73.8902655 132.756705,74.4756637 C130.41049,74.7358407 128.064274,74.9960177 125.783231,75.3212389 C120.048037,74.1504425 114.378016,72.8495575 108.707994,71.3535398 C102.777282,69.7924779 96.7813978,68.1663717 90.9810312,66.15 C89.8079234,65.7597345 88.6348155,65.369469 87.4617077,64.9141593 C86.8751537,64.7190265 85.4413553,64.0685841 84.919974,63.8734513 C83.6165208,63.2880531 82.3130676,62.6376106 81.0747871,61.9871681 C79.5106433,61.1415929 74.6878666,60.2309735 73.1888955,59.2553097 C72.6023415,51.1247788 68.8875,43.1243363 65.2378311,35.3840708 C62.5005795,29.5951327 63.8040326,23.2858407 58.7205653,19.3181416 C56.9609035,17.9522124 55.2012417,16.7163717 53.3112346,15.6756637 C48.1625946,9.43141593 39.6249763,6.95973451 32.1301206,11.3176991 C31.478394,11.7079646 30.8918401,12.0982301 30.3704588,12.5535398 C29.6535596,12.0331858 28.7411424,11.0575221 27.8287252,11.1225664 C23.1362938,11.7079646 19.2911069,10.7323009 15.641438,7.80530973 C12.2524598,5.07345133 6.19140255,8.19557522 7.36451041,12.8787611 C9.18934484,20.0336283 11.3400426,26.1477876 17.0752365,31.2862832 C20.0731788,33.9530973 23.5273297,34.3433628 26.9163079,36.4247788 C28.0242431,37.9858407 29.392869,42.6039823 30.9570128,43.7097345 C30.6311495,45.4659292 29.197351,47.2221239 29.2625237,49.0433628 C29.3276963,50.9946903 31.86943,52.490708 33.4335738,53.1411504 L33.4335738,53.2061947 C33.4987465,55.8730088 33.4987465,58.6048673 33.3684011,61.2716814 C32.7818472,73.3048673 31.8042573,87.5495575 39.494631,97.8265487 C43.1442999,102.639823 47.1850047,106.672566 52.2032994,109.599558 C54.1584792,113.957522 55.4619324,118.510619 53.8977886,123.25885 C52.5291627,127.55177 58.199184,130.803982 61.3274716,127.811947 C63.934378,130.023451 69.0178453,128.917699 68.9526727,124.49469 C68.8875,121.697788 68.8875,118.900885 68.8223273,116.103982 C71.4292337,116.819469 74.1013127,115.388496 76.8385643,115.778761 C91.1113765,117.795133 105.644879,118.965929 119.265965,113.892478 C122.459425,112.721681 125.327022,110.835398 127.412547,108.493805 C130.41049,109.014159 133.343259,109.469469 136.341202,109.859735 C136.341202,110.315044 136.406374,110.70531 136.536719,111.160619 C137.383964,114.282743 137.579482,117.339823 137.188446,120.526991 C136.927755,122.998673 139.469489,125.080088 141.750532,125.080088 L141.94605,125.080088 C143.640539,126.380973 146.508136,128.462389 148.007107,126.706195 C148.919525,125.665487 149.766769,123.063717 151.070222,122.543363 C153.025402,121.697788 151.461258,119.29115 151.200568,117.404867 C150.809532,114.868142 152.373675,112.266372 151.98264,109.729646 C151.852294,108.949115 151.461258,108.363717 150.939877,107.843363 C153.872647,105.892035 156.870589,102.379646 157.457143,98.8022124 Z" id="Shape" fill="#4F4F4F"></path>
                    <path d="M8.66796358,12.8137168 C8.53761826,14.5699115 9.71072611,16.8464602 10.2321074,18.5376106 C10.8186613,20.3588496 11.4703879,22.1150442 12.2524598,23.8712389 C14.4683302,29.139823 17.7921358,30.5707965 22.4193945,33.6929204 C22.7452578,34.2783186 23.2014664,34.2132743 23.7228477,34.6685841 C25.6128548,36.3597345 27.5028619,38.050885 29.3276963,39.7420354 C29.6535596,40.3924779 30.0445956,44.9455752 30.5659768,45.4659292 C31.478394,46.4415929 33.3684011,46.5066372 34.2156457,45.4659292 C38.3866958,40.5876106 48.6839759,32.2619469 43.9915445,25.0420354 C43.0791272,23.6110619 41.1891202,23.350885 39.9508396,24.5216814 C36.9528974,27.3185841 32.4559839,31.0911504 27.9590705,29.7902655 C24.7656102,28.879646 23.2666391,26.3429204 22.2238765,23.4159292 C20.3338694,18.2123894 19.0304163,12.2933628 13.7514309,9.36637168 C11.0141793,7.80530973 8.86348155,10.1469027 8.66796358,12.8137168 Z" id="Shape" fill="#AD753D"></path>
                    <path d="M139.078453,107.388053 C140.121216,108.233628 141.163978,109.079204 142.206741,109.924779 C143.119158,110.640265 143.119158,112.201327 143.249503,113.372124 C144.683302,112.136283 146.899172,111.160619 148.658834,112.331416 C153.481611,115.518584 149.636424,122.868584 147.616071,126.771239 C146.1171,129.763274 141.620187,127.09646 143.119158,124.169469 C143.770885,122.868584 144.357439,121.502655 144.87882,120.136726 C143.640539,121.89292 141.815705,123.25885 139.925698,124.169469 C137.644655,125.340265 135.037748,122.998673 136.406374,120.65708 C137.449137,118.835841 138.035691,117.079646 138.166036,114.99823 C138.296381,112.916814 136.862583,112.266372 135.428784,111.095575 C132.821878,108.884071 136.471547,105.241593 139.078453,107.388053 Z" id="Shape" fill="#AD753D"></path>
                    <path d="M52.1381268,124.039381 C53.6370979,120.852212 53.8977886,117.339823 54.0933065,113.892478 C54.2236518,111.550885 57.8081481,110.054867 58.9160833,112.591593 C59.2419465,113.30708 59.5678098,114.022566 59.8936731,114.738053 C60.5453997,114.087611 61.5881623,113.762389 62.5005795,113.957522 C64.9119678,114.477876 67.3233562,114.99823 69.7347446,115.583628 C71.0381977,115.843805 72.0157876,117.469912 71.559579,118.770796 C69.5392266,124.039381 71.6247517,128.592478 65.9547304,130.60885 C63.6085147,131.454425 57.6778027,129.503097 58.4598746,127.681858 C57.0912488,127.746903 55.722623,127.876991 54.4191698,127.942035 C52.2684721,128.072124 51.3560549,125.665487 52.1381268,124.039381 Z" id="Shape" fill="#AD753D"></path>
                    <path d="M36.0404801,73.1747788 C36.8877247,70.9632743 37.8001419,70.5079646 38.4518685,73.1747788 C40.1463576,80.2646018 41.9060194,87.2893805 43.6005085,94.3792035 C44.3174078,97.2411504 44.5780984,99.9730088 47.1198321,101.794248 C48.9446665,103.160177 50.7695009,104.396018 51.7470908,106.542478 C53.050544,109.534513 48.6188032,110.900442 47.2501774,107.843363 C46.2725875,105.631858 43.7960265,105.892035 42.1015374,104.330973 C41.6453288,103.940708 42.6229186,102.834956 42.2970553,102.314602 C40.8632569,103.030088 37.1484153,99.0623894 36.8877247,96.850885 C36.3663434,92.2977876 34.9977176,92.2977876 33.5639191,88.0048673 C31.86943,83.0615044 34.2808184,77.8579646 36.0404801,73.1747788 Z" id="Shape" fill="#AD753D"></path>
                    <g transform="translate(3.910360, 3.252212)" id="Shape" fill="#303030">
                        <path d="M68.5616367,111.94115 C67.9099101,114.282743 67.2581835,116.494248 66.606457,118.640708 C66.1502483,120.136726 66.019903,121.632743 66.0850757,123.193805 C66.0850757,124.039381 65.8895577,124.95 65.5636944,125.795575 C65.3681764,126.250885 64.9119678,126.771239 64.4557592,126.836283 C61.7185076,127.486726 58.9160833,128.332301 56.0484863,128.137168 C52.5291627,127.942035 52.3336447,125.860619 53.3764073,123.323894 C53.5719253,122.868584 53.8326159,122.413274 54.1584792,122.153097 C55.331587,121.177434 55.6574503,119.876549 55.5922777,118.445575 C55.527105,116.234071 55.331587,114.022566 55.2012417,111.876106 C55.2012417,111.550885 55.0057237,111.225664 54.8753784,110.900442 C49.7267384,110.575221 45.8163789,107.583186 42.1015374,104.526106 C40.1463576,102.9 38.1911779,101.20885 36.3663434,99.4526549 C32.1952933,95.4849558 29.6535596,90.6716814 29.001833,84.9477876 C28.6759697,82.2809735 29.0670057,79.6141593 29.5883869,76.9473451 C30.1749409,73.8902655 30.3704588,70.8331858 30.2401135,67.7110619 C30.1097682,64.2637168 30.8266675,60.8814159 31.8042573,57.5641593 C32.1952933,58.279646 32.1301206,59.060177 32.1301206,59.840708 C32.1301206,60.8814159 31.9997753,61.9871681 32.1952933,63.0278761 C33.3684011,68.7517699 33.3032285,74.4756637 31.86943,80.1995575 C30.7614948,84.6225664 31.478394,88.720354 33.6942644,92.5579646 C34.4763363,93.9238938 35.6494442,95.1597345 37.0832427,96.1353982 C38.8429044,97.3061947 40.3418756,98.9323009 42.0363647,100.233186 C44.6432711,102.249558 47.31535,104.135841 49.987429,106.022124 C51.1605369,106.867699 52.3336447,107.64823 53.5719253,108.363717 C53.8977886,108.55885 54.2888245,108.55885 54.8102058,108.623894 L54.8102058,106.022124 L55.1360691,106.022124 C55.4619324,106.737611 55.918141,107.453097 56.0484863,108.233628 C56.3091769,109.339381 56.8305582,110.054867 58.0688387,110.315044 C57.6778027,110.510177 57.2867668,110.640265 56.7653855,110.900442 C57.6778027,115.583628 59.1116012,120.331858 57.2215941,125.210177 C58.199184,125.535398 59.1767739,125.730531 60.2847091,125.275221 C61.1319536,124.95 62.1747162,124.95 63.0871334,124.689823 C64.6512772,124.364602 65.0423132,123.779204 64.9119678,122.153097 C64.7816225,120.787168 64.7816225,119.421239 64.7816225,118.05531 C64.7816225,115.323451 65.8895577,112.786726 66.9323202,110.380088 C68.1054281,107.64823 68.3661187,104.721239 68.8875,101.859292 C69.0178453,101.013717 69.1481906,100.168142 69.3437086,99.2575221 C69.083018,103.160177 70.2561258,107.062832 68.7571547,111.160619 C69.5392266,111.160619 70.0606079,111.290708 70.5168165,111.225664 C74.5575213,110.445133 78.6633988,110.965487 82.6389309,111.355752 C87.9830889,111.876106 93.2620743,111.615929 98.5410596,110.70531 C99.5838221,110.510177 100.496239,110.25 101.604175,110.70531 C102.386246,111.030531 103.559354,110.510177 104.536944,110.25 C107.404541,109.469469 110.272138,108.623894 113.139735,107.843363 C113.400426,107.778319 113.791462,107.778319 113.98698,107.583186 C116.463541,105.566814 119.526656,105.306637 122.459425,104.721239 C124.675296,104.265929 126.891166,104.200885 129.367727,103.875664 C129.107036,103.420354 128.976691,103.095133 128.781173,102.769912 C127.47772,100.948673 126.825993,98.8672566 126.369785,96.6557522 C126.043921,95.029646 125.457368,93.4685841 125.652886,91.7123894 C125.783231,90.7367257 126.043921,89.8911504 127.151857,89.1756637 C127.47772,91.8424779 128.520482,94.0539823 128.976691,96.5256637 C129.237382,97.8265487 130.280144,99.0623894 131.192561,100.168142 C132.170151,101.338938 133.473605,102.249558 134.711885,103.225221 C136.471547,104.59115 138.100863,106.022124 138.948108,108.168584 C139.404316,109.339381 140.121216,110.380088 140.70777,111.485841 C142.011223,113.957522 142.076395,116.624336 141.815705,119.29115 C141.750532,120.20177 141.098806,121.047345 140.70777,121.89292 C142.141568,122.673451 144.227093,122.608407 145.204683,121.632743 C145.660892,121.177434 145.791237,120.396903 145.921582,119.681416 C146.1171,118.315487 146.051928,116.949558 146.182273,115.648673 C146.377791,113.827434 146.247446,112.071239 145.595719,110.380088 C144.748474,108.038496 144.87882,105.761947 146.182273,103.550442 C147.616071,101.013717 149.04987,98.4769912 150.222978,95.810177 C150.874704,94.3141593 151.721949,92.8181416 151.526431,91.0619469 C151.461258,90.6716814 151.526431,90.2163717 151.656776,89.8261062 C152.569193,87.0942478 151.396086,84.9477876 149.766769,82.9314159 C146.442964,78.8986726 142.402259,75.6464602 137.383964,74.1504425 C134.907403,73.4349558 132.170151,73.4349558 129.628418,73.1747788 C128.716,73.0446903 127.868756,72.979646 126.956339,72.8495575 C126.565303,72.7845133 126.109094,72.6544248 125.718058,72.5893805 C121.872871,72.3292035 117.962512,71.8088496 114.117325,71.8088496 C110.793519,71.8738938 107.600059,71.2884956 104.341426,70.9632743 C102.386246,70.7681416 100.496239,70.1176991 98.6062323,69.5323009 C95.8689806,68.6867257 93.0665563,68.1013274 90.5248226,66.6053097 C88.8303335,65.629646 87.0706717,64.7840708 85.2458373,63.8734513 C82.443413,62.5075221 79.4454707,61.6619469 76.3823557,61.2066372 C72.1461329,60.6212389 68.9526727,58.6048673 66.2805937,55.4176991 C63.8692053,52.5557522 62.6309248,49.1734513 61.5229896,45.7261062 C61.066781,44.2951327 60.6105724,42.8641593 60.2847091,41.4331858 C59.5678098,38.2460177 59.0464286,34.9938053 58.394702,31.8066372 C57.8081481,29.0097345 57.0912488,26.2128319 56.3091769,23.4809735 C55.1360691,19.4482301 52.855026,16.0659292 49.4660478,13.5292035 C47.0546594,11.7079646 44.7736164,9.62654867 41.9711921,8.39070796 C40.5373936,7.80530973 39.1035951,7.2199115 37.6046239,6.95973451 C35.7797895,6.56946903 34.2156457,7.35 32.7818472,8.39070796 C31.2828761,9.43141593 29.6535596,10.2119469 27.8287252,10.1469027 C26.525272,10.0818584 25.2218188,9.88672566 23.9183657,9.56150442 C21.181114,8.91106195 18.509035,8.06548673 15.836956,7.35 C13.7514309,6.76460177 11.7310785,6.17920354 9.64555345,5.59380531 C8.21175497,5.20353982 7.62520104,5.39867257 6.9083018,6.56946903 C6.45209319,7.35 6.1262299,8.19557522 5.8003666,8.97610619 C5.40933065,10.0818584 4.95312204,11.1225664 3.64966887,11.3827434 C2.86759697,11.5778761 1.69448912,10.3420354 1.23828051,8.97610619 C0.456208609,6.43938053 0.391035951,3.96769912 1.43379849,1.43097345 C1.8900071,0.325221239 2.3462157,-0.0650442478 3.4541509,0.195132743 C4.56208609,0.520353982 5.73519395,0.780530973 6.64761116,1.69115044 C7.16899243,2.14646018 7.82071902,2.47168142 8.4724456,2.73185841 C10.29728,3.38230088 12.1872871,3.90265487 14.0772942,4.4880531 C16.6190279,5.20353982 19.1607616,5.78893805 21.6373226,6.50442478 C24.5049196,7.41504425 27.2421712,7.08982301 29.7839049,5.65884956 C32.5211566,4.03274336 35.2584082,3.77256637 38.1911779,4.94336283 C40.9936022,6.04911504 43.9263718,7.02477876 46.5332781,8.58584071 C49.5312204,10.3420354 52.3988174,12.4884956 55.0708964,14.7 C56.8957308,16.1960177 58.0688387,18.3424779 59.1767739,20.4889381 C61.1971263,24.3915929 62.2398888,28.619469 63.347824,32.8473451 C64.2602412,36.229646 65.2378311,39.6119469 66.2805937,42.9942478 C67.3233562,46.3765487 68.5616367,49.7588496 69.6695719,53.1411504 C70.3864711,55.4827434 71.8202696,56.8486726 74.3620033,57.1738938 C75.7958018,57.3690265 77.1644276,57.759292 78.5982261,58.019469 C81.9220317,58.7349558 84.8548013,60.4261062 87.6572256,62.1823009 C90.7203406,64.0685841 93.9789735,65.369469 97.3679518,66.15 C101.213139,67.0606195 105.123498,67.6460177 108.968685,68.2964602 C110.728347,68.5566372 112.553181,68.5566372 114.312843,68.6867257 C118.15803,69.0119469 122.003217,69.3371681 125.848404,69.7274336 C128.846346,69.9876106 131.909461,70.2477876 134.907403,70.6380531 C136.341202,70.8331858 137.840173,71.2884956 139.208798,71.8738938 C141.359496,72.7845133 143.640539,73.6300885 145.400201,74.9960177 C147.746417,76.7522124 149.766769,79.0287611 151.852294,81.1752212 C152.634366,81.9557522 153.090575,82.9964602 153.611956,84.0371681 C153.872647,84.5575221 153.937819,85.1429204 153.742301,85.8584071 C153.481611,86.7690265 153.807474,87.8097345 153.872647,88.8504425 C154.002992,90.6716814 154.263683,92.5579646 154.133337,94.3792035 C154.068165,95.4199115 153.546783,96.3955752 153.090575,97.3712389 C152.634366,98.3469027 152.047812,99.1924779 151.526431,100.168142 C151.396086,100.363274 151.200568,100.558407 151.135395,100.75354 C150.483668,103.485398 148.919525,105.761947 147.550899,108.10354 C146.899172,109.274336 147.09469,110.640265 147.485726,111.94115 C147.746417,112.786726 148.202625,113.632301 148.202625,114.477876 C148.267798,115.713717 148.137453,117.014602 147.746417,118.185398 C147.355381,119.29115 147.290208,120.396903 147.420553,121.502655 C147.550899,122.608407 147.09469,123.323894 146.1171,123.844248 C144.943992,124.429646 143.836057,125.145133 142.467431,125.275221 C141.68536,125.340265 140.903288,125.730531 140.121216,125.990708 C138.622245,126.511062 136.79741,126.055752 136.145684,124.884956 C135.624302,124.039381 135.55913,123.193805 136.210856,122.413274 C136.667065,121.827876 137.253619,121.242478 137.709827,120.65708 C138.166036,120.071681 138.75259,119.421239 138.882935,118.705752 C139.665007,115.323451 139.013281,112.266372 136.471547,109.79469 C135.102921,108.493805 133.408432,107.518142 131.844288,106.477434 C131.453252,106.217257 130.801526,106.217257 130.280144,106.347345 C126.043921,107.257965 121.938044,108.233628 117.832167,109.729646 C111.771109,111.94115 105.579707,113.697345 99.1927862,114.673009 C94.2396641,115.388496 89.2865421,115.193363 84.3334201,114.673009 C81.3354778,114.347788 78.2723628,113.892478 75.2744205,113.437168 C72.9933775,112.916814 70.8426798,112.39646 68.5616367,111.94115 Z"></path>
                        <path d="M48.6839759,16.8464602 C48.5536306,16.9765487 48.3581126,17.2367257 48.2277673,17.3017699 C45.1646523,18.4075221 43.2094726,20.6840708 41.9711921,23.5460177 C40.8632569,26.0176991 39.9508396,28.4893805 38.8429044,30.9610619 C37.5394513,33.8230088 36.3011708,36.75 34.6718543,39.4168142 C33.1077105,42.0836283 30.3704588,43.2544248 27.4376892,43.9048673 C27.1118259,43.9699115 26.7859626,44.1 26.3949267,44.1650442 C26.2645814,44.2300885 26.1994087,44.360177 26.0690634,44.4902655 C26.134236,44.6853982 26.134236,44.9455752 26.2645814,45.0756637 C27.8287252,47.1570796 29.6535596,48.8482301 32.1301206,49.8238938 C33.1077105,50.2141593 34.0853004,50.6044248 35.1280629,50.929646 C35.7146168,51.1247788 36.4315161,51.2548673 37.0832427,51.189823 C40.1463576,50.9946903 43.2094726,50.669469 45.9467242,49.1734513 C47.5760407,48.3278761 49.0098392,47.1570796 50.573983,46.1163717 C51.1605369,45.7261062 51.7470908,45.2707965 52.3988174,44.8154867 C52.855026,45.7261062 52.3336447,46.3115044 51.9426088,46.8318584 C50.6391556,48.3929204 49.3357025,50.0190265 47.8367313,51.5150442 C46.3377602,53.0110619 44.3825804,53.7915929 42.362228,54.3769912 C40.0160123,55.0924779 37.6697966,54.8973451 35.3235809,54.3119469 C32.5211566,53.6615044 30.2401135,52.230531 28.2197611,50.2141593 C26.9814806,48.9783186 25.8735454,47.6774336 25.0914735,46.1163717 C23.9835383,43.7747788 24.2442289,42.9292035 26.4600993,41.5632743 C27.6332072,40.8477876 28.8714877,40.2623894 30.0445956,39.4818584 C32.3908113,37.9207965 33.6290918,35.5792035 34.9325449,33.1725664 C37.2787606,28.879646 39.494631,24.5216814 42.0363647,20.3588496 C43.4701632,18.0172566 45.6860336,16.5862832 48.4884579,16.3261062 C48.5536306,16.5862832 48.6188032,16.7163717 48.6839759,16.8464602 Z"></path>
                        <path d="M148.984697,75.8415929 C149.310561,75.8415929 149.701596,75.7765487 149.897114,75.9066372 C151.00505,76.4920354 152.178158,77.0774336 153.090575,77.8579646 C155.110927,79.6792035 156.870589,81.630531 158.174042,84.0371681 C159.216805,85.9234513 159.673013,87.8747788 159.933704,89.9561947 C160.32474,92.7530973 160.455085,95.6150442 160.976466,98.4119469 C161.237157,99.7778761 161.823711,101.143805 162.475438,102.379646 C162.801301,102.965044 163.583373,103.420354 164.235099,103.810619 C166.059934,104.851327 167.949941,105.761947 170.165811,105.306637 C172.316509,104.851327 174.076171,103.745575 175.314451,101.794248 C176.617904,99.8429204 176.813422,97.8915929 176.357214,95.6800885 C177.399976,97.3061947 177.399976,98.9323009 176.878595,100.75354 C175.640315,104.851327 172.512027,106.477434 168.66684,107.323009 C167.819596,107.518142 166.907178,107.64823 165.994761,107.713274 C161.693366,107.908407 158.890941,105.306637 158.043697,100.948673 C157.39197,97.6314159 157.13128,94.249115 156.805416,90.8668142 C156.479553,86.899115 155.1761,83.3216814 152.895057,80.1345133 C152.634366,79.7442478 152.178158,79.4840708 151.852294,79.1588496 C150.809532,78.1831858 149.766769,77.2075221 148.724007,76.1668142 C148.919525,76.0367257 148.919525,75.9716814 148.984697,75.8415929 Z"></path>
                        <path d="M26.8511353,37.9207965 C26.2645814,37.3353982 25.6780274,36.75 25.0914735,36.229646 C22.5497398,33.7579646 19.4214522,32.3269912 16.4235099,30.5707965 C12.3828051,28.2292035 9.12417219,25.0420354 6.51726585,21.2044248 C5.14864002,19.1880531 4.75760407,16.8464602 4.43174078,14.3747788 C4.62725875,14.5699115 4.88794939,14.7650442 4.95312204,15.0252212 C5.40933065,16.0659292 5.8003666,17.1066372 6.19140255,18.1473451 C6.9083018,20.0986726 8.34210028,21.4646018 9.84107143,22.7004425 C11.2748699,23.9362832 12.969359,24.9119469 14.4683302,26.0176991 C17.5314451,28.1641593 21.0507687,29.5951327 23.657675,32.3920354 C25.0914735,33.9530973 26.134236,35.709292 27.1118259,37.530531 C27.1118259,37.6606195 26.9814806,37.790708 26.8511353,37.9207965 Z"></path>
                        <path d="M132.561187,119.486283 C133.86464,119.941593 134.777058,120.20177 135.950166,120.592035 C136.145684,120.982301 135.884993,121.437611 135.298439,121.762832 C133.343259,122.933628 131.062216,122.283186 129.889108,120.331858 C129.367727,119.421239 129.4329,118.445575 130.084626,117.665044 C130.67118,116.949558 131.388079,116.299115 132.170151,115.778761 C133.86464,114.738053 134.190504,114.217699 133.473605,112.266372 C133.147741,111.420796 132.62636,110.70531 132.235324,109.924779 C131.909461,109.209292 131.322907,108.428761 132.300497,107.583186 C133.147741,108.10354 133.538777,109.014159 133.86464,109.79469 C134.451194,111.290708 134.84223,112.85177 135.298439,114.347788 C135.81982,116.169027 135.298439,117.6 133.60395,118.575664 C133.408432,118.770796 133.212914,118.965929 132.561187,119.486283 Z"></path>
                        <path d="M49.4008751,121.89292 C50.5088103,122.088053 51.6819182,122.283186 52.7898534,122.478319 C52.7898534,122.738496 52.855026,122.998673 52.7246807,123.063717 C51.6819182,124.364602 49.0750118,124.559735 47.901904,123.453982 C46.9894868,122.543363 46.7939688,121.242478 47.5760407,120.20177 C47.9670766,119.616372 48.5536306,119.161062 49.1401845,118.770796 C50.3132923,117.990265 50.8998463,117.079646 50.7695009,115.648673 C50.6391556,114.54292 50.6391556,113.372124 50.6391556,112.266372 C50.6391556,111.876106 50.7695009,111.485841 50.8346736,110.965487 C51.7470908,111.615929 51.8774361,112.461504 51.9426088,113.242035 C52.0077815,114.673009 51.9426088,116.038938 51.8774361,117.469912 C51.8122635,119.226106 50.7043283,120.396903 49.3357025,121.372566 C49.4008751,121.567699 49.4008751,121.697788 49.4008751,121.89292 Z"></path>
                        <path d="M48.6839759,45.2707965 C49.7919111,43.4495575 50.8998463,41.8884956 51.7470908,40.2623894 C52.7898534,38.2460177 52.7246807,36.1646018 51.8774361,34.0831858 C51.2257096,32.5871681 50.573983,31.0261062 50.5088103,29.3349558 C50.4436377,27.3836283 51.1605369,26.4730088 53.3112346,26.0176991 C50.8998463,27.5137168 51.3560549,29.4650442 51.9426088,31.3513274 C52.4639901,32.8473451 52.9853713,34.3433628 53.5067526,35.9044248 C54.0933065,37.530531 53.5719253,39.0915929 52.855026,40.5876106 C51.9426088,42.3438053 50.6391556,43.9048673 48.6839759,45.2707965 Z"></path>
                        <path d="M34.6718543,13.4641593 C35.2584082,13.9845133 36.1708254,14.2446903 35.9753075,15.2853982 C35.7797895,16.3911504 34.9325449,16.9765487 34.0201277,17.4318584 C33.6942644,17.6269912 32.9121925,17.4318584 32.7818472,17.1716814 C32.5211566,16.7163717 32.3256386,16.000885 32.4559839,15.5455752 C32.7818472,14.6349558 33.5639191,13.919469 34.6718543,13.4641593 Z"></path>
                        <path d="M32.5863292,10.0818584 C33.2380558,10.0818584 33.7594371,10.7323009 33.4335738,11.2526549 C32.9773652,11.9681416 32.4559839,12.5535398 31.86943,13.1389381 C31.673912,13.3340708 31.0873581,13.3340708 30.8918401,13.1389381 C30.6311495,12.8787611 30.3704588,12.4884956 30.3704588,12.0982301 C30.3704588,11.3827434 31.86943,10.0818584 32.5863292,10.0818584 Z"></path>
                    </g>
                </g>
            </g>
        </g>
    </g>
</svg>