<?xml version="1.0" encoding="utf-8"?>
<!-- Generator: Adobe Illustrator 20.1.0, SVG Export Plug-In . SVG Version: 6.00 Build 0)  -->
<svg version="1.1" id="Слой_1" xmlns="http://www.w3.org/2000/svg" xmlns:xlink="http://www.w3.org/1999/xlink" x="0px" y="0px"
	 width="300px" height="300px" viewBox="0 0 300 300" style="enable-background:new 0 0 300 300;" xml:space="preserve">
<style type="text/css">
	.st0{fill:#D24A43;}
</style>
<path class="st0" d="M150.2,243.4c-23.4-19.9-46.9-39.3-69.7-59.6c-13.9-12.4-25.3-27.2-30.8-45.5c-5.2-17.3-5.4-34.5,3.1-50.9
	c8.9-17.1,23.4-26.6,42.5-28.7c20.4-2.3,36.9,5.6,50.3,20.7c1.5,1.7,2.9,3.3,4.5,5.1c3.8-3.9,7.2-7.9,11-11.4
	c23-21.1,58.3-19.6,79.1,3.4c9.3,10.3,13.4,22.7,14,36.4c0.9,22.5-8,41.3-22.1,58.1c-12.3,14.6-27.2,26.6-41.8,38.8
	c-12.8,10.7-25.5,21.5-38.3,32.3C151.4,242.5,150.9,242.9,150.2,243.4z"/>
</svg>
