<?xml version="1.0" encoding="utf-8"?>
<!-- Generator: Adobe Illustrator 20.1.0, SVG Export Plug-In . SVG Version: 6.00 Build 0)  -->
<svg version="1.1" id="Слой_1" xmlns="http://www.w3.org/2000/svg" xmlns:xlink="http://www.w3.org/1999/xlink" x="0px" y="0px"
	 width="586.5px" height="225.9px" viewBox="0 0 586.5 225.9" style="enable-background:new 0 0 586.5 225.9;" xml:space="preserve"
	>
<style type="text/css">
	.st0{fill:#F4961F;}
	.st1{fill:#2767B1;}
</style>
<g>
	<path class="st0" d="M118.8,0.7c13.9,1.7,27.4,6.2,39.3,13.5c18.9,11.5,33.3,30.2,39.7,51.4c5.4,17.7,5.3,37,0.2,54.7
		c-3.7,12.8-9.9,24.8-18.1,35.2c-1.2-6.7-4.4-13.1-9-18.1c-5-5.4-11.6-9.8-18.9-11.2c-2.3-0.5-4.6-0.4-6.9-0.4
		c8.4-2.8,17.8-0.6,24.8,4.5c3.7-11.9,4-24.7,1.7-37c-4.8-24.5-20-46.8-41-60.3c-11.2-7.2-24.1-12-37.5-12.7
		c-12.1-0.8-24.5,2.2-34.5,9c-12.2,8.2-20.8,21-24.8,35c-6.4,21.7-2.6,45.7,8.4,65.3c5.5,10.1,13.7,18.5,23.1,24.9
		c13.7,9.4,29.9,14.9,46.5,15.7c-1.8-5.1-2.4-10.6-1.7-16c0.3,0.7,0.6,1.5,1.1,2.2c2.8,4.1,5.8,8.3,9.8,11.3
		c6.7,4.8,14.1,8.9,22.3,10.5c9.2,1.7,18.7,2.4,27.7,5.1c4.1,1.3,8.2,2.7,12,4.7c5,2.8,9.9,6,14.3,9.6c7.3,5.9,13.5,13.3,17.3,21.9
		c0.7,1.5,1.3,3.2,1.1,4.9h-1.6c-2-4.6-5.4-8.3-8.9-11.8c-9.7-9.9-22-17-35.3-20.7c-9.8-2.7-20.2-3.7-30.4-2.8c-4,0.4-8,1-11.8,2.2
		c-7.1,2.2-14.5,3.2-21.9,3.4c-20.9,0.4-41.9-4.6-60.1-14.9c-11.6-6.6-22-15.7-29.1-27.1C8.5,140,3.7,125.4,2.5,110.4
		c-0.4-4.5-0.4-9.8,0-14.4c1-12.9,4.4-25.7,10.2-37.3c8.4-17.3,21.8-32,38-42.3C64,8,79.4,2.5,95.2,0.7
		C102.8-0.2,111.3-0.2,118.8,0.7L118.8,0.7z M169.9,150.6c1.2-0.6,2.4,0.5,3.2,1.4c1.6,2.1,2.4,4.8,2.3,7.4
		c-0.1,0.8-0.3,1.8-1.2,2.1c-1,0-1.6-0.9-2.1-1.6c-1.2-1.9-2-4-2.7-6.2C169.2,152.7,169,151.3,169.9,150.6L169.9,150.6z
		 M150.8,157.6c4.4-1.6,8.9,2.7,8.8,7.1c0.2,2.4-1.5,5-4,5.3c-4.1,0.6-7.8-3.3-7.7-7.3C147.7,160.6,148.8,158.4,150.8,157.6z"/>
	<path class="st1" d="M246.1,12.4c6.7-4.1,15.1-5.1,22.7-3.3c6,1.5,11.4,5.1,15.1,10.1c4.7,6.3,6.7,14.2,6.9,22
		c0.1,8.1-1.7,16.6-6.4,23.3c-3.4,5-8.5,8.7-14.1,10.8c1.6,5.2,5.6,9.3,10.3,11.9c3.2,1.8,6.7,3.1,10.2,3.9c1,0.3,2.4,0.5,2.9,1.6
		c0.5,1.3,0.2,3-1.1,3.6c-1.3,0.6-2.9,0.3-4.3,0.1c-7.6-1.2-15.1-3.8-21.3-8.3c-4.3-3-7.8-7.3-10-12c-6.3-1.1-12.5-4-16.8-8.8
		c-5.4-6-7.9-14.1-8.3-22.1c-0.3-7,0.6-14.3,3.6-20.7C237.7,19.6,241.4,15.3,246.1,12.4L246.1,12.4z M257.9,16.6
		c-2.2,0.6-4.3,1.8-6,3.3c-3.4,3-5.2,7.5-6,11.9c-1.2,6.2-1.2,12.6-0.3,18.8c0.8,4.9,2.4,10,5.9,13.7c3,3.3,7.6,5.1,12.1,4.2
		c4-0.7,7.4-3.3,9.7-6.6c3.1-4.6,4-10.3,4.4-15.8c0.3-5.7,0-11.4-1.6-16.9c-1.2-3.9-3.2-7.7-6.5-10.3
		C266.2,16.4,261.9,15.4,257.9,16.6L257.9,16.6z M309.2,9.9c3.5-0.4,7-0.1,10.5-0.2c1-0.1,1.6,0.8,1.5,1.7c0,20.5,0,41,0,61.5
		c0.1,0.9-0.4,1.9-1.4,2c-2.5,0.2-5,0-7.4,0.1c-1.1,0-2.2,0.1-3.2-0.4c-0.8-0.4-0.7-1.4-0.7-2.1c0-20.1,0-40.2,0-60.3
		C308.4,11.5,308.3,10.3,309.2,9.9z M335.5,12.3c-0.3-0.9-0.3-2.4,1-2.5c3.4-0.1,6.8,0,10.1,0c1.1-0.1,1.4,1,1.6,1.8
		c3.6,14,7,28,10.6,42c4.1-13.2,8.1-26.4,12.1-39.6c0.4-1.3,0.7-2.7,1.5-3.9c1.3-0.5,2.9-0.2,4.3-0.2c0.9-0.1,1.2,1,1.4,1.7
		c4.4,14.1,8.8,28.1,13.1,42.2c3.7-14,7.1-28.1,10.7-42.2c0.1-0.8,0.7-1.8,1.6-1.7c2.6,0,5.2-0.1,7.8,0c1.1,0,1,1.4,0.8,2.1
		c-0.5,2.5-1.3,4.9-2,7.3c-5,17.9-10.1,35.9-15.1,53.8c-0.2,1-0.8,2.2-2,2c-1.9-0.1-3.9,0.4-5.7-0.4c-0.9-1.6-1.2-3.4-1.9-5.1
		c-4-11.9-7.9-23.7-11.9-35.6c-3.8,12.2-7.7,24.4-11.5,36.6c-0.4,1.2-0.7,2.5-1.2,3.6c-0.2,0.7-1,0.7-1.6,0.7
		c-1.6,0.1-3.3,0.2-4.9,0c-0.9-0.1-1.3-1-1.5-1.7C347.1,52.9,341.3,32.6,335.5,12.3L335.5,12.3z M427.4,10c0.7-0.3,1.6-0.2,2.3-0.2
		c2.9,0.1,5.7-0.1,8.6,0c1.1,0,1.2,1.3,1.2,2.1v60.7c0,0.8,0,2-1,2.2c-1.3,0.3-2.6,0.2-3.9,0.2c-2.2-0.1-4.4,0.2-6.6-0.1
		c-0.9,0-1.4-1-1.3-1.9c0-20.5,0-41,0-61.6C426.8,11,426.8,10.2,427.4,10L427.4,10z M490.1,121c-0.2-1.3,0.7-2.4,2-2.3
		c11,0,22,0,33,0c0.7-0.1,1.5,0.4,1.5,1.1c0,2,0.1,4.1,0,6.1c0,1.2-1.4,1.2-2.3,1.2c-7.2,0-14.5,0-21.7,0c0,6.3,0,12.6,0,18.8
		c6.2,0,12.3,0,18.5,0c0.6,0,1.5,0,1.8,0.7c0.3,1.7,0.1,3.5,0.2,5.3c-0.1,0.7,0.1,1.9-0.9,2.1c-1.1,0.2-2.1,0.1-3.2,0.1
		c-5.5,0-10.9,0-16.4,0c0,7.1,0,14.2,0,21.3c7.2,0,14.5,0,21.7,0c0.8,0,2.1-0.1,2.2,1.1c0.2,1.6,0,3.2,0.1,4.8
		c-0.1,0.8,0.2,1.7-0.4,2.4c-0.9,0.4-1.9,0.4-2.8,0.4c-10.6,0-21.1,0-31.7,0c-1.1,0.1-1.9-0.8-1.7-1.9
		C490,161.8,490,141.4,490.1,121L490.1,121z M540.5,118.9c1.2-0.3,2.5-0.1,3.8-0.2h37.9c0.8,0,2,0.1,2,1v6.1c0,1.6-2,1.3-3.2,1.3
		h-12.6c0,18.4,0,36.7,0,55.1c0.1,0.9-0.5,1.8-1.4,1.8c-3.1,0.1-6.2,0.1-9.3,0c-1.1,0.1-2-0.7-1.8-1.8c0-18.4,0-36.7,0-55.1
		c-4.5,0-9,0-13.5,0c-0.8-0.1-2,0-2.4-0.9c-0.3-1.7-0.1-3.5-0.2-5.3C539.7,120.3,539.6,119.2,540.5,118.9L540.5,118.9z M237,121.4
		c-0.3-0.9-0.4-2.3,0.8-2.5c3.5-0.1,7-0.1,10.5,0c1,0,1.2,1.2,1.4,2c3.5,14,7.1,28,10.6,41.9c4.3-14,8.6-28.1,12.9-42.2
		c0.3-0.6,0.4-1.6,1.2-1.7c1.1-0.1,2.2-0.1,3.3,0c0.8-0.1,1.6,0.2,1.7,1.1c4.5,14.2,8.8,28.5,13.4,42.7c3.6-13.9,7.1-27.9,10.6-41.9
		c0.2-0.8,0.5-1.9,1.6-1.9c2.6-0.1,5.1-0.1,7.7,0c1.6,0,1,2.1,0.8,3.1c-5.6,20-11.3,40.1-16.9,60.1c-0.3,0.8-0.5,2-1.6,2
		c-1.7,0.1-3.4,0.1-5.1,0c-0.7,0-1.3-0.5-1.5-1.1c-4.5-13.3-8.9-26.6-13.4-39.8c-4.1,13.1-8.2,26.1-12.3,39.2
		c-0.3,0.7-0.4,1.7-1.4,1.7c-1.8,0.2-3.7,0.3-5.5,0c-1.4-0.2-1.5-1.9-1.9-3C248.4,161.2,242.7,141.3,237,121.4L237,121.4z
		 M342.5,120.3c0.6-2.2,3.2-1.3,4.9-1.4c1.6,0.2,4.3-0.8,4.9,1.4c7.6,20.6,15.2,41.3,22.8,61.9c0.5,0.9-0.2,2-1.3,1.9
		c-3.4,0.1-6.8,0-10.1,0c-1,0.1-1.7-0.6-2-1.5l-6.8-18.9c-6.2,0-12.4,0-18.6,0c-2.3,6.4-4.5,12.9-6.8,19.3c-0.5,1.5-2.4,1.1-3.6,1.2
		c-2-0.1-4.1,0.3-6.1-0.3c-0.8-0.8-0.1-1.8,0.1-2.7C327.4,160.9,335,140.6,342.5,120.3z M338.6,156.6c4.6,0,9.3,0,13.9,0
		c-2.3-7-4.7-14-7-21C343.2,142.6,340.9,149.6,338.6,156.6z M389.5,119.6c0.3-0.7,1.2-0.7,1.9-0.7c3.1,0,6.2-0.1,9.4,0
		c1.2,0,1.2,1.4,1.2,2.2c0,18.1,0,36.3,0,54.4c7.1,0,14.2,0,21.2,0c0.6,0,1.7,0.1,1.7,1c0,2.2,0.1,4.4,0,6.6c-0.1,1.1-1.5,1-2.4,1.1
		c-10.6,0-21.1,0.1-31.7,0c-1.3,0.1-1.5-1.3-1.5-2.3v-60.3C389.3,120.8,389.3,120.2,389.5,119.6z M440.1,119.2
		c0.7-0.5,1.5-0.3,2.3-0.4c2.8,0,5.7,0,8.5,0c0.8-0.1,1.4,0.7,1.3,1.4c0,18.4,0,36.8,0,55.2c6.5,0,13,0,19.5,0
		c1.1,0,2.2-0.1,3.2,0.3c0.6,1.1,0.3,2.4,0.4,3.6c-0.1,1.4,0.3,3-0.4,4.4c-0.7,0.5-1.6,0.4-2.3,0.4c-10.3,0-20.7,0-31,0
		c-0.9,0.1-2-0.4-1.8-1.5c0-20.2,0-40.5,0-60.7C439.8,121,439.5,120,440.1,119.2L440.1,119.2z"/>
</g>
</svg>
