<?xml version="1.0" encoding="utf-8"?>
<!-- Generator: Adobe Illustrator 20.1.0, SVG Export Plug-In . SVG Version: 6.00 Build 0)  -->
<svg version="1.1" id="Слой_1" xmlns="http://www.w3.org/2000/svg" xmlns:xlink="http://www.w3.org/1999/xlink" x="0px" y="0px"
	 width="500px" height="113.2px" viewBox="0 0 500 113.2" style="enable-background:new 0 0 500 113.2;" xml:space="preserve">
<style type="text/css">
	.st0{fill:#FF9900;}
	.st1{fill:#CC0000;}
	.st2{fill:#FCB340;}
	.st3{fill:#000066;}
	.st4{fill:#FFFFFF;}
	.st5{fill:url(#polygon3052_2_);}
	.st6{fill:url(#path3054_2_);}
	.st7{fill:url(#path3056_2_);}
	.st8{fill:url(#path3058_2_);}
	.st9{fill:url(#path3060_2_);}
	.st10{fill:url(#path3041_2_);}
</style>
<g id="layer1_1_">
	<g id="g10305_1_">
		<path id="path2268_1_" class="st0" d="M500.3,56.7c0,30.8-24.9,55.7-55.7,55.7s-55.7-24.9-55.7-55.7l0,0C388.9,26,413.8,1,444.6,1
			S500.3,25.9,500.3,56.7L500.3,56.7z"/>
		<path id="path1350_1_" class="st1" d="M369.5,1c-30.6,0.2-55.4,25.1-55.4,55.7c0,30.8,25,55.7,55.7,55.7
			c14.4,0,27.6-5.5,37.5-14.5l0,0l0,0c2-1.8,3.9-3.8,5.7-6h-11.4c-1.5-1.8-2.9-3.8-4.2-5.7h19.7c1.2-1.9,2.3-3.9,3.2-6h-26.2
			c-0.9-1.9-1.7-3.9-2.3-5.9h30.8c1.9-5.6,2.9-11.5,2.9-17.7c0-4.1-0.4-8.1-1.3-11.9h-34.1c0.4-2,1-3.9,1.6-5.9h30.9
			c-0.7-2-1.5-4-2.4-6h-26.1c0.9-2,2-4,3.2-5.9H417c-1.3-2.1-2.8-4.1-4.3-6h-11c1.7-2,3.6-3.9,5.6-5.6C397.4,6.5,384.3,1,369.8,1
			C369.7,1,369.6,1,369.5,1z"/>
		<path id="use9412_1_" class="st2" d="M494.7,85.9c0.3,0,0.6,0.1,0.9,0.2c0.3,0.2,0.5,0.4,0.7,0.7c0.2,0.3,0.2,0.6,0.2,0.9
			s-0.1,0.6-0.2,0.9c-0.2,0.3-0.4,0.5-0.7,0.7c-0.3,0.2-0.6,0.2-0.9,0.2s-0.6-0.1-0.9-0.2c-0.3-0.2-0.5-0.4-0.7-0.7
			c-0.2-0.3-0.2-0.6-0.2-0.9s0.1-0.6,0.2-0.9c0.2-0.3,0.4-0.5,0.7-0.7C494.1,85.9,494.4,85.9,494.7,85.9 M494.7,86.2
			c-0.3,0-0.5,0.1-0.7,0.2s-0.4,0.3-0.6,0.6c-0.1,0.2-0.2,0.5-0.2,0.8s0.1,0.5,0.2,0.7s0.3,0.4,0.6,0.6c0.2,0.1,0.5,0.2,0.7,0.2
			c0.3,0,0.5-0.1,0.7-0.2s0.4-0.3,0.6-0.6c0.1-0.2,0.2-0.5,0.2-0.7c0-0.3-0.1-0.5-0.2-0.8c-0.1-0.2-0.3-0.4-0.6-0.6
			C495.2,86.2,495,86.2,494.7,86.2 M493.9,88.7v-1.9h0.7c0.2,0,0.4,0,0.5,0.1c0.1,0,0.2,0.1,0.2,0.2c0.1,0.1,0.1,0.2,0.1,0.3
			c0,0.1-0.1,0.3-0.2,0.4S495,88,494.8,88c0.1,0,0.1,0.1,0.2,0.1c0.1,0.1,0.2,0.2,0.3,0.4l0.2,0.4h-0.4l-0.2-0.3
			c-0.1-0.2-0.2-0.4-0.3-0.5c-0.1,0-0.1-0.1-0.2-0.1h-0.2v0.8L493.9,88.7 M494.2,87.6h0.4c0.2,0,0.3,0,0.4-0.1s0.1-0.1,0.1-0.2
			s0-0.1,0-0.2L495,87c-0.1,0-0.2,0-0.3,0h-0.4L494.2,87.6"/>
	</g>
	<g id="g16480_1_">
		<g id="g13802_1_" transform="translate(-13.74405,15.9939)">
			<path id="path13804_1_" class="st3" d="M402.1,56.7l0.7-5c-0.4,0-1,0.2-1.5,0.2c-2.1,0-2.3-1.1-2.2-1.9l2-10.1h3.1l0.6-5.7h-3
				l0.6-3.5h-6.2c-0.1,0.1-3.5,19.5-3.5,21.9c0,3.5,2,5,4.7,5C399.8,57.5,401.5,56.9,402.1,56.7z"/>
			<path id="path13806_1_" class="st3" d="M404,47.1c0,8.4,5.5,10.4,10.2,10.4c4.4,0,6.6-1,6.6-1l1-5.7c0,0-3.7,1.5-6.7,1.5
				c-6.4,0-5.3-4.8-5.3-4.8H422c0,0,0.8-3.8,0.8-5.4c0-3.9-2.1-8.7-8.6-8.7C408.4,33.4,404,39.9,404,47.1z M414.4,38.7
				c3.3,0,2.7,3.8,2.7,4.1h-6.6C410.5,42.4,411.1,38.7,414.4,38.7z"/>
			<path id="path13808_1_" class="st3" d="M451.9,56.7l1.1-6.5c0,0-2.9,1.5-4.9,1.5c-4.2,0-5.9-3.2-5.9-6.7c0-7,3.6-10.9,7.7-10.9
				c3,0,5.4,1.7,5.4,1.7l1-6.3c0,0-2.9-2.1-5.9-2.1c-9.3,0-14.6,6.4-14.6,17.6c0,7.4,3.9,12.4,11,12.4
				C448.7,57.5,451.9,56.7,451.9,56.7z"/>
			<path id="path13810_3_" class="st3" d="M369.4,33.5c-4.1,0-7.2,1.3-7.2,1.3l-0.9,5.1c0,0,2.6-1,6.5-1c2.2,0,3.8,0.2,3.8,2
				c0,1.1-0.2,1.5-0.2,1.5s-1.7-0.1-2.6-0.1c-5.8,0-10.5,2.2-10.5,8.8c0,5.2,3.5,6.4,5.7,6.4c4.2,0,5.8-2.6,5.9-2.7V57h5.2l2.3-16.3
				C377.6,33.7,371.5,33.5,369.4,33.5z M370.4,46.8c0.1,1-0.3,5.7-3.8,5.7c-1.8,0-2.3-1.4-2.3-2.2c0-1.6,0.9-3.6,5.2-3.6
				C370.4,46.7,370.2,46.8,370.4,46.8z"/>
			<path id="path13812_1_" class="st3" d="M383.1,57.3c1.3,0,9,0.3,9-7.5c0-7.4-7.1-5.9-7.1-8.9c0-1.5,1.2-1.9,3.3-1.9
				c0.8,0,4.1,0.3,4.1,0.3l0.7-5.2c0,0-2.1-0.5-5.5-0.5c-4.4,0-8.8,1.8-8.8,7.7c0,6.8,7.4,6.1,7.4,9c0,1.9-2.1,2.1-3.7,2.1
				c-2.8,0-5.3-1-5.3-0.9l-0.8,5.2C376.6,56.7,378.2,57.3,383.1,57.3z"/>
			<path id="path13814_1_" class="st3" d="M500.9,28.8l-1.1,8c0,0-2.2-3.1-5.7-3.1c-6.6,0-10,6.6-10,14.1c0,4.9,2.4,9.6,7.4,9.6
				c3.6,0,5.5-2.5,5.5-2.5l-0.3,2.1h5.8l4.5-28.2H500.9z M498.3,44.3c0,3.1-1.6,7.3-4.8,7.3c-2.1,0-3.1-1.8-3.1-4.6
				c0-4.6,2.1-7.6,4.7-7.6C497.2,39.4,498.3,40.8,498.3,44.3z"/>
			<path id="path13816_1_" class="st3" d="M337.3,57l3.6-21.3l0.5,21.3h4.1l7.6-21.3L349.8,57h6.1l4.7-28.3l-9.6-0.1L345.2,46
				L345,28.8h-8.8L331.4,57H337.3L337.3,57z"/>
			<path id="path13818_1_" class="st3" d="M428.7,57.1c1.7-9.8,2.3-17.6,7.4-16c0.7-3.8,2.4-7.1,3.2-8.7c0,0-0.2-0.4-1.8-0.4
				c-2.7,0-6.2,5.4-6.2,5.4l0.5-3.3h-5.5l-3.7,23H428.7L428.7,57.1z"/>
			<g id="use14699_1_" transform="translate(845.3001,0)">
				<path id="path13810_2_" class="st3" d="M-380.9,33.5c-4.1,0-7.2,1.3-7.2,1.3l-0.9,5.1c0,0,2.6-1,6.5-1c2.2,0,3.8,0.2,3.8,2
					c0,1.1-0.2,1.5-0.2,1.5s-1.7-0.1-2.6-0.1c-5.8,0-10.5,2.2-10.5,8.8c0,5.2,3.5,6.4,5.7,6.4c4.2,0,5.8-2.6,5.9-2.7V57h5.2
					l2.3-16.3C-372.8,33.7-378.8,33.5-380.9,33.5z M-380,46.8c0.1,1-0.3,5.7-3.8,5.7c-1.8,0-2.3-1.4-2.3-2.2c0-1.6,0.9-3.6,5.2-3.6
					C-379.9,46.7-380.2,46.8-380,46.8z"/>
			</g>
			<path id="use14701_1_" class="st3" d="M478.5,57.1c0.9-7.2,2.7-17.4,7.4-16c0.7-3.8,0-3.8-1.5-3.8c-2.7,0-3.2,0.1-3.2,0.1
				l0.5-3.3h-5.5l-3.7,23H478.5L478.5,57.1z"/>
		</g>
		<g id="g10289_1_">
			<path id="path4157_1_" class="st4" d="M389.9,70.9l0.7-5c-0.4,0-1,0.2-1.5,0.2c-2.1,0-2.3-1.1-2.2-1.9l1.7-10.3h3.1l0.8-5.6h-3
				l0.6-3.5h-5.9c-0.1,0.1-3.5,19.5-3.5,21.9c0,3.5,2,5,4.7,5C387.6,71.7,389.3,71.1,389.9,70.9z"/>
			<path id="path4155_1_" class="st4" d="M391.8,61.3c0,8.4,5.5,10.4,10.2,10.4c4.4,0,6.3-1,6.3-1l1-5.7c0,0-3.3,1.5-6.3,1.5
				c-6.4,0-5.3-4.8-5.3-4.8h12.1c0,0,0.8-3.8,0.8-5.4c0-3.9-1.9-8.7-8.5-8.7C396.2,47.6,391.8,54,391.8,61.3z M402.2,52.9
				c3.3,0,2.7,3.8,2.7,4.1h-6.6C398.3,56.6,398.9,52.9,402.2,52.9z"/>
			<path id="path4151_1_" class="st4" d="M439.7,70.9l1.1-6.5c0,0-2.9,1.5-4.9,1.5c-4.2,0-5.9-3.2-5.9-6.7c0-7,3.6-10.9,7.7-10.9
				c3,0,5.4,1.7,5.4,1.7l1-6.3c0,0-3.6-1.5-6.7-1.5c-6.8,0-13.5,5.9-13.5,17.1c0,7.4,3.6,12.3,10.7,12.3
				C436.5,71.7,439.7,70.9,439.7,70.9z"/>
			<path id="path4149_3_" class="st4" d="M357.3,47.7c-4.1,0-7.2,1.3-7.2,1.3l-0.9,5.1c0,0,2.6-1,6.5-1c2.2,0,3.8,0.2,3.8,2
				c0,1.1-0.2,1.5-0.2,1.5s-1.7-0.1-2.5-0.1c-5.1,0-10.5,2.2-10.5,8.8c0,5.2,3.5,6.4,5.7,6.4c4.2,0,6-2.7,6.1-2.7l-0.2,2.3h5.2
				l2.3-16.3C365.4,47.9,359.4,47.7,357.3,47.7z M358.5,61c0.1,1-0.6,5.7-4.2,5.7c-1.8,0-2.3-1.4-2.3-2.2c0-1.6,0.9-3.6,5.2-3.6
				C358.2,60.9,358.4,61,358.5,61z"/>
			<path id="path4145_1_" class="st4" d="M371,71.5c1.3,0,9,0.3,9-7.5c0-7.4-7.1-5.9-7.1-8.9c0-1.5,1.2-1.9,3.3-1.9
				c0.8,0,4.1,0.3,4.1,0.3l0.7-5.2c0,0-2.1-0.5-5.5-0.5c-4.4,0-8.8,1.8-8.8,7.7c0,6.8,7.4,6.1,7.4,9c0,1.9-2.1,2.1-3.7,2.1
				c-2.8,0-5.3-0.9-5.3-0.9l-0.8,5.2C364.4,70.9,366,71.5,371,71.5z"/>
			<path id="path4139_1_" class="st4" d="M488.9,43l-1.3,7.9c0,0-2.2-3.1-5.7-3.1c-5.4,0-10,6.6-10,14.1c0,4.9,2.4,9.6,7.4,9.6
				c3.6,0,5.5-2.5,5.5-2.5l-0.3,2.1h5.8l4.5-28.2L488.9,43z M486.1,58.5c0,3.1-1.6,7.3-4.8,7.3c-2.1,0-3.1-1.8-3.1-4.6
				c0-4.6,2.1-7.6,4.7-7.6C485,53.6,486.1,55,486.1,58.5z"/>
			<path id="path4133_1_" class="st4" d="M325.1,71.2l3.6-21.3l0.5,21.3h4.1l7.6-21.3l-3.4,21.3h6.1l4.7-28.3H339l-5.8,17.3
				L332.8,43h-8.7l-4.7,28.3L325.1,71.2z"/>
			<path id="path4131_3_" class="st4" d="M416.5,71.3c1.7-9.8,2-17.8,6.2-16.3c0.7-3.8,1.4-5.3,2.2-6.9c0,0-0.4-0.1-1.1-0.1
				c-2.7,0-4.6,3.6-4.6,3.6l0.5-3.3h-5.5l-3.7,23H416.5z"/>
			<g id="use8523_1_" transform="translate(847.0062,0)">
				<path id="path4149_2_" class="st4" d="M-393.6,47.7c-4.1,0-7.2,1.3-7.2,1.3l-0.9,5.1c0,0,2.6-1,6.5-1c2.2,0,3.8,0.2,3.8,2
					c0,1.1-0.2,1.5-0.2,1.5s-1.7-0.1-2.6-0.1c-5.1,0-10.5,2.2-10.5,8.8c0,5.2,3.5,6.4,5.7,6.4c4.2,0,6-2.7,6.1-2.7l-0.2,2.3h5.2
					l2.3-16.3C-385.4,47.9-391.5,47.7-393.6,47.7z M-392.3,61c0.1,1-0.6,5.7-4.2,5.7c-1.8,0-2.3-1.4-2.3-2.2c0-1.6,0.9-3.6,5.2-3.6
					C-392.6,60.9-392.5,61-392.3,61z"/>
			</g>
			<g id="use8525_1_" transform="translate(442.2857,0)">
				<path id="path4131_2_" class="st4" d="M24.1,71.3c1.7-9.8,2-17.8,6.2-16.3c0.7-3.8,1.4-5.3,2.2-6.9c0,0-0.4-0.1-1.1-0.1
					c-2.7,0-4.6,3.6-4.6,3.6l0.5-3.3h-5.5l-3.7,23H24.1z"/>
			</g>
			<path id="text9407_1_" class="st4" d="M494.7,67.7c0.3,0,0.6,0.1,0.9,0.2c0.3,0.2,0.5,0.4,0.7,0.7c0.2,0.3,0.2,0.6,0.2,0.9
				s-0.1,0.6-0.2,0.9c-0.2,0.3-0.4,0.5-0.7,0.7c-0.3,0.2-0.6,0.2-0.9,0.2s-0.6-0.1-0.9-0.2c-0.3-0.2-0.5-0.4-0.7-0.7
				c-0.2-0.3-0.2-0.6-0.2-0.9s0.1-0.6,0.2-0.9c0.2-0.3,0.4-0.5,0.7-0.7C494.1,67.8,494.4,67.7,494.7,67.7 M494.7,68
				c-0.3,0-0.5,0.1-0.7,0.2s-0.4,0.3-0.6,0.6c-0.1,0.2-0.2,0.5-0.2,0.8s0.1,0.5,0.2,0.7s0.3,0.4,0.6,0.6c0.2,0.1,0.5,0.2,0.7,0.2
				c0.3,0,0.5-0.1,0.7-0.2s0.4-0.3,0.6-0.6c0.1-0.2,0.2-0.5,0.2-0.7s-0.1-0.5-0.2-0.8c-0.1-0.2-0.3-0.4-0.6-0.6
				C495.2,68.1,495,68,494.7,68 M493.9,70.5v-1.9h0.7c0.2,0,0.4,0,0.5,0.1c0.1,0,0.2,0.1,0.2,0.2c0.1,0.1,0.1,0.2,0.1,0.3
				c0,0.1-0.1,0.3-0.2,0.4s-0.2,0.2-0.4,0.2c0.1,0,0.1,0.1,0.2,0.1c0.1,0.1,0.2,0.2,0.3,0.4l0.2,0.4h-0.4l-0.2-0.3
				c-0.1-0.2-0.2-0.4-0.3-0.5c-0.1,0-0.1-0.1-0.3-0.1h-0.2v0.8L493.9,70.5 M494.2,69.4h0.4c0.2,0,0.3,0,0.4-0.1s0.1-0.1,0.1-0.2
				s0-0.1,0-0.2l-0.1-0.1c-0.1,0-0.2,0-0.3,0h-0.4L494.2,69.4"/>
		</g>
	</g>
</g>
<g id="g3900_1_">
	<g id="g3891_1_">
		
			<linearGradient id="polygon3052_2_" gradientUnits="userSpaceOnUse" x1="192.8855" y1="792.1047" x2="445.6075" y2="789.7609" gradientTransform="matrix(0.8051 0 0 0.8051 -143.755 -580.2932)">
			<stop  offset="0" style="stop-color:#191E5F"/>
			<stop  offset="1" style="stop-color:#142787;stop-opacity:0.8185"/>
		</linearGradient>
		<polygon id="polygon3052_1_" class="st5" points="102.6,18.7 123.3,18.7 110.3,94.4 89.7,94.4 		"/>
		
			<linearGradient id="path3054_2_" gradientUnits="userSpaceOnUse" x1="10.5245" y1="636.3549" x2="263.2463" y2="634.0112" gradientTransform="matrix(1 0 0 1 0 -578)">
			<stop  offset="0" style="stop-color:#191E5F"/>
			<stop  offset="1" style="stop-color:#142787;stop-opacity:0.8185"/>
		</linearGradient>
		<path id="path3054_1_" class="st6" d="M185.3,21.1c-4.1-1.5-10.5-3.2-18.5-3.2c-20.4,0-34.8,10.3-34.9,25
			c-0.1,10.9,10.3,17,18.1,20.6c8,3.7,10.7,6.1,10.7,9.4c-0.1,5.1-6.4,7.4-12.3,7.4c-8.3,0-12.7-1.1-19.4-4l-2.7-1.2l-2.9,17
			c4.8,2.1,13.7,3.9,23,4c21.7,0,35.8-10.2,35.9-25.9c0.1-8.6-5.4-15.2-17.3-20.6c-7.2-3.5-11.6-5.8-11.6-9.4
			c0-3.1,3.7-6.5,11.8-6.5c6.8-0.1,11.6,1.4,15.4,2.9l1.8,0.9L185.3,21.1"/>
		
			<linearGradient id="path3056_2_" gradientUnits="userSpaceOnUse" x1="10.5324" y1="637.2146" x2="263.2543" y2="634.8708" gradientTransform="matrix(1 0 0 1 0 -578)">
			<stop  offset="0" style="stop-color:#191E5F"/>
			<stop  offset="1" style="stop-color:#142787;stop-opacity:0.8185"/>
		</linearGradient>
		<path id="path3056_1_" class="st7" d="M238.2,19.3h-16c-4.9,0-8.6,1.3-10.8,6.3L180.8,95h21.7c0,0,3.5-9.3,4.3-11.4
			c2.4,0,23.4,0,26.4,0c0.6,2.7,2.5,11.3,2.5,11.3H255L238.2,19.3 M212.8,68.2C214.5,63.8,221,47,221,47c-0.1,0.2,1.7-4.4,2.7-7.2
			l1.4,6.5c0,0,4,18.1,4.8,21.9H212.8L212.8,68.2L212.8,68.2z"/>
		<g id="g3079_1_" transform="matrix(0.8050999,0,0,0.8050999,8.0912245,9.2560348)">
			
				<linearGradient id="path3058_2_" gradientUnits="userSpaceOnUse" x1="391.7923" y1="1043.1379" x2="644.514" y2="1040.7941" gradientTransform="matrix(0.6482 0 0 0.6482 -249.5503 -616.0074)">
				<stop  offset="0" style="stop-color:#191E5F"/>
				<stop  offset="1" style="stop-color:#142787;stop-opacity:0.8185"/>
			</linearGradient>
			<path id="path3058_1_" class="st8" d="M80,12.5L54.9,76.7l-2.7-13c-4.7-15-19.2-31.3-35.5-39.5l23,82.3h27.1l40.4-93.9L80,12.5"
				/>
			
				<linearGradient id="path3060_2_" gradientUnits="userSpaceOnUse" x1="391.4784" y1="1009.3023" x2="644.2002" y2="1006.9585" gradientTransform="matrix(0.6482 0 0 0.6482 -249.5503 -616.0074)">
				<stop  offset="0" style="stop-color:#191E5F"/>
				<stop  offset="1" style="stop-color:#142787;stop-opacity:0.8185"/>
			</linearGradient>
			<path id="path3060_1_" class="st9" d="M31.6,12.5H-9.7l-0.3,2C22.1,22.2,43.4,41,52.2,63.6l-9-43.2
				C41.7,14.4,37.2,12.7,31.6,12.5"/>
		</g>
		
			<linearGradient id="path3041_2_" gradientUnits="userSpaceOnUse" x1="10.2615" y1="608.001" x2="262.9833" y2="605.6572" gradientTransform="matrix(1 0 0 1 0 -578)">
			<stop  offset="0" style="stop-color:#191E5F"/>
			<stop  offset="1" style="stop-color:#142787;stop-opacity:0.8185"/>
		</linearGradient>
		<path id="path3041_1_" class="st10" d="M22.4,31.6c-0.4-1.6-0.9-2.5-2.5-3.4l6.1,2.7"/>
	</g>
</g>
</svg>
