<?xml version="1.0" encoding="utf-8"?>
<!-- Generator: Adobe Illustrator 20.1.0, SVG Export Plug-In . SVG Version: 6.00 Build 0)  -->
<svg version="1.1" id="Слой_1" xmlns="http://www.w3.org/2000/svg" xmlns:xlink="http://www.w3.org/1999/xlink" x="0px" y="0px"
	 width="500px" height="125.9px" viewBox="0 0 500 125.9" style="enable-background:new 0 0 500 125.9;" xml:space="preserve">
<style type="text/css">
	.st0{fill:#4E79B8;}
</style>
<g>
	<g>
		<path class="st0" d="M437.1,0c9.8,0,19.1,2.3,27.4,6.3c1.3,0.6,2.6,1.3,3.9,2l-5.7,5.1l-8.6-8.9l-14.6,13L430.8,8l-27.2,24.5
			L421,51.8l-6.8,6L431.4,77l-6.8,6l24.5,27.3l14.5-13.4l12.6,14.4c-2.5,1.9-5.2,3.8-8.2,5.5c-9.1,5.2-19.6,8.2-30.8,8.2
			c-34.4,0-62.5-28.1-62.5-62.5C374.6,28.1,402.7,0,437.1,0L437.1,0z"/>
		<polygon class="st0" points="425.7,58.5 440.5,45.1 453.9,60 439.1,73.4 		"/>
		<polygon class="st0" points="436.2,84.2 451.1,70.8 464.5,85.7 449.6,99 		"/>
		<polygon class="st0" points="415.1,33.2 429.9,19.8 443.3,34.6 428.4,48 		"/>
		<polygon class="st0" points="442.3,26 453.5,15.9 463.5,27.1 452.3,37.1 		"/>
		<polygon class="st0" points="462.1,71.9 473.2,61.9 483.3,73 472.1,83 		"/>
		<polygon class="st0" points="471.9,94.4 483,84.4 493.1,95.5 481.9,105.5 		"/>
		<polygon class="st0" points="476.4,42.8 483.8,36.1 490.5,43.6 483.1,50.2 		"/>
		<polygon class="st0" points="466.9,20.8 474.3,14.1 481,21.5 473.6,28.2 		"/>
		<polygon class="st0" points="485.9,64.9 493.3,58.2 500,65.6 492.6,72.3 		"/>
		<polygon class="st0" points="452.6,48.4 463.7,38.3 473.8,49.5 462.6,59.5 		"/>
	</g>
	<g>
		<path class="st0" d="M29.6,51.7h-0.5l-9.4,35.6H12L0.4,36.7h8l8,37.7h0.5l9.3-37.7h6.3l9.9,37.7h0.5l7.3-37.7h8.3L46.9,87.3h-7.7
			L29.6,51.7z"/>
		<path class="st0" d="M90.1,79.4v5.4c-3.2,1.9-7.5,3.3-12.6,3.3c-12,0-16.9-7.4-16.9-18.7c0-10.8,5.5-18.7,16.2-18.7
			c8.9,0,14.4,5.8,14.4,17.4v2.6H67.9c0,8.6,3.5,12.3,10.8,12.3C82.6,83.1,86.1,81.8,90.1,79.4z M68,66h16.3
			c-0.4-7.5-4-10.5-7.8-10.5C72.2,55.5,68.8,58.9,68,66z"/>
		<path class="st0" d="M105,53.4c2.1-1.1,5.8-2.6,9.6-2.6c8.8,0,13.6,6.1,13.6,17.5c0,13.3-6.4,19.8-16.7,19.8
			c-3.8,0-9.6-1.2-13.9-3.5V34.9l7.4-1.8V53.4z M105,82c2.3,1,4.8,1.1,6.6,1.1c5.3,0,9.3-3.3,9.3-14.8c0-9.1-3.3-12-8.1-12
			c-2.9,0-4.9,0.8-7.8,2.4V82z"/>
		<path class="st0" d="M160.7,76.6h0.4l15.2-39.8h8.8v50.5h-7.7V50.6h-0.6l-14.5,36.6h-4.6l-14.5-35.8h-0.6v35.8h-6.4V36.7h8.6
			L160.7,76.6z"/>
		<path class="st0" d="M193,69.4c0-12.5,6.8-18.7,16.2-18.7s16.3,6.2,16.3,18.7c0,12.2-6.5,18.7-16.3,18.7S193,81.6,193,69.4z
			 M218,69.4c0-9.6-3.9-13.7-8.8-13.7c-4.7,0-8.8,4.1-8.8,13.7c0,9.8,3.7,13.7,8.8,13.7S218,79.2,218,69.4z"/>
		<path class="st0" d="M232.2,56c3.2-1.9,10-5.3,18.2-5.3c8.6,0,11.8,3.3,11.8,10.7v25.8h-7.4V63.1c0-5.6-2.8-6.6-6.4-6.6
			c-2.9,0-6.5,1.3-8.7,2.6v28.2h-7.4V56H232.2z"/>
		<path class="st0" d="M298.3,79.4v5.4c-3.2,1.9-7.5,3.3-12.6,3.3c-12,0-16.9-7.4-16.9-18.7c0-10.8,5.5-18.7,16.2-18.7
			c8.9,0,14.4,5.8,14.4,17.4v2.6h-23.2c0,8.6,3.5,12.3,10.8,12.3C290.8,83.1,294.4,81.8,298.3,79.4z M276.3,66h16.3
			c-0.4-7.5-4-10.5-7.8-10.5C280.4,55.5,277.1,58.9,276.3,66z"/>
		<path class="st0" d="M327.1,52h7.6l-12.9,35.6c-3.6,9.8-7.9,15-16.1,15v-5.8c4.8,0,7.8-3.9,9.5-9.1L301.6,52h7.8l9.1,26.2h0.4
			L327.1,52z"/>
	</g>
</g>
</svg>
