<?xml version="1.0" encoding="utf-8"?>
<!-- Generator: Adobe Illustrator 20.1.0, SVG Export Plug-In . SVG Version: 6.00 Build 0)  -->
<svg version="1.1" id="Слой_1" xmlns="http://www.w3.org/2000/svg" xmlns:xlink="http://www.w3.org/1999/xlink" x="0px" y="0px"
	 width="500px" height="121.9px" viewBox="0 0 500 121.9" style="enable-background:new 0 0 500 121.9;" xml:space="preserve">
<style type="text/css">
	.st0{fill:#006236;}
	.st1{fill:url(#SVGID_1_);}
	.st2{fill:url(#SVGID_2_);}
</style>
<g>
	<path class="st0" d="M484.2,14.5h11.9c-2.1,1.2-5,3.4-8.5,6.8l-11.8,12.1l6.5,9.3c6.8,9.7,12.7,17.1,17.8,22.2h-16.9
		c-2.1-4.9-4.9-9.9-8.3-15l-7.6-11.5l6.6-8.4C479.7,22.2,483.2,17.1,484.2,14.5z M466.2,20.1v39l0.5,2.9c0.3,0.5,1.1,0.9,2.3,1.3
		v1.5h-16.4v-1.5l2.3-1.3c0.3-0.5,0.5-1.5,0.5-2.9v-39l-0.5-2.8c-0.3-0.6-1.1-1-2.3-1.1v-1.7H469v1.7c-1.2,0.2-2,0.6-2.3,1.1
		L466.2,20.1z M441.8,20.1v39l0.5,2.9l2.3,1.3v1.5H428v-1.5c1.2-0.3,2-0.8,2.5-1.3l0.4-2.9V38.9h-19.4v20.3l0.5,2.9
		c0.3,0.5,1.1,0.9,2.3,1.3v1.5h-16.7v-1.5c1.4-0.3,2.2-0.8,2.5-1.3l0.5-2.9v-39l-0.5-2.8c-0.3-0.6-1.2-1-2.5-1.1v-1.7h16.7v1.7
		c-1.2,0.2-2,0.6-2.3,1.1l-0.5,2.8v15.4h19.4V20.1l-0.4-2.8c-0.5-0.6-1.4-1-2.5-1.1v-1.7h16.6v1.7c-1.2,0.2-2,0.6-2.3,1.1
		L441.8,20.1z M435.8,98.4h8l-3.3,16.8h-2.3l1.5-7.8h-4l-5.5,7.8h-2.5l5.6-7.9c-2.3-0.7-3.4-2.1-3.4-4.3c0-1.2,0.5-2.2,1.5-3.1
		C432.5,98.9,433.9,98.4,435.8,98.4z M435.3,105.5h4.8l1-5.2h-5.3c-1.2,0-2.1,0.3-2.8,0.9c-0.5,0.5-0.8,1.1-0.8,1.9
		C432.2,104.7,433.2,105.5,435.3,105.5z M415.7,102.7l-1.7,8.4c1.3,1.6,2.7,2.4,4.3,2.4c1.6,0,3-0.8,4.2-2.4
		c1.2-1.7,1.8-3.8,1.8-6.2c0-1.6-0.3-2.8-1-3.7c-0.7-0.8-1.7-1.3-2.9-1.3C418.5,99.9,416.9,100.8,415.7,102.7z M416.3,98.4l-0.4,2
		l2.2-1.8l2.8-0.6c1.8,0,3.2,0.6,4.2,1.8c1,1.2,1.5,2.9,1.5,5.2c0,3.1-0.8,5.6-2.4,7.5c-1.5,2-3.4,2.9-5.7,2.9l-2.8-0.5l-2-1.5
		l-1.7,8.5h-2.3l4.6-23.6L416.3,98.4L416.3,98.4z M456.6,98.4l1.9,14.8h1.7l-1,5.2h-1.8l0.4-3.2h-11.3l-0.9,3.2h-1.7l0.9-5.2h1.5
		l7-14.8H456.6z M454.4,100.5l-5.9,12.6h7.5l-1.1-12.6H454.4z M462.3,108.2c0-2.9,0.8-5.3,2.5-7.3c1.5-2,3.4-2.9,5.6-2.9
		c1.9,0,3.3,0.7,4.3,2c1.1,1.3,1.7,3.1,1.7,5.4c0,2.7-0.8,5.1-2.4,7.1s-3.5,2.9-5.6,2.9c-1.9,0-3.4-0.6-4.5-1.9
		C462.8,112.3,462.3,110.5,462.3,108.2z M500,82.4H131.2v-5H500V82.4z M485.7,98.4l1.9,14.5l7-14.5h3.7l-3.3,16.8h-2.2l2.8-14.8
		l-7.4,14.8H486l-2.2-14.8l-2.9,14.8h-2.2l3.3-16.8C482,98.4,485.7,98.4,485.7,98.4z M473.1,101.3c-0.8-0.9-1.7-1.4-2.9-1.4
		c-1.4,0-2.7,0.8-3.8,2.4c-1.2,1.7-1.8,3.8-1.8,6.2c0,1.5,0.4,2.8,1.1,3.7c0.7,0.8,1.6,1.3,2.7,1.3c1.5,0,2.9-0.8,4.1-2.4
		c1.1-1.7,1.7-3.7,1.7-6.1C474.1,103.5,473.8,102.2,473.1,101.3z M361.6,16.2v-1.7h14.5c0.2,2.3,0.8,4.8,1.8,7.4L388.6,52
		c1.8,5.3,3.5,9.6,5.2,12.9h-12.7l-5.5-18.1h-16.2l-3.4,12l-1,6.1h-9.2l16.3-37.7c1.6-4,2.4-6.7,2.4-8.2
		C364.6,17.4,363.6,16.4,361.6,16.2z M367.6,22.9l-6.9,20.3h13.8L367.6,22.9z M341.9,25.5h-2.8l-0.6-2.2c-0.7-2.5-1.7-4.1-3.1-4.8
		l-7-0.9h-6.8c-1.5,0-2.5,0.3-3.1,0.8c-0.4,0.4-0.6,1.2-0.6,2.3v12h2.8c8.2,0,13.8,0.8,16.9,2.4c4.5,2.2,6.8,6.5,6.8,13
		c0,6.3-1.8,10.8-5.4,13.5c-3.1,2.2-8,3.3-14.7,3.3h-20.1v-1.5l2.4-1.3l0.4-2.9v-39l-0.4-2.8c-0.3-0.6-1.1-1-2.4-1.1v-1.7h37.6v10.9
		H341.9z M317.9,35.8v21.5c0,1.7,0.3,2.8,0.9,3.3c0.7,0.7,1.9,1,3.6,1h1.5c3.2,0,5.6-1.1,7.1-3.3c1.4-2,2-5.3,2-9.8
		c0-4.4-0.7-7.6-2.2-9.4c-1.5-2.2-4.4-3.3-8.5-3.3H317.9z M321.1,92.9c1,1,1.5,2.4,1.5,4.2c0,1.5-0.5,2.8-1.4,3.8
		c-0.8,0.9-2.2,1.7-4.1,2.2c2.6,1.1,4,2.8,4,5.2c0,2.2-0.8,3.9-2.3,5.1c-1.4,1.2-3.6,1.8-6.5,1.8h-8l4.5-23.8h7.5
		C318.4,91.4,320,91.9,321.1,92.9z M310.8,93.5l-1.7,8.3h4.7c2,0,3.6-0.4,4.7-1.3s1.7-2.1,1.7-3.4s-0.3-2.2-1-2.7
		c-0.8-0.6-1.9-0.9-3.4-0.9H310.8L310.8,93.5z M326.5,108.2c0,1.7,0.4,3,1.3,3.8c0.8,0.9,1.9,1.4,3.3,1.4l2.9-0.9l1.7-2.3l1.8,0.8
		l-2.5,3.2c-1.1,0.8-2.5,1.3-4.1,1.3c-2,0-3.5-0.7-4.7-2c-1.2-1.4-1.8-3.2-1.8-5.5c0-2.7,0.8-5.1,2.3-7c1.5-2,3.4-2.9,5.7-2.9
		c1.6,0,2.9,0.4,3.8,1.3c0.9,0.8,1.7,2,2.3,3.6l-2.2,0.4c-0.6-2.2-1.9-3.3-4-3.3c-1.5,0-2.9,0.8-4.1,2.3
		C327.1,103.8,326.5,105.8,326.5,108.2z M313.1,103.8h-4.3l-1.7,9.2h5.6c1.9,0,3.3-0.4,4.3-1.3c1-0.8,1.5-2,1.5-3.4
		c0-1.1-0.5-2.1-1.4-3.1C316.1,104.3,314.7,103.8,313.1,103.8z M354.5,106.8h-11.8l-0.1,1.4c0,1.7,0.4,3,1.3,4
		c0.8,0.9,1.8,1.4,3.2,1.4c1.2,0,2.2-0.4,3.1-1.1l2.2-2.8l1.9,1l-3.2,3.4c-1.2,0.9-2.6,1.4-4.3,1.4c-2,0-3.5-0.6-4.6-1.9
		c-1.1-1.4-1.7-3.1-1.7-5.4c0-3,0.8-5.4,2.3-7.3c1.6-2,3.6-2.9,6-2.9c2,0,3.4,0.6,4.5,1.8c1.1,1.1,1.7,2.7,1.7,4.8L354.5,106.8z
		 M351.6,101.2c-0.8-0.8-1.7-1.3-2.9-1.3c-1.5,0-2.7,0.5-3.6,1.4c-0.9,0.8-1.5,2-2,3.6h9.3l0.1-1
		C352.5,102.8,352.2,101.9,351.6,101.2z M357,115.2l3.3-16.8h9.4l-0.4,1.9H362l-2.9,14.9H357z M376,100.5l-5.9,12.6h7.5l-1.1-12.6
		H376z M378.2,98.4l1.9,14.8h1.7l-1,5.2h-1.7l0.3-3.2H368l-0.9,3.2h-1.7l0.9-5.2h1.5l7-14.8H378.2z M384.3,110.7
		c0-1.8,0.8-3.1,2.3-4.1c1.6-1,3.9-1.5,6.8-1.5h2.3l0.1-1.9c0-1.1-0.3-1.9-0.9-2.4c-0.7-0.6-1.6-0.9-2.8-0.9c-1.1,0-2.3,0.6-3.7,1.9
		l-1.4-1.4c1.9-1.6,3.7-2.4,5.5-2.4c1.7,0,3.1,0.5,4.1,1.4s1.5,2.1,1.5,3.6l-0.3,2.5l-1.1,5.6c-0.3,1.2-0.4,2.5-0.4,4.1h-2.2
		l-0.1-1.9l-2.3,1.5l-2.7,0.6c-1.4,0-2.5-0.5-3.3-1.4C384.8,113.1,384.3,112,384.3,110.7z M393.6,106.9c-4.7,0-7,1.2-7,3.6
		c0,0.9,0.3,1.6,0.8,2.2c0.6,0.6,1.3,0.9,2.2,0.9c1.3,0,2.9-0.7,4.8-2.2l0.9-4.5H393.6z M299.8,28.9c0,5.9-1.8,10.1-5.4,12.6
		c-3.1,2.2-7.8,3.3-14.3,3.3H275v14.3l0.5,2.9c0.3,0.5,1.1,0.9,2.4,1.3v1.5h-16.6v-1.5l2.3-1.3l0.5-2.9v-39l-0.5-2.8
		c-0.3-0.6-1.1-1-2.3-1.1v-1.7h20.9c5.7,0,9.9,0.8,12.5,2.5C298.2,19.3,299.8,23.2,299.8,28.9z M275.9,18.1
		c-0.5,0.3-0.8,1.1-0.8,2.3v21.3h5.1c3.1,0,5.4-1.2,6.6-3.6c1.1-2.1,1.7-5.4,1.7-9.7c0-7.2-3-10.8-9-10.8h-1.3L275.9,18.1z
		 M253.8,25.5h-2.7l-0.6-2.2c-0.8-2.5-1.9-4.1-3.2-4.8l-6.9-0.9h-5.6l-2,0.5l-0.5,1.9v15.5h6.6c4.6,0,7.6-0.5,9-1.5v6.4
		c-1.4-1-4.5-1.5-9-1.5h-6.6v18.9c0,1.5,0.5,2.6,1.5,3.2l6.4,0.8h1.4l6.9-1c1.2-0.8,2.1-2.6,2.8-5.6l0.5-1.9h3.2V65h-36.3v-1.5
		c1.3-0.3,2.1-0.8,2.4-1.3l0.5-2.9v-39l-0.5-2.8c-0.3-0.6-1.1-1-2.4-1.1v-1.7h35.2L253.8,25.5z M210.4,25.5h-2.7l-0.6-2.2
		c-0.8-2.5-1.8-4.1-3.2-4.8l-6.8-0.9h-7c-1.4,0-2.5,0.3-3.1,0.8c-0.3,0.4-0.4,1.2-0.4,2.3v12h2.8c8.1,0,13.7,0.8,16.9,2.4
		c4.4,2.2,6.6,6.5,6.6,13c0,6.3-1.8,10.8-5.4,13.5c-3.1,2.2-7.9,3.3-14.7,3.3h-20.3v-1.5c1.4-0.3,2.2-0.8,2.5-1.3l0.5-2.9v-39
		l-0.5-2.8c-0.3-0.6-1.2-1-2.5-1.1v-1.7h37.6v10.9H210.4z M159.7,18.6c-1.5-1.1-3.9-1.7-7.1-1.7c-5.1,0-8.7,1.9-10.8,5.6
		c-1.8,3.2-2.7,8.5-2.7,15.8s1,12.7,2.9,16.2c2.4,4.3,6.5,6.5,12.2,6.5c4.2,0,8.5-1,12.6-3.1l1.5,3.2c-4.8,3-10.5,4.5-17.1,4.5
		c-16,0-24-8.5-24-25.4c0-17.8,8.3-26.6,24.8-26.6c6.4,0,11.3,0.8,14.7,2.3v10.4h-3.2l-0.9-3.1C162,21.2,161,19.6,159.7,18.6z
		 M186.7,35.8v21.5c0,1.7,0.3,2.8,0.8,3.3c0.7,0.7,1.9,1,3.7,1h1.4c6.1,0,9.2-4.4,9.2-13.1c0-4.4-0.7-7.6-2.2-9.4
		c-1.6-2.2-4.5-3.3-8.7-3.3H186.7z"/>
	
		<radialGradient id="SVGID_1_" cx="55.3022" cy="626.9323" r="59.6657" gradientTransform="matrix(1 0 0 1 0 -578)" gradientUnits="userSpaceOnUse">
		<stop  offset="0" style="stop-color:#52A347"/>
		<stop  offset="0.502" style="stop-color:#83B03E"/>
		<stop  offset="0.7059" style="stop-color:#2EA64C"/>
		<stop  offset="0.9294" style="stop-color:#264122"/>
		<stop  offset="0.9333" style="stop-color:#264122"/>
	</radialGradient>
	<path class="st1" d="M83.5,6.5l4.5,4.1L31.6,42.9L4.3,27.1L6.9,22l24.7,14.1L83.5,6.5z M72.1,0l6,3.1L31.6,29.8L9.9,17.5l3.7-4.5
		l18,10.3L72.1,0z M91.9,14.8l3.3,4.5L31.6,55.8L0.9,38.2l1.4-5.6l29.3,16.8L91.9,14.8z"/>
	
		<radialGradient id="SVGID_2_" cx="55.3022" cy="626.9311" r="59.6667" gradientTransform="matrix(1 0 0 1 0 -578)" gradientUnits="userSpaceOnUse">
		<stop  offset="0" style="stop-color:#52A347"/>
		<stop  offset="0.502" style="stop-color:#83B03E"/>
		<stop  offset="0.7059" style="stop-color:#2B9940"/>
		<stop  offset="0.9294" style="stop-color:#264122"/>
		<stop  offset="0.9333" style="stop-color:#264122"/>
	</radialGradient>
	<path class="st2" d="M101,31.2c1.9,5.3,2.8,10.8,2.8,16.6s-0.9,11.4-2.8,16.8L99.8,68c-2.6,6.2-6.3,11.7-11.1,16.6
		c-4.8,4.8-10.4,8.4-16.6,11c-6.5,2.8-13.3,4.2-20.3,4.2c-7.1,0-13.8-1.4-20.3-4.2c-6-2.5-11.5-6.2-16.4-11
		c-4.8-4.8-8.5-10.4-11-16.6C1.4,61.5,0,54.7,0,47.8v-3.4l31.6,18l66.6-38.2L101,31.2z"/>
</g>
</svg>
