<?xml version="1.0" encoding="utf-8"?>
<!-- Generator: Adobe Illustrator 20.1.0, SVG Export Plug-In . SVG Version: 6.00 Build 0)  -->
<svg version="1.1" id="Слой_1" xmlns="http://www.w3.org/2000/svg" xmlns:xlink="http://www.w3.org/1999/xlink" x="0px" y="0px"
	 width="500px" height="222.9px" viewBox="0 0 500 222.9" style="enable-background:new 0 0 500 222.9;" xml:space="preserve">
<style type="text/css">
	.st0{fill:#4D4D4D;}
	.st1{fill:#8CC63F;}
</style>
<g>
	<g>
		<path class="st0" d="M108.2,173.2c-2.5,0-5-0.3-7.3-1v14.3H10.1V25.2h90.8v78.5c3-2.3,6.5-4.2,10.1-5.6V20.2C111,0,90.8,0,90.8,0
			H20.2C20.2,0,0,0,0,20.2V202c0,20.2,20.2,20.2,20.2,20.2h70.6c0,0,20.2,0,20.2-20.2v-28.9C110,173.2,109.1,173.2,108.2,173.2z
			 M40.3,12.3c0-1.2,0.6-2.2,1.3-2.2h27.6c0.7,0,1.4,1,1.4,2.2v0.6c0,1.3-0.6,2.2-1.4,2.2H41.7c-0.7,0-1.3-1-1.3-2.2v-0.6H40.3z
			 M55.4,213.8c-5.6,0-10-4.5-10-10.1s4.5-10.1,10-10.1c5.6,0,10.1,4.5,10.1,10.1S61,213.8,55.4,213.8z"/>
		<path class="st0" d="M10.1,25.2"/>
	</g>
	<path class="st1" d="M150.2,133.4c-2-10.6-8.7-20.5-12.6-25.4c-5.2-6.7-11.9-9.3-19.7-8c-5.6,1-11.7,4-18.1,9.1
		c-4.5,3.6-8,7.1-9.5,8.8c-3.8-3.3-14.4-14.2-19.7-20.4c-2.6-3.1-9.4-9.7-14.4-5.1c-5.4,5.3,2.5,13.9,2.7,14.2l31.9,39.1
		c-0.1,0.2-0.3,0.3-0.4,0.5c-3.1,2.4-12-2-15.6-4.4c-3.3-2.2-8.8-2.2-11.6,0c-1.1,0.9-1.7,2.1-1.7,3.4c0,1.9,1.2,3.8,3.6,5.7
		l0.1,0.1c3.6,3,13.2,10.6,25.9,15.3c8.2,3,16.1,4.2,23.7,3.7c9.3-0.7,18-4.2,25.9-10.3C148.9,153,152.2,144.2,150.2,133.4
		L150.2,133.4z"/>
	<g>
		<path class="st1" d="M175.1,90.3V51.9c0-0.8,0.3-1.5,0.8-2s1.2-0.8,2.1-0.8h0.9c0.8,0,1.5,0.2,2.1,0.5c0.6,0.4,1.2,1,1.6,1.9
			l6.3,12.5c0.5,0.9,0.8,1.6,1,2.3c0.2,0.7,0.5,1,0.8,1s0.6-0.3,0.8-1s0.6-1.4,1-2.3l6.3-12.5c0.5-0.9,1-1.5,1.7-1.9
			c0.6-0.4,1.3-0.5,2.1-0.5h0.9c0.8,0,1.5,0.3,2,0.8s0.8,1.2,0.8,2v38.4c0,0.8-0.3,1.5-0.8,2c-0.5,0.6-1.2,0.8-2,0.8h-1
			c-0.8,0-1.5-0.3-2-0.8s-0.8-1.2-0.8-2V68.4c0-1.2,0-2.1,0.1-2.6c0-0.5,0.1-0.9,0.1-1.2c0-0.6-0.2-1-0.6-1c-0.3,0-0.6,0.4-0.9,1.1
			c-0.3,0.7-0.7,1.8-1.4,3.1l-2,4.2c-0.3,0.7-0.8,1.3-1.4,1.7c-0.6,0.5-1.2,0.7-2,0.7H190c-0.8,0-1.4-0.2-2-0.7s-1-1-1.4-1.7
			l-2.1-4.1c-0.7-1.4-1.2-2.4-1.4-3.2c-0.2-0.7-0.5-1.1-0.9-1.1s-0.6,0.3-0.6,1c0,0.3,0,0.7,0.1,1.2c0,0.5,0.1,1.3,0.1,2.6v21.9
			c0,0.8-0.3,1.5-0.8,2c-0.5,0.6-1.2,0.8-2,0.8h-1c-0.8,0-1.5-0.3-2.1-0.8C175.4,91.7,175.1,91.1,175.1,90.3z"/>
		<path class="st1" d="M214.7,77.8V64.3c0-1.1,0-2,0-2.8c0-0.7,0.1-1.4,0.1-1.9c0.1-0.5,0.1-0.9,0.2-1.3c0.1-0.4,0.2-0.7,0.2-1
			c0.4-1.4,1-2.6,1.8-3.7c0.8-1.1,1.8-2.1,2.8-2.9c1.1-0.8,2.3-1.5,3.6-1.9s2.7-0.7,4.2-0.7s2.9,0.2,4.2,0.7
			c1.3,0.4,2.5,1.1,3.6,1.9c1.1,0.8,2,1.8,2.8,2.9c0.8,1.1,1.4,2.3,1.8,3.7c0.1,0.3,0.2,0.6,0.2,1c0.1,0.4,0.2,0.8,0.2,1.3
			c0.1,0.5,0.1,1.1,0.1,1.9c0,0.7,0,1.7,0,2.8v13.5c0,1.1,0,2,0,2.8c0,0.7-0.1,1.4-0.1,1.9c-0.1,0.5-0.1,1-0.2,1.3
			c-0.1,0.4-0.2,0.7-0.2,1c-0.4,1.3-1,2.5-1.8,3.7c-0.8,1.1-1.8,2.1-2.8,2.9c-1.1,0.8-2.3,1.5-3.6,1.9s-2.7,0.7-4.2,0.7
			s-2.9-0.2-4.2-0.7c-1.3-0.4-2.5-1.1-3.6-1.9s-2-1.8-2.8-2.9s-1.4-2.4-1.8-3.7c-0.1-0.3-0.2-0.6-0.2-1c-0.1-0.4-0.2-0.8-0.2-1.3
			c-0.1-0.5-0.1-1.2-0.1-1.9C214.7,79.8,214.7,78.9,214.7,77.8z M221.4,78.2c0,1,0,1.8,0,2.4c0,0.7,0.1,1.2,0.1,1.6
			c0.1,0.4,0.1,0.8,0.2,1c0.1,0.2,0.1,0.5,0.2,0.7c0.5,1.2,1.2,2.1,2.3,2.9c1,0.7,2.2,1.1,3.6,1.1c1.4,0,2.6-0.4,3.6-1.1
			s1.8-1.7,2.3-2.9c0.1-0.2,0.2-0.4,0.2-0.7c0.1-0.2,0.1-0.6,0.2-1c0.1-0.4,0.1-1,0.1-1.6c0-0.7,0-1.5,0-2.4V63.9c0-1,0-1.8,0-2.5
			s-0.1-1.2-0.1-1.6c-0.1-0.4-0.1-0.8-0.2-1c-0.1-0.2-0.1-0.5-0.2-0.6c-0.5-1.2-1.2-2.1-2.3-2.9c-1-0.7-2.2-1.1-3.6-1.1
			c-1.4,0-2.6,0.4-3.6,1.1c-1,0.7-1.8,1.7-2.3,2.9c-0.1,0.2-0.2,0.4-0.2,0.6c-0.1,0.2-0.1,0.6-0.2,1c-0.1,0.4-0.1,1-0.1,1.6
			c0,0.7,0,1.5,0,2.5V78.2z"/>
		<path class="st1" d="M249.3,90.3V51.9c0-0.8,0.3-1.5,0.8-2c0.6-0.5,1.2-0.8,2.1-0.8H270c0.8,0,1.5,0.3,2,0.8
			c0.5,0.6,0.8,1.2,0.8,2v0.3c0,0.9-0.3,1.7-0.8,2.1c-0.6,0.5-1.2,0.7-2,0.7h-12.1c-0.5,0-1,0.2-1.3,0.5c-0.4,0.3-0.5,0.8-0.5,1.3v8
			c0,0.5,0.2,1,0.5,1.3c0.4,0.4,0.8,0.5,1.3,0.5h3.3c2.7,0,4.9,0.4,6.7,1.2c1.8,0.8,3.3,1.9,4.4,3.1c1.1,1.3,1.9,2.6,2.4,4
			s0.7,2.8,0.7,3.9V80c0,1.8-0.4,3.5-1.1,5c-0.7,1.6-1.7,2.9-2.9,4.1c-1.2,1.2-2.6,2.1-4.1,2.7s-3.2,1-4.8,1H252
			c-0.8,0-1.5-0.3-2-0.8C249.5,91.8,249.3,91.1,249.3,90.3z M255.9,85.3c0,0.5,0.2,0.9,0.6,1.2c0.4,0.4,0.8,0.5,1.3,0.5h4.5
			c0.9,0,1.7-0.2,2.4-0.5c0.8-0.3,1.5-0.7,2-1.3c0.6-0.6,1.1-1.2,1.4-2s0.5-1.6,0.5-2.6V79c0-1.7-0.6-3.1-1.8-4.4
			c-1.2-1.3-2.9-1.9-5.3-1.9h-3.9c-0.5,0-1,0.2-1.3,0.5c-0.4,0.3-0.5,0.8-0.5,1.3L255.9,85.3L255.9,85.3z"/>
		<path class="st1" d="M283.1,90.3V51.9c0-0.9,0.3-1.6,0.9-2.1s1.3-0.8,2.2-0.8h0.7c0.8,0,1.5,0.3,2.1,0.8s0.9,1.2,0.9,2v19
			l-0.1,3.8c0,0.2,0,0.4,0.1,0.6c0,0.2,0.2,0.4,0.5,0.4c0.2,0,0.4-0.2,0.5-0.5c0.1-0.4,0.3-0.8,0.5-1.2l10-22.4
			c0.4-0.8,0.9-1.4,1.4-1.8c0.6-0.4,1.3-0.6,2.3-0.6h0.6c0.9,0,1.6,0.3,2.1,0.8s0.8,1.2,0.8,2.1v38.4c0,0.9-0.3,1.5-0.8,2.1
			c-0.5,0.5-1.2,0.8-2.1,0.8h-0.9c-1,0-1.8-0.3-2.2-0.9c-0.5-0.6-0.7-1.2-0.7-2v-19l0.2-3.8c0-0.2,0-0.4-0.1-0.6s-0.2-0.4-0.5-0.4
			s-0.5,0.2-0.6,0.5c-0.1,0.4-0.2,0.8-0.4,1.2l-0.9,2.4l-9.1,20c-0.4,0.9-0.9,1.5-1.5,1.9s-1.3,0.5-2.3,0.5H286
			c-0.9,0-1.6-0.3-2.1-0.8C283.3,91.7,283.1,91.1,283.1,90.3z"/>
		<path class="st1" d="M313.8,90.3c0-0.8,0.2-1.3,0.6-1.7c0.4-0.4,0.7-0.7,1-0.8l1.7-1.1c0.9-0.6,1.6-1.3,2.2-2.2
			c0.5-0.9,1-1.8,1.2-2.9c0.3-1.1,0.5-2.2,0.6-3.4c0.1-1.2,0.2-2.4,0.3-3.6c0-0.7,0.1-1.7,0.1-3.1s0.1-2.8,0.1-4.4s0.1-3.1,0.1-4.6
			s0-2.8,0-3.7V52c0-0.8,0.3-1.5,0.9-2s1.3-0.8,2.1-0.8h17c0.8,0,1.4,0.3,2,0.8s0.8,1.2,0.8,2v38.4c0,0.8-0.3,1.5-0.8,2
			c-0.6,0.6-1.2,0.8-2,0.8h-1c-0.8,0-1.5-0.3-2.1-0.8s-0.8-1.2-0.8-2V56.5c0-0.5-0.1-0.9-0.4-1.2c-0.3-0.4-0.7-0.5-1.3-0.5h-5.9
			c-0.6,0-1,0.2-1.3,0.6c-0.3,0.4-0.5,0.8-0.5,1.2v4.3c0,3.4-0.1,6.4-0.2,9s-0.3,4.8-0.4,6.7c-0.2,1.9-0.4,3.5-0.7,4.8
			c-0.3,1.3-0.6,2.4-0.9,3.3c-0.8,2.3-1.8,4.1-3.1,5.4c-1.2,1.3-2.5,2.3-3.8,3l-0.8,0.4c-0.6,0.3-1.1,0.5-1.7,0.5
			c-0.7,0-1.2-0.2-1.6-0.6s-0.7-0.7-0.8-1l-0.4-0.7C313.9,91.1,313.8,90.7,313.8,90.3z"/>
		<path class="st1" d="M354.8,90.3V51.9c0-0.9,0.3-1.5,0.8-2.1c0.6-0.5,1.2-0.8,2.1-0.8h0.9c0.9,0,1.6,0.3,2.1,0.8s0.8,1.2,0.8,2
			v12.3c0,0.5,0.2,1,0.5,1.3c0.4,0.4,0.8,0.5,1.3,0.5h3.3c2.7,0,4.9,0.4,6.7,1.2c1.8,0.8,3.3,1.9,4.4,3.1s1.9,2.6,2.4,4.1
			s0.7,2.8,0.7,4v1.8c0,1.8-0.4,3.5-1.1,5c-0.7,1.6-1.7,2.9-2.9,4.1c-1.2,1.2-2.5,2.1-4.1,2.7c-1.6,0.7-3.2,1-4.8,1h-10.4
			c-0.8,0-1.5-0.3-2-0.8C355.1,91.8,354.8,91.1,354.8,90.3z M361.5,85.3c0,0.5,0.2,0.9,0.6,1.2c0.4,0.4,0.8,0.5,1.3,0.5h4.5
			c0.9,0,1.7-0.2,2.4-0.5c0.8-0.3,1.4-0.7,2-1.3c0.6-0.6,1.1-1.2,1.4-2s0.5-1.6,0.5-2.6v-2.2c0-1.7-0.6-3.1-1.8-4.4
			c-1.2-1.3-2.9-1.9-5.2-1.9h-3.9c-0.5,0-1,0.2-1.3,0.5c-0.4,0.3-0.5,0.8-0.5,1.3V85.3z"/>
		<path class="st1" d="M387.3,90.3V51.9c0-0.8,0.3-1.5,0.8-2s1.2-0.8,2.1-0.8h1c0.8,0,1.5,0.3,2,0.8s0.8,1.2,0.8,2v14
			c0,0.5,0.2,1,0.6,1.3c0.4,0.4,0.8,0.5,1.3,0.5h7.4c0.5,0,1-0.2,1.3-0.5c0.4-0.4,0.5-0.8,0.5-1.3v-14c0-0.8,0.3-1.5,0.8-2
			s1.2-0.8,2-0.8h1c0.8,0,1.5,0.3,2,0.8s0.8,1.2,0.8,2v38.4c0,0.8-0.3,1.5-0.8,2c-0.6,0.6-1.2,0.8-2,0.8h-1c-0.8,0-1.5-0.3-2-0.8
			c-0.6-0.5-0.8-1.2-0.8-2v-15c0-0.5-0.2-0.9-0.5-1.3c-0.4-0.3-0.8-0.5-1.3-0.5h-7.4c-0.5,0-0.9,0.2-1.3,0.5s-0.6,0.8-0.6,1.3v15
			c0,0.8-0.3,1.5-0.8,2c-0.5,0.6-1.2,0.8-2,0.8h-1c-0.8,0-1.5-0.3-2.1-0.8C387.6,91.7,387.3,91.1,387.3,90.3z"/>
		<path class="st1" d="M422.4,90.3V51.9c0-0.9,0.3-1.5,0.9-2.1c0.6-0.5,1.3-0.8,2-0.8h0.9c0.9,0,1.5,0.3,2.1,0.9
			c0.5,0.6,0.8,1.2,0.8,2v12.3c0,0.5,0.2,1,0.5,1.3c0.3,0.4,0.8,0.5,1.4,0.5h2.8c2.7,0,4.9,0.4,6.7,1.2c1.8,0.8,3.3,1.9,4.4,3.1
			s1.9,2.6,2.4,4.1s0.7,2.8,0.7,4v1.8c0,1.8-0.4,3.5-1.1,5c-0.7,1.6-1.7,2.9-2.9,4.1c-1.2,1.2-2.6,2.1-4.1,2.7c-1.5,0.7-3.1,1-4.8,1
			h-9.9c-0.8,0-1.5-0.3-2-0.8C422.6,91.8,422.4,91.1,422.4,90.3z M429,85.3c0,0.5,0.2,0.9,0.6,1.2c0.4,0.4,0.8,0.5,1.3,0.5h4
			c0.9,0,1.7-0.2,2.4-0.5c0.8-0.3,1.4-0.7,2-1.3c0.6-0.6,1.1-1.2,1.4-2s0.5-1.6,0.5-2.6v-2.2c0-1.7-0.6-3.1-1.8-4.4
			c-1.2-1.3-2.9-1.9-5.3-1.9h-3.4c-0.6,0-1.1,0.2-1.4,0.5s-0.5,0.8-0.5,1.3v11.4H429z M454.4,90.3V51.9c0-0.9,0.3-1.6,0.8-2.1
			s1.2-0.8,2-0.8h0.9c0.9,0,1.6,0.3,2.1,0.9c0.5,0.6,0.8,1.2,0.8,2v38.4c0,0.8-0.3,1.5-0.8,2c-0.5,0.6-1.2,0.8-2.1,0.8h-0.9
			c-0.9,0-1.5-0.3-2.1-0.9C454.7,91.7,454.4,91,454.4,90.3z"/>
		<path class="st1" d="M471.7,90.3V51.9c0-0.9,0.3-1.6,0.9-2.1s1.3-0.8,2.2-0.8h0.7c0.8,0,1.5,0.3,2.1,0.8s0.9,1.2,0.9,2v19
			l-0.1,3.8c0,0.2,0,0.4,0.1,0.6c0,0.2,0.2,0.4,0.5,0.4c0.2,0,0.4-0.2,0.5-0.5c0.1-0.4,0.3-0.8,0.5-1.2l10-22.4
			c0.4-0.8,0.9-1.4,1.4-1.8c0.6-0.4,1.3-0.6,2.3-0.6h0.6c0.9,0,1.6,0.3,2.1,0.8s0.8,1.2,0.8,2.1v38.4c0,0.9-0.3,1.5-0.8,2.1
			c-0.5,0.5-1.2,0.8-2.1,0.8h-0.9c-1,0-1.8-0.3-2.2-0.9c-0.5-0.6-0.7-1.2-0.7-2v-19l0.2-3.8c0-0.2,0-0.4-0.1-0.6s-0.2-0.4-0.5-0.4
			s-0.5,0.2-0.6,0.5c-0.1,0.4-0.2,0.8-0.4,1.2l-0.9,2.4l-9.1,20c-0.4,0.9-0.9,1.5-1.5,1.9s-1.3,0.5-2.3,0.5h-0.6
			c-0.9,0-1.6-0.3-2.1-0.8C471.9,91.7,471.7,91.1,471.7,90.3z M475.5,41.4c0-0.5,0.1-0.9,0.3-1.2s0.4-0.5,0.6-0.7s0.5-0.4,0.8-0.6
			c0.3-0.2,0.6-0.3,1.1-0.3c0.2,0,0.5,0.1,0.9,0.2c0.3,0.1,0.7,0.4,1.1,1l0.5,0.7c0.4,0.6,0.9,1.2,1.3,1.5c0.5,0.4,1.2,0.6,2.3,0.6
			c1.1,0,1.8-0.2,2.3-0.6c0.5-0.4,0.9-0.9,1.4-1.5l0.5-0.7c0.4-0.6,0.7-0.9,1.1-1c0.3-0.1,0.6-0.2,0.9-0.2c0.5,0,0.9,0.1,1.1,0.2
			c0.3,0.2,0.5,0.4,0.8,0.6c0.2,0.2,0.4,0.4,0.6,0.7s0.3,0.7,0.3,1.2c0,0.3-0.1,0.6-0.2,1s-0.3,0.8-0.6,1.3l-0.7,0.9
			c-0.9,1.2-2,2-3.2,2.5c-1.2,0.4-2.6,0.6-4.2,0.6s-3-0.2-4.2-0.6c-1.2-0.4-2.3-1.2-3.2-2.5l-0.7-0.9c-0.3-0.4-0.5-0.8-0.6-1.2
			C475.5,42,475.5,41.7,475.5,41.4z"/>
	</g>
	<g>
		<path class="st1" d="M174.8,176.7v-64.1c0-1.4,0.5-2.6,1.4-3.5s2.1-1.3,3.5-1.3H211c1.4,0,2.6,0.4,3.4,1.3c0.8,0.9,1.3,2,1.3,3.5
			v64.1c0,1.4-0.5,2.6-1.4,3.5s-2,1.3-3.3,1.3h-1.7c-1.4,0-2.5-0.4-3.4-1.3s-1.4-2-1.4-3.5v-56.4c0-0.8-0.3-1.5-0.9-2.1
			c-0.6-0.6-1.3-0.9-2.3-0.9H189c-0.9,0-1.7,0.3-2.3,0.9s-0.9,1.3-0.9,2.1v56.4c0,1.4-0.5,2.5-1.4,3.4s-2,1.4-3.3,1.4h-1.7
			c-1.4,0-2.6-0.4-3.5-1.3C175.2,179.2,174.8,178.1,174.8,176.7z"/>
		<path class="st1" d="M224.6,176.7c0-1.3,0.3-2.2,1-2.9c0.7-0.6,1.2-1.1,1.7-1.4l2.9-1.8c1.5-1,2.7-2.2,3.6-3.7
			c0.9-1.5,1.6-3.1,2.1-4.9c0.5-1.8,0.8-3.7,1-5.7s0.4-4,0.5-6.1c0.1-1.1,0.1-2.9,0.2-5.1c0.1-2.3,0.1-4.7,0.2-7.3
			c0.1-2.6,0.1-5.2,0.2-7.7c0-2.5,0.1-4.6,0.1-6.2v-11.3c0-1.4,0.5-2.5,1.4-3.4c1-0.9,2.1-1.4,3.5-1.4h28.4c1.3,0,2.4,0.5,3.4,1.4
			c0.9,0.9,1.4,2.1,1.4,3.4v64.1c0,1.4-0.5,2.5-1.4,3.4s-2,1.4-3.3,1.4h-1.7c-1.4,0-2.5-0.5-3.4-1.4s-1.4-2.1-1.4-3.4v-56.4
			c0-0.8-0.2-1.5-0.7-2.1s-1.2-0.9-2.2-0.9h-9.8c-1,0-1.8,0.3-2.3,1c-0.5,0.6-0.8,1.3-0.8,2v7.2c0,5.8-0.1,10.8-0.3,15.1
			s-0.4,8-0.7,11.1s-0.7,5.8-1.2,8s-0.9,4-1.4,5.6c-1.4,3.8-3.1,6.8-5.1,9c-2.1,2.2-4.2,3.8-6.4,5l-1.4,0.7
			c-0.9,0.6-1.9,0.8-2.9,0.9c-1.1,0-2-0.3-2.7-1c-0.6-0.6-1.1-1.2-1.4-1.7l-0.7-1.1C224.8,178.1,224.6,177.3,224.6,176.7z"/>
		<path class="st1" d="M286,177.6c0-0.3,0-0.7,0.1-0.9c0-0.3,0.1-0.6,0.2-1l12.5-61.6c0.4-2,1.3-3.8,2.8-5.4
			c1.4-1.5,3.3-2.3,5.6-2.3h5.7c2.3,0,4.1,0.8,5.6,2.3c1.4,1.5,2.3,3.3,2.8,5.4l12.5,61.6c0.1,0.3,0.1,0.7,0.2,1
			c0,0.3,0.1,0.6,0.1,1c0,1.6-0.5,2.8-1.6,3.5c-1,0.7-2.2,1-3.5,1h-0.3c-1.4,0-2.5-0.4-3.3-1.2c-0.9-0.8-1.4-1.9-1.7-3.3l-1.7-8.6
			c-0.1-0.9-0.5-1.6-1-2.3c-0.6-0.6-1.3-0.9-2.2-0.9h-17.1c-0.9,0-1.7,0.3-2.2,1c-0.6,0.6-0.9,1.4-1,2.2l-1.7,8.6
			c-0.3,1.4-0.8,2.5-1.7,3.3c-0.9,0.8-2,1.2-3.3,1.2H291c-1.3,0-2.4-0.3-3.5-1C286.5,180.4,286,179.2,286,177.6z M301.1,154.6
			c0,0.4,0.1,0.8,0.4,1.1s0.8,0.5,1.5,0.5h13.8c0.7,0,1.2-0.2,1.5-0.5s0.4-0.7,0.4-1.1c0-0.3-0.1-0.9-0.2-1.6l-7.2-36.1
			c-0.1-0.9-0.6-1.4-1.4-1.4s-1.3,0.5-1.4,1.4l-7.2,36.1C301.1,153.7,301.1,154.3,301.1,154.6z"/>
		<path class="st1" d="M334.1,113.1v-0.5c0-1.4,0.5-2.5,1.4-3.4s2.1-1.4,3.4-1.4h31.9c1.4,0,2.5,0.5,3.4,1.4s1.4,2.1,1.4,3.4v0.5
			c0,1.4-0.5,2.6-1.4,3.5s-2.1,1.3-3.4,1.3h-8.2c-0.6,0-1.1,0.2-1.5,0.7c-0.4,0.4-0.7,0.9-0.7,1.5v56.6c0,1.4-0.5,2.5-1.4,3.4
			s-2,1.4-3.4,1.4H354c-1.3,0-2.5-0.5-3.4-1.4s-1.4-2.1-1.4-3.4V120c0-0.6-0.2-1-0.7-1.5c-0.4-0.4-0.9-0.7-1.5-0.7h-8
			c-1.4,0-2.5-0.4-3.4-1.3C334.6,115.7,334.1,114.5,334.1,113.1z"/>
		<path class="st1" d="M386.1,176.7v-64.1c0-1.4,0.5-2.5,1.4-3.4s2.1-1.4,3.4-1.4h30.4c1.4,0,2.5,0.5,3.4,1.4s1.3,2.1,1.3,3.4v0.5
			c0,1.4-0.4,2.6-1.3,3.5s-2,1.3-3.4,1.3h-20.9c-0.9,0-1.6,0.3-2.2,0.9s-0.9,1.3-0.9,2.2v15c0,0.9,0.3,1.6,0.9,2.2
			c0.6,0.6,1.4,0.9,2.2,0.9h12c1.4,0,2.5,0.5,3.4,1.4s1.4,2.1,1.4,3.4s-0.5,2.5-1.4,3.4s-2.1,1.4-3.4,1.4h-12
			c-0.9,0-1.6,0.3-2.2,0.9c-0.6,0.6-0.9,1.3-0.9,2.2v16.7c0,0.9,0.3,1.6,0.9,2.1c0.6,0.6,1.3,0.8,2.2,0.8h20.9
			c1.4,0,2.5,0.5,3.4,1.4s1.3,2.1,1.3,3.4v0.5c0,1.4-0.4,2.5-1.3,3.4s-2,1.4-3.4,1.4h-30.4c-1.4,0-2.5-0.5-3.4-1.4
			C386.5,179.1,386.1,178,386.1,176.7z"/>
		<path class="st1" d="M431.3,177.1c0-0.5,0.1-1,0.2-1.5s0.3-0.9,0.4-1.2l12.5-28.6c0.3-0.7,0.5-1.4,0.5-1.9c0-0.4-0.1-0.7-0.2-1.1
			c-0.1-0.3-0.2-0.6-0.4-0.8l-11.7-27.4c-0.1-0.1-0.2-0.4-0.4-0.9c-0.2-0.5-0.3-1-0.3-1.6c0-1.1,0.4-2.2,1.2-3.3
			c0.8-1.1,2-1.6,3.8-1.6c1.1,0,2,0.3,2.9,0.8c0.8,0.6,1.5,1.4,1.9,2.4l11.2,26.2c0.6,1.5,1.6,2.3,3,2.3h0.6c0.6,0,1.2-0.2,1.8-0.5
			c0.6-0.3,0.9-1.4,0.9-3.1v-22.8c0-1.3,0.5-2.5,1.4-3.4s2.1-1.4,3.4-1.4h1.6c1.4,0,2.5,0.5,3.4,1.4s1.4,2,1.4,3.4v22.8
			c0,1.7,0.3,2.7,0.8,3.1c0.6,0.4,1.2,0.5,1.8,0.5h0.6c1.4,0,2.3-0.8,3-2.3l11.2-26.2c0.9-2.2,2.5-3.3,4.9-3.3
			c1.4,0,2.6,0.5,3.5,1.4c0.9,1,1.3,2.1,1.3,3.4c0,0.6-0.1,1.1-0.2,1.5l-0.4,1.1l-11.8,27.4c-0.1,0.2-0.3,0.5-0.4,0.8
			s-0.2,0.7-0.2,1.1c0,0.5,0.2,1.1,0.5,1.9l12.5,28.6c0.1,0.3,0.3,0.7,0.4,1.2s0.2,1,0.2,1.5c0,1.4-0.5,2.6-1.4,3.6
			s-2.1,1.5-3.5,1.5c-2.2,0-3.8-1.1-4.8-3.4L476,150.6c-0.3-0.8-0.8-1.4-1.3-1.7s-1-0.5-1.5-0.5h-0.3c-0.9,0-1.6,0.4-2,1.1
			c-0.4,0.7-0.6,1.6-0.6,2.5v24.6c0,1.4-0.5,2.5-1.4,3.4s-2.1,1.4-3.4,1.4H464c-1.4,0-2.5-0.5-3.4-1.4s-1.4-2.1-1.4-3.4V152
			c0-0.9-0.2-1.8-0.7-2.5c-0.4-0.7-1.1-1.1-2.1-1.1H456c-0.4,0-0.9,0.2-1.4,0.5c-0.5,0.4-1,0.9-1.3,1.7L441,178.8
			c-1,2.3-2.6,3.4-4.8,3.4c-1.4,0-2.6-0.5-3.5-1.5C431.8,179.7,431.3,178.5,431.3,177.1z"/>
	</g>
</g>
</svg>
