<?xml version="1.0" encoding="utf-8"?>
<!-- Generator: Adobe Illustrator 20.1.0, SVG Export Plug-In . SVG Version: 6.00 Build 0)  -->
<svg version="1.1" id="Слой_1" xmlns="http://www.w3.org/2000/svg" xmlns:xlink="http://www.w3.org/1999/xlink" x="0px" y="0px"
	 width="582.6px" height="249.7px" viewBox="0 0 582.6 249.7" style="enable-background:new 0 0 582.6 249.7;" xml:space="preserve"
	>
<style type="text/css">
	.st0{fill:#EC1C24;}
	.st1{fill:#231F20;}
	.st2{fill:#F37B20;}
</style>
<g>
	<path class="st0" d="M57.5,2.5H44.6c-12.6,0-23.4,9.6-23.4,28.3c0,11.2,5.2,19.5,14.5,23.6L18.4,85.7c-0.6,1,0,1.8,0.9,1.8h8
		c0.7,0,1.1-0.2,1.4-0.8L44.4,56h5.7v30.7c0,0.3,0.3,0.8,0.8,0.8h7c0.7,0,0.9-0.3,0.9-0.9v-83C58.8,2.8,58.3,2.5,57.5,2.5z
		 M50.1,48.7h-4.7c-7.5,0-14.7-5.4-14.7-19c0-14.2,6.8-20,13.7-20h5.8L50.1,48.7L50.1,48.7z"/>
	<path class="st1" d="M100,30.7h-7c-0.6,0-0.9,0.5-0.9,0.8v21.7h-13V31.4c0-0.6-0.2-0.8-0.8-0.8h-7c-0.6,0-0.9,0.3-0.9,0.8v55.1
		c0,0.6,0.2,0.9,0.8,0.9h7.1c0.5,0,0.8-0.3,0.8-0.9V60.2h13v26.3c0,0.6,0.3,0.9,0.9,0.9h7c0.6,0,0.8-0.4,0.8-0.9V31.4
		C100.8,31,100.4,30.7,100,30.7z"/>
	<path class="st1" d="M259.9,83.8L259,80c-0.1-0.3-0.2-0.4-0.6-0.4c-0.6,0-3.6,1.2-8,1.2c-8.6,0-12.8-8.3-12.8-21.4
		c0-11.6,3.5-23,9.4-23c1.6,0,3.5,0.4,6.6,3.3c0.3,0.3,0.6,0.5,0.9,0.5c0.3,0,0.7-0.2,1-0.8l3.1-5c0.2-0.3,0.3-0.7,0.3-1
		c0-0.4-0.5-0.8-1.1-1.1c-4.6-2.4-7.8-2.8-10.5-2.8c-10.6,0-18.9,12.7-18.9,32.5c0,17.1,7.9,27,19.2,27c4.8,0,9.8-2.3,11.9-3.7
		C259.9,84.7,260,84.3,259.9,83.8z"/>
	<path class="st1" d="M210.8,56.3l13.6-24.8c0.2-0.3,0.1-0.8-0.3-0.8h-6.7c-1.9,0-2.6,0.7-3.3,2.1L203.9,54c-0.6,1.3-1.1,2-1.7,2.4
		v-25c0-0.5-0.2-0.8-0.7-0.8h-7.3c-0.3,0-0.7,0.3-0.7,0.8v55.2c0,0.3,0.2,0.8,0.7,0.8h7.3c0.5,0,0.7-0.3,0.7-0.8V58.2
		c0.3,0.2,0.6,0.6,0.8,1l12.9,26.5c0.7,1.4,1.7,1.7,3.2,1.7h7.2c0.5,0,0.6-0.4,0.3-0.8L210.8,56.3z"/>
	<path class="st1" d="M146.1,80.3h-1.4c-1.7,0-2.2-0.7-2.2-2V31.4c0-0.6-0.2-0.8-0.7-0.8h-22.6c-0.6,0-0.9,0.3-0.9,0.8v4.1
		c0,13.7-0.8,31.4-8,44.8h-2.5c-0.7,0-0.9,0.3-0.9,0.9c0,0,0,13.6,0,16.5c0,0.6,0.5,0.8,0.8,0.8h5.4c1.2,0,1.7-0.9,1.7-1.7v-9.4H139
		v10.3c0,0.5,0.3,0.8,0.8,0.8h5.8c0.7,0,1.4-0.6,1.4-1.7V81.2C147,80.6,146.7,80.3,146.1,80.3z M133.9,80.3h-16.4
		c5.8-9.9,8-21,8.8-34.6c0.2-2.9,0.3-6,0.3-7.9h7.2L133.9,80.3L133.9,80.3z"/>
	<path class="st1" d="M169.1,29.3c-12.2,0-17.6,15.4-17.6,32.2c0,17.1,7.7,27.3,19,27.3c5.5,0,10.4-2.1,12.9-3.7
		c0.5-0.2,0.6-0.6,0.5-1l-0.9-3.8c-0.1-0.5-0.3-0.7-0.9-0.7c-0.5,0-3.7,1.2-8.4,1.2c-8.7,0-12.8-7.6-12.8-17.6c0-1.4,0-2.7,0-2.7
		s4.4,0.5,7,0.5h16.5v-4.8C184.4,38.7,178.2,29.3,169.1,29.3z M167.9,53.9c-2.6,0-6.7,0.4-6.7,0.4s0-1.7,0.2-3.5
		c1-9.6,3.4-14.5,7.3-14.5c3.6,0,5.9,5,6.4,13.7c0.1,1.8,0.1,3.9,0.1,3.9L167.9,53.9L167.9,53.9z"/>
	<path class="st1" d="M226.9,229.1h18.6c17.1,0,31.3-9.8,31.3-33.3c0-22.7-14-30.7-32.3-30.7c-2.3,0-4.7,0-4.7,0v-34.8
		c0-0.5-0.5-1.2-1.2-1.2h-12.7c-1,0-1.4,0.5-1.4,1.4v96.9C224.5,228.6,225.2,229.1,226.9,229.1z M239.8,177.3h4.3
		c11.4,0,18,7.8,18,18.7c0,13.5-6.8,21.1-17.4,21.1h-5L239.8,177.3L239.8,177.3z"/>
	<path class="st1" d="M204.9,129.1h-12.3c-1,0-1.6,0.8-1.6,1.4v38.1h-22.9v-38.1c0-1-0.4-1.4-1.4-1.4h-12.4c-1,0-1.6,0.6-1.6,1.4
		v97.1c0,1,0.4,1.6,1.4,1.6h12.6c0.8,0,1.4-0.6,1.4-1.6v-46.3H191v46.3c0,1,0.6,1.6,1.6,1.6h12.3c1,0,1.4-0.8,1.4-1.6v-97.1
		C206.3,129.7,205.7,129.1,204.9,129.1z"/>
	<g>
		<path class="st1" d="M70.9,216.6h-2.4c-3,0-3.8-1.2-3.8-3.6v-82.5c0-1-0.4-1.4-1.2-1.4H23.7c-1,0-1.6,0.6-1.6,1.4v7.2
			c0,24.2-1.4,55.3-14.1,78.9H3.6c-1.2,0-1.6,0.6-1.6,1.6c0,0,0,24,0,29.2c0,1,0.8,1.4,1.4,1.4H13c2.2,0,3-1.6,3-3v-16.6h42.6v18.2
			c0,0.8,0.6,1.4,1.4,1.4h10.2c1.2,0,2.4-1,2.4-3v-27.6C72.5,217.2,71.9,216.6,70.9,216.6z M49.4,216.6H20.6
			c10.2-17.4,14.1-37,15.5-60.9c0.4-5.2,0.6-10.6,0.6-14h12.7L49.4,216.6z"/>
		<path class="st1" d="M111.5,126.7c-21.5,0-31.1,27.2-31.1,56.7c0,30.2,13.5,48.1,33.4,48.1c9.8,0,18.3-3.8,22.7-6.6
			c0.8-0.4,1-1,0.8-1.8l-1.6-6.8c-0.2-0.8-0.6-1.2-1.6-1.2c-0.8,0-6.6,2.2-14.7,2.2c-15.3,0-22.5-13.4-22.5-31c0-2.4,0-4.7,0-4.7
			s7.8,0.9,12.3,0.9h29.1v-8.4C138.3,143.3,127.4,126.7,111.5,126.7z M109.3,170c-4.6,0-11.7,0.8-11.7,0.8s0-3,0.4-6.2
			c1.8-17,6-25.6,12.9-25.6c6.4,0,10.4,8.8,11.4,24.2c0.2,3.2,0.2,6.8,0.2,6.8H109.3L109.3,170z"/>
	</g>
	<path class="st1" d="M333.1,129.1h-41.8c-1,0-1.6,0.6-1.6,1.4v97.1c0,1,0.4,1.6,1.4,1.6h12.5c0.8,0,1.4-0.6,1.4-1.6v-85.8h28.1
		c0.6,0,1.4-0.4,1.4-1.4s0-9.9,0-9.9C334.5,129.7,333.9,129.1,333.1,129.1z"/>
	<path class="st1" d="M395,129.1h-11.4c-0.7,0-1.2,0.4-1.4,0.8c-0.1,0.2-23.4,63.7-23.4,63.7l-1.5,5.1v-68.2c0-1-0.4-1.4-1.4-1.4
		h-11.7c-1,0-1.3,0.7-1.3,1.4v96c0,2,0.4,2.6,1.4,2.6H356c0.6,0,1-0.3,1.2-0.8c0.1-0.2,23.9-64.2,23.9-64.2l1-3.3v66.8
		c0,1,0.6,1.6,1.6,1.6H395c1,0,1.4-0.8,1.4-2.6c0,0,0-96.1,0-96.6C396.4,129.4,395.8,129.1,395,129.1z"/>
	<path class="st2" d="M570.5,128.8h-8v50.1c0,9-3.8,14.2-15.2,16.8l-72.8,20.6c0,0-6.2,1.7-6.2-3.9c0-4.7,5.5-5.3,6.4-6.1l-0.3,0.1
		l66.4-26.4c5.4-3,9.9-10,9.9-15.6v-79c0-12.5-12.1-8.2-14.8-6.6C533,80.5,459,122,459,122c-5.4,3.1-9.9,10.1-9.9,15.6v78.6
		c0,5.5,7.9,12.9,13,12.9l0,0h108.5c6.5,0,11.8-4.5,11.8-10v-80.2C582.3,133.3,577,128.8,570.5,128.8z M518,122.8
		c5.1-3.4,10-2.3,10.9,2.5s-2.1,10.8-7.2,14.2c-5.1,3.4-10,2.3-10.9-2.5C509.9,132.2,512.9,126.2,518,122.8z"/>
</g>
</svg>
