<?xml version="1.0" encoding="utf-8"?>
<!-- Generator: Adobe Illustrator 20.1.0, SVG Export Plug-In . SVG Version: 6.00 Build 0)  -->
<svg version="1.1" id="Слой_1" xmlns="http://www.w3.org/2000/svg" xmlns:xlink="http://www.w3.org/1999/xlink" x="0px" y="0px"
	 width="840.5px" height="500px" viewBox="0 0 840.5 500" style="enable-background:new 0 0 840.5 500;" xml:space="preserve">
<style type="text/css">
	.st0{fill:#EFEFEF;}
	.st1{fill:#635041;}
	.st2{fill:#475156;}
	.st3{fill:#F0D7BE;}
	.st4{fill:#535F75;}
	.st5{fill:#547E54;}
	.st6{fill:#D2B79B;}
	.st7{fill:#B09271;}
	.st8{fill:#6EA466;}
	.st9{fill:#727B7E;}
	.st10{fill:#78858C;}
	.st11{fill:#A0ACB2;}
	.st12{fill:#DCE6EB;}
	.st13{fill:#6C787E;}
	.st14{fill:#CE9549;}
	.st15{fill:#C06A7D;}
	.st16{fill:#DF94A4;}
	.st17{fill:#BF5159;}
	.st18{fill:#FFFFFF;}
	.st19{fill:#CC8A6D;}
	.st20{fill:#E7C07F;}
	.st21{fill:#9A7565;}
	.st22{fill:#8A97B0;}
	.st23{fill:#D57E91;}
	.st24{fill:#974C4C;}
	.st25{clip-path:url(#SVGID_2_);}
	.st26{fill:#DEAE63;}
	.st27{fill:#A64E4D;}
	.st28{fill:#7886A0;}
	.st29{fill:#DCA288;}
</style>
<g>
	<ellipse class="st0" cx="72" cy="371.7" rx="58" ry="18.2"/>
	<ellipse class="st0" cx="616.6" cy="301.3" rx="58" ry="18.2"/>
	<ellipse class="st0" cx="776.6" cy="367.3" rx="58" ry="18.2"/>
	<ellipse class="st0" cx="419.5" cy="473.4" rx="76.5" ry="22.6"/>
	<g>
		<ellipse class="st0" cx="254.8" cy="308.9" rx="58" ry="18.2"/>
		<path class="st1" d="M248.9,12.3c40.4,0,54,33.9,42.2,62.5c-7.4,17.8-20.7,28.5-42.2,28.5C199.3,103.4,183.1,12.3,248.9,12.3z"/>
		<path class="st2" d="M280.3,290c4.8,7.1,11.2,11.2,12.8,16.4c2.6,8.3-5.9,7.9-11.4,6.7c-5.8-1.3-8.5-4.8-11.7-5.7
			c-7.6-2.2-7.8-6.7-4.7-17.4C268.4,279.3,276.4,283.3,280.3,290z"/>
		<path class="st2" d="M231.6,290c-4.8,7.1-11.2,11.2-12.8,16.4c-2.6,8.6,6.7,8,12.1,6.5c5.3-1.4,7.9-4.6,11-5.5
			c7.6-2.2,7.8-6.7,4.7-17.4C243.5,279.3,235.5,283.3,231.6,290z"/>
		<path class="st3" d="M217,195.4L217,195.4c0.9-0.9,2.5-1,3.4,0l4.2,4.2c0.9,0.9,1,2.5,0,3.4l0,0c-0.9,0.9-2.5,1-3.4,0l-4.2-4.2
			C216.1,197.9,216.1,196.3,217,195.4z"/>
		<path class="st4" d="M275.9,197.8H222l4.4,98.2h22.4l-4.4-71.3c-0.4-6.1,8.3-6.1,9.1,0l9.9,71.3h22.4L275.9,197.8z"/>
		<rect x="222" y="120.2" class="st5" width="53.9" height="85"/>
		<path class="st3" d="M248.9,80.1L248.9,80.1c-6.7,0-12.2,5.5-12.2,12.2v27.9c0,6.7,5.5,12.2,12.2,12.2l0,0
			c6.7,0,12.2-5.5,12.2-12.2V92.3C261.1,85.6,255.6,80.1,248.9,80.1z"/>
		<path class="st6" d="M236.8,111.1L236.8,111.1c0,10.5,24.3,10.5,24.3,0l0,0C261.1,100.6,236.8,100.6,236.8,111.1z"/>
		<path class="st3" d="M248.9,15.2c68.6,0,52.1,99.6,0,99.6C199.8,114.8,182.8,15.2,248.9,15.2z"/>
		<path class="st5" d="M232,134.7l-21.4,37.7c-2.7,4.8-8.9,6.5-13.7,3.8l0,0c-4.8-2.7-6.5-8.9-3.8-13.7l21.4-37.7
			C220.7,113.9,237.8,124.3,232,134.7z"/>
		<path class="st3" d="M216.2,186.5l-0.9-3.1l-18.9,5.4l0.9,3.1C201.4,205.9,221,202.6,216.2,186.5z"/>
		<path class="st5" d="M217.1,180.7l-5.4-15.6c-1.5-5.3-7.2-8.3-12.5-6.7l0,0c-5.3,1.6-8.3,7.2-6.7,12.5l5.8,15.3L217.1,180.7z"/>
		<path class="st5" d="M265.1,132.9l14.5,40.8c1.8,5.2,7.6,8,12.8,6.1l0,0c5.2-1.8,8-7.6,6.1-12.8L284,126.2
			C279.8,114.4,261.1,121.7,265.1,132.9z"/>
		
			<ellipse transform="matrix(0.2474 -0.9689 0.9689 0.2474 151.8348 337.9851)" class="st3" cx="293.5" cy="71.3" rx="12.6" ry="6.5"/>
		
			<ellipse transform="matrix(0.9689 -0.2474 0.2474 0.9689 -11.1573 53.7797)" class="st3" cx="208.4" cy="71.3" rx="6.5" ry="12.6"/>
		<path class="st2" d="M229.8,77.2c1.8,0,3.3-2.7,3.3-6.1c0-3.3-1.5-6.1-3.3-6.1s-3.3,2.7-3.3,6.1S228,77.2,229.8,77.2z"/>
		<path class="st2" d="M252.5,77.2c1.8,0,3.3-2.7,3.3-6.1c0-3.3-1.5-6.1-3.3-6.1s-3.3,2.7-3.3,6.1S250.7,77.2,252.5,77.2z"/>
		<path class="st7" d="M224.8,94.4c8,2.3,25.2,2.7,34.4,0H224.8z"/>
		<path class="st6" d="M235.3,81.4c2.6,6.5,10.8,6.4,13.4,0C244.9,85,239.2,85.2,235.3,81.4z"/>
		<polygon class="st8" points="261.5,116 265.5,120.6 260.6,139.9 252.3,130.1 		"/>
		<polygon class="st8" points="235.5,116 231.5,120.6 236.4,139.9 244.7,130.1 		"/>
		<path class="st8" d="M243.8,131.2c1.5,1,3.3,1.2,5.2,1.2l-4.2-2.3L243.8,131.2L243.8,131.2z M248.9,132.3l3.4-2.3l1.2,1.4
			C252.1,132.1,250.5,132.3,248.9,132.3z"/>
		<path class="st6" d="M234,97.9c3,4,12.8,4,16,0C245.3,99.7,238.6,99.8,234,97.9z"/>
		<path class="st1" d="M279,72.4c-0.8,7.3,3.6,6.7,6.2-0.9c1.9-5.4,6.6-11.5,8.9-12.3c0.4-1.5,0.4-3.1,0.3-4.7
			c-4.4-54.5-83.7-56.1-89.5-1c-0.6,5.6-0.1,12.1,1.6,17.8c1.6,5.7,3,5.8,2.3-1.5c-0.9-8.8,6.2-24.9,12.4-29.5
			c5.8-4.4,3-2.2,17.7-2.2c14.6,0,24.1-6.7,33.6,5.5C278.2,51.1,280,63,279,72.4z"/>
		<path class="st1" d="M252.9,53.6c2.9-1.4,7,0.5,8.8,3.3c0.9,1.4-0.1,1.3-0.7,0.5c-2-2.6-5.1-3.1-7.8-2.3
			C251.8,55.5,251.3,54.4,252.9,53.6z"/>
		<path class="st1" d="M229.4,52.4c-2.8-1.5-7,0.3-8.9,3c-1,1.4,0,1.3,0.7,0.6c2.1-2.5,5.2-3,7.9-2.1
			C230.4,54.3,230.9,53.2,229.4,52.4z"/>
		<path class="st9" d="M292.4,304.7c0.3,0.5,0.5,1.1,0.7,1.7c2.6,8.3-6.2,7.9-11.6,6.6c-5.7-1.4-8.4-4.7-11.5-5.6
			c-4.1-1.2-6-3-6.5-6.1c4.3,3.4,10.9,6.1,17.8,8.4C284.3,306.4,288.6,304.8,292.4,304.7z"/>
		<path class="st9" d="M289.4,301.2c0.3,0.2,0.7,0.1,0.9-0.1c0.2-0.3,0.1-0.7-0.1-0.9c-0.5-0.4-1.3-0.7-2.2-0.9l0,0
			c0.2,0,0.4,0,0.5-0.2c0.1,0,0.1-0.1,0.2-0.2c0.2-0.3,0.1-0.7-0.1-0.9c-0.6-0.5-1.8-0.9-3.1-1.3c0.1,0,0.2,0,0.3,0
			c0.3,0,0.7-0.2,0.7-0.6c0-0.3-0.2-0.7-0.6-0.7c-1-0.1-1.9,0-2.6,0.2v1.8c0.9,0.1,1.8,0.4,2.6,0.6c-0.5,0.1-1,0.4-1.5,0.6
			c-0.4,0-0.7,0-1.1,0v2.6c0.3-0.3,0.6-0.6,0.9-0.9c0.2-0.2,0.4-0.3,0.6-0.4C286.6,300.1,288.5,300.6,289.4,301.2z M283.1,295.7
			c-0.4,0.1-0.7,0.3-1.1,0.4h-0.1c-2.1-0.2-4.2,0-5.8,0.9c-0.3,0.2-0.4,0.6-0.3,0.9c0.2,0.3,0.6,0.4,0.9,0.3c1-0.5,2.3-0.8,3.7-0.8
			c-0.9,0.9-1.5,1.8-2,2.7c-0.2,0.2-0.3,0.5-0.2,0.8c0.2,0.3,0.6,0.4,0.9,0.3c1-0.5,2.2-0.8,3.4-1c-0.8,0.9-1.4,1.8-1.9,2.6
			c-0.2,0.3-0.1,0.7,0.2,0.9c0.3,0.2,0.7,0.1,0.9-0.2c0.4-0.6,0.8-1.3,1.3-2v-2.6c-0.9,0.1-1.8,0.2-2.6,0.4c0.3-0.5,0.7-0.9,1.2-1.3
			c0.2-0.2,0.4-0.3,0.7-0.5c0.3,0,0.5,0.1,0.8,0.1V295.7z"/>
		<path class="st9" d="M219.5,304.7c-0.3,0.5-0.5,1.1-0.7,1.7c-2.6,8.3,6.2,7.9,11.6,6.6c5.7-1.4,8.4-4.7,11.5-5.6
			c4.1-1.2,6-3,6.5-6.1c-4.3,3.4-10.9,6.1-17.8,8.4C227.6,306.4,223.3,304.8,219.5,304.7z"/>
		<path class="st9" d="M229,295.7c0.4,0.1,0.7,0.3,1.1,0.4h0.1c2.1-0.2,4.2,0,5.8,0.9c0.3,0.2,0.4,0.6,0.3,0.9
			c-0.2,0.3-0.6,0.4-0.9,0.3c-1-0.5-2.3-0.8-3.7-0.8c0.9,0.9,1.5,1.8,2,2.7c0.2,0.2,0.3,0.5,0.2,0.8c-0.2,0.3-0.6,0.4-0.9,0.3
			c-1-0.5-2.2-0.8-3.4-1c0.8,0.9,1.4,1.8,1.9,2.6c0.2,0.3,0.1,0.7-0.2,0.9c-0.3,0.2-0.7,0.1-0.9-0.2c-0.4-0.6-0.8-1.3-1.3-2v-2.6
			c0.9,0.1,1.8,0.2,2.6,0.4c-0.3-0.5-0.7-0.9-1.2-1.3c-0.2-0.2-0.4-0.3-0.7-0.5c-0.3,0-0.5,0.1-0.8,0.1L229,295.7L229,295.7z
			 M222.7,301.2c-0.3,0.2-0.7,0.1-0.9-0.1c-0.2-0.3-0.1-0.7,0.1-0.9c0.5-0.4,1.3-0.7,2.2-0.9l0,0c-0.2,0-0.4,0-0.5-0.2
			c-0.1,0-0.1-0.1-0.2-0.2c-0.2-0.3-0.1-0.7,0.1-0.9c0.6-0.5,1.8-0.9,3.1-1.3c-0.1,0-0.2,0-0.3,0c-0.3,0-0.7-0.2-0.7-0.6
			c0-0.3,0.2-0.7,0.6-0.7c1-0.1,1.9,0,2.6,0.2v1.8c-0.9,0.1-1.8,0.4-2.6,0.6c0.5,0.1,1,0.4,1.5,0.6c0.4,0,0.7,0,1.1,0v2.6
			c-0.3-0.3-0.6-0.6-0.9-0.9c-0.2-0.2-0.4-0.3-0.6-0.4C225.4,300.1,223.5,300.6,222.7,301.2z"/>
		<g>
			<polygon class="st10" points="260.5,187.2 240.6,193.5 226.1,201.2 226.2,203 260.6,189 			"/>
			<polygon class="st11" points="226.1,201.2 186.2,187.5 213.6,177.5 260.5,187.2 			"/>
			<g>
				<path class="st12" d="M247.1,187.1c-1-0.2-1.9-0.4-2.9-0.6c-0.8,0.3-1.6,0.6-2.4,0.9c0.9,0.2,1.9,0.4,2.8,0.6
					C245.5,187.6,246.3,187.4,247.1,187.1z"/>
				<path class="st12" d="M243.4,186.3c-1-0.2-1.9-0.4-2.9-0.6c-0.8,0.3-1.5,0.6-2.3,0.9c0.9,0.2,1.9,0.4,2.8,0.6
					C241.8,186.8,242.6,186.5,243.4,186.3z"/>
				<path class="st12" d="M239.7,185.4c-3-0.6-5.9-1.3-8.9-1.9c-3-0.6-5.9-1.3-8.9-1.9c-0.7,0.3-1.3,0.5-2,0.8
					c2.9,0.7,5.8,1.3,8.7,2s5.8,1.3,8.7,2C238.1,186,238.9,185.7,239.7,185.4z"/>
				<path class="st12" d="M221,181.4c-1-0.2-1.9-0.4-2.9-0.6c-0.6,0.3-1.3,0.5-1.9,0.8c0.9,0.2,1.9,0.4,2.8,0.6
					C219.7,181.9,220.4,181.7,221,181.4z"/>
				<path class="st12" d="M217.3,180.6c-1-0.2-1.9-0.4-2.9-0.6c-0.6,0.2-1.2,0.5-1.9,0.7c0.9,0.2,1.9,0.4,2.8,0.6
					C216,181.1,216.7,180.9,217.3,180.6z"/>
				<path class="st12" d="M243.6,188.3c-0.9-0.2-1.9-0.4-2.8-0.6c-0.8,0.3-1.6,0.6-2.4,0.9c0.9,0.2,1.8,0.4,2.8,0.7
					C242,188.9,242.8,188.6,243.6,188.3z"/>
				<path class="st12" d="M240,187.5c-2.1-0.5-4.3-1-6.4-1.5c-0.7,0.3-1.5,0.6-2.2,0.8c2.1,0.5,4.2,1,6.3,1.5
					C238.5,188.1,239.2,187.8,240,187.5z"/>
				<path class="st12" d="M232.7,185.8c-0.9-0.2-1.9-0.4-2.8-0.6c-0.7,0.3-1.5,0.5-2.2,0.8c0.9,0.2,1.8,0.4,2.8,0.7
					C231.3,186.4,232,186.1,232.7,185.8z"/>
				<path class="st12" d="M229.1,185c-0.9-0.2-1.9-0.4-2.8-0.6c-0.7,0.3-1.4,0.5-2.1,0.8c0.9,0.2,1.8,0.4,2.8,0.7
					C227.7,185.6,228.4,185.3,229.1,185z"/>
				<path class="st12" d="M225.5,184.2c-0.9-0.2-1.9-0.4-2.8-0.6c-0.7,0.3-1.4,0.5-2.1,0.8c0.9,0.2,1.8,0.4,2.8,0.7
					C224.1,184.7,224.8,184.4,225.5,184.2z"/>
				<path class="st12" d="M221.8,183.3c-0.9-0.2-1.9-0.4-2.8-0.6c-0.7,0.3-1.3,0.5-2,0.8c0.9,0.2,1.8,0.4,2.8,0.7
					C220.5,183.9,221.2,183.6,221.8,183.3z"/>
				<path class="st12" d="M218.2,182.5c-0.9-0.2-1.9-0.4-2.8-0.6c-0.6,0.3-1.3,0.5-1.9,0.8c0.9,0.2,1.8,0.4,2.8,0.7
					C216.9,183,217.5,182.8,218.2,182.5z"/>
				<path class="st12" d="M214.6,181.7c-0.9-0.2-1.9-0.4-2.8-0.6c-0.6,0.2-1.2,0.5-1.9,0.7c0.9,0.2,1.8,0.4,2.8,0.7
					C213.3,182.2,213.9,181.9,214.6,181.7z"/>
				<path class="st12" d="M240.2,189.6c-0.9-0.2-1.8-0.4-2.7-0.7c-0.8,0.3-1.6,0.6-2.4,0.9c0.9,0.2,1.8,0.4,2.7,0.7
					C238.6,190.2,239.4,189.9,240.2,189.6z"/>
				<path class="st12" d="M236.6,188.8c-2.1-0.5-4.2-1-6.3-1.5c-0.7,0.3-1.5,0.6-2.2,0.8c2.1,0.5,4.1,1,6.2,1.5
					C235.1,189.3,235.9,189,236.6,188.8z"/>
				<path class="st12" d="M229.6,187c-0.9-0.2-1.8-0.4-2.7-0.7c-0.7,0.3-1.5,0.5-2.2,0.8c0.9,0.2,1.8,0.4,2.7,0.7
					C228.1,187.6,228.8,187.3,229.6,187z"/>
				<path class="st12" d="M226,186.2c-0.9-0.2-1.8-0.4-2.7-0.7c-0.7,0.3-1.4,0.5-2.1,0.8c0.9,0.2,1.8,0.5,2.7,0.7
					C224.6,186.7,225.3,186.5,226,186.2z"/>
				<path class="st12" d="M222.5,185.3c-0.9-0.2-1.8-0.4-2.7-0.7c-0.7,0.3-1.4,0.5-2.1,0.8c0.9,0.2,1.8,0.5,2.7,0.7
					C221.1,185.9,221.8,185.6,222.5,185.3z"/>
				<path class="st12" d="M218.9,184.5c-0.9-0.2-1.8-0.4-2.7-0.7c-0.7,0.3-1.3,0.5-2,0.8c0.9,0.2,1.8,0.5,2.7,0.7
					C217.6,185,218.2,184.7,218.9,184.5z"/>
				<path class="st12" d="M215.4,183.6c-0.9-0.2-1.8-0.4-2.7-0.7c-0.6,0.2-1.3,0.5-1.9,0.8c0.9,0.2,1.8,0.4,2.7,0.7
					C214,184.1,214.7,183.9,215.4,183.6z"/>
				<path class="st12" d="M211.8,182.8c-0.9-0.2-1.8-0.4-2.7-0.7c-0.6,0.2-1.2,0.5-1.9,0.7c0.9,0.2,1.8,0.5,2.7,0.7
					C210.5,183.3,211.2,183,211.8,182.8z"/>
				<path class="st12" d="M236.7,190.9c-0.9-0.2-1.8-0.5-2.7-0.7c-0.8,0.3-1.6,0.6-2.4,0.9c0.9,0.2,1.8,0.5,2.6,0.7
					C235.1,191.5,235.9,191.2,236.7,190.9z"/>
				<path class="st12" d="M233.3,190c-2-0.5-4.1-1-6.1-1.6c-0.7,0.3-1.5,0.6-2.2,0.8c2,0.5,4,1.1,6,1.6
					C231.7,190.6,232.5,190.3,233.3,190z"/>
				<path class="st12" d="M226.4,188.2c-0.9-0.2-1.8-0.5-2.7-0.7c-0.7,0.3-1.5,0.5-2.2,0.8c0.9,0.2,1.7,0.5,2.6,0.7
					C224.9,188.8,225.6,188.5,226.4,188.2z"/>
				<path class="st12" d="M222.9,187.4c-0.9-0.2-1.8-0.5-2.7-0.7c-0.7,0.3-1.4,0.5-2.1,0.8c0.9,0.2,1.7,0.5,2.6,0.7
					C221.4,187.9,222.2,187.6,222.9,187.4z"/>
				<path class="st12" d="M219.4,186.5c-0.9-0.2-1.8-0.5-2.7-0.7c-0.7,0.3-1.4,0.5-2.1,0.8c0.9,0.2,1.8,0.5,2.6,0.7
					C218,187,218.7,186.8,219.4,186.5z"/>
				<path class="st12" d="M216,185.6c-0.9-0.2-1.8-0.5-2.7-0.7c-0.7,0.3-1.3,0.5-2,0.8c0.9,0.2,1.8,0.5,2.6,0.7
					C214.6,186.1,215.3,185.9,216,185.6z"/>
				<path class="st12" d="M212.5,184.7c-0.9-0.2-1.8-0.5-2.7-0.7c-0.6,0.3-1.3,0.5-1.9,0.8c0.9,0.2,1.7,0.5,2.6,0.7
					C211.2,185.2,211.9,185,212.5,184.7z"/>
				<path class="st12" d="M209.1,183.8c-0.9-0.2-1.8-0.5-2.7-0.7c-0.6,0.2-1.2,0.5-1.9,0.7c0.9,0.2,1.8,0.5,2.6,0.7
					C207.8,184.3,208.4,184.1,209.1,183.8z"/>
				<path class="st12" d="M233.2,192.2c-0.9-0.2-1.7-0.5-2.6-0.7c-0.8,0.3-1.6,0.6-2.4,0.9c0.9,0.2,1.7,0.5,2.6,0.7
					C231.6,192.7,232.4,192.4,233.2,192.2z"/>
				<path class="st12" d="M229.9,191.3c-0.9-0.2-1.7-0.5-2.6-0.7c-0.8,0.3-1.5,0.6-2.3,0.9c0.9,0.2,1.7,0.5,2.6,0.7
					C228.3,191.8,229.1,191.5,229.9,191.3z"/>
				<path class="st12" d="M226.5,190.3c-0.9-0.2-1.7-0.5-2.6-0.7c-0.7,0.3-1.5,0.6-2.2,0.8c0.9,0.2,1.7,0.5,2.6,0.7
					C225,190.9,225.8,190.6,226.5,190.3z"/>
				<path class="st12" d="M223.2,189.4c-0.9-0.2-1.7-0.5-2.6-0.7c-0.7,0.3-1.4,0.5-2.2,0.8c0.9,0.2,1.7,0.5,2.6,0.7
					C221.7,190,222.4,189.7,223.2,189.4z"/>
				<path class="st12" d="M219.8,188.5c-0.9-0.2-1.7-0.5-2.6-0.7c-0.7,0.3-1.4,0.5-2.1,0.8c0.9,0.2,1.7,0.5,2.6,0.7
					C218.3,189.1,219.1,188.8,219.8,188.5z"/>
				<path class="st12" d="M216.4,187.6c-0.9-0.2-1.7-0.5-2.6-0.7c-0.7,0.3-1.4,0.5-2.1,0.8c0.9,0.2,1.7,0.5,2.6,0.7
					C215,188.2,215.7,187.9,216.4,187.6z"/>
				<path class="st12" d="M213,186.7c-0.9-0.2-1.7-0.5-2.6-0.7c-0.7,0.3-1.3,0.5-2,0.8c0.9,0.2,1.7,0.5,2.6,0.7
					C211.7,187.3,212.4,187,213,186.7z"/>
				<path class="st12" d="M209.7,185.8c-0.9-0.2-1.7-0.5-2.6-0.7c-0.6,0.3-1.3,0.5-1.9,0.8c0.9,0.2,1.7,0.5,2.6,0.7
					C208.4,186.3,209,186.1,209.7,185.8z"/>
				<path class="st12" d="M206.3,184.9c-0.9-0.2-1.7-0.5-2.6-0.7c-0.6,0.2-1.2,0.5-1.9,0.7c0.9,0.2,1.7,0.5,2.6,0.7
					C205,185.4,205.7,185.2,206.3,184.9z"/>
				<path class="st12" d="M229.8,193.4c-0.8-0.2-1.7-0.5-2.5-0.7c-0.8,0.3-1.6,0.6-2.4,0.9c0.8,0.2,1.7,0.5,2.5,0.7
					C228.2,194,229,193.7,229.8,193.4z"/>
				<path class="st12" d="M226.5,192.5c-0.8-0.2-1.7-0.5-2.5-0.7c-0.8,0.3-1.5,0.6-2.3,0.9c0.8,0.2,1.7,0.5,2.5,0.7
					C224.9,193.1,225.7,192.8,226.5,192.5z"/>
				<path class="st12" d="M223.2,191.6c-0.8-0.2-1.7-0.5-2.5-0.7c-0.7,0.3-1.5,0.6-2.2,0.8c0.8,0.2,1.7,0.5,2.5,0.7
					C221.7,192.1,222.5,191.9,223.2,191.6z"/>
				<path class="st12" d="M220,190.6c-0.8-0.2-1.7-0.5-2.5-0.7c-0.7,0.3-1.5,0.5-2.2,0.8c0.8,0.2,1.7,0.5,2.5,0.7
					C218.5,191.2,219.2,190.9,220,190.6z"/>
				<path class="st12" d="M216.7,189.7c-0.8-0.2-1.7-0.5-2.5-0.7c-0.7,0.3-1.4,0.5-2.1,0.8c0.8,0.2,1.7,0.5,2.5,0.7
					C215.2,190.3,216,190,216.7,189.7z"/>
				<path class="st12" d="M213.4,188.8c-0.8-0.2-1.7-0.5-2.5-0.7c-0.7,0.3-1.4,0.5-2.1,0.8c0.8,0.2,1.7,0.5,2.5,0.7
					C212,189.3,212.7,189.1,213.4,188.8z"/>
				<path class="st12" d="M210.1,187.9c-0.8-0.2-1.7-0.5-2.5-0.7c-0.7,0.3-1.3,0.5-2,0.8c0.8,0.2,1.7,0.5,2.5,0.7
					C208.8,188.4,209.4,188.1,210.1,187.9z"/>
				<path class="st12" d="M206.8,186.9c-0.8-0.2-1.7-0.5-2.5-0.7c-0.6,0.3-1.3,0.5-1.9,0.8c0.8,0.2,1.7,0.5,2.5,0.7
					C205.5,187.4,206.2,187.2,206.8,186.9z"/>
				<path class="st12" d="M203.6,186c-0.8-0.2-1.7-0.5-2.5-0.7c-0.6,0.2-1.2,0.5-1.9,0.7c0.8,0.2,1.7,0.5,2.5,0.7
					C202.3,186.5,202.9,186.2,203.6,186z"/>
				<path class="st12" d="M226.3,194.7c-0.8-0.2-1.6-0.5-2.5-0.7c-0.8,0.3-1.6,0.6-2.4,0.9c0.8,0.3,1.6,0.5,2.4,0.7
					C224.7,195.3,225.5,195,226.3,194.7z"/>
				<path class="st12" d="M223.1,193.8c-0.8-0.2-1.6-0.5-2.5-0.7c-0.8,0.3-1.5,0.6-2.3,0.9c0.8,0.3,1.6,0.5,2.4,0.8
					C221.6,194.3,222.4,194,223.1,193.8z"/>
				<path class="st12" d="M219.9,192.8c-0.8-0.2-1.6-0.5-2.5-0.7c-0.7,0.3-1.5,0.6-2.2,0.8c0.8,0.3,1.6,0.5,2.4,0.8
					C218.4,193.4,219.2,193.1,219.9,192.8z"/>
				<path class="st12" d="M216.8,191.8c-0.8-0.2-1.6-0.5-2.5-0.7c-0.7,0.3-1.4,0.5-2.2,0.8c0.8,0.3,1.6,0.5,2.4,0.8
					C215.3,192.4,216,192.1,216.8,191.8z"/>
				<path class="st12" d="M213.6,190.9c-0.8-0.2-1.6-0.5-2.5-0.7c-0.7,0.3-1.4,0.5-2.1,0.8c0.8,0.2,1.6,0.5,2.4,0.7
					C212.1,191.4,212.8,191.2,213.6,190.9z"/>
				<path class="st12" d="M210.4,189.9c-0.8-0.2-1.6-0.5-2.5-0.7c-0.7,0.3-1.4,0.5-2.1,0.8c0.8,0.3,1.6,0.5,2.4,0.8
					C209,190.5,209.7,190.2,210.4,189.9z"/>
				<path class="st12" d="M207.2,189c-0.8-0.2-1.6-0.5-2.5-0.7c-0.7,0.3-1.3,0.5-2,0.8c0.8,0.3,1.6,0.5,2.4,0.8
					C205.8,189.5,206.5,189.2,207.2,189z"/>
				<path class="st12" d="M204,188c-0.8-0.2-1.6-0.5-2.5-0.7c-0.6,0.3-1.3,0.5-1.9,0.8c0.8,0.2,1.6,0.5,2.4,0.8
					C202.7,188.5,203.3,188.3,204,188z"/>
				<path class="st12" d="M200.8,187.1c-0.8-0.2-1.6-0.5-2.5-0.7c-0.6,0.2-1.2,0.5-1.9,0.7c0.8,0.3,1.6,0.5,2.4,0.8
					C199.5,187.6,200.2,187.3,200.8,187.1z"/>
			</g>
			<polygon class="st13" points="186.2,187.5 226.1,201.2 226.2,203 186.3,189.3 			"/>
		</g>
		<g>
			<g>
				<polygon class="st10" points="208.1,161.7 212.9,181.7 224.2,202 225.8,201.2 209.8,161.1 				"/>
				<polygon class="st10" points="224.2,202 208.1,161.7 185,158.6 166.5,157 182.9,187.6 				"/>
				<polygon class="st10" points="208.1,161.7 166.5,157 167.6,156.4 209.8,161.1 				"/>
			</g>
			<path class="st11" d="M181.9,158.7c1.6,20.2,28.5,35.7,38.9,35.7s0.3,0,0.4,0l-13.1-32.7L181.9,158.7z"/>
			<path class="st12" d="M191.4,175.6c-0.7-0.1-1.3,0.2-1.7,0.5c-0.4,0.4-0.5,0.9-0.3,1.6c0.2,0.7,0.7,1.3,1.4,1.8s1.5,0.9,2.3,1
				s1.4-0.1,1.8-0.4c0.4-0.4,0.4-1,0.2-1.7c-0.3-0.7-0.8-1.4-1.5-1.9C192.9,176,192.2,175.7,191.4,175.6z"/>
			<path class="st10" d="M191.1,176.1c-0.6-0.1-1.2,0.1-1.5,0.5c-0.3,0.3-0.4,0.8-0.2,1.4c0.2,0.6,0.6,1.1,1.2,1.6
				c0.6,0.4,1.3,0.8,2,0.9c0.7,0.1,1.2-0.1,1.5-0.4c0.3-0.3,0.4-0.9,0.1-1.5c-0.2-0.6-0.7-1.2-1.3-1.6
				C192.5,176.5,191.8,176.2,191.1,176.1z"/>
		</g>
		
			<ellipse transform="matrix(0.3209 -0.9471 0.9471 0.3209 -45.3814 329.1511)" class="st3" cx="206.8" cy="196.2" rx="2.8" ry="7.3"/>
		<path class="st6" d="M248.2,174.8c5.1,1.3,16-3,17.8-2c3.6,2-3.1,7.6,4.7,9c11.8,2.1-19,6.2-19,6.2L248.2,174.8z"/>
		<path class="st5" d="M256.2,171.6l29.5-10.5c5.2-1.8,11,1,12.7,6.3l0,0c1.8,5.2-1,11-6.3,12.7l-29.5,10L256.2,171.6z"/>
		<polygon class="st8" points="262.7,190.1 266.7,188.8 260.2,170.2 256.2,171.6 		"/>
		<g>
			<path class="st6" d="M238,174.9c-2.4,3.2-9.4,6.5-8,8.9C231.5,186.3,242.1,183.6,238,174.9z"/>
			<path class="st3" d="M233.8,179.5c-2.1,5.9-3.3,9.2-0.1,10.2c2.5,0.7,3.5-5.2,6.5-3.6c2.8,1.5-0.1,7.6,1.7,8
				c3.9,0.8,3.1-5.2,6.7-5.2c3,0-2.7,5.2,1.3,5.5c4.4,0.3,6-7.4,6.1-11c0.1-3.9-4.5-8.5-8.8-9.5
				C241.5,172.6,235.5,174.9,233.8,179.5z"/>
		</g>
		<path class="st1" d="M212.9,32.6c5.8,17.9,53.1,39.9,70.4,31.6C284.6,21.8,228.6,14.8,212.9,32.6z"/>
	</g>
	<g>
		<g>
			<path class="st14" d="M777.6,78.1c77.1,0,52.5,133,0.2,133c-22.6,0-31.8-23.6-40.6-51.7C725.9,123.3,733.8,78.1,777.6,78.1z"/>
			<path class="st3" d="M781.9,355.8c-3.6,5.2-8.4,8.2-9.6,12c-0.7,2.1-0.2,4.8,2,5.1c9.3,1.1,12-3.4,15.3-4.3
				c5.7-1.6,5.9-4.9,3.5-12.7C790.9,348,784.8,350.9,781.9,355.8z"/>
			<path class="st3" d="M798.7,256.9h-42.5l5.4,98.9h11.2l2.3-75.2c0.2-6,4.4-6,4.6,0l2.3,75.2h11.2L798.7,256.9z"/>
			<path class="st3" d="M759.4,197.7l-22.3,29c-3.2,4.1-11.3-3.9-8.9-8l17.5-29.5C752.1,178.6,766.6,188.4,759.4,197.7z"/>
			<path class="st15" d="M737.5,202.1l7.7-12.8c4.7-7.8,13.8-4.6,15.4,1.4l-7.2,14.1l-4.9,6.4L737.5,202.1z"/>
			<polygon class="st16" points="750,185.1 755.3,240.8 777.8,256.9 799.6,240.7 805.9,186 793,184.4 762,184.4 			"/>
			<path class="st3" d="M777.5,145.2L777.5,145.2c-6.7,0-12.2,5.5-12.2,12.2v26.5c0,6.7,5.5,12.2,12.2,12.2l0,0
				c6.7,0,12.2-5.5,12.2-12.2v-26.5C789.7,150.7,784.2,145.2,777.5,145.2z"/>
			<path class="st6" d="M765.2,175.4L765.2,175.4c0,10.2,24.4,10.2,24.4,0l0,0C789.7,165.2,765.2,165.2,765.2,175.4z"/>
			<path class="st3" d="M777.5,81.8c32,0,40.5,17.8,42.3,35.9c1.2,12.2-1.2,24.7-5.3,31.8c-13.9,24.1-34.4,29.4-41,29.4
				c-6.5,0-21.1-4.6-32.9-29.4C735.8,139.5,724,81.8,777.5,81.8z"/>
			<polygon class="st4" points="799.6,240.7 797.1,285.6 757.9,285.6 755.3,240.8 			"/>
			<path class="st3" d="M761.6,355.8c-3.6,5.2-8.4,8.2-9.6,12c-0.7,2.1-0.2,4.8,2,5.1c9.3,1.1,12-3.4,15.3-4.3
				c5.7-1.6,5.9-4.9,3.5-12.7C770.6,348,764.5,350.9,761.6,355.8z"/>
			<path class="st3" d="M819.9,124.6c-3.5-0.9-7.7,3.8-9.4,10.4s-0.3,12.7,3.2,13.5c3.5,0.9,7.7-3.8,9.4-10.4
				C824.7,131.5,823.3,125.5,819.9,124.6z"/>
			<g>
				<path class="st2" d="M752.1,139.8c1.8,0,3.3-2.7,3.3-5.9c0-3.3-1.5-5.9-3.3-5.9s-3.3,2.7-3.3,5.9S750.3,139.8,752.1,139.8z"/>
				<path class="st2" d="M780.7,139.8c1.8,0,3.3-2.7,3.3-5.9c0-3.3-1.5-5.9-3.3-5.9s-3.3,2.7-3.3,5.9
					C777.3,137.1,778.8,139.8,780.7,139.8z"/>
			</g>
			<path class="st7" d="M751.8,155.3c3.4,6.8,25.2,7.8,34.5,0C774.2,158.7,759.4,158.5,751.8,155.3z"/>
			<path class="st6" d="M759.7,146.5c2.6,6.4,10.8,6.3,13.4,0C769.3,150,763.6,150.1,759.7,146.5z"/>
			<path class="st17" d="M797.3,127.1c1.4,0,18.4-1,18.4-1l-1.1,2.9l-15.6,2.9L797.3,127.1z"/>
			<path class="st15" d="M775.4,363.2c-1.4,1.5-2.5,2.9-3,4.5c-1.7,5.3,2.8,5.6,6.7,5.2c5.6-0.6,7.9-3.7,10.6-4.4
				c5.1-1.4,5.8-4.2,4.2-10.4c-0.2,5.4-8.8,8.9-10.9,9.6C780.8,368.2,775.8,365.3,775.4,363.2z"/>
			<path class="st15" d="M755.1,363.2c-1.4,1.5-2.5,2.9-3,4.5c-1.8,5.7,3.6,5.7,7.6,5c5-0.8,7.1-3.6,9.7-4.3
				c5.1-1.4,5.8-4.2,4.2-10.4c-0.2,5.4-8.8,9.4-11,9.6C760.2,367.7,754.3,363.9,755.1,363.2z"/>
			<path class="st14" d="M748.8,92.7c18.7-1.4,76.5,20.9,53.5,101.5c41.4-67,17-101-1.1-109.7C780.8,74.7,756.1,82.2,748.8,92.7z"/>
			<path class="st14" d="M773.8,89.8c-22.2,9.4-35,30.1-39.7,51.9C725.5,96.8,762.9,66.8,773.8,89.8z"/>
			<path class="st3" d="M715.2,209.1l14.9,17.2c7.6,3.3,14.6-6.4,5.7-11.1l-17.6-13.5L715.2,209.1z"/>
			<path class="st3" d="M711.6,204.9l3.6,4.2l5.2-7.5l-2.1-2.5C712.6,192.4,704.6,196.8,711.6,204.9z"/>
			<path class="st3" d="M708.8,186L708.8,186c-0.6,0.4-0.8,1.1-0.4,1.7l5.2,8.3c0.4,0.6,1.1,0.8,1.7,0.4l0,0
				c0.6-0.4,0.8-1.1,0.4-1.7l-5.2-8.3C710.2,185.9,709.4,185.7,708.8,186z"/>
			<path class="st3" d="M705.8,186.7L705.8,186.7c-0.6,0.4-0.7,1.2-0.3,1.7l5.6,8.1c0.4,0.6,1.2,0.7,1.7,0.3l0,0
				c0.6-0.4,0.7-1.2,0.3-1.7l-5.6-8.1C707.2,186.5,706.4,186.3,705.8,186.7z"/>
			<path class="st3" d="M708.2,192.7L708.2,192.7c-0.7,0.1-1.1,0.8-0.9,1.5l1.4,6.6c0.1,0.7,0.8,1.1,1.5,0.9l0,0
				c0.7-0.2,1.1-0.8,0.9-1.5l-1.4-6.6C709.6,193,708.9,192.6,708.2,192.7z"/>
			<path class="st3" d="M706.7,188.6L706.7,188.6c-0.6,0.3-0.9,1-0.7,1.6l3.7,9.1c0.3,0.6,1,0.9,1.6,0.7l0,0c0.6-0.3,0.9-1,0.7-1.6
				l-3.7-9.1C708.1,188.6,707.4,188.3,706.7,188.6z"/>
			<polygon class="st16" points="790.4,184.4 777.5,196.1 765.2,184.3 753.4,205.6 801.6,204.8 			"/>
			<g>
				<polygon class="st15" points="772.8,187.2 777.5,196.1 762,184.4 765.2,180.8 				"/>
				<polygon class="st15" points="782.2,187.2 777.5,196.1 793,184.4 789.7,180.8 				"/>
			</g>
			<path class="st18" d="M789.7,180.8l3.3,3.6l-3.1,13.5l-7.7-10.8L789.7,180.8L789.7,180.8z M765.2,180.8l-3.3,3.6l3.1,13.5
				l7.7-10.8L765.2,180.8z"/>
			<path class="st15" d="M785.8,126.8c5-0.3,11.6,0.3,12.8,0.7c1.5,0.5,1.6,0.7,1.7,1.9c0.1,1.2-0.1,2.3-1,2.6
				c-1.2,0.4-1.3,2.1-2.1,6.9c-0.7,4.3-2.6,7.8-10.4,8.4c-0.3,0-0.7,0-1,0v-1.2c3.5,0,7.5-1.3,8.9-4c2-3.8,2.5-11.5-0.1-13.1
				c-1.1-0.7-4.9-1.2-8.8-1L785.8,126.8L785.8,126.8z M768.4,129.3c1.7,0,11.4-2,16.4-2.4c0.3,0,0.7-0.1,1-0.1v1.3
				c-4.1,0.2-8.3,1.1-9.8,3.2c-2.5,3.5,1.5,12,5.3,13.9c1.2,0.6,2.8,0.9,4.5,0.9v1.2c-6.9,0.1-9.3-4.7-10.1-6.3
				c-1.5-3-3.5-7.1-7.4-7.1s-4.8,3.8-6.2,6.8c-0.8,1.6-3.1,6.5-10,6.4v-1.2c1.7,0,3.3-0.3,4.5-0.9c3.8-1.9,7.8-10.4,5.3-13.9
				c-1.5-2.1-5.7-3-9.8-3.2v-1.3c0.3,0,0.7,0,1,0.1C757.6,127,764.3,129.2,768.4,129.3z M752.1,147.1c-0.3,0-0.7,0-1,0
				c-7.8-0.6-9.6-4.1-10.4-8.4c-0.8-4.8-0.8-6.4-2.1-6.9c-0.9-0.3-1.1-1.4-1-2.6c0.1-1.2,0.1-1.4,1.7-1.9c1.2-0.4,7.8-1,12.8-0.7
				v1.3c-3.9-0.2-7.7,0.3-8.8,1c-2.6,1.6-2.1,9.3-0.1,13.1c1.4,2.7,5.3,4,8.9,4L752.1,147.1L752.1,147.1z"/>
			<path class="st15" d="M785.5,366.8c0-0.2-0.1-0.4-0.2-0.6c-0.5-1.2-1.9-2.5-3.5-3.5c-1.5-1-3.6-1.6-5-1.4
				c0.7-0.7,1.4-1.5,2.2-2.3c1.3,0.3,2.9,0.9,4.1,1.6c2,1.2,3.7,3,4.5,4.6c0.2,0.4,0.3,0.8,0.3,1.1L785.5,366.8z"/>
			<path class="st15" d="M765,366.8c0-0.2-0.1-0.4-0.2-0.6c-0.5-1.2-1.9-2.5-3.5-3.5c-1.5-1-3.6-1.6-5-1.4c0.7-0.7,1.4-1.5,2.2-2.3
				c1.3,0.3,2.9,0.9,4.1,1.6c2,1.2,3.7,3,4.4,4.6c0.2,0.4,0.3,0.8,0.3,1.1L765,366.8z"/>
			<path class="st19" d="M759.7,119.4c-2.7-2-6.8-1.9-9.4,0.1c-1.3,1-0.9,1.3,0,0.8c3.3-2.2,6.3-1.3,8.7,0.4
				C760.1,121.6,761,120.5,759.7,119.4z"/>
			<path class="st3" d="M756.1,202.9c-1.5-1.2-5.6-3.2-6.9-3C747.9,200.1,756.2,211.1,756.1,202.9z"/>
			<g>
				<g>
					<polygon class="st10" points="737.9,174.3 742.7,194.1 753.8,214.1 755.4,213.3 739.6,173.7 					"/>
					<polygon class="st10" points="753.8,214.1 737.9,174.3 715.1,171.2 696.8,169.6 713.1,199.8 					"/>
					<polygon class="st10" points="737.9,174.3 696.8,169.6 698,169 739.6,173.7 					"/>
				</g>
				<path class="st11" d="M712,171.3c1.5,19.9,28.2,35.3,38.4,35.3s0.3,0,0.4,0l-12.9-32.3L712,171.3z"/>
				<path class="st12" d="M721.4,188c-0.7-0.1-1.3,0.1-1.7,0.5c-0.3,0.4-0.5,0.9-0.3,1.6c0.2,0.6,0.7,1.3,1.4,1.8s1.5,0.9,2.3,1
					s1.4-0.1,1.8-0.4c0.3-0.4,0.4-1,0.2-1.7c-0.3-0.7-0.8-1.4-1.5-1.9C722.9,188.4,722.2,188.1,721.4,188z"/>
				<path class="st10" d="M721.2,188.6c-0.6-0.1-1.1,0.1-1.4,0.5c-0.3,0.3-0.4,0.8-0.2,1.4c0.2,0.6,0.6,1.1,1.2,1.5
					c0.6,0.4,1.3,0.8,2,0.9c0.7,0.1,1.2-0.1,1.5-0.4c0.3-0.3,0.4-0.8,0.1-1.5c-0.2-0.6-0.7-1.2-1.3-1.6
					C722.5,188.9,721.8,188.6,721.2,188.6z"/>
			</g>
			<path class="st3" d="M758.7,213.9l17.7,12c6.8,4.6,13.7-5.3,4.4-9.8l-18.3-8.8L758.7,213.9z"/>
			<path class="st3" d="M750.9,211.6l7.8,2.4l3.8-6.7l-6.7-4.5c-1.7,0.6-2.6,0.6-4.5,0.3C748.1,204.3,746.2,208,750.9,211.6z"/>
			<path class="st3" d="M806.8,199.2l-23.1,26c-3.5,3.9-10.6-1.2-8.1-5.3l17.5-29.3C799.5,180.1,814.6,190.4,806.8,199.2z"/>
			<path class="st15" d="M785.4,203.5l7.7-12.8c6.9-11.5,23-3.6,13.7,8.5l-10.4,13.5L785.4,203.5z"/>
			<path class="st3" d="M744.3,198.8L744.3,198.8c-0.3,0.6-0.1,1.4,0.5,1.7l8.5,4.8c0.6,0.3,1.4,0.1,1.7-0.5l0,0
				c0.3-0.6,0.1-1.4-0.5-1.7l-8.5-4.8C745.4,197.9,744.6,198.2,744.3,198.8z"/>
			<path class="st3" d="M742,200.8L742,200.8c-0.3,0.6-0.1,1.4,0.6,1.7l8.8,4.4c0.6,0.3,1.4,0.1,1.7-0.6l0,0
				c0.3-0.6,0.1-1.4-0.6-1.7l-8.8-4.4C743.1,200,742.3,200.2,742,200.8z"/>
			<path class="st3" d="M744,208.4L744,208.4c-0.2,0.7,0.2,1.3,0.9,1.5l6.5,1.9c0.7,0.2,1.4-0.2,1.5-0.9l0,0
				c0.2-0.7-0.2-1.3-0.9-1.5l-6.5-1.9C744.8,207.3,744.1,207.7,744,208.4z"/>
			<path class="st3" d="M742.4,204.2L742.4,204.2c-0.3,0.6,0,1.4,0.6,1.7l8.9,4.1c0.6,0.3,1.4,0,1.7-0.6l0,0c0.3-0.6,0-1.4-0.6-1.7
				l-8.9-4.1C743.4,203.3,742.7,203.5,742.4,204.2z"/>
			<path class="st3" d="M706.9,188.7c-1.1-1.5-0.1-2.9-0.5-4c-0.2-0.7-0.6-1-1.3-0.8l0,0c-0.6,0.3-0.9,1-0.7,1.6l0.8,2.4
				C705.5,188.7,706.3,188.9,706.9,188.7z"/>
			<path class="st3" d="M708.3,191.8c-1.1-1.5-0.1-2.9-0.5-4c-0.2-0.7-0.6-1-1.3-0.8l0,0c-0.6,0.3-0.9,1-0.7,1.6l0.8,2.4
				C706.9,191.8,707.7,192.1,708.3,191.8z"/>
			<path class="st3" d="M709,194.5c-1.1-1.5-0.1-2.9-0.5-4c-0.2-0.7-0.6-1-1.3-0.8l0,0c-0.6,0.3-0.9,1-0.7,1.6l0.8,2.4
				C707.6,194.5,708.4,194.8,709,194.5z"/>
			<path class="st19" d="M774.5,119.4c2.7-2,6.8-1.9,9.4,0.1c1.3,1,0.9,1.3,0,0.8c-3.3-2.2-6.3-1.3-8.7,0.4
				C774.1,121.6,773.2,120.5,774.5,119.4z"/>
			<path class="st20" d="M801.8,194.4c27.7-68.7-20.2-102.8-37.7-106.3C801.7,79.5,847.1,122.9,801.8,194.4z"/>
			<path class="st20" d="M756,198.4c-36.2-64.5-9.4-106.8,8.1-110.3C723.8,87,725.1,161.1,756,198.4z"/>
			<path class="st6" d="M760.4,161.9c2.9,4,12.7,3.9,15.8,0C771.6,163.8,765,163.8,760.4,161.9z"/>
		</g>
		<path class="st21" d="M616.3,5.3c64.4,0,48.9,91.4,0,91.4S551.9,5.3,616.3,5.3z"/>
		<path class="st14" d="M638,284c4.8,7.2,11.2,11.3,12.8,16.5c2.6,8.3-6.7,8.4-12.2,6.8c-5.1-1.5-7.9-4.9-10.9-5.8
			c-7.6-2.2-7.8-6.7-4.7-17.5C626,273.3,634.1,277.3,638,284z"/>
		<path class="st14" d="M604.6,284c4.8,7.2,11.2,11.3,12.8,16.5c2.6,8.5-7.2,8.2-12.5,6.7c-5-1.5-7.7-4.8-10.6-5.7
			c-7.6-2.2-7.8-6.7-4.7-17.5C592.7,273.3,600.7,277.3,604.6,284z"/>
		<path class="st22" d="M643,191.5h-54.1V290h22.5v-71.6c0-6.1,9.2-6.2,9.2,0V290H643V191.5z"/>
		<path class="st3" d="M633.1,131l30.4,31.1c3.9,4,10.3,4,14.2,0.1l0,0c4-3.9,4-10.3,0.1-14.2l-30.4-31.1
			C638.7,107.9,624.7,122.5,633.1,131z"/>
		<path class="st3" d="M701.1,139.6l-21.6,23.1c-4.1,3.7-10.6,3.2-14.2-0.9l0,0c-3.6-4.2-3.2-10.6,0.9-14.2l23.5-20.6L701.1,139.6z"
			/>
		<path class="st3" d="M601.4,126.1l-13.2,41.4c-1.7,5.3-7.4,8.2-12.6,6.5l0,0c-5.3-1.7-8.2-7.4-6.5-12.6l13.2-41.4
			C586,108,605,114.7,601.4,126.1z"/>
		<g>
			<path class="st3" d="M582.1,199.2L582.1,199.2c1.3,0.2,2.3,1.4,2.1,2.7l-0.7,5.9c-0.2,1.3-1.4,2.3-2.7,2.1l0,0
				c-1.3-0.2-2.3-1.4-2.1-2.7l0.7-5.9C579.5,200,580.7,199.1,582.1,199.2z"/>
			<path class="st3" d="M584.2,202l0.4-3.3l-19.6-2.3l-0.4,3.3C563,214.1,582.4,218.7,584.2,202z"/>
		</g>
		<path class="st3" d="M584.5,198.7l3.8-31.2c0.7-5.5-3.4-10.5-8.9-11.1l0,0c-5.5-0.6-10.5,3.4-11.1,8.9l-3.4,31.1L584.5,198.7z"/>
		<rect x="588.9" y="113.6" class="st17" width="54.1" height="85.3"/>
		<path class="st3" d="M616,73.4L616,73.4c-6.7,0-12.2,5.5-12.2,12.2v28c0,6.7,5.5,12.2,12.2,12.2l0,0c6.7,0,12.2-5.5,12.2-12.2v-28
			C628.2,78.9,622.7,73.4,616,73.4z"/>
		<path class="st6" d="M603.8,104.5L603.8,104.5c0,10.5,24.4,10.5,24.4,0l0,0C628.2,94,603.8,94,603.8,104.5z"/>
		<path class="st3" d="M616,8.2c27.1,0.2,35.4,19.6,37.8,39.3c3.5,28.6-10,60.8-33.8,60.6c-27.4-0.2-42.5-27.5-44.1-53.7
			C574.3,30.8,583.3,8,616,8.2z"/>
		
			<ellipse transform="matrix(0.2474 -0.9689 0.9689 0.2474 428.5322 680.7358)" class="st3" cx="652.5" cy="64.5" rx="12.7" ry="6.5"/>
		
			<ellipse transform="matrix(0.9689 -0.2474 0.2474 0.9689 1.9561 144.5691)" class="st3" cx="576.2" cy="64.5" rx="6.5" ry="12.7"/>
		<g>
			<path class="st2" d="M612,67.8c1.8,0,3.3-2.7,3.3-6.1c0-3.3-1.5-6.1-3.3-6.1s-3.3,2.7-3.3,6.1C608.7,65.1,610.2,67.8,612,67.8z"
				/>
			<path class="st2" d="M635.8,67.8c1.8,0,3.3-2.7,3.3-6.1c0-3.3-1.5-6.1-3.3-6.1s-3.3,2.7-3.3,6.1C632.5,65.1,634,67.8,635.8,67.8z
				"/>
		</g>
		<path class="st6" d="M616,74.7c2.6,6.6,10.8,6.4,13.4,0C625.7,78.3,620,78.5,616,74.7z"/>
		<path class="st21" d="M654.8,62.5c1.1-2.4,3.2-9.2,2.8-14.9c-4.1-54.7-79.2-55.3-84.5,0c-0.5,5.6,1.3,11.4,3.7,17.1s4,7.8,3.3,0.5
			c-0.8-8.9,4.5-17.6,10-24.2c19.2-23.2,42.6-16.1,52.5-5.5C649.2,42.5,654.8,52.2,654.8,62.5z"/>
		<path class="st21" d="M658.2,46.7c5.5-57.5-90.4-56.1-85.1,0C585,12.4,646.4,12.4,658.2,46.7z"/>
		<path class="st7" d="M605.5,84.4c5.9,10.5,27.3,10.8,34.5,0C629.8,88.5,615.1,88.2,605.5,84.4z"/>
		<path class="st21" d="M640.8,56c2.7-31.8-11.1-32.9-31.9-30.8C629.3,10.7,666.9,18.3,640.8,56z"/>
		<path class="st21" d="M613.5,53.9c22.6-24.8,13.1-32.2-3.1-40.5C637.2,10.7,661.6,34.6,613.5,53.9z"/>
		<path class="st21" d="M593.3,54.2c20.4-17.4,23.1-30.7,8.2-43.6C630.9,14.1,645.3,44.1,593.3,54.2z"/>
		<path class="st21" d="M573.8,55.4c9.7-15.6,15.1-25.5,13.5-39.5C617.9,18.2,640.6,31.6,573.8,55.4z"/>
		<path class="st17" d="M599.8,125.8l-7.3,25.4l-19.4-5.3l7.4-25.7C584,108.1,603.1,114.3,599.8,125.8z"/>
		<path class="st17" d="M633.1,131l18.5,18.8l15.4-13.7l-18.2-19.6C640.2,107.3,625,122.3,633.1,131z"/>
		<polygon class="st23" points="667,136.2 664.4,133.4 648.9,147.1 651.6,149.9 		"/>
		<path class="st20" d="M650.1,299c0.3,0.5,0.5,1.1,0.7,1.7c2.6,8.4-6.3,8.2-11.7,6.9c-5.7-1.4-8.3-5-11.4-5.9
			c-4.1-1.2-6.1-3-6.5-6.2c4.4,3.4,10.9,6.2,17.9,8.5C642.1,300.7,646.3,299,650.1,299z"/>
		<path class="st20" d="M647.1,295.5c0.3,0.2,0.7,0.1,0.9-0.1c0.2-0.3,0.1-0.7-0.1-0.9c-0.5-0.4-1.3-0.7-2.2-0.9l0,0
			c0.2,0,0.4,0,0.5-0.2c0.1,0,0.1-0.1,0.2-0.2c0.2-0.3,0.1-0.7-0.1-0.9c-0.6-0.5-1.8-0.9-3.2-1.3c0.1,0,0.2,0,0.3,0
			c0.4,0,0.7-0.2,0.7-0.6s-0.2-0.7-0.6-0.7c-1-0.1-1.9,0-2.6,0.2v1.8c0.9,0.1,1.8,0.4,2.6,0.6c-0.5,0.1-1,0.4-1.5,0.6
			c-0.4,0-0.7,0-1.1,0v2.6c0.3-0.3,0.6-0.6,0.9-0.9c0.2-0.2,0.4-0.3,0.6-0.4C644.4,294.4,646.3,294.8,647.1,295.5z M640.8,290
			c-0.4,0.1-0.7,0.3-1.1,0.4h-0.1c-2.1-0.2-4.3,0-5.8,0.9c-0.3,0.2-0.4,0.6-0.3,0.9c0.2,0.3,0.6,0.4,0.9,0.3c1-0.5,2.3-0.8,3.7-0.8
			c-0.9,0.9-1.5,1.8-2,2.7c-0.2,0.2-0.3,0.5-0.2,0.8c0.2,0.3,0.6,0.4,0.9,0.3c1-0.5,2.2-0.8,3.4-1c-0.8,0.9-1.4,1.9-1.9,2.7
			c-0.2,0.3-0.1,0.7,0.2,0.9c0.3,0.2,0.7,0.1,0.9-0.2c0.4-0.6,0.8-1.3,1.3-2V293c-0.9,0.1-1.8,0.2-2.6,0.4c0.3-0.5,0.7-0.9,1.2-1.3
			c0.2-0.2,0.4-0.3,0.7-0.5c0.3,0,0.5,0.1,0.8,0.1L640.8,290L640.8,290z"/>
		<path class="st20" d="M616.7,298.9c0.3,0.5,0.5,1.1,0.7,1.7c2.6,8.4-6.3,8.2-11.8,6.9c-5.7-1.4-8.2-5-11.3-5.9
			c-4.1-1.2-6.1-3-6.5-6.2c4.4,3.4,10.9,6.2,17.9,8.5C608.7,300.6,613,299,616.7,298.9z"/>
		<path class="st20" d="M613.7,295.4c0.3,0.2,0.7,0.1,0.9-0.1c0.2-0.3,0.1-0.7-0.1-0.9c-0.5-0.4-1.3-0.7-2.2-0.9l0,0
			c0.2,0,0.4,0,0.5-0.2c0.1,0,0.1-0.1,0.2-0.2c0.2-0.3,0.1-0.7-0.1-0.9c-0.6-0.5-1.8-0.9-3.2-1.3c0.1,0,0.2,0,0.3,0
			c0.4,0,0.7-0.2,0.7-0.6s-0.2-0.7-0.6-0.7c-1-0.1-1.9,0-2.7,0.2v1.8c0.9,0.1,1.8,0.4,2.6,0.6c-0.5,0.1-1,0.4-1.5,0.6
			c-0.4,0-0.7,0-1.1,0v2.6c0.3-0.3,0.6-0.6,0.9-0.9c0.2-0.2,0.4-0.3,0.6-0.4C611,294.3,612.9,294.8,613.7,295.4z M607.4,289.9
			c-0.4,0.1-0.7,0.3-1.1,0.4h-0.1c-2.1-0.2-4.3,0-5.8,0.9c-0.3,0.2-0.4,0.6-0.3,0.9c0.2,0.3,0.6,0.4,0.9,0.3c1-0.5,2.3-0.8,3.7-0.8
			c-0.9,0.9-1.5,1.8-2,2.7c-0.2,0.2-0.3,0.5-0.2,0.8c0.2,0.3,0.6,0.4,0.9,0.3c1-0.5,2.2-0.8,3.4-1c-0.8,0.9-1.4,1.9-1.9,2.6
			c-0.2,0.3-0.1,0.7,0.2,0.9c0.3,0.2,0.7,0.1,0.9-0.2c0.4-0.6,0.8-1.3,1.3-2V293c-0.9,0.1-1.8,0.2-2.6,0.4c0.3-0.5,0.7-0.9,1.2-1.3
			c0.2-0.2,0.4-0.3,0.7-0.5c0.3,0,0.5,0.1,0.8,0.1L607.4,289.9L607.4,289.9z"/>
		<polygon class="st17" points="628.2,120 620.8,125.8 615.1,120 588.9,150.2 643,150.1 		"/>
		<polygon class="st23" points="628.9,109 631.5,113.6 628.4,132.9 623.1,123.1 		"/>
		<polygon class="st23" points="603.7,109 599.7,113.6 610.1,132.9 618.4,123.1 		"/>
		<path class="st24" d="M617.6,124.2c0.9,1,1.8,0.8,3,0.8l-2.4-1.9L617.6,124.2L617.6,124.2z M620.6,125l2.5-1.9l0.7,1.4
			C622.9,125.2,621.6,125,620.6,125z"/>
		<polygon class="st23" points="573.1,145.9 574.1,142.3 588.9,146.3 588.9,150.2 		"/>
		<path class="st3" d="M699.7,140.1l-4.2,4.5l-9-9.5l3-6.4c6.5-6.1,22.5-21.4,25.4-13.3c1.5,4.1,2.5,7.8,0.9,11.3
			C712.6,133.9,703,137,699.7,140.1z"/>
		<path class="st3" d="M715.4,99.7L715.4,99.7c-1.1-0.3-2.2,0.5-2.5,1.6l-3.7,16c-0.3,1.1,0.5,2.2,1.6,2.5l0,0
			c1.1,0.3,2.2-0.5,2.5-1.6l3.7-16C717.2,101,716.5,99.9,715.4,99.7z"/>
		<path class="st3" d="M718.8,104L718.8,104c-1.1-0.4-2.3,0.3-2.6,1.3l-5,15.7c-0.4,1.1,0.3,2.3,1.3,2.6l0,0
			c1.1,0.4,2.3-0.3,2.6-1.3l5-15.7C720.5,105.5,719.9,104.3,718.8,104z"/>
		<g>
			<path class="st10" d="M690.3,62.9l18.2-0.1c3.5,0,6.4,2.9,6.4,6.4l0.2,48.4c0,3.5-2.9,6.4-6.4,6.4l-18.2,0.1
				c-3.5,0-6.4-2.9-6.4-6.4l-0.2-48.4C683.9,65.8,686.8,62.9,690.3,62.9z"/>
			<path class="st11" d="M694.7,64.4h9.4c0.3,0,0.5,0.2,0.5,0.5l0,0c0,0.3-0.2,0.5-0.5,0.5h-9.4c-0.3,0-0.5-0.2-0.5-0.5l0,0
				C694.3,64.6,694.5,64.4,694.7,64.4z"/>
			<circle class="st11" cx="699.6" cy="121.2" r="1.6"/>
		</g>
		
			<rect x="686.8" y="69.9" transform="matrix(1 -3.413568e-03 3.413568e-03 1 -0.3136 2.3885)" class="st18" width="25.5" height="46.3"/>
		<g>
			<g>
				<defs>
					
						<rect id="SVGID_1_" x="686.8" y="69.9" transform="matrix(1 -3.413568e-03 3.413568e-03 1 -0.3136 2.3885)" width="25.5" height="46.3"/>
				</defs>
				<clipPath id="SVGID_2_">
					<use xlink:href="#SVGID_1_"  style="overflow:visible;"/>
				</clipPath>
				<g class="st25">
					<g>
						<path class="st21" d="M700.4,74.8c-13.1,0-9.9,17.3,0,17.3C710.3,92.2,713.4,74.8,700.4,74.8z"/>
						<path class="st14" d="M696.2,127.7c-0.9,1.4-2.1,2.1-2.4,3.1c-0.5,1.6,1.3,1.6,2.3,1.3s1.5-0.9,2.1-1.1
							c1.5-0.4,1.5-1.3,0.9-3.3C698.5,125.6,696.9,126.4,696.2,127.7z"/>
						<path class="st14" d="M704.5,127.7c0.9,1.4,2.1,2.1,2.4,3.1c0.5,1.6-1.4,1.6-2.4,1.3s-1.5-0.9-2-1.1c-1.4-0.4-1.5-1.3-0.9-3.3
							C702.2,125.6,703.8,126.4,704.5,127.7z"/>
						<path class="st22" d="M695.2,110.1h10.3v18.7h-4.3v-13.6c0-1.2-1.7-1.2-1.7,0v13.6h-4.3V110.1z"/>
						<path class="st3" d="M697.6,97.7l-2.5,7.9c-0.3,1-1.4,1.6-2.4,1.2l0,0c-1-0.3-1.6-1.4-1.2-2.4l2.5-7.9
							C694.7,94.3,698.3,95.6,697.6,97.7z"/>
						<g>
							<path class="st3" d="M694,111.6L694,111.6c0.3,0,0.4,0.3,0.4,0.5l-0.1,1.1c0,0.3-0.3,0.4-0.5,0.4l0,0c-0.3,0-0.4-0.3-0.4-0.5
								l0.1-1.1C693.5,111.8,693.7,111.6,694,111.6z"/>
							<path class="st3" d="M694.4,112.1l0.1-0.6l-3.7-0.4l-0.1,0.6C690.4,114.4,694.1,115.3,694.4,112.1z"/>
						</g>
						<path class="st3" d="M694.5,111.5l0.7-5.9c0.1-1-0.6-2-1.7-2.1l0,0c-1-0.1-2,0.6-2.1,1.7l-0.6,5.9L694.5,111.5z"/>
						<path class="st3" d="M703.1,97.7l2.5,7.9c0.3,1,1.4,1.6,2.4,1.2l0,0c1-0.3,1.6-1.4,1.2-2.4l-2.5-7.9
							C706.1,94.3,702.5,95.6,703.1,97.7z"/>
						<g>
							<path class="st3" d="M706.8,111.6L706.8,111.6c-0.3,0-0.4,0.3-0.4,0.5l0.1,1.1c0,0.3,0.3,0.4,0.5,0.4l0,0
								c0.3,0,0.4-0.3,0.4-0.5l-0.1-1.1C707.3,111.8,707.1,111.6,706.8,111.6z"/>
							<path class="st3" d="M706.4,112.1l-0.1-0.6l3.7-0.4l0.1,0.6C710.4,114.4,706.7,115.3,706.4,112.1z"/>
						</g>
						<path class="st3" d="M706.3,111.5l-0.7-5.9c-0.1-1,0.6-2,1.7-2.1l0,0c1-0.1,2,0.6,2.1,1.7l0.6,5.9L706.3,111.5z"/>
						<rect x="695.2" y="95.4" class="st17" width="10.3" height="16.2"/>
						<path class="st3" d="M700.4,87.7L700.4,87.7c1.3,0,2.3,1,2.3,2.3v5.3c0,1.3-1,2.3-2.3,2.3l0,0c-1.3,0-2.3-1-2.3-2.3V90
							C698.1,88.8,699.1,87.7,700.4,87.7z"/>
						<path class="st6" d="M702.7,93.6L702.7,93.6c0,2-4.6,2-4.6,0l0,0C698.1,91.6,702.7,91.6,702.7,93.6z"/>
						<path class="st3" d="M700.4,75.4c-13.1,0-9.9,18.9,0,18.9C710.3,94.3,713.4,75.4,700.4,75.4z"/>
						
							<ellipse transform="matrix(0.9689 -0.2474 0.2474 0.9689 0.2161 173.8639)" class="st3" cx="691.9" cy="86.1" rx="1.2" ry="2.4"/>
						
							<ellipse transform="matrix(0.2472 -0.969 0.969 0.2472 450.3295 751.6548)" class="st3" cx="708.9" cy="86" rx="2.4" ry="1.2"/>
						<g>
							<ellipse class="st2" cx="703.1" cy="85.5" rx="0.6" ry="1.2"/>
							<ellipse class="st2" cx="697.7" cy="85.5" rx="0.6" ry="1.2"/>
						</g>
						<path class="st6" d="M701.6,88c-0.5,1.2-2.1,1.2-2.5,0C699.8,88.7,700.9,88.7,701.6,88z"/>
						<path class="st21" d="M693.2,86.2c0.1,1.4-0.2,1-0.7-0.1s-0.9-2.2-0.8-3.2c0.8-10.4,16.2-10.5,17.3,0c0.1,1.1-0.3,2.2-0.8,3.2
							c-0.5,1.1-0.8,1.5-0.7,0.1c0.2-1.7-0.1-4.1-1-5.5c-1.6-2.5-3.6-1.1-6.4-1.1c-2.8,0-4.1-1.1-5.9,1.2
							C693.2,82.2,693,84.4,693.2,86.2z"/>
						<path class="st21" d="M691.7,82.7c-1-10.9,18.3-10.6,17.3,0C706.8,76.2,694,76.2,691.7,82.7z"/>
						<path class="st7" d="M703.6,89.8c-1.1,2-5.2,2-6.5,0C699,90.6,701.8,90.6,703.6,89.8z"/>
						<path class="st21" d="M704.4,83.7c3.3-5.1,1.1-6.5-2.6-8C706.5,75.1,712.1,79.7,704.4,83.7z"/>
						<path class="st21" d="M700.4,83.4c5-3.9,3.5-5.6,0.7-7.7C706.2,76.1,710,81.4,700.4,83.4z"/>
						<path class="st21" d="M696.8,82.3c4.4-2.6,5.1-4.4,2.8-7.3C704.9,76.6,706.8,82.1,696.8,82.3z"/>
						<path class="st21" d="M693,81.9c2.3-2.6,3.6-3.7,3.7-6.4C702.4,76.9,706.2,79.6,693,81.9z"/>
						<path class="st17" d="M703.4,97.7l1.4,4.8l3.7-1l-1.4-4.9C706.4,94.3,702.8,95.5,703.4,97.7z"/>
						<path class="st17" d="M697.4,97.7l-1.4,4.8l-3.7-1l1.4-4.9C694.4,94.3,698.1,95.5,697.4,97.7z"/>
						<polygon class="st23" points="692.4,101.5 692.6,100.8 695.2,101.5 695.2,102.3 						"/>
						<path class="st26" d="M693.9,130.5c-0.1,0.1-0.1,0.2-0.1,0.3c-0.5,1.6,1.2,1.6,2.2,1.3c1.1-0.3,1.6-0.9,2.2-1.1
							c0.8-0.2,1.1-0.6,1.2-1.2c-0.8,0.6-2.1,1.2-3.4,1.6C695.4,130.8,694.6,130.5,693.9,130.5z"/>
						<path class="st26" d="M695.7,128.8c0.1,0,0.1,0,0.2,0.1l0,0c0.4,0,0.8,0,1.1,0.2c0.1,0,0.1,0.1,0,0.2c0,0.1-0.1,0.1-0.2,0
							c-0.2-0.1-0.4-0.1-0.7-0.2c0.2,0.2,0.3,0.4,0.4,0.5c0,0,0.1,0.1,0,0.2c0,0.1-0.1,0.1-0.2,0c-0.2-0.1-0.4-0.2-0.6-0.2
							c0.2,0.2,0.3,0.4,0.4,0.5c0,0.1,0,0.1,0,0.2c-0.1,0-0.1,0-0.2,0c-0.1-0.1-0.2-0.3-0.3-0.4v-0.5c0.2,0,0.3,0,0.5,0.1
							c-0.1-0.1-0.1-0.2-0.2-0.2l-0.1-0.1h-0.1L695.7,128.8L695.7,128.8z M694.5,129.8c-0.1,0-0.1,0-0.2,0c0-0.1,0-0.1,0-0.2
							c0.1-0.1,0.2-0.1,0.4-0.2l0,0h-0.1l0,0c0-0.1,0-0.1,0-0.2c0.1-0.1,0.3-0.2,0.6-0.2c0,0,0,0-0.1,0s-0.1,0-0.1-0.1
							s0-0.1,0.1-0.1c0.2,0,0.4,0,0.5,0v0.3c-0.2,0-0.3,0.1-0.5,0.1c0.1,0,0.2,0.1,0.3,0.1s0.1,0,0.2,0v0.5c0-0.1-0.1-0.1-0.2-0.2
							l-0.1-0.1C695,129.6,694.6,129.7,694.5,129.8z"/>
						<path class="st26" d="M706.8,130.5c0.1,0.1,0.1,0.2,0.1,0.3c0.5,1.6-1.2,1.6-2.2,1.3c-1.1-0.3-1.6-0.9-2.2-1.1
							c-0.8-0.2-1.1-0.6-1.2-1.2c0.8,0.6,2.1,1.2,3.4,1.6C705.3,130.8,706.1,130.5,706.8,130.5z"/>
						<path class="st26" d="M706.2,129.8c0.1,0,0.1,0,0.2,0c0-0.1,0-0.1,0-0.2c-0.1-0.1-0.2-0.1-0.4-0.2l0,0h0.1l0,0
							c0-0.1,0-0.1,0-0.2c-0.1-0.1-0.3-0.2-0.6-0.2c0,0,0,0,0.1,0s0.1,0,0.1-0.1s0-0.1-0.1-0.1c-0.2,0-0.4,0-0.5,0v0.3
							c0.2,0,0.4,0.1,0.5,0.1c-0.1,0-0.2,0.1-0.3,0.1s-0.1,0-0.2,0v0.5c0.1-0.1,0.1-0.1,0.2-0.2l0.1-0.1
							C705.7,129.6,706.1,129.7,706.2,129.8z M705,128.8c-0.1,0-0.1,0-0.2,0.1l0,0c-0.4,0-0.8,0-1.1,0.2c-0.1,0-0.1,0.1,0,0.2
							c0,0.1,0.1,0.1,0.2,0c0.2-0.1,0.4-0.1,0.7-0.2c-0.2,0.2-0.3,0.3-0.4,0.5c0,0-0.1,0.1,0,0.2c0,0.1,0.1,0.1,0.2,0
							c0.2-0.1,0.4-0.2,0.6-0.2c-0.2,0.2-0.3,0.3-0.4,0.5c0,0.1,0,0.1,0,0.2c0.1,0,0.1,0,0.2,0c0.1-0.1,0.2-0.3,0.3-0.4v-0.5
							c-0.2,0-0.3,0-0.5,0.1c0.1-0.1,0.1-0.2,0.2-0.2l0.1-0.1h0.1L705,128.8L705,128.8z"/>
						<polygon class="st17" points="698.1,96.6 700.4,97.7 702.7,96.6 705.5,102.3 695.2,102.3 						"/>
						<polygon class="st23" points="697.9,94.5 697.2,95.4 698.1,99 699.7,97.2 						"/>
						<polygon class="st23" points="702.9,94.5 703.6,95.4 702.7,99 701.1,97.2 						"/>
						<path class="st24" d="M701.3,97.4c-0.3,0.2-0.6,0.3-0.9,0.3l0.7-0.5L701.3,97.4L701.3,97.4z M700.4,97.7l-0.7-0.5l-0.2,0.3
							C699.7,97.6,700.1,97.7,700.4,97.7z"/>
						<polygon class="st23" points="708.5,101.5 708.3,100.8 705.5,101.6 705.5,102.3 						"/>
					</g>
				</g>
			</g>
		</g>
		<path class="st3" d="M695.7,127.5c-1-4,1.4-7.4,2.9-9.9c3-5-1.9-5.8-4.4-2.6c-2.9,3.7-6.3,10.3-2.9,15.7
			C693.3,134,697,132.8,695.7,127.5z"/>
		<path class="st3" d="M719.1,110.7L719.1,110.7c-1.1-0.3-2.3,0.4-2.5,1.5l-1.2,6c-0.2,1.1,0.4,2.8,1.5,2.5l0,0
			c1.1-0.3,2.3-0.4,2.5-1.5l1.2-6C720.8,112.1,720.2,111,719.1,110.7z"/>
		<path class="st3" d="M713.9,126.8L713.9,126.8c-1.1-0.4-1.6-1.7-1.1-2.7l2.6-5.6c0.5-1,2-2,2.7-1.1l0,0c0.7,0.9,1.6,1.7,1.1,2.7
			l-2.6,5.6C716.1,126.7,714.9,127.2,713.9,126.8z"/>
	</g>
	<g>
		<path class="st21" d="M420,119.5c-82.3,0-62.5,109.1,0,109.1C482.5,228.5,502.3,119.5,420,119.5z"/>
		<path class="st22" d="M393.8,452c-5.7,8.6-13.4,13.5-15.3,19.6c-3.1,10,7.4,9.5,13.8,8c6.8-1.6,10-5.7,13.7-6.7
			c9.1-2.6,9.4-8,5.7-20.8C408,439.2,398.4,444,393.8,452z"/>
		<path class="st22" d="M444.3,452c5.7,8.6,13.4,13.5,15.3,19.6c3.3,10.7-9.2,9.5-15.6,7.5c-5.6-1.8-8.6-5.3-12-6.2
			c-9.1-2.6-9.4-8-5.7-20.8C430.1,439.2,439.7,444,444.3,452z"/>
		<path class="st3" d="M381.7,338.6L381.7,338.6c1.2-1.1,3-1,4.1,0.2l4.8,5.2c1.1,1.2,1,3-0.2,4.1l0,0c-1.2,1.1-3,1-4.1-0.2
			l-4.8-5.2C380.4,341.5,380.5,339.7,381.7,338.6z"/>
		<path class="st2" d="M387.7,341.6h64.6v117.6h-26.8v-85.4c0-7.3-10.9-7.4-10.9,0v85.4h-26.8V341.6H387.7z"/>
		<rect x="387.7" y="248.6" class="st17" width="64.6" height="101.8"/>
		<path class="st27" d="M402.1,248.6H438v2.3c0,9.9-8.1,17.9-17.9,17.9l0,0c-9.9,0-17.9-8.1-17.9-17.9v-2.3H402.1z"/>
		<path class="st3" d="M420,200.7L420,200.7c8,0,14.6,6.6,14.6,14.6v33.4c0,8-6.6,14.6-14.6,14.6l0,0c-8,0-14.6-6.6-14.6-14.6v-33.4
			C405.5,207.2,412,200.7,420,200.7z"/>
		<path class="st6" d="M434.6,237.8L434.6,237.8c0,12.5-29.2,12.5-29.2,0l0,0C405.5,225.2,434.6,225.2,434.6,237.8z"/>
		<path class="st3" d="M420,122.9c-82.2,0-62.4,119.3,0,119.3C482.4,242.2,502.2,122.9,420,122.9z"/>
		<path class="st17" d="M452.3,272.7h51.9c6.6,0,12-5.4,12-12l0,0c0-6.6-5.4-12-12-12h-51.9C437.2,248.6,438,272.7,452.3,272.7z"/>
		<path class="st17" d="M399.4,266.1l-25.6,45.1c-3.3,5.7-10.6,7.8-16.4,4.5l0,0c-5.7-3.3-7.8-10.6-4.5-16.4l25.6-45.1
			C385.9,241.1,406.4,253.6,399.4,266.1z"/>
		<path class="st3" d="M386.5,342.3l-1.1-3.8l-22.6,6.5l1.1,3.8C368.8,365.4,392.3,361.5,386.5,342.3z"/>
		<path class="st17" d="M385.4,338.5l-10.3-36.1c-1.8-6.4-8.6-10-14.9-8.1l0,0c-6.3,1.9-10,8.6-8.1,14.9l10.7,35.8L385.4,338.5z"/>
		
			<ellipse transform="matrix(0.9689 -0.2474 0.2474 0.9689 -35.6353 96.6286)" class="st3" cx="366.7" cy="190.1" rx="7.8" ry="15.1"/>
		
			<ellipse transform="matrix(0.2474 -0.9689 0.9689 0.2474 172.0622 601.7463)" class="st3" cx="473.4" cy="190.1" rx="15.1" ry="7.8"/>
		<g>
			<path class="st2" d="M437.1,194.1c2.2,0,4-3.3,4-7.3s-1.8-7.3-4-7.3s-4,3.3-4,7.3S434.9,194.1,437.1,194.1z"/>
			<path class="st2" d="M403,194.1c2.2,0,4-3.3,4-7.3s-1.8-7.3-4-7.3s-4,3.3-4,7.3S400.8,194.1,403,194.1z"/>
		</g>
		<path class="st21" d="M452.6,131.6c-7.2,22.3-65,19.1-80.5,41.2c-3.7,6.3-6.4-0.3-6-4.7C370.5,113,435,111.7,452.6,131.6z"/>
		<path class="st21" d="M429.3,125.1c4.3,20.8,31.6,46.6,44.6,48C476.2,142.6,448.7,119,429.3,125.1z"/>
		<path class="st21" d="M376.8,167.4c-3.6,7.5-3.7,13.5-2.8,22.2c0.9,8.7-0.9,7.7-4.1,0.9c-3.1-6.8-5.4-13.7-4.7-21.5
			C366,161.3,383.1,151.6,376.8,167.4z"/>
		<path class="st21" d="M463,167.4c3.3,8.7,3.4,14.9,2.5,23.7c-0.9,8.7,1.2,6.3,4.4-0.6c3.1-6.8,4.8-13.7,4.7-21.5
			C474.4,161,456.7,151.6,463,167.4z"/>
		<path class="st7" d="M440.6,211.1c-7.9,16.2-33.3,16.2-41.2,0C411.3,217.6,428.8,217.6,440.6,211.1z"/>
		<path class="st6" d="M428,202.3c-3.1,7.8-12.9,7.7-16,0C416.5,206.5,423.3,206.7,428,202.3z"/>
		<path class="st21" d="M408,172.2c-3.8-2.7-10.2-0.8-13.4,2.7c-1.6,1.8-0.2,1.9,0.9,0.9c3.5-3.3,8-3.4,11.7-1.6
			C409.2,175.1,410.1,173.7,408,172.2z"/>
		<path class="st21" d="M428.6,172.2c3.8-2.7,10.2-0.8,13.4,2.7c1.6,1.8,0.2,1.9-0.9,0.9c-3.5-3.3-8-3.4-11.7-1.6
			C427.4,175.1,426.5,173.7,428.6,172.2z"/>
		<path class="st18" d="M379.3,469.7c-0.3,0.7-0.6,1.3-0.8,2c-3.1,10,7.4,9.5,13.8,8c6.8-1.6,10-5.7,13.7-6.7
			c4.9-1.4,7.2-3.6,7.8-7.3c-5.2,4-13,7.3-21.4,10.1C388.9,471.7,383.8,469.8,379.3,469.7z"/>
		<path class="st18" d="M390.4,458.9c0.4,0.1,0.9,0.3,1.3,0.5h0.1c2.5-0.2,5.1,0,7,1.1c0.4,0.2,0.5,0.7,0.3,1
			c-0.2,0.4-0.7,0.5-1,0.3c-1.2-0.7-2.7-0.9-4.4-1c1,1,1.8,2.2,2.4,3.2c0.3,0.2,0.4,0.6,0.2,1c-0.2,0.4-0.7,0.5-1,0.3
			c-1.2-0.6-2.6-1-4-1.2c1,1,1.7,2.2,2.2,3.2c0.2,0.4,0.1,0.8-0.3,1s-0.8,0.1-1-0.3c-0.4-0.7-0.9-1.6-1.6-2.4v-3.1
			c1.1,0.1,2.1,0.2,3.1,0.5c-0.4-0.5-0.9-1.1-1.4-1.5c-0.2-0.2-0.5-0.4-0.8-0.6c-0.3,0-0.6,0.1-0.9,0.1v-2.1H390.4z M382.9,465.5
			c-0.3,0.2-0.8,0.2-1.1-0.2c-0.2-0.3-0.2-0.8,0.2-1.1c0.6-0.4,1.5-0.8,2.6-1.1l0,0c-0.2,0-0.4-0.1-0.6-0.2c-0.1,0-0.2-0.1-0.2-0.2
			c-0.2-0.3-0.2-0.8,0.2-1.1c0.7-0.5,2.1-1.1,3.8-1.6c-0.1,0-0.2,0-0.4,0c-0.4,0-0.8-0.3-0.8-0.7c0-0.4,0.3-0.8,0.7-0.8
			c1.2-0.1,2.2,0,3.2,0.3v2.2c-1.1,0.2-2.2,0.4-3.1,0.7c0.7,0.2,1.2,0.4,1.8,0.7c0.4,0,0.9,0,1.3,0v3.1c-0.3-0.4-0.7-0.8-1.1-1.1
			c-0.2-0.2-0.5-0.4-0.7-0.5C386.2,464.2,383.9,464.8,382.9,465.5z"/>
		<path class="st18" d="M458.8,469.7c0.3,0.7,0.6,1.3,0.8,2c3.1,10-7.4,9.5-13.8,8c-6.8-1.6-10-5.7-13.7-6.7
			c-4.9-1.4-7.2-3.6-7.8-7.3c5.2,4,13,7.3,21.4,10.1C449.2,471.7,454.3,469.8,458.8,469.7z"/>
		<path class="st18" d="M455.2,465.5c0.3,0.2,0.8,0.2,1.1-0.2c0.2-0.3,0.2-0.8-0.2-1.1c-0.6-0.4-1.5-0.8-2.6-1.1l0,0
			c0.2,0,0.4-0.1,0.6-0.2c0.1,0,0.1-0.1,0.2-0.2c0.2-0.3,0.2-0.8-0.2-1.1c-0.7-0.5-2.1-1.1-3.8-1.6c0.1,0,0.2,0,0.4,0
			c0.4,0,0.8-0.3,0.8-0.7c0-0.4-0.3-0.8-0.7-0.8c-1.2-0.1-2.2,0-3.2,0.3v2.2c1.1,0.2,2.2,0.4,3.1,0.7c-0.7,0.2-1.2,0.4-1.8,0.7
			c-0.4,0-0.9,0-1.3,0v3.1c0.3-0.4,0.7-0.8,1.1-1.1c0.2-0.2,0.5-0.4,0.7-0.5C451.9,464.2,454.2,464.8,455.2,465.5z M447.7,458.9
			c-0.4,0.1-0.9,0.3-1.3,0.5h-0.1c-2.5-0.2-5.1,0-7,1.1c-0.4,0.2-0.5,0.7-0.3,1c0.2,0.4,0.7,0.5,1,0.3c1.2-0.7,2.7-0.9,4.4-1
			c-1,1-1.8,2.2-2.4,3.2c-0.3,0.2-0.4,0.6-0.2,1c0.2,0.4,0.7,0.5,1,0.3c1.2-0.6,2.6-1,4-1.2c-1,1-1.7,2.2-2.2,3.2
			c-0.2,0.4-0.1,0.8,0.3,1s0.8,0.1,1-0.3c0.4-0.7,0.9-1.6,1.6-2.4v-3.1c-1.1,0.1-2.1,0.2-3.1,0.5c0.4-0.5,0.9-1.1,1.4-1.5
			c0.2-0.2,0.5-0.4,0.8-0.6c0.3,0,0.6,0.1,0.9,0.1v-2.1H447.7z"/>
		<polygon class="st27" points="362.8,345 361.3,340 383.9,333.4 385.4,338.5 		"/>
		<rect x="387.7" y="286.5" class="st27" width="64.6" height="20"/>
		<path class="st3" d="M509.5,219.4c9.1,0,29.1-26.9,37.9-21c4.4,2.9,4.4,47.7,2.8,49.8c-6.2,7.8-23.7,24.5-43.1,24.2
			c-12.6-0.2-23.2-13.1-22.4-28.9C485.5,227.6,496,219.4,509.5,219.4z"/>
		<path class="st3" d="M546.6,230.7L546.6,230.7c-3.1-0.4-5.5-3.4-4.9-6.5l2.9-15.8c0.6-3.1,3.4-5.4,6.5-4.9l0,0
			c3.1,0.4,5.5,3.4,4.9,6.5l-2.9,15.8C552.5,229,549.7,231.2,546.6,230.7z"/>
		<g>
			<g>
				<path class="st10" d="M540.9,164l-27.3-2.3c-5.3-0.4-10,3.5-10.4,8.8l-6,72.6c-0.4,5.3,3.5,10,8.8,10.4l27.3,2.3
					c5.3,0.4,10-3.5,10.4-8.8l6-72.6C550.2,169.1,546.2,164.4,540.9,164z"/>
				<path class="st11" d="M534.1,165.7l-14.1-1.2c-0.4,0-0.7,0.3-0.8,0.6l0,0c0,0.4,0.3,0.7,0.6,0.8l14.1,1.2c0.4,0,0.7-0.3,0.8-0.6
					l0,0C534.8,166.1,534.5,165.7,534.1,165.7z"/>
				<circle class="st11" cx="520" cy="250.3" r="2.4"/>
			</g>
			<g>
				
					<rect x="488.6" y="188.9" transform="matrix(8.276784e-02 -0.9966 0.9966 8.276784e-02 272.7937 712.559)" class="st18" width="69.7" height="38.4"/>
				
					<rect x="523.9" y="168.3" transform="matrix(8.277756e-02 -0.9966 0.9966 8.277756e-02 305.9217 686.8094)" class="st16" width="4.3" height="17.9"/>
				
					<rect x="519.1" y="171" transform="matrix(8.276831e-02 -0.9966 0.9966 8.276831e-02 291.9335 697.6402)" class="st4" width="11.8" height="38.4"/>
				
					<rect x="524.7" y="170.1" transform="matrix(8.279585e-02 -0.9966 0.9966 8.279585e-02 300.8801 690.6494)" class="st16" width="1.8" height="23.6"/>
				<polygon class="st17" points="506.7,206.6 540.2,209.3 541.1,199.8 507.6,197.1 				"/>
				
					<rect x="510.4" y="204.4" transform="matrix(8.272555e-02 -0.9966 0.9966 8.272555e-02 260.5415 701.4713)" class="st28" width="1.8" height="9.6"/>
				
					<rect x="510.2" y="207.5" transform="matrix(8.273715e-02 -0.9966 0.9966 8.273715e-02 257.2934 704.0651)" class="st28" width="1.8" height="9.6"/>
				
					<rect x="509.9" y="210.5" transform="matrix(8.283665e-02 -0.9966 0.9966 8.283665e-02 253.916 706.5248)" class="st28" width="1.8" height="9.6"/>
				
					<rect x="507.9" y="215.2" transform="matrix(8.263677e-02 -0.9966 0.9966 8.263677e-02 249.2395 707.33)" class="st28" width="1.8" height="6.1"/>
				
					<rect x="522.4" y="205.4" transform="matrix(8.283482e-02 -0.9966 0.9966 8.283482e-02 270.5147 714.3238)" class="st28" width="1.8" height="9.6"/>
				
					<rect x="522.1" y="208.4" transform="matrix(8.284568e-02 -0.9966 0.9966 8.284568e-02 267.1819 716.8125)" class="st28" width="1.8" height="9.6"/>
				
					<rect x="521.9" y="211.5" transform="matrix(8.272815e-02 -0.9966 0.9966 8.272815e-02 264.0008 719.4481)" class="st28" width="1.8" height="9.6"/>
				
					<rect x="519.9" y="216.2" transform="matrix(8.280947e-02 -0.9966 0.9966 8.280947e-02 259.178 720.162)" class="st28" width="1.8" height="6.1"/>
				
					<rect x="534.5" y="206.4" transform="matrix(8.273625e-02 -0.9966 0.9966 8.273625e-02 280.5955 727.2433)" class="st28" width="1.8" height="9.6"/>
				
					<rect x="534.1" y="209.4" transform="matrix(8.272529e-02 -0.9966 0.9966 8.272529e-02 277.2761 729.7376)" class="st28" width="1.8" height="9.6"/>
				
					<rect x="533.9" y="212.5" transform="matrix(8.273715e-02 -0.9966 0.9966 8.273715e-02 274.0267 732.3322)" class="st28" width="1.8" height="9.6"/>
				
					<rect x="531.9" y="217.2" transform="matrix(8.265248e-02 -0.9966 0.9966 8.265248e-02 269.21 732.9941)" class="st28" width="1.8" height="6.1"/>
				
					<rect x="517" y="211.4" transform="matrix(8.276042e-02 -0.9966 0.9966 8.276042e-02 251.1407 729.3555)" class="st28" width="9.6" height="33.7"/>
				
					<rect x="520.3" y="219.4" transform="matrix(8.278891e-02 -0.9966 0.9966 8.278891e-02 242.6015 736.047)" class="st28" width="1.8" height="33.7"/>
				
					<rect x="511.6" y="230.1" transform="matrix(8.275784e-02 -0.9966 0.9966 8.275784e-02 232.3555 729.4732)" class="st28" width="1.8" height="16.9"/>
			</g>
		</g>
		<path class="st3" d="M499.3,251.2c-3.5-17.5,0.3-24.9,3.5-29.7c5.8-8.8-2.8-11.5-7.3-7.4c-6.9,6.3-12.5,22.8-10.3,35
			C486.6,256.6,501.4,261.8,499.3,251.2z"/>
		<path class="st3" d="M552.3,231L552.3,231c-0.2,3.2-2.9,5.6-6.1,5.5l-7.4-0.4c-3.2-0.2-5.6-2.9-5.5-6.1l0,0
			c0.2-3.2,2.9-5.6,6.1-5.5l7.4,0.4C550,225.1,552.5,227.8,552.3,231z"/>
		<path class="st3" d="M551.8,243L551.8,243c-0.2,3.2-2.9,5.6-6.1,5.5l-7.4-0.4c-3.2-0.2-5.6-2.9-5.5-6.1l0,0
			c0.2-3.2,2.9-5.6,6.1-5.5l7.4,0.4C549.5,237.1,552,239.9,551.8,243z"/>
	</g>
	<g>
		<g>
			<path class="st19" d="M67.5,85c-53.3-1.2-58,64.8-34.4,97.2C44.5,197.9,51.7,204,67.6,204c16,0,24.8-6.8,33.5-22.5
				C120.8,150.1,116.5,86.1,67.5,85z"/>
			<path class="st3" d="M63.2,361.6c3.6,5.2,8.4,8.2,9.5,11.9c0.7,2.1,0.2,4.8-2,5.1c-9.2,1.1-11.9-3.4-15.2-4.3
				c-5.7-1.6-5.8-4.9-3.5-12.6C54.3,353.9,60.3,356.8,63.2,361.6z"/>
			<path class="st3" d="M46.5,263.1h42.3l-5.4,98.6H72.2l-2.3-75c-0.2-5.9-4.4-6-4.6,0l-2.3,75H51.9L46.5,263.1z"/>
			<path class="st16" d="M84.4,202.4l16.2,26.1c3.7-1.3,9.9-2.8,12.1-4.1l-13-26.4C94.3,187.1,78.3,192.5,84.4,202.4z"/>
			<polygon class="st16" points="92.4,192.2 88.8,263.1 67.3,263.1 46.5,263.1 43,201.7 45,191.9 67.8,190.9 			"/>
			<path class="st3" d="M67.6,151.8L67.6,151.8c6.7,0,12.2,5.5,12.2,12.2v26.4c0,6.7-5.5,12.2-12.2,12.2l0,0
				c-6.7,0-12.2-5.5-12.2-12.2V164C55.4,157.3,60.9,151.8,67.6,151.8z"/>
			<path class="st6" d="M80.2,177l-0.4,4.9c0,10.2-23.7,10.1-24.3,0l-0.4-6.7C55,165.1,81.2,166.9,80.2,177z"/>
			<path class="st3" d="M67.6,88.7c-41,1.1-39.2,46.9-34.6,64.4c6.7,26.1,35.3,31.1,41.8,31.1s23.1-6.8,30.8-32.7
				C111.2,132.6,118.8,87.3,67.6,88.7z"/>
			<path class="st15" d="M46.5,263.1l1.6,28.6h39.1l1.7-28.6l-10.5-66.2c-6.2,8.3-16.8,6.9-21.6-0.5L46.5,263.1z"/>
			<path class="st3" d="M83.4,361.6c3.6,5.2,8.4,8.2,9.5,11.9c0.7,2.1,0.2,4.8-2,5.1c-9.2,1.1-11.9-3.4-15.2-4.3
				c-5.7-1.6-5.8-4.9-3.5-12.6C74.5,353.9,80.5,356.8,83.4,361.6z"/>
			<g>
				<path class="st2" d="M91.1,146.5c1.8,0,3.3-2.6,3.3-5.9c0-3.2-1.5-5.9-3.3-5.9s-3.3,2.6-3.3,5.9
					C87.8,143.8,89.3,146.5,91.1,146.5z"/>
				<path class="st2" d="M69.4,146.5c1.8,0,3.3-2.6,3.3-5.9c0-3.2-1.5-5.9-3.3-5.9s-3.3,2.6-3.3,5.9
					C66.1,143.8,67.6,146.5,69.4,146.5z"/>
			</g>
			<path class="st6" d="M86.1,153.1c-2.6,6.4-10.8,6.2-13.4,0C76.5,156.6,82.1,156.8,86.1,153.1z"/>
			<path class="st17" d="M69.7,369.1c1.4,1.5,2.5,2.9,3,4.5c1.7,5.5-3.1,5.6-7.1,5.1c-5.3-0.7-7.5-3.6-10.1-4.4
				c-5.1-1.4-5.8-4.2-4.2-10.4c0.2,5.4,5.3,6.9,10.9,9.5C67.8,376.1,72.3,373.4,69.7,369.1z"/>
			<path class="st17" d="M89.9,369.1c1.4,1.5,2.5,2.9,3,4.5c2,6.3-5.1,5.8-9.1,4.7c-3.9-1.1-5.8-3.3-8.1-4
				c-5.1-1.4-5.8-4.2-4.2-10.4c0.2,5.4,5.3,6.9,10.9,9.5C88.1,376.1,92.6,373.4,89.9,369.1z"/>
			<path class="st19" d="M87.2,127.4c3.2-0.8,7,1,8.6,3.8c0.8,1.4,0.3,1.6-0.3,0.7c-2.1-3.3-5.3-3.7-8.1-3.1
				C85.9,129.1,85.5,127.8,87.2,127.4z"/>
			<path class="st19" d="M69.5,127.4c-3.2-0.8-7,1-8.6,3.8c-0.8,1.4-0.3,1.6,0.3,0.7c2.1-3.3,5.3-3.7,8.1-3.1
				C70.8,129.1,71.2,127.8,69.5,127.4z"/>
			<path class="st19" d="M37.3,184.4c-29.7-62.1-0.4-96.6,29.9-98.1c37.1-1.9,67.6,46.4,32.8,94.8c16.6-32-1.4-67-32.3-73.9
				C44.7,119.1,35.7,151.7,37.3,184.4z"/>
			<path class="st29" d="M93.7,186.6c34.1-44.6-5-85.2-26-87.3C92.3,91.6,136.5,138,93.7,186.6z"/>
			<path class="st29" d="M46.1,189.2c-30.8-37,7.5-81.9,21.6-89.9C49.8,97.8,8.2,148.5,46.1,189.2z"/>
			<path class="st3" d="M29.1,128.9c1.2-0.3,2.5,0.1,3.7,0.9c-2.5,5.3-4.4,11.1-5.2,17c-0.7-1.3-1.3-2.8-1.7-4.5
				C24.2,135.8,25.6,129.8,29.1,128.9z"/>
			<path class="st7" d="M93.4,166c-10.1,4.9-28.6,3.6-34.6-4.7C69.9,165.5,79.8,166.7,93.4,166z"/>
			<path class="st6" d="M84.2,169.5c-3,4-12.8,4-16,0C72.8,171.3,79.6,171.3,84.2,169.5z"/>
			<path class="st3" d="M131.5,212.1l-20.1,20.7c-6,6.2-15.8-3.4-7.9-9.5l21.7-18.9L131.5,212.1z"/>
			<path class="st3" d="M133.2,210.4l-2.2,2.2l-6.9-7.3l2.5-2.4c1.1-1.1,2.8-4.6,4.4-6.3c4.7-4.7,10.4-8.2,11.8-4.3
				c1,2.7,1.6,5.2,0.6,7.5C141.3,204.6,135.4,208.4,133.2,210.4z"/>
			<path class="st3" d="M141.9,199.8L141.9,199.8c-0.6-0.4-0.8-1.3-0.4-1.9l2.4-3.3c0.4-0.6,1.5-1.1,1.9-0.4l0,0
				c0.4,0.7,0.8,1.3,0.4,1.9l-2.4,3.3C143.4,200,142.5,200.2,141.9,199.8z"/>
			<path class="st3" d="M147.3,190L147.3,190c-0.7-0.3-1.5,0-1.8,0.7l-1.5,3.8c-0.3,0.7-0.1,1.9,0.7,1.8l0,0c0.8,0,1.5,0,1.8-0.7
				l1.5-3.8C148.2,191.2,148,190.4,147.3,190z"/>
			<path class="st3" d="M146.2,181.7L146.2,181.7c-0.7-0.1-1.5,0.4-1.6,1.1l-2,10.6c-0.1,0.7,0.4,1.5,1.1,1.6l0,0
				c0.7,0.1,1.5-0.4,1.6-1.1l2-10.6C147.4,182.6,146.9,181.9,146.2,181.7z"/>
			<path class="st3" d="M148,185.7L148,185.7c-0.7-0.4-1.5-0.1-1.9,0.5l-5.2,9.5c-0.4,0.7-0.1,1.5,0.5,1.9l0,0
				c0.7,0.4,1.5,0.1,1.9-0.5l5.2-9.5C148.9,186.9,148.6,186.1,148,185.7z"/>
			<g>
				<path class="st10" d="M129.7,162.2h10.8c2.1,0,3.8,1.7,3.8,3.8l0.1,28.8c0,2.1-1.7,3.8-3.8,3.8h-10.8c-2.1,0-3.8-1.7-3.8-3.8
					l-0.1-28.8C125.9,163.9,127.6,162.2,129.7,162.2z"/>
				<path class="st11" d="M132.4,163.1h5.6c0.2,0,0.3,0.1,0.3,0.3l0,0c0,0.2-0.1,0.3-0.3,0.3h-5.6c-0.2,0-0.3-0.1-0.3-0.3l0,0
					C132.1,163.2,132.2,163.1,132.4,163.1z"/>
				<circle class="st11" cx="135.3" cy="196.8" r="0.9"/>
			</g>
			<path class="st3" d="M100.5,206.9c-3.9,6.3,0.2,11,5.9,9.5C119.6,213,106.8,196.7,100.5,206.9z"/>
			<path class="st3" d="M102.2,208.2l-26.8,19.1c-1.3,1-4.7-3.6-6.2-5.7c-2.8-3.7-10,5.1-8.7,6.3l7.9,7c2.7,2.4,4.8,4.1,8.8,2.8
				l29.4-21.9L102.2,208.2z"/>
			<path class="st16" d="M49.9,194.4L71.8,224l-8.2,7.3l-20.1-20.9C35,201.6,43.3,185.3,49.9,194.4z"/>
			<path class="st3" d="M116,195.6L116,195.6c-0.6-0.8-1.7-0.9-2.5-0.3l-10.8,8.6c-0.8,0.6-0.9,1.7-0.3,2.5l0,0
				c0.6,0.8,1.7,0.9,2.5,0.3l10.8-8.6C116.4,197.5,116.6,196.3,116,195.6z"/>
			<path class="st3" d="M100.9,209.9c0-3,2.2-5,3.7-6.5c3-3-0.3-4.4-2.7-2.6c-2.7,2.1-6.2,6.2-4.8,10.6
				C98,214,100.9,213.8,100.9,209.9z"/>
			<path class="st3" d="M112.9,202.3L112.9,202.3c-0.6-0.8-1.7-0.9-2.5-0.3l-10.8,8.6c-0.8,0.6-0.9,1.7-0.3,2.5l0,0
				c0.6,0.8,1.7,0.9,2.5,0.3l10.8-8.6C113.4,204.2,113.5,203.1,112.9,202.3z"/>
			<path class="st3" d="M113.8,205.8L113.8,205.8c-0.6-0.8-1.7-0.9-2.5-0.3l-10.8,8.6c-0.8,0.6-0.9,1.7-0.3,2.5l0,0
				c0.6,0.8,1.7,0.9,2.5,0.3l10.8-8.6C114.3,207.6,114.4,206.5,113.8,205.8z"/>
			<path class="st3" d="M113.8,208.8L113.8,208.8c-0.6-0.7-1.7-0.6-2.5,0l-4.4,4c-0.8,0.7-1,2-0.3,2.5l0,0c0.8,0.5,1.7,0.6,2.5,0
				l4.4-4C114.2,210.6,114.4,209.4,113.8,208.8z"/>
		</g>
		
			<rect x="127.6" y="166.3" transform="matrix(1 -3.349214e-03 3.349214e-03 1 -0.6023 0.4538)" class="st18" width="15.2" height="27.5"/>
		<path class="st3" d="M130.1,200.4c-0.7-2.6,0.9-4.9,1.9-6.5c2-3.3-1.2-3.8-2.9-1.7c-1.9,2.4-4.2,6.8-1.9,10.4
			C128.5,204.6,131,203.9,130.1,200.4z"/>
	</g>
</g>
</svg>
