<?xml version="1.0" encoding="utf-8"?>
<!-- Generator: Adobe Illustrator 20.1.0, SVG Export Plug-In . SVG Version: 6.00 Build 0)  -->
<svg version="1.1" id="Слой_1" xmlns="http://www.w3.org/2000/svg" xmlns:xlink="http://www.w3.org/1999/xlink" x="0px" y="0px"
	 width="273.6px" height="500px" viewBox="0 0 273.6 500" style="enable-background:new 0 0 273.6 500;" xml:space="preserve">
<style type="text/css">
	.st0{fill:#EFEFEF;}
	.st1{fill:#EBAF79;}
	.st2{fill:#B04F46;}
	.st3{fill:#EFC2A4;}
	.st4{fill:#7B533C;}
	.st5{fill:#E49744;}
	.st6{fill:#634332;}
	.st7{fill:#3D3938;}
	.st8{fill:#1F1918;}
	.st9{fill:#DD7EA8;}
	.st10{fill:#C55585;}
	.st11{fill:#B0AA99;}
	.st12{fill:#717071;}
	.st13{fill:#B4B4B5;}
	.st14{fill:#312C31;}
	.st15{fill:#459FD0;}
	.st16{fill:#4698D1;}
	.st17{fill:#6DBEE4;}
	.st18{fill:#D49063;}
	.st19{fill:#734041;}
	.st20{fill:#C6BA9B;}
	.st21{fill:#C76647;}
	.st22{fill:url(#SVGID_1_);}
	.st23{fill:#F5D5AC;}
	.st24{fill:#E7DDDF;}
	.st25{fill:#FBF6F8;}
	.st26{fill:#634E80;}
	.st27{fill:#F1CA9E;}
	.st28{fill:url(#SVGID_2_);}
	.st29{fill:url(#SVGID_3_);}
	.st30{fill:url(#SVGID_4_);}
	.st31{fill:url(#SVGID_5_);}
	.st32{fill:#EAB1B2;}
	.st33{fill:#FFFFFF;}
	.st34{fill:#B64F46;}
	.st35{fill:#D24C43;}
	.st36{fill:#9E4D47;}
	.st37{fill:url(#SVGID_6_);}
	.st38{fill:url(#SVGID_7_);}
	.st39{fill:#F7DCC5;}
	.st40{fill:url(#SVGID_8_);}
	.st41{fill:#D25385;}
	.st42{fill:url(#SVGID_9_);}
	.st43{fill:url(#SVGID_10_);}
	.st44{fill:url(#SVGID_11_);}
	.st45{fill:url(#SVGID_12_);}
	.st46{fill:url(#SVGID_13_);}
	.st47{fill:url(#SVGID_14_);}
	.st48{fill:url(#SVGID_15_);}
	.st49{fill:url(#SVGID_16_);}
	.st50{fill:url(#SVGID_17_);}
	.st51{fill:#BD984C;}
	.st52{fill:#62589B;}
	.st53{fill:#4D4D4D;}
</style>
<ellipse class="st0" cx="145.2" cy="485.9" rx="90" ry="11.3"/>
<g>
	<path class="st1" d="M66.7,120.1c0,0-1.2,2.7,2,3.5c1.7,0.5,3,2.5,3.5,3.9c0.5,1.4,2.5,4.9,2.5,4.9s4.3,0.9,9.7-0.5
		c11.6-3,15.8,2.7,15.8,2.7s-2.7-11.6-6.7-16c-1.4-1.6-14.7-10.5-15.4-14.2c-0.2-1.2-4,4,3,10.8C83.3,117.3,66.7,120.1,66.7,120.1z"
		/>
	<path class="st2" d="M67.5,122.5c0,0,7.4-0.3,9.6-1.2c2.2-0.9,4.2-1.8,4.2-1.2c0,0.6-7.5,3.4-9.5,3.6
		C69.8,124,67.5,122.5,67.5,122.5z"/>
</g>
<path d="M142.3,3.5c11.4-0.4,23.9,8.2,28.5,36.8c2.9,18.1,9.3,56.1,5.9,57.3c-15.7,5.5-37.8,3.2-50.2,2.3
	c-2.7-0.2-4.9-17.7-8.8-37.2c-4.7-23.4-0.4-36.7,3.2-45.1C124.5,9.2,132,3.8,142.3,3.5z"/>
<path class="st3" d="M113.8,96.4c1.1-5.8,10.8-6.8,29.3-6.7c19.3,0.1,49.6-11.3,47.4,7.7c-0.9,8.3-32.9,57.6-35.7,81.1
	c-2.2,18.9-23.7,3.6-23.7-12.8C131.1,123.3,111.1,110,113.8,96.4z"/>
<path d="M252.2,120.4l-5.1,7.5c0,0-7.6-15.3-21.4-18.3c-12.3-2.7-11.5-4.9-1.5-4.2C234.2,106.2,252.2,120.4,252.2,120.4z"/>
<polygon class="st4" points="61,191.2 71.9,199 72.6,192.1 72.6,192.1 72.4,191.9 64.3,186.2 63.5,186.5 61.4,187.3 "/>
<path class="st4" d="M72.6,192.1L72.6,192.1L72.6,192.1z"/>
<path class="st4" d="M73.4,166.4l0.2-1.6c-0.1,0-0.2-0.1-0.4-0.1l-0.2,1.9L73.4,166.4z"/>
<polygon class="st4" points="71.5,179.6 69.9,178.5 71.5,179.7 "/>
<polygon class="st4" points="63.6,170.3 63.7,170.2 63.7,170.1 63.6,170.1 "/>
<polygon class="st4" points="71.6,179.7 71.5,179.7 71.1,183.4 71.1,183.4 "/>
<polygon class="st4" points="72.4,191.9 72.6,192.1 72.6,192.1 "/>
<polygon class="st4" points="72.7,192.1 72.7,192.1 72.6,192.1 72.6,192.1 72.6,192.1 "/>
<polygon class="st4" points="71.6,179.7 71.6,179.6 71.5,179.6 71.5,179.7 "/>
<polygon class="st4" points="58.2,169.3 56.5,168.2 58.2,169.4 "/>
<polygon class="st4" points="67.9,226 65.6,224.4 67.5,226 "/>
<polygon class="st4" points="67.9,226 67.9,226 67.9,226 "/>
<polygon class="st4" points="67.9,226 67.5,226 67.8,226.2 67.8,226 "/>
<polygon class="st4" points="67.9,226.3 68.3,226.1 67.9,226 "/>
<polygon class="st4" points="67.9,226.3 67.8,226.2 67.6,228.8 "/>
<polygon class="st4" points="67.9,226 67.8,226 67.8,226.2 67.9,226.3 67.9,226.3 "/>
<polygon class="st4" points="61.9,229.1 55.5,231.7 55.5,231.7 52.9,232.9 54.7,238.2 69.8,231.6 "/>
<polygon class="st4" points="64.5,230.5 64.4,230.8 64.8,231 64.8,230.7 "/>
<path class="st4" d="M63.3,241.3l0.5,0.4c0.1,0,0.2,0,0.3,0l-0.8-0.6V241.3z"/>
<polygon class="st4" points="99.7,182.2 98,181.2 99.7,182.4 "/>
<polygon class="st4" points="99.3,186.1 99.3,186.1 99.7,182.4 99.7,182.4 "/>
<polygon class="st4" points="99.7,182.4 99.7,182.3 99.7,182.2 "/>
<path class="st4" d="M78.5,166.7l0.1-0.5c-0.2,0-0.4-0.1-0.6-0.1v0.3L78.5,166.7z"/>
<polygon class="st4" points="87.1,172.8 86.3,172.2 85.8,177 86.7,176.6 "/>
<path class="st4" d="M80.9,178.9l4.9-2l-0.2-6.5l-7.7,3l1-7.3c0,0-3.8-1-5.2-1.5l-0.6,1.8l-0.8,6.5l-5.6-3.9h-0.1l-3.2,1.1l-0.2,3.8
	l6.7,4.6l1.2,4.9l0,0l-0.9,7.6l2.4,1l3.2-1.3l0.7-6.8l7.5,5.2l3.2-4.8L80.9,178.9z"/>
<path class="st4" d="M91.8,168.5c-2.8-0.3-10.5-1.7-13.2-2.4l-0.1,0.5l7.8,5.4v0.2l-1.1,10.4l2.3,2.6l3.4-1.8
	C90.8,183.4,92.7,168.7,91.8,168.5z"/>
<path class="st4" d="M89.7,167.9L89.7,167.9L89.7,167.9z"/>
<polygon class="st4" points="83,218.7 83,218.7 83,218.7 "/>
<polygon class="st4" points="95.3,197.4 85.1,201.7 77.6,196.4 73.6,198 73.3,200.7 74.2,201.3 81.6,206.4 81.1,211 80.5,216.9 
	83,218.7 85.9,217.5 86.6,210.8 86.6,210.7 90.2,206 96.8,203.3 97.4,199.3 "/>
<path class="st4" d="M98.3,211.7L98.3,211.7L98.3,211.7z"/>
<path class="st4" d="M79.5,223.5l-2.2-1.4l-6.3,2.6l-5.4-0.4l-5.9-4.2l-3,1.2l-0.4,3.7l5.7,3.9l2.5,1.7l-0.4,3.9l-0.7,6.5l0.8,0.6
	c1.6,0,3.1-0.1,4.7-0.2l0.7-6.7l0.4-3.3l3.4-1.4l5.8-2.3l0.5-0.2l0.5-3.8L79.5,223.5z"/>
<polygon class="st4" points="84.9,224.2 80.5,216.9 75.3,213.3 71.5,214.8 71.2,217.7 71.7,218 79.7,226.2 "/>
<polygon class="st4" points="42.2,157.8 28.9,170.1 28.2,176.9 29,177.6 30.4,178.6 33.7,177.2 34.8,167.2 44.5,163.3 46.1,158.8 
	"/>
<path class="st4" d="M64.8,161.2c-1.9-0.9-3.6-1.8-5.2-2.7l-0.5,4.3l-5.6-3.9l4-1.6c-2.4-1.4-4.5-2.8-6.1-3.9l-6.7-1.2
	c-1.2,1-3.5,2.8-5.4,4.4l5.4,2.9l0,0l-0.4,3.9l-0.7,6.5l-5.6-4l-3.4,1.4l-0.4,3.3l5.5,3.8l-9.5,4.3l-4.6,15.4l2.3,1.6l3.1-1.3
	l1.1-10.2L42,180l-0.7,6.8l0.8,0.6l1.7,1.2l1.7-0.7l1.3-0.6L48,177l0,0l1-0.4l8.7-3.5l0.4-3.7l-1.7-1.2l-1-0.6l-6.2,2.6l1.1-9.9l0,0
	l-0.4,3.5l6.6,4.5l1.7,1v0.1h0.1l2.6,1.8l0.5-3.8l0.3-2.6l0.2-0.1l2.6-1.2l0,0L64.8,161.2z"/>
<path class="st4" d="M73.1,166.5l0.2-1.9c-2-0.7-4-1.4-5.8-2.2l-5.8,2l-3.7,4.8L57.1,180l-6-4.3L48,177l-0.5,3.8l5.6,3.8l-7.5,3.3
	l-1.7,0.7l-1.7-1.2l-6.6-4.8l-3.4,1.3l-0.3,3.6l6,4.1l0,0l-6.7,2.7l-3.1,1.3l-2.3-1.6l-5.9-4.2l-3.3,0.9l-0.2,3.9l5.8,4l2.5,1.7
	l-0.4,3.9l-1.7,15.5l5.3,1.2l1.9-16.2l8.6,6.6l3.9-5.5l-0.3-0.2l3-0.6l0.5-7.1l8.2,5.7l3.5-4.8l0,0l3.1-1.3l1.7-10.1l9.1-4l0.9-4.1
	l-2.7-1.8l-6.8,2.9l1-10.2L73.1,166.5z M33.1,199.9L40,197l-0.9,6.8L33.1,199.9z M48.8,192.9L48.8,192.9l6.8-2.8l0,0l0,0l-1,6.4
	L48.8,192.9z"/>
<path class="st4" d="M98,181.2l-1-0.6l-7.3,3l-0.7-1.8l-4.4,2.4l-2.2,3.9l-6.6,2.7l-4,1.5l0.1,3.5l-2.9-0.3v1.3l-2.5-1.7l-6.2,2.5
	l-4.7,0.2l-1.4,0.8l-0.5,4.8l-2.4-1.6l-7.3,3l-2.6,1h-0.1l0,0l-2.9-0.3l-0.5,4.8l-2.4-1.5h-0.1l-9.2,3.8l-0.8,7l12.1-5.2l-1.9,10.8
	l4.5,1.3l0.8,5.3l3.6-4.8l6.3-2.5l-1.1,8.8l0,0l5.5,0.1l1.1-8.4l0.4-3.7l3-1.2l6.6-2.6l-0.7,6.7l2.2,1.8l3.3-1.4l0.7-6.7l-0.2-3.2
	l3.8-1.5l5.8-2.3l0.5-4.5l-2.1-1.5l-6,2.7l0.7-6.4l0.7-3.4l8.8-3.8l-1.2,6.5l2.7,1.8l3.4-2l0.7-6.5l0.4-3.7l2.9-1.1l6.9-2.7l0.4-3.8
	L98,181.2z M53.3,207.5l-0.7,6.6l-0.1,0.1l-5.9-4.2L53.3,207.5z M42.2,221.6l0.7-6.7l5.8,4v0.1L42.2,221.6z M64.1,212l-6.1,2.5
	l0.7-6.3L64.1,212z M68.7,200.5l-0.8,6.9l-5.9-4.2L68.7,200.5l0.1-1.3L68.7,200.5L68.7,200.5z"/>
<path class="st4" d="M33.8,150.1l15.8,3.2c0,0,1.7-8.1,9.4-16.5c7.4-8.2,12.7-11.7,12.7-11.7l5-3c0,0-17,3.1-28.6,13.5
	C40.4,142.4,33.8,150.1,33.8,150.1z"/>
<g>
	<circle class="st5" cx="41.2" cy="209.5" r="2.9"/>
	<circle class="st5" cx="56.8" cy="202.5" r="2.9"/>
	<circle class="st5" cx="27" cy="199.4" r="2.9"/>
	<circle class="st5" cx="72.4" cy="194.2" r="2.9"/>
	<circle class="st5" cx="43.6" cy="192.1" r="2.9"/>
	<path class="st5" d="M56,185.8c-0.6-1.5,0.1-3.2,1.6-3.8s3.2,0.1,3.8,1.6s-0.1,3.2-1.6,3.8C58.3,188.1,56.6,187.3,56,185.8z"/>
	<circle class="st5" cx="60.7" cy="168.8" r="2.9"/>
	<circle class="st5" cx="74.7" cy="178.4" r="2.9"/>
	<circle class="st5" cx="53.7" cy="218.9" r="2.9"/>
	<circle class="st5" cx="38.2" cy="226.6" r="2.9"/>
	<circle class="st5" cx="49.9" cy="236.5" r="2.9"/>
	<circle class="st5" cx="69.3" cy="211.5" r="2.9"/>
	<circle class="st5" cx="65.6" cy="230" r="2.9"/>
	<circle class="st5" cx="45.6" cy="174.1" r="2.9"/>
	<circle class="st5" cx="25.8" cy="215.5" r="2.9"/>
</g>
<path class="st6" d="M110.4,173.6c-1.4-0.3-13.7-4.2-13.7-4.2l-9.7-1.5l-13.4,83.5l14.1-9.9l17.3,2.8L110.4,173.6z"/>
<path class="st7" d="M102,130.2c0,0,4.1,4.4,22.5,21c7,6.4,17.7,16.2,21.1,21.9c3.5,5.7,0.3,18.7,0.3,18.7s-5.8,6.9-35.3-29
	c-10.7-13-20.3-23-20.3-23L102,130.2z"/>
<path class="st8" d="M100.2,150.6c0,0,25.9,34.7,31.1,37.9c5.2,3.1,9.2,3.8,7.4-0.3s-24.9-25.6-28.6-29.6c-3.6-4,1.9-17.2,1.9-17.2
	L100.2,150.6z"/>
<path class="st9" d="M129.4,216.5c-13.7-1.7-22.5-11.7-22.5-11.7s20.3-12.5,23.4-26.4c3.1-13.8-2.3-65.1-2.3-65.1l40.8,1.3
	c0,0-7.2,70.5-7.1,78.5c0.1,15.7,4.3,23.4,4.3,23.4S140.3,217.9,129.4,216.5z"/>
<path class="st10" d="M160,114.5l-1.8,61.5l4.7,30c0,0-18.7,1.4-18.2-4.9c0.5-6.3,11.8-87,11.8-87L160,114.5z"/>
<polygon class="st10" points="135.7,200.6 130.3,105.3 129.4,170.1 118.8,195.5 "/>
<path class="st3" d="M91.5,119.3c0,0,1.4,10.9,1.7,11.9c0.3,0.9,1.9,5.2,1.9,5.2l6.9-5.8c0,0-4.1-3.4-5.9-5.7
	C94.2,122.5,91.5,119.3,91.5,119.3z"/>
<polygon class="st11" points="102,130.2 93.7,138.9 100.5,150.9 88.7,138.7 "/>
<polygon class="st7" points="149.8,171.3 171.4,176 189,110.7 161.5,85 "/>
<path class="st7" d="M121.1,168.4l9.7,2.3l-0.6-71.5L125,88c0,0-16.5,5-17.6,7.5c-3.3,7.9,9.9,46.8,9.9,46.8L121.1,168.4z"/>
<polygon class="st7" points="173,100 155.5,170.7 156.7,171.1 174,101.3 "/>
<circle class="st12" cx="158.9" cy="153.5" r="2.5"/>
<circle class="st12" cx="160.6" cy="139.6" r="2.5"/>
<circle class="st12" cx="162.1" cy="127" r="2.5"/>
<path class="st13" d="M117.4,142.3c0,0-16.6-42.9-11.1-48c2.6-2.4,16.4-5.5,16.4-5.5s-11.1,3.3-12.8,7.7
	C106.2,106.2,117.4,142.3,117.4,142.3z"/>
<polygon class="st7" points="129.3,106.1 137.8,88 138.8,78.5 116.4,84.6 "/>
<path class="st14" d="M138.8,78.9c0,0,1.9,6.2-0.8,9.8c-2.7,3.6-5.7,12.1-6,14.8c-0.3,2.7-1.6,10.7-1.6,10.7s-2.3-14,0.1-18.5
	c3.5-6.6,6.1-8.3,6.2-9c0-0.7-4.1,1.9-4.1,1.9s3.6-3.1,3.4-4.3c-0.1-1.2-4.4,0.9-4.4,0.9s5.4-3.1,4-3.2s-2.6,0.6-2.6,0.6L138.8,78.9
	z"/>
<path class="st12" d="M196.8,58.6c0,0,1.5,8.7,3.1,9.7c8.2,4.7,25.8,29.6,28.3,35.8s-2.9,18.5-2.9,18.5S212,129.4,195.4,88
	c-8.1-20.2-14.2-25.6-14.2-25.6L196.8,58.6z"/>
<path class="st7" d="M161.5,85c0,0,23.3-3.1,26.3-1.6c3.1,1.5,28.9,38,28.9,38l-32.2-5.9L161.5,85z"/>
<path class="st6" d="M86.6,129.4c-2.3,0.2-5.3,0.8-5.3,0.8s5,2.2,8.9,21.9c3.3,16.6-1.6,25.5-1.6,25.5l20.3,2.9
	c0,0-6.6-25.1-11.5-36.7C95.5,139.2,88.9,129.2,86.6,129.4z"/>
<circle class="st15" cx="135.7" cy="118.3" r="3.1"/>
<circle class="st15" cx="148" cy="130.5" r="3.1"/>
<circle class="st15" cx="136.7" cy="142.3" r="3.1"/>
<circle class="st15" cx="142" cy="160.8" r="3.1"/>
<circle class="st15" cx="134.9" cy="178.4" r="3.1"/>
<circle class="st15" cx="155.6" cy="179.7" r="3.1"/>
<circle class="st15" cx="146.2" cy="191.2" r="3.1"/>
<circle class="st15" cx="127.3" cy="195" r="3.1"/>
<circle class="st15" cx="138.9" cy="205.5" r="3.1"/>
<circle class="st15" cx="157.2" cy="201.2" r="3.1"/>
<g>
	<path class="st16" d="M216.1,41.8c0,0-2.2-12.7-2.5-12.6s-20.6,5-20.6,5l3.1,13L216.1,41.8z"/>
	<path class="st17" d="M194.8,33.9c0,0,1.3,5.1,6.5,6.2c5.3,1.2,14.3,0.3,14.3,0.3l0.2,1.2l-19.6,5.1l-3-12.5L194.8,33.9z"/>
</g>
<g>
	<g>
		<path class="st18" d="M136.8,259.1c-0.8-2.5,8,50.8,8.4,55.1c0.3,3.3,1.6,20.4-1.1,29.4c-7.9,26.5-3.4,72.6-3.4,103.6
			c0,7.1,11.1-6.6,11.1-6.6s0.5-18.8,4.9-33.5c7.4-24.6,14.5-36.4,9.8-68.5c-4.1-28.1,5.1-69.7,5-93
			C171.3,234.1,136.8,259.1,136.8,259.1z"/>
	</g>
	<path class="st19" d="M146.9,440.7c0.5,6.3,6.6,34.3,6.6,34.3s8.8-5.5,0.3-23.1C151.1,446.5,146.9,440.7,146.9,440.7z"/>
</g>
<path class="st20" d="M166.2,375c0,0-5.8,2.8-13.1,2.8c-7.2,0-14.3-5.2-14.3-5.2l3.4,70.3l8.2,32.4c0,0,7.7-5.7,6.8-12.1
	s-5.2-25-4.7-30C154.2,418.9,166.2,375,166.2,375z"/>
<path class="st21" d="M165.6,311.6c0,0-6.1-1.2-13.1,10c-4.3,7-6.4,17.2-6.4,17.2l-1.4-33.7c0,0-1.2-6.5,10-9.7
	c11.2-3.1,12.3,4.1,12.3,4.1L165.6,311.6z"/>
<g>
	
		<linearGradient id="SVGID_1_" gradientUnits="userSpaceOnUse" x1="1.9076" y1="182.3709" x2="60.1185" y2="182.3709" gradientTransform="matrix(0.9984 5.740000e-02 5.740000e-02 -0.9984 82.2761 528.6161)">
		<stop  offset="0" style="stop-color:#F5D5AC"/>
		<stop  offset="0.1275" style="stop-color:#F4D2A9"/>
		<stop  offset="0.2348" style="stop-color:#EFCAA0"/>
		<stop  offset="0.3348" style="stop-color:#E9BD91"/>
		<stop  offset="0.4305" style="stop-color:#E1AB7F"/>
		<stop  offset="0.5221" style="stop-color:#D8986B"/>
		<stop  offset="0.5581" style="stop-color:#D49063"/>
	</linearGradient>
	<path class="st22" d="M134.2,248.6c4,20.6,0.6,52.9,1.6,73.2c0.6,10.6,1.1,21.6,3,27c10.3,29,7.4,67.9,8.3,97.3
		c0.2,7.2-9.6,4.9-9.6,4.9s-2.1-16.9-6.2-31.8c-7-25.1-15.9-54.9-14.1-74.9c2-22-17.1-78.6-17.1-92.3
		C100.1,240.2,134.2,248.6,134.2,248.6z"/>
</g>
<path class="st2" d="M135.5,476.4c0,0-1.3,10.1,0.7,12.3c3.1,3.5,14.6,5.3,18.8,1c2.1-2.1-0.3-8-0.3-8L135.5,476.4z"/>
<path class="st23" d="M118.7,340.1c-1.8,4.5-2.3,15.8,1.6,31.7c2.3,9.3,5.5,18.7,5.5,18.7s-5-42.8-2.1-49.7
	C125.1,337.3,120.5,335.6,118.7,340.1z"/>
<path class="st24" d="M145.6,378.1c0,0-7.5,7.1-16.6,7.6c-4.2,0.2-7.4-2.5-7.4-2.5s14.9,52.9,14.4,65.1c-0.5,12.1-2.5,34.8,0.2,38.1
	c2.7,3.3,20.2,4.5,19.9,0.4c-0.4-4-4.2-34.6-6.3-44.9C147.5,431.7,145.6,378.1,145.6,378.1z"/>
<path class="st25" d="M144.9,451.3c-3.3-2.3-8.5,19.3-8.2,27.1c0.3,7.9,14.3,9.6,15.8,6.5C154,481.9,147.9,453.4,144.9,451.3z"/>
<path class="st23" d="M122.5,336.4c0,0,4.8,2.2,5.3-7.7c0.6-9.9-16-34.8-16-34.8S117.6,332,122.5,336.4z"/>
<path class="st26" d="M109.6,300.4c0,0,13-6.8,27.6,1.2c14.5,8.1,29.2,6.6,29.2,6.6s7.7-42.3,5.1-70c-1-10.2-7.5-27.6-7.5-27.6
	c-23,8.4-56.1-6.8-56.1-6.8s-14.4,10.9-8.6,45.3C103.5,274.2,109.6,300.4,109.6,300.4z"/>
<path class="st27" d="M143.7,32.6c-16.3-0.5-17.6-1.9-18.1-0.5c-1.6,4.8,3.1,29.2,17.2,30.5c9.5,0.9,20.8-17.7,18.1-30.8
	C160.7,30.6,158.8,33.1,143.7,32.6z"/>
<linearGradient id="SVGID_2_" gradientUnits="userSpaceOnUse" x1="-6396.4282" y1="371.331" x2="-6392.9072" y2="385.4154" gradientTransform="matrix(-0.9999 -4.900000e-03 4.900000e-03 -0.9999 -6244.8228 363.3541)">
	<stop  offset="0" style="stop-color:#1F1918"/>
	<stop  offset="1" style="stop-color:#212121"/>
</linearGradient>
<path class="st28" d="M137,5.2c0,0,12.3-3.1,19.7,4.2c4.9,4.8,7.1,11.3,8,17c0.3,2-1.6-15-22.1-15.3C139.5,11.1,137,5.2,137,5.2z"/>
<linearGradient id="SVGID_3_" gradientUnits="userSpaceOnUse" x1="-16271.5039" y1="2416.6296" x2="-16268.5273" y2="2428.5383" gradientTransform="matrix(0.9187 -0.3947 -0.3947 -0.9187 16031.9365 -4177.2793)">
	<stop  offset="0" style="stop-color:#1F1918"/>
	<stop  offset="1" style="stop-color:#212121"/>
</linearGradient>
<path class="st29" d="M136.1,5.5c0,0-7.7,1.5-13,8.8c-2.3,3.2-4.4,11.4-3,17c0.5,2-2.1-14.2,16.2-18.8
	C139.1,11.8,136.1,5.5,136.1,5.5z"/>
<path class="st3" d="M144.1,62.4c3.6-0.1,9.7-6.5,9.7-6.5s-0.9,23.8,9.3,30.5c4.5,3-27.2,4.7-25.8,3.3c6-6-2.1-31.5-2.1-31.5
	S140.5,62.5,144.1,62.4z"/>
<linearGradient id="SVGID_4_" gradientUnits="userSpaceOnUse" x1="2205.3057" y1="109.5017" x2="2205.728" y2="111.3533" gradientTransform="matrix(-0.9974 -7.190000e-02 7.190000e-02 -0.9974 2336.124 301.6458)">
	<stop  offset="0" style="stop-color:#E9B88D"/>
	<stop  offset="0.4619" style="stop-color:#EBBB90"/>
	<stop  offset="0.8503" style="stop-color:#EFC499"/>
	<stop  offset="1" style="stop-color:#F1CA9E"/>
</linearGradient>
<path class="st30" d="M157,32.5c0,0-7.9,0.3-12.6,0.1c-4.7-0.2-13-0.3-13-0.3s7.1,1.7,13.7,1.5C151.9,33.8,157,32.5,157,32.5z"/>
<linearGradient id="SVGID_5_" gradientUnits="userSpaceOnUse" x1="2206.0693" y1="124.3732" x2="2206.0693" y2="129.0453" gradientTransform="matrix(-0.9974 -7.190000e-02 7.190000e-02 -0.9974 2336.124 301.6458)">
	<stop  offset="0" style="stop-color:#1F1918"/>
	<stop  offset="1" style="stop-color:#212121"/>
</linearGradient>
<path class="st31" d="M159.5,19.2c-6.7-7.8-18.6-8.4-27.3-3.5c-5.9,3.3-10.5,13.7-7.2,22.5c0.1,0.4,0.1-6.4,7.2-5.8
	c9,0.8,21.5,0.2,27.7-0.1c2-0.1,2.3,8.2,2.3,8.2S167,28,159.5,19.2z"/>
<path class="st32" d="M142.7,56.3c-0.4,0-1-0.2-1.2-0.5c-0.1-0.2,0.9-0.3,1.3-0.2c0.5,0,1.3,0.2,1.2,0.4
	C143.8,56.3,143,56.3,142.7,56.3z"/>
<ellipse transform="matrix(3.675814e-02 -0.9993 0.9993 3.675814e-02 84.7016 195.5885)" class="st33" cx="143.8" cy="53.9" rx="0.3" ry="0.3"/>
<polygon class="st33" points="160.2,58.9 163.7,53.8 158.7,49.7 155.4,55.7 "/>
<polygon class="st33" points="128.1,62.1 133.7,59.2 131.2,53.3 125.5,56.9 "/>
<g>
	<path class="st34" d="M137.2,50.4c0,0,0.6,0.3,1.7,0.1c0.9-0.2,1.4-0.6,2-0.8c0.9-0.3,1.4,0.3,2.4,0.4c1.2,0.1,1.9-0.3,2.6,0.1
		c0.4,0.2,0.9,0.7,1.7,1c0.6,0.2,1.5,0.2,1.5,0.2s-1.8,5.4-6.6,4.9C138.8,55.9,137.2,50.4,137.2,50.4z"/>
	<path class="st35" d="M145.5,50.5c0.3,0.3-0.1,0.9-1.1,1.3c-0.8,0.3-2.2,0.2-2.9-0.2c-1.1-0.7-0.5-1.3-0.1-1.5s1.3,0,2,0.1
		C144,50.2,145.2,50.2,145.5,50.5z"/>
	<path class="st35" d="M144.9,53.7c0.3,0.3,0.3,1.3-0.7,1.7c-0.8,0.3-2.1,0.2-2.8-0.2c-1.1-0.7-0.7-1.8-0.4-2
		c0.4-0.2,1.2-0.1,1.9-0.1C143.7,53.2,144.7,53.3,144.9,53.7z"/>
	<path class="st33" d="M144.4,50.7c0,0.2,0.1,0.4,0.3,0.4s0.3-0.1,0.4-0.3c0-0.2-0.1-0.4-0.3-0.4C144.6,50.4,144.5,50.5,144.4,50.7z
		"/>
	<circle class="st33" cx="143.8" cy="53.7" r="0.3"/>
	<path class="st33" d="M146.1,52.8l-6.4-0.4c0,0,1.3-0.9,3.5-0.9C145.3,51.7,146.1,52.8,146.1,52.8z"/>
</g>
<path class="st36" d="M145.9,46.4c-0.1-0.2-0.3-0.4-0.7-0.4c-0.5,0-1.1,0.1-1.2,0.4c0,0.1,1,0.2,1.2,0.3
	C145.6,46.8,146,46.7,145.9,46.4z"/>
<path class="st36" d="M140.7,46.2c0.1-0.2,0.4-0.4,0.7-0.3c0.5,0,1.1,0.2,1.2,0.5c0,0.1-1,0.2-1.2,0.2
	C141,46.6,140.6,46.5,140.7,46.2z"/>
<linearGradient id="SVGID_6_" gradientUnits="userSpaceOnUse" x1="2192.2769" y1="97.449" x2="2200.9226" y2="94.906" gradientTransform="matrix(-0.9974 -7.190000e-02 7.190000e-02 -0.9974 2336.124 301.6457)">
	<stop  offset="0" style="stop-color:#E9B88D"/>
	<stop  offset="0.4619" style="stop-color:#EBBB90"/>
	<stop  offset="0.8503" style="stop-color:#EFC499"/>
	<stop  offset="1" style="stop-color:#F1CA9E"/>
</linearGradient>
<path class="st37" d="M156.8,51.5c-1.4,1.5-7.5,0-4.3-6.1c2.4-4.5,7.2-4.7,7.1-1.7C159.5,46.3,157.3,50.9,156.8,51.5z"/>
<linearGradient id="SVGID_7_" gradientUnits="userSpaceOnUse" x1="2219.325" y1="98.0252" x2="2211.6753" y2="94.0182" gradientTransform="matrix(-0.9974 -7.190000e-02 7.190000e-02 -0.9974 2336.124 301.6457)">
	<stop  offset="0" style="stop-color:#E9B88D"/>
	<stop  offset="0.4619" style="stop-color:#EBBB90"/>
	<stop  offset="0.8503" style="stop-color:#EFC499"/>
	<stop  offset="1" style="stop-color:#F1CA9E"/>
</linearGradient>
<path class="st38" d="M135.2,48.5c-1.6,4.5-6.3,1.5-7.7-2.3c-1.7-4.4,1.6-7.8,4-5.9C133.9,42.3,136.3,45.5,135.2,48.5z"/>
<path class="st39" d="M144.9,43.2c-0.7-5.4-1.4-5.5-2.8-0.5C141.1,46.3,145.3,46,144.9,43.2z"/>
<path class="st2" d="M152.7,57.5c0,0-4,8.5-8.7,8.8c-5,0.3-8.4-6.7-8.4-6.7s2.9,3,7.9,3C146.8,62.6,152.7,57.5,152.7,57.5z"/>
<path d="M139.9,10c0,0,4-0.7,7.1-0.1c3.1,0.6,5.8,1.9,5.8,1.9s-4.7-3-10.1-3.1c-2.8,0-3.6,0.4-3.6,0.4L139.9,10z"/>
<path d="M137.6,7.8c0,0,5.3-1.1,9.2-0.2c4,1,7.4,2.9,7.4,2.9s-5.6-4.7-12.4-5c-3.9-0.2-4.9,0.2-4.9,0.2L137.6,7.8z"/>
<path d="M123.5,25.1c0,0,0.1-4,1.3-7c1.2-2.9,3.9-6.3,3.9-6.3s-4.9,3.2-6.3,10c-0.5,2.8-1,5.8-1,5.8L123.5,25.1z"/>
<path d="M122,25.9c0,0,0.3-5.2,1.6-9.1c1.8-5.2,5.6-7.7,5.6-7.7s-6.3,2.9-8.6,12.2c-0.9,3.8-0.7,4.8-0.7,4.8L122,25.9z"/>
<linearGradient id="SVGID_8_" gradientUnits="userSpaceOnUse" x1="-7644.6084" y1="-1017.94" x2="-7640.564" y2="-1017.94" gradientTransform="matrix(-0.9684 -0.2491 0.2491 -0.9684 -6986.541 -2845.2375)">
	<stop  offset="0" style="stop-color:#F2C68A"/>
	<stop  offset="0.377" style="stop-color:#F2C78C"/>
	<stop  offset="0.6939" style="stop-color:#F3CC94"/>
	<stop  offset="0.9889" style="stop-color:#F5D4A1"/>
	<stop  offset="1" style="stop-color:#F6D4A2"/>
</linearGradient>
<path class="st40" d="M161,38.9c0.2,0.1,1.2-1.9,2.3,0.6s-0.8,6.7-3.2,9.2s-2.5,0.5-2.5,0.5L161,38.9z"/>
<path class="st18" d="M135.7,59.7c0,0,3.4,6,8.5,5.8c4.4-0.1,8.4-7.9,8.4-7.9s-1.4,14.2-7.1,14.9C139.9,73.2,135.7,59.7,135.7,59.7z
	"/>
<g>
	<ellipse transform="matrix(0.935 -0.3547 0.3547 0.935 -7.3346 50.6184)" class="st33" cx="134.4" cy="45.3" rx="1" ry="0.2"/>
</g>
<g>
	<g>
		<g>
			<path class="st41" d="M151.3,47.5c-2.3-0.7-2.5-0.8-4.5-3.2c-2.6-3.3-2.8-9.6,0.3-12.2c2.9-2.4,8.9-2.5,13.2-1
				c2.6,0.9,4.2,2,4.8,3.5c1.4,3.7-2.1,7.9-3.6,9.8C158.8,47.9,154.1,48.4,151.3,47.5z"/>
		</g>
		<path class="st41" d="M127.6,44.6c-2-1.4-3.3-2.9-4.4-5.9c-0.9-2.4-1.3-6.8,0.6-8.9c3.1-3.5,13.4-1.1,16.9,1.8
			c5,4.1,0.6,11.6-2.2,13.5C134.8,47.7,130,46.3,127.6,44.6z"/>
	</g>
	
		<linearGradient id="SVGID_9_" gradientUnits="userSpaceOnUse" x1="36.2925" y1="-167.6888" x2="19.8756" y2="-142.2434" gradientTransform="matrix(0.9779 0.209 0.209 -0.9779 134.9923 -126.9218)">
		<stop  offset="0" style="stop-color:#5B5A9D"/>
		<stop  offset="0.2038" style="stop-color:#525187"/>
		<stop  offset="0.5567" style="stop-color:#43436B"/>
		<stop  offset="0.8342" style="stop-color:#39395A"/>
		<stop  offset="1" style="stop-color:#343554"/>
	</linearGradient>
	<path class="st42" d="M140.7,37.5c-0.7-8.1-19-12.7-15,3.1c0.3,1.1,4.4,5.7,9.7,3.9C140.2,42.9,140.7,37.5,140.7,37.5z"/>
	
		<linearGradient id="SVGID_10_" gradientUnits="userSpaceOnUse" x1="-39.3039" y1="-474.5516" x2="-32.812" y2="-467.2807" gradientTransform="matrix(0.9818 0.19 0.19 -0.9818 278.296 -415.8956)">
		<stop  offset="0" style="stop-color:#5B5A9D"/>
		<stop  offset="0.2038" style="stop-color:#525187"/>
		<stop  offset="0.5567" style="stop-color:#43436B"/>
		<stop  offset="0.8342" style="stop-color:#39395A"/>
		<stop  offset="1" style="stop-color:#343554"/>
	</linearGradient>
	<path class="st43" d="M147,35.7c3.7-7.2,22.4-4.7,12.8,8.5c-0.7,0.9-6.2,3.6-10.5-0.1C145.4,40.9,147,35.7,147,35.7z"/>
	<ellipse transform="matrix(0.6934 -0.7206 0.7206 0.6934 8.4792 104.7102)" class="st33" cx="127.3" cy="42.4" rx="0.2" ry="1"/>
</g>
<polygon class="st33" points="126.8,41.1 129.3,41.1 126.9,41.6 127.3,43.6 126.5,41.7 121.7,45.8 126.2,41.4 124.6,40.1 126.4,41 
	126.9,39.5 "/>
<path d="M190,143.3c0,0-5.1,1.4-2.8,12.6c2.3,11.2,7.3,18.2,7.3,18.2s11.3,3.5,40.4-3c25.8-5.7,37.1-19.1,37-22.9
	c-0.1-3.8-3.9-16.1-8.2-20.8c-4.3-4.7-7.3-6.9-7.3-6.9s-9,18.6-28.5,22.5C208.4,147,190,143.3,190,143.3z"/>
<path d="M201.5,139.6c0,0,3-19.8,9.4-25.4c6.5-5.5-0.1-8-5.1-3.6s-15.2,26.1-15.2,26.1L201.5,139.6z"/>
<path class="st11" d="M188.7,73.9c0,0,18.2,41.3,22.7,45.3c4.6,4,14.3,6.5,9.1-1.5C218.1,114,197,86.1,194,81.5
	c-2.9-4.6,4.4-12.6,4.4-12.6L188.7,73.9z"/>
<g>
	<g>
		
			<linearGradient id="SVGID_11_" gradientUnits="userSpaceOnUse" x1="1523.2859" y1="304.5858" x2="1532.8844" y2="304.5858" gradientTransform="matrix(-0.9733 -0.2297 0.2297 -0.9733 1624.614 692.6555)">
			<stop  offset="0" style="stop-color:#F5D5AC"/>
			<stop  offset="0.2135" style="stop-color:#F4D2A9"/>
			<stop  offset="0.3933" style="stop-color:#EFCAA0"/>
			<stop  offset="0.5608" style="stop-color:#E9BD91"/>
			<stop  offset="0.7209" style="stop-color:#E1AB7F"/>
			<stop  offset="0.8744" style="stop-color:#D8986B"/>
			<stop  offset="0.9346" style="stop-color:#D49063"/>
		</linearGradient>
		<path class="st44" d="M209.8,55.6l0.9-11.4l-5.5-9.3c0,0-0.9,0.8-0.5,2.5c0.5,2,3.7,6.7,3.7,7s-1.6,8.4-1.6,8.4L209.8,55.6z"/>
		
			<linearGradient id="SVGID_12_" gradientUnits="userSpaceOnUse" x1="1523.2789" y1="293.5455" x2="1547.0485" y2="293.5455" gradientTransform="matrix(-0.9733 -0.2297 0.2297 -0.9733 1624.614 692.6555)">
			<stop  offset="0" style="stop-color:#F5D5AC"/>
			<stop  offset="0.2135" style="stop-color:#F4D2A9"/>
			<stop  offset="0.3933" style="stop-color:#EFCAA0"/>
			<stop  offset="0.5608" style="stop-color:#E9BD91"/>
			<stop  offset="0.7209" style="stop-color:#E1AB7F"/>
			<stop  offset="0.8744" style="stop-color:#D8986B"/>
			<stop  offset="0.9346" style="stop-color:#D49063"/>
		</linearGradient>
		<path class="st45" d="M200,44.8l9.8,10.7c0,0-15,3.6-19.4,5.4c-6.8,2.6-6-1.9-5.2-4.3c0.9-2.7,4-6.3,7.9-4.1s9.3,0.5,8.6-1
			s-2.5-3.2-2.5-3.2s-3.2,2.5-4.5,2.4c-1.5-0.1-1.7-0.6-1.7-0.6L200,44.8z"/>
		
			<linearGradient id="SVGID_13_" gradientUnits="userSpaceOnUse" x1="1653.2214" y1="557.0743" x2="1653.2656" y2="554.3564" gradientTransform="matrix(-0.9533 -0.3021 0.3021 -0.9533 1613.0347 1069.5029)">
			<stop  offset="0" style="stop-color:#F5D5AC"/>
			<stop  offset="0.2135" style="stop-color:#F4D2A9"/>
			<stop  offset="0.3933" style="stop-color:#EFCAA0"/>
			<stop  offset="0.5608" style="stop-color:#E9BD91"/>
			<stop  offset="0.7209" style="stop-color:#E1AB7F"/>
			<stop  offset="0.8744" style="stop-color:#D8986B"/>
			<stop  offset="0.9346" style="stop-color:#D49063"/>
		</linearGradient>
		<path class="st46" d="M209.3,54.4l-2.8-14l-10.7-0.3c0,0,0.3,1.1,2.3,1.7c1.4,0.5,3.9,0.8,6.2,0.9c1.1,0,1.7,7.1,1.7,7.1
			L209.3,54.4z"/>
		
			<linearGradient id="SVGID_14_" gradientUnits="userSpaceOnUse" x1="1523.3704" y1="301.735" x2="1540.8356" y2="301.735" gradientTransform="matrix(-0.9733 -0.2297 0.2297 -0.9733 1624.614 692.6555)">
			<stop  offset="0" style="stop-color:#F5D5AC"/>
			<stop  offset="0.2135" style="stop-color:#F4D2A9"/>
			<stop  offset="0.3933" style="stop-color:#EFCAA0"/>
			<stop  offset="0.5608" style="stop-color:#E9BD91"/>
			<stop  offset="0.7209" style="stop-color:#E1AB7F"/>
			<stop  offset="0.8744" style="stop-color:#D8986B"/>
			<stop  offset="0.9346" style="stop-color:#D49063"/>
		</linearGradient>
		<path class="st47" d="M209.7,55.4l-3.8-14.3l-10.7-0.3c0,0,0.3,1.1,2.3,1.7c1.4,0.5,3.9,0.8,6.2,0.9c1.1,0,1.7,7.3,1.7,7.3
			L209.7,55.4z"/>
	</g>
</g>
<polygon class="st14" points="127.1,102.3 122.6,111.1 129.4,175.5 130.8,170.7 129.5,105.8 "/>
<linearGradient id="SVGID_15_" gradientUnits="userSpaceOnUse" x1="14168.6006" y1="446.7" x2="14182.5889" y2="446.7" gradientTransform="matrix(-1 0 0 -1 14293.083 500)">
	<stop  offset="0" style="stop-color:#1F1918"/>
	<stop  offset="1" style="stop-color:#212121"/>
</linearGradient>
<path class="st48" d="M124.5,13.6c0,0-12.9,12.5-14,40.1C109.7,74.4,122.8,93,122.8,93S113,70,113,50.8
	C113,29.4,124.5,13.6,124.5,13.6z"/>
<path d="M164.5,45.3c0,0-2.6,26.7-6.2,49.5c-5.1,32.6-15,39.4-15,39.4s5.9,0.4,13.5-13.9c5.3-9.9,8.9-27.3,8.9-27.3l-1.9,51.7
	c0,0,9.3-17.6,11.8-57.5C177.3,60.9,164.5,45.3,164.5,45.3z"/>
<linearGradient id="SVGID_16_" gradientUnits="userSpaceOnUse" x1="164.9613" y1="388.1631" x2="169.3879" y2="413.651" gradientTransform="matrix(1 0 0 -1 0 500)">
	<stop  offset="0" style="stop-color:#1F1918"/>
	<stop  offset="1" style="stop-color:#212121"/>
</linearGradient>
<path class="st49" d="M166.6,26.7c0,0,9.8,20.9,11.2,51.1c1.3,30.2-3.3,54.8-3.3,54.8s3.1-28,1.8-55.9
	C175,51.4,166.6,26.7,166.6,26.7z"/>
<linearGradient id="SVGID_17_" gradientUnits="userSpaceOnUse" x1="166.9" y1="419.05" x2="181.3432" y2="419.05" gradientTransform="matrix(1 0 0 -1 0 500)">
	<stop  offset="0" style="stop-color:#1F1918"/>
	<stop  offset="1" style="stop-color:#212121"/>
</linearGradient>
<path class="st50" d="M166.9,24.5c0,0,12.9,28.3,14.2,58.5s-4,54.4-4,54.4s2.8-30.5,1.5-58.4C177.4,52,166.9,24.5,166.9,24.5z"/>
<polyline class="st4" points="2.1,223.6 33.8,150.1 46.9,152.5 15.9,228.5 2.1,223.6 "/>
<path class="st3" d="M95.7,124.6c0,0-2.3-5.4-7.8-8.5c-5.5-3-4.9,4.4,0.8,7.1C94.3,125.8,95.7,124.6,95.7,124.6z"/>
<path class="st4" d="M8.2,214.2l64.6,21l-3.7,14.4c-1.2-0.6-64.9-25.2-64.9-25.2"/>
<polygon class="st4" points="89.6,171.6 73.6,251.4 64.8,247.9 80,170.7 "/>
<path class="st6" d="M48.4,150.9c0,0,10,8.3,20.7,12.2s22.2,5.1,22.2,5.1l-1.6,3.9c0,0-16.7-0.3-28.6-7.4
	C49.3,157.5,48.4,150.9,48.4,150.9z"/>
<path class="st51" d="M249.3,133c2.2,0.8,7.7,0,9.2-6c1.6-6.7-5.1-7.8-5.1-7.8s-4.9-0.4-7.1,5.5C244.4,129.6,247.5,132.3,249.3,133z
	 M248,123.8c2-4.1,6.1-3.4,6.1-3.4s4.4,1,3.1,6.4c-1.2,4.8-5,5.6-7.7,4.9C246.6,130.7,245.9,127.8,248,123.8z"/>
<path class="st51" d="M202.6,144.1c0.6-2.2-0.9-7.7-7.1-8.4c-6.8-0.8-7.2,6-7.2,6s0.2,4.9,6.3,6.4
	C199.9,149.4,202.1,146,202.6,144.1z M193.6,146.5c-4.3-1.5-4.1-5.7-4.1-5.7s0.5-4.5,6-3.8c4.9,0.7,6.2,4.3,5.7,7.1
	C200.7,147,197.9,148.1,193.6,146.5z"/>
<polygon class="st7" points="150,169.4 147.2,197.6 184.6,202 171.9,173.9 "/>
<polygon class="st7" points="129.4,170.1 130.8,196.5 110.4,195.3 "/>
<polygon class="st52" points="102.5,211.1 168.2,223.6 169.4,228.5 100.6,215.5 "/>
<polygon class="st52" points="99,221.6 171,235.6 171.6,241.5 98.3,226.5 "/>
<polygon class="st52" points="97.9,233.7 171.9,247.8 171.9,253.3 98,239.3 "/>
<polygon class="st52" points="98.6,245.2 171.7,259.1 171.5,263.8 99.4,250.2 "/>
<polygon class="st52" points="100.8,257.8 171,271.4 170.6,276 101.8,263.1 "/>
<path class="st14" d="M147.4,195.3c0.1,0.7,37.1,6.7,37.1,6.7l-37.4-4.3L147.4,195.3z"/>
<polygon class="st11" points="195.6,59.2 185.5,63.6 188.7,73.9 179.5,61.9 "/>
<path class="st53" d="M203.6,170.4c0,0,15.2-1.3,33.4-6.6c18.2-5.2,25-9.8,25-9.8s-7.5,8.6-26.2,13
	C217.8,171.2,203.6,170.4,203.6,170.4z"/>
</svg>
