<?xml version="1.0" encoding="utf-8"?>
<!-- Generator: Adobe Illustrator 20.1.0, SVG Export Plug-In . SVG Version: 6.00 Build 0)  -->
<svg version="1.1" id="Слой_1" xmlns="http://www.w3.org/2000/svg" xmlns:xlink="http://www.w3.org/1999/xlink" x="0px" y="0px"
	 width="323.3px" height="500px" viewBox="0 0 323.3 500" style="enable-background:new 0 0 323.3 500;" xml:space="preserve">
<style type="text/css">
	.st0{fill:#EFEFEF;}
	.st1{fill:#D24A43;}
	.st2{fill:url(#SVGID_1_);}
	.st3{fill:url(#SVGID_2_);}
	.st4{fill:url(#SVGID_3_);}
	.st5{fill:url(#SVGID_4_);}
	.st6{fill:#EEC0C2;}
	.st7{fill:#D25A58;}
	.st8{fill:#FFFFFF;}
	.st9{fill:#9E4D47;}
	.st10{fill:#DEA274;}
	.st11{fill:url(#SVGID_5_);}
	.st12{fill:url(#SVGID_6_);}
	.st13{fill:#E9B745;}
	.st14{fill:#EFC2A4;}
	.st15{fill:url(#SVGID_7_);}
	.st16{fill:#F7E688;}
	.st17{fill:#DBA97B;}
	.st18{fill:#1F1918;}
	.st19{fill:#B36446;}
	.st20{fill:#D49063;}
	.st21{fill:url(#SVGID_8_);}
	.st22{fill:#7A558A;}
	.st23{fill:#F8E0C0;}
	.st24{fill:#9B8C8D;}
	.st25{fill:#42497C;}
	.st26{fill:#363A5B;}
	.st27{fill:#4D5896;}
	.st28{fill:#9D9792;}
	.st29{fill:#A46FA6;}
	.st30{fill:url(#SVGID_9_);}
	.st31{fill:url(#SVGID_10_);}
	.st32{fill:#CA6145;}
	.st33{fill:#F5D5AC;}
	.st34{fill:url(#SVGID_11_);}
	.st35{fill:#BB4F45;}
	.st36{fill:#E9BC7E;}
	.st37{fill:#2C2425;}
	.st38{fill:#585656;}
	.st39{fill:#8C5894;}
	.st40{fill:url(#SVGID_12_);}
	.st41{fill:url(#SVGID_13_);}
	.st42{fill:url(#SVGID_14_);}
	.st43{fill:#FBECB5;}
	.st44{fill:#4B497B;}
	.st45{fill:#B64F46;}
	.st46{fill:#F6D7AD;}
	.st47{fill:#ECBB8E;}
	.st48{fill:url(#SVGID_15_);}
</style>
<g>
	<ellipse class="st0" cx="162.2" cy="482.9" rx="105.1" ry="14"/>
	<path class="st1" d="M144.6,325.1c-9-13.7-27.3-17.5-41-8.5c-8.8,5.8-13.5,15.4-13.3,25.2c-8.9-4-19.6-3.6-28.4,2.2
		c-13.7,9-17.5,27.3-8.5,41c4.3,6.5,10.7,10.8,17.7,12.5l59.8,10.1l17.3-57.7C150.6,341.8,149.5,332.7,144.6,325.1L144.6,325.1z"/>
	<path class="st1" d="M186.1,396.4c9-13.7,27.3-17.5,41-8.5c8.8,5.8,13.5,15.4,13.3,25.2c8.9-4,19.6-3.6,28.4,2.2
		c13.7,9,17.5,27.3,8.5,41c-4.3,6.5-10.7,10.8-17.7,12.5l-59.8,10.1l-17.3-57.7C180.2,413,181.2,404,186.1,396.4L186.1,396.4z"/>
	<path class="st1" d="M239.8,51.5c2.1-6.1,9-9.2,15.5-7c4.2,1.4,7.1,4.7,8.1,8.5c3.1-2.4,7.5-3.2,11.6-1.7c6.5,2.2,10,8.9,7.9,15
		c-1,2.9-3.1,5.1-5.7,6.4L254.4,82L241,61.3C239.2,58.4,238.6,54.8,239.8,51.5L239.8,51.5z"/>
	<path class="st1" d="M156.7,220.4c0.6-8.1,8-14.1,16.6-13.5c5.5,0.4,10.2,3.5,12.6,7.7c3.1-3.9,8.1-6.2,13.6-5.9
		c8.6,0.6,15.1,7.7,14.5,15.7c-0.3,3.9-2.1,7.2-4.9,9.7l-24.8,18.7L161.4,232C158.3,229,156.4,224.9,156.7,220.4L156.7,220.4z"/>
	<g>
		<g>
			
				<linearGradient id="SVGID_1_" gradientUnits="userSpaceOnUse" x1="1341.9843" y1="471.7382" x2="1351.2892" y2="471.7382" gradientTransform="matrix(-0.3499 -0.9368 0.9368 -0.3499 329.6295 1466.1986)">
				<stop  offset="0" style="stop-color:#F5D5AC"/>
				<stop  offset="0.2135" style="stop-color:#F4D2A9"/>
				<stop  offset="0.3933" style="stop-color:#EFCAA0"/>
				<stop  offset="0.5608" style="stop-color:#E9BD91"/>
				<stop  offset="0.7209" style="stop-color:#E1AB7F"/>
				<stop  offset="0.8744" style="stop-color:#D8986B"/>
				<stop  offset="0.9346" style="stop-color:#D49063"/>
			</linearGradient>
			<path class="st2" d="M293.3,47.2l9.7-5.5l4.5-9.5c0,0-1.1-0.3-2.3,1c-1.4,1.5-3.4,6.6-3.7,6.7c-0.3,0.2-7.6,3.2-7.6,3.2
				L293.3,47.2z"/>
			
				<linearGradient id="SVGID_2_" gradientUnits="userSpaceOnUse" x1="1484.8871" y1="740.912" x2="1484.9299" y2="738.2767" gradientTransform="matrix(-0.2786 -0.9604 0.9604 -0.2786 6.3296 1667.2565)">
				<stop  offset="0" style="stop-color:#F5D5AC"/>
				<stop  offset="0.2135" style="stop-color:#F4D2A9"/>
				<stop  offset="0.3933" style="stop-color:#EFCAA0"/>
				<stop  offset="0.5608" style="stop-color:#E9BD91"/>
				<stop  offset="0.7209" style="stop-color:#E1AB7F"/>
				<stop  offset="0.8744" style="stop-color:#D8986B"/>
				<stop  offset="0.9346" style="stop-color:#D49063"/>
			</linearGradient>
			<path class="st3" d="M294,46.2l9.8-9.8l-5.5-8.7c0,0-0.7,0.8-0.1,2.8c0.4,1.4,1.4,3.6,2.6,5.5c0.6,0.9-4.8,5.2-4.8,5.2L294,46.2z
				"/>
			
				<linearGradient id="SVGID_3_" gradientUnits="userSpaceOnUse" x1="1342.0657" y1="468.837" x2="1359.0009" y2="468.837" gradientTransform="matrix(-0.3499 -0.9368 0.9368 -0.3499 329.6295 1466.1986)">
				<stop  offset="0" style="stop-color:#F5D5AC"/>
				<stop  offset="0.2135" style="stop-color:#F4D2A9"/>
				<stop  offset="0.3933" style="stop-color:#EFCAA0"/>
				<stop  offset="0.5608" style="stop-color:#E9BD91"/>
				<stop  offset="0.7209" style="stop-color:#E1AB7F"/>
				<stop  offset="0.8744" style="stop-color:#D8986B"/>
				<stop  offset="0.9346" style="stop-color:#D49063"/>
			</linearGradient>
			<path class="st4" d="M293.3,47.1l9.5-10.8l-5.5-8.7c0,0-0.7,0.8-0.1,2.8c0.4,1.4,1.4,3.6,2.6,5.5c0.6,0.9-4.9,5.3-4.9,5.3
				L293.3,47.1z"/>
			<path class="st1" d="M275,13.4c0.5-6.4,6.4-11.2,13.2-10.7c4.4,0.3,8.1,2.8,10,6.2c2.4-3.1,6.4-4.9,10.8-4.6
				c6.8,0.5,11.9,6.1,11.5,12.5c-0.2,3.1-1.7,5.7-3.9,7.6l-19.8,14.8l-18.1-16.7C276.2,20.2,274.7,16.9,275,13.4L275,13.4z"/>
			
				<linearGradient id="SVGID_4_" gradientUnits="userSpaceOnUse" x1="277.6365" y1="474.6671" x2="292.3186" y2="461.6874" gradientTransform="matrix(1 0 0 -1 0 500)">
				<stop  offset="0" style="stop-color:#F5D5AC"/>
				<stop  offset="0.2135" style="stop-color:#F4D2A9"/>
				<stop  offset="0.3933" style="stop-color:#EFCAA0"/>
				<stop  offset="0.5608" style="stop-color:#E9BD91"/>
				<stop  offset="0.7209" style="stop-color:#E1AB7F"/>
				<stop  offset="0.8744" style="stop-color:#D8986B"/>
				<stop  offset="0.9346" style="stop-color:#D49063"/>
			</linearGradient>
			<path class="st5" d="M296.6,33.6l-3.3,13.7c0,0-11-10.1-14.8-12.8c-4.9-3.5-1.3-5.2,0.8-6.6c2.6-1.6,7.1-0.1,7.5,4.2
				s4.6,7.8,5.4,6.4c0.8-1.4,1.3-3.7,1.3-3.7s-3.7-1.2-4.4-2.3c-0.7-1.2-0.4-1.7-0.4-1.7L296.6,33.6z"/>
		</g>
		<g>
			<path class="st6" d="M132.7,47.7c0,0,0-4.8-3.5-5.3c-3.5-0.6-4.8,2.8-4.5,4c0.2,1.2,3.9,3.8,3.9,3.8s-4.1-1.9-5.9,0.7
				c-1.8,2.6,0.8,5.8,2,6s5.1-1.5,5.1-1.5s-1.6,4.6-0.8,5.9c0.8,1.3,7.1,1.5,7.1-1s-0.6-5-0.6-5s2.1,2.1,4.6,2.1s4.8-5.6,2.1-6.9
				c-2.8-1.3-5.2-0.2-5.2-0.2s3.8-1.8,4-4c0.2-2.1-3.4-5.5-5.8-3.3C133.1,44.7,132.7,47.7,132.7,47.7z"/>
			<g>
				<path class="st7" d="M142.7,49.8c-1.2-0.2-2.6-0.2-4-0.1c1.1-0.6,2.2-1.4,3.1-2.3c3.1-3,1.2-5.9-0.4-7.1
					c-1.8-1.3-4.9-2.4-6.9,1.3c-0.8,1.5-1.3,3.6-1.7,5.6c0.1,0,0.2,0,0.3,0c0.2-0.9,0.5-1.8,0.9-2.5c1.4-2.6,3.6-1.9,4.8-0.9
					c1.1,0.8,2.5,2.9,0.3,5c-0.5,0.5-1.2,1-1.8,1.4c0,0.1,0.1,0.1,0.1,0.2c0.8,0,1.7,0,2.4,0.1c2.9,0.5,2.9,2.9,2.4,4.3
					c-0.5,1.3-2,3.2-4.7,1.8c-0.4-0.2-0.7-0.4-1.1-0.7c-0.1,0.1-0.1,0.1-0.2,0.2c1,0.9,2,1.8,3.2,2.4c3.8,2.1,6-0.6,6.6-2.5
					c0.5-1.3,0.6-3.1-0.3-4.4c-0.2-0.3-0.4-0.5-0.8-0.8C144.5,50.3,143.7,49.9,142.7,49.8z"/>
				<path class="st7" d="M127,56.2c-2.8,0.9-3.9-1.1-4.2-2.7c-0.2-1.4,0.2-3.8,3.2-3.8c0.7,0,1.4,0.1,2.1,0.2c0,0,0-0.1,0.1-0.1
					c-0.7-0.5-1.4-1-1.9-1.6c-2-2.2-0.6-4,0.7-4.9c1.2-0.8,3.5-1.4,4.8,1.4c0.4,0.8,0.6,1.6,0.7,2.5c0.1,0,0.1,0,0.2,0
					c-0.2-1.8-0.6-3.8-1.3-5.5c-1.8-4-5.2-3.1-6.8-2c-1.8,1.2-3.9,3.9-1,6.9c0.8,0.9,2,1.8,3.2,2.6c-1.2-0.3-2.4-0.5-3.6-0.5
					c-4.4,0-4.9,3.4-4.6,5.4c0.4,2.2,1.9,5.1,5.9,3.8c1.4-0.5,2.9-1.4,4.3-2.3c-0.1-0.1-0.1-0.1-0.1-0.2
					C128.1,55.7,127.5,56,127,56.2z"/>
				<path class="st7" d="M135.7,58.2c0.3,2.9-1.9,3.6-3.5,3.5c-1.4-0.1-3.7-1-3-4c0.1-0.5,0.2-0.9,0.4-1.4c-0.1-0.1-0.3-0.2-0.4-0.4
					c-0.7,1.3-1.3,2.7-1.6,4.1c-0.9,4.3,2.3,5.6,4.3,5.7c1.3,0.1,2.8-0.2,3.9-1.2c0.2-0.4,0.5-0.9,0.8-1.3c0.3-0.7,0.4-1.5,0.2-2.5
					c-0.1-1.3-0.6-2.9-1.2-4.3c-0.1,0.1-0.2,0.1-0.3,0.2C135.5,57.2,135.6,57.7,135.7,58.2z"/>
				<path class="st8" d="M137.8,51.5c-0.1-0.4-0.2-0.8-0.3-1.2c0-0.1-0.1-0.1-0.1-0.2c-0.8-1.6-2.4-2.8-4.2-2.9c-0.1,0-0.2,0-0.3,0
					h-0.1c-0.1,0-0.1,0-0.2,0c-0.2,0-0.5,0-0.7,0.1c-1.6,0.3-2.9,1.2-3.6,2.5c0,0,0,0.1-0.1,0.1c-0.5,1-0.7,2.1-0.5,3.2
					c0.1,0.8,0.5,1.6,1,2.2c0,0.1,0.1,0.1,0.1,0.2c0.1,0.2,0.3,0.3,0.4,0.4c0.1,0.1,0.3,0.2,0.4,0.4c1.1,0.8,2.5,1.3,4,1
					c0.7-0.1,1.3-0.3,1.8-0.7c0.1-0.1,0.2-0.1,0.3-0.2c0.2-0.1,0.4-0.3,0.6-0.5c0.1-0.1,0.1-0.1,0.2-0.2
					C137.5,54.7,138.1,53.1,137.8,51.5z M133.3,56c-2,0.3-3.9-1-4.3-3.1c-0.3-2,1-3.9,3.1-4.3c2-0.3,3.9,1,4.3,3.1
					C136.7,53.7,135.3,55.6,133.3,56z"/>
				<path class="st7" d="M136.4,51.7c-0.3-2-2.2-3.4-4.3-3.1c-2,0.3-3.4,2.2-3.1,4.3c0.3,2,2.2,3.4,4.3,3.1
					C135.3,55.6,136.7,53.7,136.4,51.7z M133,54.3c-1.1,0.2-2.2-0.6-2.4-1.7c-0.2-1.2,0.6-2.2,1.7-2.4c1.1-0.2,2.2,0.6,2.4,1.7
					S134.1,54.1,133,54.3z"/>
				<circle class="st9" cx="132.6" cy="52.2" r="2.1"/>
			</g>
		</g>
		<g>
			<path class="st10" d="M105,188.3l-9.6,2.9l-6-5.3c0,0,1.5-0.6,2.7,0.2c2,1.2,3.7,2.8,3.7,2.8l7.9-2.7L105,188.3z"/>
			<g>
				<path class="st10" d="M120.9,179.4c-10.3,3.7-19.4,8.5-19.4,8.5l-7.3-0.7l-7.1-5.4c0,0,0.7-1.3,3.8,0.5c0.8,0.5,3,2.8,3.8,2.8
					c1.9-0.1,3.6-0.2,5.4-0.3c2.7-0.1,9.3-5.8,9.3-5.8s0.2-3.4-5.7-3.2c-3.9,0.1-3.6-2.6-3.6-2.6s10.3,0.7,14.7,1
					C119.3,174.7,122.8,178.7,120.9,179.4z"/>
			</g>
			<path class="st10" d="M96,173.7c0,0,2.2,2.4,0,6.4c-0.5,0.9,7.5,3.6,7.5,3.6l-1.8,2.7c0,0-6.3-3.9-8.4-5
				C92.8,181.3,96,173.7,96,173.7z"/>
			
				<radialGradient id="SVGID_5_" cx="13131.1875" cy="-14451.3574" r="1.3884" gradientTransform="matrix(3.550000e-02 -0.9994 -0.9994 -3.550000e-02 -14818.4404 12796.8711)" gradientUnits="userSpaceOnUse">
				<stop  offset="0" style="stop-color:#DC9B60"/>
				<stop  offset="0.1919" style="stop-color:#DD9D63"/>
				<stop  offset="0.415" style="stop-color:#E0A46B"/>
				<stop  offset="0.6536" style="stop-color:#E6B179"/>
				<stop  offset="0.9016" style="stop-color:#EFC590"/>
				<stop  offset="1" style="stop-color:#F4CF9C"/>
			</radialGradient>
			<path class="st11" d="M89.3,185.9l1.9,1.6c0,0,0.2-0.8-0.4-1.2C90.1,185.8,89.3,185.9,89.3,185.9z"/>
			
				<radialGradient id="SVGID_6_" cx="10968.5332" cy="-16813.9258" r="1.5404" gradientTransform="matrix(-0.1134 -0.9937 -0.9937 0.1134 -15368.5156 12980.9141)" gradientUnits="userSpaceOnUse">
				<stop  offset="0" style="stop-color:#DC9B60"/>
				<stop  offset="0.1919" style="stop-color:#DD9D63"/>
				<stop  offset="0.415" style="stop-color:#E0A46B"/>
				<stop  offset="0.6536" style="stop-color:#E6B179"/>
				<stop  offset="0.9016" style="stop-color:#EFC590"/>
				<stop  offset="1" style="stop-color:#F4CF9C"/>
			</radialGradient>
			<path class="st12" d="M95,176.1c0,0,0.8,0.1,1-0.6c0.2-1,0-1.8,0-1.8L95,176.1z"/>
			<path class="st13" d="M155.9,40.8C154.4,37,132,29,122.4,48.9c-10.2,21.1,35,68.5,43,68.3c15-0.4,15.4,2,18.9-17.5
				C185.4,87.4,159.2,49.4,155.9,40.8z"/>
			<path class="st14" d="M181.6,123.2c3.8,17.4,1,24,1.2,23.1c0.4-2.1,45.4-59.4,47.5-62.4c0.6-0.9,9.6-7.5,15.5-13.3
				c13.8-13.9,28.1-35.1,34.1-35.6c2.1-0.2,0.8-7.3-4.6-3.6c-27.6,19.3-41.6,31.9-50.9,43.6c-7.8,9.8-27.8,27.7-31.4,33.2
				C190.4,112.3,181.3,122.2,181.6,123.2z"/>
			
				<radialGradient id="SVGID_7_" cx="164.2039" cy="351.6365" r="19.9095" gradientTransform="matrix(0.9618 0.2739 0.2739 -0.9618 -115.3209 486.0318)" gradientUnits="userSpaceOnUse">
				<stop  offset="0" style="stop-color:#D49063"/>
				<stop  offset="1" style="stop-color:#EFC2A4"/>
			</radialGradient>
			<path class="st15" d="M117.6,174.9c0,0,25.9,8.9,38.9,19c13.1,10,1.7,18.9-4.6,13.9c-6.2-5-25.3-27.7-32.9-26.6
				C113.7,181.8,117.6,174.9,117.6,174.9z"/>
			<path class="st13" d="M147,40.5c-8.1-2.2-16.6,3.6-14.2,10.8c1.2,3.6,4.5,3.7,5.6,3.4c1.3-0.3,3.5-2.1,2.4-4.6
				c-0.8-1.9-2.7-1.7-3.5-1.2c-1.1,0.7-0.7,2.3-0.8,2c0-0.2,0.6-0.8,1.1-0.8c0.7,0,1.2,0.8,0.9,1.5s-1.1,1-2,0.5
				c-1.9-1.2-1-4.9,2.4-5c2.3-0.1,4.4,2.7,3.5,5.2c-1.6,5.2-6.9,4.7-9.4,2.1c-2.3-2.4-3.2-7-6.6-7c-7,0-7.6,7.1-8.1,8.6
				c-0.9,2.4-3,2.2-3.2,1.3c-0.5-1.6,1.9-2.6,1.9-2.6s-4.6-1.7-6.3,3.1c-1.6,4.6,4,8.1,8.9,2c3.4-4.3,7.9-4.7,9.5-2.3
				c-3.5-0.5-7,0.5-8.8,3.3c-2.7,4.1,0.6,7,2.1,7.9c1.7,1,5.8,1.7,7.2-1.6c1.2-2.9-1-4.5-2.5-4.8c-1.9-0.5-3.2,1.5-2.9,1.2
				c0.2-0.2,1.5-0.2,2,0.4c0.7,0.7,0.5,1.9-0.6,2.2c-1,0.3-2.2-0.3-2.6-1.7c-0.8-3,4.1-4.8,7.1-1.3c1.8,2.1,2.2,5.8-1.7,7.4
				c-2.9,1.1-10.8-0.5-9.3-8.7c0.1-0.3-3.7,1.3-4.2,3.2c-4.8-4.3-11.1-3.3-15-0.5c-4.7,3.5-3.6,8.2-2.5,9.6c1.2,1.6,5.4,4.4,8.9,0.6
				c2.5-2.6,0.9-5.8-0.4-6.6c-1.7-1.1-3.9,0.6-3.5,0.3c0.3-0.2,1.5,0.3,1.8,1.1c0.3,1-0.4,2.1-1.7,2.1c-1.2,0-2.1-1-1.8-2.5
				c0.7-3.4,5.9-3.5,7.4,1c1.5,4.7-9.4,9.1-0.1,18.5c2.1,2.1,2.9,4,2.3,5.9c-1.1,2.8-3.8,3.5-5.2,3c-3.8-1.4-3.7-5.8-0.7-6.1
				c1.3-0.1,2.1,0.7,2.1,1.7c-0.1,1.1-1.2,1.6-2,1.3c-0.7-0.3-1-1.4-0.8-1.6c0.3-0.3-1.1,1.4-0.3,2.9c0.6,1.1,2.5,2,4.7,0.6
				c2.9-1.8,1.4-5.6,0.1-6.8c-1.2-1-4.9-2.1-8.2,1.7c-5.4,6.1-0.4,18,11.4,13.9c1.4-0.5,1,1.1-0.3,0.9c-7.7-1-7.6,6.3-5.1,9.8
				c2.5,3.4,7.1,2.7,7.1,2.7s-2.5-1.5-2.4-3.3c0.1-2.4,3-3,3.7,0c0.3,1.3,1.5,8.9,7.7,8.1c4-0.5,3.4-4.5,5.3-6.9
				c2-2.6,6.7-3.6,8.6,0.9c1,2.1-0.6,4.8-2.6,5c-3,0.3-4.2-2.9-2.6-4.2c0.7-0.6,1.5-0.4,1.8,0.2c0.4,0.6,0,1.3-0.6,1.5
				c-0.5,0.1-1.1-0.4-1.1-0.6c0-0.3-0.2,1.2,0.9,1.7c0.8,0.4,2.4,0.4,3-1.4c0.8-2.4-1.4-3.7-2.6-3.9c-1.1-0.2-3.9,0.3-4.7,3.6
				c-1.4,6.7,6.3,7.4,13.7,6.4c19.4-2.6,22.2-13.3,17.9-23.8C157,97,156,43,147,40.5z"/>
			<path class="st13" d="M144.4,42c0.1,0.1,5.8-5.4,15.9-5.5c11.8-0.1,18.1,9,18.9,11.7c0.4,1.2,1.9-0.5,4.6-0.8
				c6.8-0.7,7.3,7,7.9,8.2c0.7,1.5,2,1.5,2.2,0.9c0.3-1-1.5-1-1.5-1s3.9-1.8,5.5,1c2.2,3.7-3.8,4.7-2.5,6.5
				c2.4-4.2,7.2-4.7,11.7-2.3c4.2,2.1,3.5,6.9,2.7,8.2c-0.8,1.4-3.8,4-7,1.3c-2.2-1.9-1.3-4.7-0.4-5.4c1.2-1,3.1,0.2,2.8,0
				c-0.2-0.1-1.2,0.4-1.3,1c-0.2,0.8,0.5,1.7,1.5,1.6c0.9-0.1,1.7-1.1,1.2-2.2c-0.9-2.1-4.8-2.1-5.5,1.7c-0.7,4.4,8.5,8.8,2.9,13.9
				c-4.3,3.9-2.8,6.5-2.8,7.4c0.6-1.1,3.8,1.3,4.8,0.7c2.8-1.5,2.3-5.1,0-5.1c-1.1,0-1.6,0.8-1.4,1.6c0.2,0.9,1.1,1.2,1.6,0.9
				c0.5-0.3,0.6-1.2,0.5-1.4c-0.2-0.2,1.1,0.9,0.6,2.2c-0.4,1-1.7,2.3-3.8,0.9c-2.4-1.7-1.4-4.4-0.5-5.4c0.8-1,3.1-2.8,6.1,0
				c4.8,4.5,2.4,14.7-7.5,13c-3.7-0.6-4.4,2.3-3.9,2.9c0.2,1,1.8,1.3,2.2,0.9c4.2-3.7,8,0.9,6.3,4.6c-1.1,2.5-5,2.8-5,2.8
				s1.8-1.5,1.8-3c0-1.2-1.9-1.8-2.5,0.4c-0.3,1.1-0.3,7.4-5.3,7.3c-3.2-0.1-3.1-3.4-4.8-5.2c-1.8-2-5.6-2.4-6.6,1.4
				c-0.6,1.8,0.9,3.9,2.5,3.9c2.4-0.1,3-2.8,1.7-3.7c-0.6-0.4-1.2-0.2-1.4,0.3s0.2,1.1,0.6,1.1c0.4,0,0.8-0.4,0.8-0.6s0.3,1-0.5,1.5
				c-0.6,0.4-1.9,0.5-2.5-0.9c-0.8-1.9,0.7-3.1,1.6-3.4c0.8-0.2,3.1-0.1,4,2.5c1.8,5.3-4.2,7.2-10.2,6.4c-4.2-0.5-18.7-9-16.3-18
				C165.2,92.5,144.4,42,144.4,42z"/>
			<path class="st16" d="M148.9,81.1c0,0-13.4,1.3-15.3,7.2c-1.5,4.5,1,12.8-0.5,16.1c-2.8,6.1-6.4-0.2-8.9,2.9
				c-2.7,3.5,1.2,6.7,0.4,9.9c-0.5,2-2.5,2.5-3.7,2.2c-2.3-0.7-2.3-3.9-2.3-3.9s-0.8,2.9,0.4,4.3c1.7,2.3,6.7,2.9,6.5-5.6
				c-0.3-9.8,4.1-5.8,7.4-6.9c7.7-2.6,5.7-9.5,5.6-15.2C138.4,87.9,148.9,81.1,148.9,81.1z"/>
			<path class="st16" d="M143.8,81.1c8.4,0.3,7.5-7.6,7.5-7.6s0.2,8.1-11.7,6.1c-5.2-0.9-10.2-0.5-12,2.9c-3.2,6,1,7.8,0,12.5
				c-1.4,6.8-7.1,4.2-8.6,7.3c-1.6,3.5,3.1,6.3,3,9.2c-0.1,1.7-1.3,2.5-2.4,2.4c-2-0.1-3-2.7-3-2.7s-0.1,2.6,1.2,3.6
				c1.9,1.6,6.3,0.6,3.9-6.8c-2.7-8,4-7.6,6.2-8.9c4.4-2.8,1.8-6.5,2.1-11.3C130.6,81,141.5,81,143.8,81.1z"/>
			<path class="st16" d="M137.4,65.7c-0.6-2-2.9-4.5-2.9-4.5s2.7,2.2,3.8,4.6c0.9,1.9,1.2,5.9-1.3,8.5c-3.2,3.2-11.6,4.1-13.9,6.7
				c-4.2,4.8,2.7,5.5,0.9,8.9c-2,3.8-6.4,1.6-8.8,3.5c-1.5,1.2-1.2,3.2-0.5,4.1c1.5,1.7,4.3,0.5,4.3,0.5s-2.2,1.8-3.9,1.4
				c-2.7-0.6-5.2-4.8,2.4-7.9c8.7-3.6,3.5-5.8,3.2-9.2c-0.8-7.8,7.2-6.2,12.2-8.5C137.6,71.6,138.1,68.3,137.4,65.7z"/>
			<path class="st16" d="M137.3,65.6c6.8,2.1,7.8-4.7,7.8-4.7s-1.6,6.7-10.9,2.5c-4.1-1.8-8.3-2.6-10.5-0.2
				c-3.9,4.2-0.8,6.6-2.7,10.3c-2.6,5.3-6.8,1.9-8.7,4.2c-2.1,2.5,1.2,5.9,0.5,8.2c-0.4,1.4-1.6,1.8-2.5,1.5
				c-1.7-0.5-1.9-2.9-1.9-2.9s-0.6,2.1,0.2,3.2c1.2,1.7,5.1,1.8,4.6-4.7c-0.5-7.2,5-5.4,7-6c4.3-1.3,2.9-4.9,4.2-8.9
				C126.4,62.7,135.3,65,137.3,65.6z"/>
			<path class="st17" d="M100.5,442.9c-0.6,5.5-0.4,5.5-0.1,8.6c0.8,10.2,2.1,26.6,1.3,32.3c-0.6,4.4-13.1,0.6-13.1,0.6
				s-5.7-1-1.1-18.3c3.2-12.1,2.9-16.6,3.3-24.4L100.5,442.9z"/>
			<path class="st18" d="M101.9,478.4l-16.2-0.8c0,0-2,4.8,1.8,6.6c3.8,1.8,12.5,2.8,14.4,0.4C103.5,482.5,101.9,478.4,101.9,478.4z
				"/>
			<path class="st17" d="M214.4,442.9c0.6,5.5,0.4,5.5,0.1,8.6c-0.8,10.2-2.1,26.6-1.3,32.3c0.6,4.4,13.1,0.2,13.1,0.2
				s5.6-0.6,1-17.9c-3.2-12.1-2.9-16.6-3.3-24.4L214.4,442.9z"/>
			<path class="st18" d="M213.1,478.3l16.1-0.9c0,0,1.4,4.9-1.5,6.4c-3,1.5-13.3,3.6-14.4,0.7C212.1,481.1,213.1,478.3,213.1,478.3z
				"/>
			<path class="st19" d="M150.7,112c7.4,1.7,30.4-13.8,28.2-33.2c-3.8-34.1-46.8-30.2-46.8-30.2S125.8,106.1,150.7,112z"/>
			<path class="st14" d="M160.3,94.7c0,0,1.2,15.9,4.6,19.1c3.4,3.2,24.1,0.1,24.1,0.1l-64,25.8c0,0-1.5-4.2,7.7-7.8
				c6.7-2.6,14.2-4.1,15.7-9.6c2-7.5-6.6-27.6-6.6-27.6H160.3z"/>
			<path class="st20" d="M142.8,97.1c0,0,6.2,1.7,9.1,1.4c4.5-0.4,8.4-3.3,8.4-3.3s-0.6,10.1-6.4,11.2
				C148.5,107.5,142.8,97.1,142.8,97.1z"/>
			
				<radialGradient id="SVGID_8_" cx="-418.5109" cy="-184.6638" r="0.7801" gradientTransform="matrix(-30.6671 -21.6643 21.6643 -30.6671 -8686.5234 -14559.8379)" gradientUnits="userSpaceOnUse">
				<stop  offset="0" style="stop-color:#D49063"/>
				<stop  offset="1" style="stop-color:#EFC2A4"/>
			</radialGradient>
			<path class="st21" d="M129.5,135.4c0,0-8.3-0.8-2.4,12c2.5,5.6,20,23.8,20,23.8l-3.6-17.7L129.5,135.4z"/>
			<path class="st14" d="M130.3,134l58.7-20.2c0,0-10.8,51.2-10.8,62.1c0,22.6-21.6,33.2-19.1,15.2
				C163.2,160.9,125.1,151.4,130.3,134z"/>
			<path class="st22" d="M135,155.1c0,0,6.8,0,20.8-7.3c8.9-4.6,29.6-33.5,29.6-33.5l7.5,1.3c0,0-11,27.6-12.8,44.5
				c-2.6,23.8,28.9,62.2,23.8,69.2c-8.9,12.2-12.3-6.4-36.1-5.3c-17.7,0.8-30,6.4-30,6.4s30.1-27.6,9.7-56.6
				C144.5,169.4,128,170.7,135,155.1z"/>
			<path class="st23" d="M154.8,128.8c0,0-2.2-1.6-5-1.3c-2.9,0.3-11.9,3.8-11.9,3.8L154.8,128.8z"/>
			<path class="st23" d="M160.6,127.1c0,0,0.6-2.6,3-4.2s11.6-4.7,11.6-4.7L160.6,127.1z"/>
			<path class="st24" d="M175.1,237.5c0,0,5.9,0.5,6.1-1.8c0.2-2.3,0-9.1,0-9.1l1.1,0.3c0,0,0.9,8,0,9.4c-1.5,2.5-6.2,2.3-6.2,2.3
				L175.1,237.5z"/>
			<path class="st25" d="M90.8,441.8c0,0-2.4-30.6,2.9-58.1c5.2-27,15.9-48.2,19-59.5c12.6-47.1,19.3-76.1,20.7-87.2
				c1.4-10.6,4.3-16.3,4.3-16.3l1.7,0.6c0,0,12.8,4.2,28.2,4.6c15.4,0.4,28.1-1.3,28.1-1.3s4.1,9.4,4.3,10.1
				c2.2,8.6,8.6,87.7,14.7,102c5,11.8,7.2,19.6,9.9,32.7c3.2,15.8,3.5,58.6,3.5,72.4c0,1-15.4,5.2-15.4,5.2
				c-0.3-5.6-9.1-42.7-11.3-57c-2.1-13.4-4.2-35-7-43.3c-5.7-17.4-22.1-82.8-23.5-88.7c-1.4-5.9-8.8-4-10.2,1.5
				c-4.8,18.7-30.1,68.9-34.8,86.4c-1.4,5.1-4.5,17.2-7.4,34.3c-2.3,13-14.2,44.7-15.6,63.9C102.7,445.8,90.8,441.8,90.8,441.8z"/>
			<path class="st26" d="M159.2,252.8c-1.4-2.7-3.3-3.7-3.3-3.7s1.5,2.4,2,6c0.6,4.5,0,5-0.4,4.5c-2.7-3.5-7.1-4.5-7.1-4.5
				s4.5,3.5,6,6.4c1.9,3.7,1,7.3,0.8,8s3.7-11.2,3.7-11.2S161.3,256.8,159.2,252.8z"/>
			<path class="st27" d="M162.4,230.2c0,0,0,22,2.2,23.2c1.3,0.7,4.1-0.4,4.1-0.4s-3.4,2-4.5,0.7c-2.4-2.9-3.7-23.8-3.7-23.8
				L162.4,230.2z"/>
			<path class="st18" d="M139.4,221.2l-3.2,8.5c0,0,11.6,4.6,31.3,4.3s30.5,0,30.5,0l-3.6-9.4c0,0-11,0.1-27-0.4
				C151.5,223.8,139.4,221.2,139.4,221.2z"/>
			<path class="st8" d="M157.7,229.2c0-4,5-7.2,11.3-7.2c6.2,0,11.3,3.2,11.3,7.2s-5,7.2-11.3,7.2S157.7,233.2,157.7,229.2z"/>
			<path class="st18" d="M163.4,224.9c0,0-1.1,1.4-1.2,4c0,2.7,1.7,5.2,1.7,5.2L174,234c0,0,1.6-1.1,1.6-4.8c0-2.6-1.4-4.5-1.4-4.5
				L163.4,224.9z"/>
			<polygon class="st25" points="185,234.4 184.2,224.3 188.3,224.2 189.9,234.3 			"/>
			<polygon class="st25" points="147,232.9 148.5,222.4 152.7,222.8 151.9,234.1 			"/>
			<path class="st28" d="M86.5,483.4c0,0,2.9,3.5,13.2,2.5c2.9-0.3,2.7-4.1-4-2.3C91.7,484.6,86.5,483.4,86.5,483.4z"/>
			<path class="st28" d="M228.9,482.4c0,0-3.2,4.2-14,3.2c-2.9-0.3-0.8-4.7,5.8-3C224.9,483.7,228.9,482.4,228.9,482.4z"/>
			<rect x="135.2" y="158.3" class="st29" width="0.4" height="8.7"/>
			<path class="st29" d="M175.4,145c0,0-2.3,10-2.3,22.5c0,8,0.9,17,3.9,25c9.5,25.3,18.9,32.5,19,32.6l0.3-0.4l0,0
				c-0.5-0.4-9.7-7.9-18.8-32.3c-3-8-3.9-16.9-3.9-24.9c0-6.2,0.6-11.8,1.1-15.9c0.3-2,0.6-3.7,0.8-4.8c0.1-0.6,0.2-1,0.3-1.3
				s0.1-0.4,0.1-0.4L175.4,145z"/>
			<path class="st29" d="M172.6,145.5c0,0-1.5,8-1.5,18.9c0,5.5,0.4,11.8,1.6,18.1c3.6,18.7,16.4,42,16.4,42l0.4-0.2
				c0,0-0.2-0.4-0.6-1c-2.5-4.7-12.7-24.6-15.8-40.9c-1.2-6.3-1.6-12.5-1.6-18c0-5.4,0.4-10.1,0.8-13.5c0.2-1.7,0.4-3,0.5-3.9
				c0.1-0.5,0.1-0.8,0.2-1.1c0-0.2,0.1-0.4,0.1-0.4H172.6L172.6,145.5z"/>
			<path class="st29" d="M169.3,147.4c0,0-0.4,5-0.4,12.4c0,9.4,0.7,22.5,3.9,34.2c5.6,20.9,10.1,30.3,10.2,30.4l0.4-0.2
				c0,0-0.1-0.1-0.2-0.4c-0.9-2.1-5-11.6-9.9-29.8c-3.1-11.6-3.8-24.8-3.8-34.1c0-3.7,0.1-6.8,0.2-8.9c0.1-1.1,0.1-1.9,0.1-2.5
				s0.1-0.9,0.1-0.9L169.3,147.4z"/>
			
				<linearGradient id="SVGID_9_" gradientUnits="userSpaceOnUse" x1="-479.7088" y1="-828.018" x2="-479.2789" y2="-828.018" gradientTransform="matrix(10.8897 0.8883 -0.8883 10.8897 4618.3218 9519.833)">
				<stop  offset="0" style="stop-color:#F2C68A"/>
				<stop  offset="0.3643" style="stop-color:#F2C78D"/>
				<stop  offset="0.6985" style="stop-color:#F4CC95"/>
				<stop  offset="1" style="stop-color:#F6D4A2"/>
			</linearGradient>
			<path class="st30" d="M134.4,72c-0.2,0-1.4-2.5-3.2-0.5c-1.9,2-0.6,7,0.8,10.1c1.4,3.1,2.2,1.4,2.2,1.4L134.4,72z"/>
			
				<linearGradient id="SVGID_10_" gradientUnits="userSpaceOnUse" x1="-564.7106" y1="-792.1982" x2="-564.2804" y2="-792.1982" gradientTransform="matrix(-11.595 0.6352 0.6352 11.595 -5872.9512 9623.3154)">
				<stop  offset="0" style="stop-color:#F2C68A"/>
				<stop  offset="0.3643" style="stop-color:#F2C78D"/>
				<stop  offset="0.6985" style="stop-color:#F4CC95"/>
				<stop  offset="1" style="stop-color:#F6D4A2"/>
			</linearGradient>
			<path class="st31" d="M167.1,74c0.2,0,1.8-2.2,3.6-0.1c1.8,2,0,6.7-1.5,9.8c-1.5,3.1-2.3,1.3-2.3,1.3L167.1,74z"/>
			<path class="st32" d="M167.4,71.1c-1-7.5-3.3-15.4-15.1-15.9c-13.1-0.5-14.9,5.3-16.9,13.5c-1.8,7.3-3.5,12.4,1.2,21.7
				c2.5,5,10.2,11.6,13.6,11.4c4.6,0.3,9.4-5.4,12.5-8.8C169.4,85.8,168,75.9,167.4,71.1z"/>
			<path class="st33" d="M168.4,74.5c0.1-2.4-0.3-4.7-1.2-7.7c-2.3-7.4-5.8-11.3-15-12.3c-6-0.7-12.8,3.1-16,9.6
				c-1.5,3.2-1.7,4-2,5.5c-1.6,8.8,0.5,16.7,3.9,22c2.7,4.2,8.6,9.6,11.9,9.4c4.6,0.3,10.5-4.9,13.2-8.5
				C167.1,87.2,168.1,78.7,168.4,74.5z"/>
			<path class="st9" d="M148.8,84.4c0.1-0.2,0.4-0.3,0.6-0.3c0.5,0,1,0.2,1.1,0.5c0,0.1-0.9,0.1-1.2,0.2
				C149.1,84.8,148.7,84.7,148.8,84.4z"/>
			<path class="st9" d="M153.7,84.7c0-0.2-0.3-0.4-0.6-0.4c-0.5,0-1.1,0.1-1.2,0.4c0,0.1,0.9,0.3,1.1,0.3
				C153.4,85.1,153.8,85,153.7,84.7z"/>
			
				<linearGradient id="SVGID_11_" gradientUnits="userSpaceOnUse" x1="-494.0867" y1="-243.3862" x2="-493.6562" y2="-243.3862" gradientTransform="matrix(-75.8521 -5.9934 5.9934 -75.8521 -35872.4727 -21339.5684)">
				<stop  offset="0" style="stop-color:#F5D5AC"/>
				<stop  offset="0.1416" style="stop-color:#F4D2A9"/>
				<stop  offset="0.2613" style="stop-color:#EFCAA0"/>
				<stop  offset="0.373" style="stop-color:#E9BD91"/>
				<stop  offset="0.4798" style="stop-color:#E1AB7E"/>
				<stop  offset="0.5823" style="stop-color:#D8986B"/>
				<stop  offset="0.6218" style="stop-color:#D49063"/>
				<stop  offset="1" style="stop-color:#D49063"/>
			</linearGradient>
			<path class="st34" d="M138.2,87.4c1.3,0.4,7.8-0.4,4.1-6.7c-2.8-4.7-7.4-4-7.5-0.9C134.6,84.4,136.9,87,138.2,87.4z"/>
			<path class="st7" d="M157.6,88.2c0,0-1.3,0.6-4.3-0.4c-1-0.3-1.4,0.2-2.4,0.2c-1.2,0-1.6-0.6-2.4-0.3c-2.6,1-4.4,0.5-4.4,0.5
				s2.2,5.7,6.9,5.7C154.8,94,157.6,88.2,157.6,88.2z"/>
			<path class="st8" d="M149.4,92.2c0,0.2-0.1,0.3-0.3,0.3s-0.3-0.1-0.3-0.3c0-0.2,0.1-0.3,0.3-0.3
				C149.2,91.9,149.4,92.1,149.4,92.2z"/>
			<path class="st8" d="M146.4,77.2c0.7-0.2,1-0.6,1-0.6s-1.2-3.7-6.2-3.9c-3.3-0.1-3.6,1.3-3.6,1.3s1.6,2.9,4.3,3.4
				C143.6,77.7,145.4,77.5,146.4,77.2z"/>
			<path class="st8" d="M157,77.6c-0.7-0.4-0.9-0.6-0.9-0.6s1.6-3.5,6.4-2.7c4.4,0.8,3.2,2.3,3.2,2.3s-0.9,1.7-4.4,1.9
				C159.7,78.6,158,78.1,157,77.6z"/>
			<path class="st35" d="M145.6,89.3c0,0,3.3,0.7,4.4,0.6c1.1-0.1,6.1-0.3,6.1-0.3s-1.1,2-5.2,1.8C146.8,91.2,145.6,89.3,145.6,89.3
				z"/>
			<path class="st8" d="M145.6,89.3c0,0,3.4,0.4,4.9,0.4c1.3,0,5.8-0.2,5.7-0.1s-3.2,1-5.7,0.9C148,90.3,145.6,89.3,145.6,89.3z"/>
			<path class="st8" d="M147.7,90.8c0,0,1.5,0.6,2.9,0.7c1.5,0,3.1-0.3,3.1-0.3s-1.2-0.1-3.3-0.3C148.5,90.8,147.7,90.8,147.7,90.8z
				"/>
			<path class="st36" d="M156.5,77.3c0,0,2.5,0.8,4.6,0.8s4.5-1.3,4.5-1.3S164,79,160.8,79C158.7,79,156.5,77.3,156.5,77.3z"/>
			<path class="st37" d="M140.4,72.6c0,0-0.6,2.4,0.6,3.5c0.2,0.2,0.4,0.6,1.9,0.8c0.5,0.1,1.2-0.1,1.3-0.2c1.8-0.6,1.5-2.8,1.5-2.8
				L140.4,72.6z"/>
			<path class="st38" d="M140.4,74.8c0,0,0.2,0.5,0.5,0.9c0.4,0.6,1,0.8,2,1c1,0.1,1.5-0.2,1.8-0.5c0.4-0.3,0.5-0.6,0.5-0.6
				s-1.3-1-2.6-1.1C141.3,74.2,140.4,74.8,140.4,74.8z"/>
			<path class="st18" d="M143.1,73.1c-0.7-0.1-1,0.2-1.2,0.4c-0.3,0.3-0.8,2.2,1,2.4c1.9,0.2,1.6-1.8,1.4-2.1
				C144.1,73.5,143.8,73.2,143.1,73.1z"/>
			<path class="st8" d="M141,74.7c0.3-0.1,1.4-0.3,1.5,0.1s-1.2,0.6-1.4,0.7C140.5,75.6,140.3,74.8,141,74.7z"/>
			<path class="st39" d="M147.5,76.5c0,0-0.5-1.9-2.9-2.9c-4.3-1.9-7.2-0.5-7.2-0.5s1.8-4.2,7.1-1.9
				C147.3,72.4,147.5,76.5,147.5,76.5z"/>
			<path class="st18" d="M147.4,76.4c0,0-1.2-2.7-5.3-3.2c-3.1-0.4-3.9,0.7-4.4,0.8c-0.2,0-0.8-0.7-0.6-0.8c2-1.3,5.9-1.2,8.1,0.3
				C147,74.7,147.4,76.4,147.4,76.4z"/>
			<path class="st36" d="M137.7,74c0,0,0.5,1.1,4.4,2.6c2,0.8,5,0.5,5,0.5s-2.4,1.4-5.5,0.6C138.4,76.8,137.7,74,137.7,74z"/>
			<path class="st8" d="M157,77.7c-0.7-0.4-0.9-0.8-0.9-0.8s1.6-3.4,6.4-2.5c4.4,0.8,3.4,1.7,3.4,1.7s-1.8,2.5-4.5,2.5
				C159.7,78.7,158,78.2,157,77.7z"/>
			<path class="st37" d="M163.8,74.1c0,0,0.2,2.5-1.2,3.4c-0.2,0.2-0.5,0.5-2,0.5c-0.5,0-1.2-0.3-1.3-0.4c-1.7-0.9-1-3-1-3
				L163.8,74.1z"/>
			<path class="st38" d="M163.3,76.3c0,0-0.3,0.5-0.6,0.8c-0.5,0.5-1.1,0.7-2.1,0.6c-1,0-1.5-0.5-1.7-0.8c-0.3-0.4-0.3-0.7-0.3-0.7
				s1.1-0.6,2.4-0.6C162.5,75.7,163.3,76.3,163.3,76.3z"/>
			<path class="st18" d="M161,74.3c0.7,0,0.9,0.3,1.2,0.6c0.2,0.3,0.4,2.3-1.4,2.2c-1.9-0.1-1.3-2-1.1-2.3
				C159.9,74.4,160.3,74.2,161,74.3z"/>
			<path class="st8" d="M162.8,76.2c-0.3-0.1-1.4-0.5-1.5-0.2c-0.1,0.4,1.1,0.8,1.3,0.9C163.1,77.2,163.4,76.5,162.8,76.2z"/>
			<path class="st39" d="M156.1,76.9c0,0,0.8-1.7,3.3-2.4c4.6-1.1,7.1,1.3,7.1,1.3s-1.2-6-6.9-3.6C156.9,73.3,156.1,76.9,156.1,76.9
				z"/>
			<path class="st18" d="M156.2,76.7c0,0,1.6-2.3,5.7-2.2c2.7,0.1,4.1,1.4,4.1,1.4c0.5,0.1,1-0.7,0.8-0.8c-1.9-1.5-5.1-2.2-8.1-0.8
				C156.7,75.2,156.2,76.7,156.2,76.7z"/>
			<path class="st36" d="M166,75.9c0.4-0.2-1.2,1.4-4.6,2.1c-2.1,0.5-5.2-0.6-5.2-0.6s2.1,1.9,5.3,1.6C165.6,78.6,166,75.9,166,75.9
				z"/>
			
				<linearGradient id="SVGID_12_" gradientUnits="userSpaceOnUse" x1="-479.7482" y1="-392.9707" x2="-479.3183" y2="-392.9707" gradientTransform="matrix(72.3548 -4.6652 4.6652 72.3548 36701.0508 26280.248)">
				<stop  offset="0" style="stop-color:#F5D5AC"/>
				<stop  offset="0.1271" style="stop-color:#F4D2A9"/>
				<stop  offset="0.2345" style="stop-color:#EFCAA0"/>
				<stop  offset="0.3347" style="stop-color:#E9BD91"/>
				<stop  offset="0.4306" style="stop-color:#E1AB7E"/>
				<stop  offset="0.5226" style="stop-color:#D8986B"/>
				<stop  offset="0.5581" style="stop-color:#D49063"/>
				<stop  offset="1" style="stop-color:#D49063"/>
			</linearGradient>
			<path class="st40" d="M159,86.7c0.8,5.1,6.1,3,7.6-1s-0.1-7.5-2.9-5.9C160.9,81.2,158.4,83.3,159,86.7z"/>
			<path class="st23" d="M151.3,76.8c-0.2,0.6-1.3,4.4-1.3,4.4s-0.4,1.9,1.2,2c1.8,0.1,1.5-1.9,1.5-1.9s-0.5-4-0.7-4.7
				c-0.2-1.2-0.2-1.9-0.2-1.9S151.6,75.9,151.3,76.8z"/>
			<path class="st23" d="M150.8,95.3c3.1,0.3,4.1,1.8,2.3,3.3c-1.9,1.6-3.4,1.5-5.3-0.3C145.7,96.3,147.8,95,150.8,95.3z"/>
			
				<linearGradient id="SVGID_13_" gradientUnits="userSpaceOnUse" x1="-427.5102" y1="-3423.8149" x2="-427.0808" y2="-3423.8149" gradientTransform="matrix(1.7909 0.1461 -0.1461 1.7909 412.2425 6270.6519)">
				<stop  offset="0" style="stop-color:#F2C68A"/>
				<stop  offset="0.3643" style="stop-color:#F2C78D"/>
				<stop  offset="0.6985" style="stop-color:#F4CC95"/>
				<stop  offset="1" style="stop-color:#F6D4A2"/>
			</linearGradient>
			<path class="st41" d="M147.3,76c0,0,0.1,0.7-0.5,1c0,0,1-0.1,0.8-0.6C147.4,76.2,147.3,76,147.3,76z"/>
			
				<linearGradient id="SVGID_14_" gradientUnits="userSpaceOnUse" x1="-551.1041" y1="-3483.2598" x2="-550.6739" y2="-3483.2598" gradientTransform="matrix(-1.757 -0.1433 -0.1433 1.757 -1310.7974 6118.1797)">
				<stop  offset="0" style="stop-color:#F2C68A"/>
				<stop  offset="0.3643" style="stop-color:#F2C78D"/>
				<stop  offset="0.6985" style="stop-color:#F4CC95"/>
				<stop  offset="1" style="stop-color:#F6D4A2"/>
			</linearGradient>
			<path class="st42" d="M156.3,76.5c0,0-0.2,0.7,0.3,1.1c0,0-1-0.3-0.7-0.7C156.1,76.6,156.3,76.5,156.3,76.5z"/>
			<path class="st43" d="M136.2,50.5c0,0-2.9,9.6-1.2,16.4c0.2,0.7-1.3,7.8-1.3,7.8s-2.2-5.2-2.1-10
				C131.6,56.4,136.2,50.5,136.2,50.5z"/>
			<path class="st44" d="M129.8,152.9l-8.9,5.4c0,0,5.1,3.9,7.7,2.4c1.3-0.8,6.8-4.1,10.8-0.6s11.6,4.2,17.4,1.2
				c5.3-2.7,2.3-8.9,8.1-12.5s10.6,0.4,16.3-5.2c5.6-5.5-2.4-9.9,2.2-14.6c4.6-4.7,7.2-2.4,12.1-6.6c2.9-2.4,2.2-12.9-1.5-15.9
				c-0.3-0.3-3.1,2.9-6.3,4.6c-2.7,1.5-3.7,3.3-3.7,3.3s-12.3,21.8-23.2,26.8C144.8,148.6,129.8,152.9,129.8,152.9z"/>
			<polygon class="st39" points="153.3,145 158.8,157.7 157.3,159.5 			"/>
			<polygon class="st39" points="152.5,145.5 154.6,161.3 152.8,162.1 			"/>
			<polygon class="st39" points="151.6,145.5 150.1,162.7 147.8,162.7 			"/>
			<polygon class="st39" points="150.3,146.1 146,162.7 143.8,161.9 			"/>
			<polygon class="st39" points="149.2,146.6 142.2,161.3 140.5,160.2 			"/>
			<polygon class="st39" points="147.8,147.5 139.3,159.1 137.5,158.3 			"/>
			<polygon class="st39" points="168.1,136.9 172.9,146.4 175.1,146.1 			"/>
			<polygon class="st39" points="168.1,136.3 176.8,145.5 179.5,144.2 			"/>
			<polygon class="st39" points="168.5,136.1 182.4,141.2 180.5,143.2 			"/>
			<path class="st39" d="M168.9,135.6c0.3-0.1,13.7,1.4,13.7,1.4v3.2L168.9,135.6z"/>
			<polygon class="st39" points="169.5,135 181.3,133.1 181.9,136.1 			"/>
			<path class="st39" d="M180.4,121.5c0,0,9.3,3.4,9.1,3.3s2.6-1,2.6-1L180.4,121.5z"/>
			<polygon class="st39" points="180.5,120.8 196.1,120.9 193,123.3 			"/>
			<polygon class="st39" points="132.6,152.4 132.2,158.6 130.2,159.5 			"/>
			<polygon class="st39" points="132.3,152.4 129.2,160.1 127.2,160.9 			"/>
			<polygon class="st39" points="131.8,152.4 126.3,160.7 124.4,160.1 			"/>
			<polygon class="st39" points="180.8,120.2 196.8,117.1 196.5,120.3 			"/>
			<polygon class="st39" points="181.1,119.6 195.5,112.7 196.6,116.1 			"/>
			<polygon class="st39" points="182,118.4 193.7,109.7 195,111.9 			"/>
			<path class="st13" d="M141.8,54.4c7.9-4.4,15.3-0.3,15.3-0.3s0.9,3.7-1.8,6.6c-2.7,2.8-5.7,11.6-5.7,11.6s-5.4-1.8-8.7-2.7
				c-4-1.1-7.2-1-7.2-1S136.3,57.5,141.8,54.4z"/>
			<path class="st13" d="M157.2,54.1c0,0,1.2,3.4,0,7.4c-1.2,3.9-5.2,11.2-5.2,11.2l3.9,0.5l3.5-13.3c0,0,0.6,7.5-1.8,12.7
				c-0.6,1.2,4.3,0.4,4.3,0.4s1.2-6.5,1.1-9.6c-0.1-3.1,1.4,9.3,1.4,9.3l3.9,2.2c0,0,3.4-6.9-2.5-15.7
				C162.8,54.4,157.2,54.1,157.2,54.1z"/>
			<path class="st45" d="M137.5,61.9c0,0-3.7-5.8,0.2-12c7.9-12.8,21.8-8.4,27.6-1.9c9.9,11,3.1,27.8,3.1,27.8s2.3-20.9-15.8-21.8
				C143.1,53.5,137.5,61.9,137.5,61.9z"/>
			<path class="st16" d="M175.4,54.6c-2.1-0.3-3.4-0.3-3.4-0.3s1.3-0.5,3.9-0.5c2.1,0,5.9,1.3,7.2,4.6c1.7,4.2-1,12.3,0.4,15.4
				c2.6,5.8,6.1-0.2,8.5,2.8c2.6,3.3-1.2,6.4-0.4,9.5c0.5,1.9,2.4,2.4,3.6,2.1c2.2-0.6,2.2-3.8,2.2-3.8s0.7,2.8-0.4,4.2
				c-1.7,2.2-6.4,2.8-6.2-5.4c0.3-9.4-3.9-5.6-7.1-6.6c-7.4-2.5-2.7-9.1-2.8-14.6C180.8,56.8,178,55,175.4,54.6z"/>
			<path class="st16" d="M175.6,71.3c3-7.5,0.3-11.2,0.3-11.2s2.6,4.4-3,14.4c-2.4,4.4-3.7,9-1.2,11.8c4.4,4.8,7.3,1.6,11.4,4
				c5.7,3.5,1.5,7.8,3.9,10.1c2.6,2.6,6.8-0.8,9.3,0.2c1.6,0.6,1.8,2,1.4,2.9c-0.8,1.8-3.5,1.8-3.5,1.8s2.3,0.9,3.6,0.1
				c2-1.2,2.6-5.5-4.9-5.7c-8.1-0.1-5.6-6.1-6.1-8.5c-1.1-4.9-5.3-3.7-9.6-5.6C171.3,83.2,174.8,73.4,175.6,71.3z"/>
			<path class="st32" d="M182.7,146.6c0,0,19.9-27,23.5-31.5c3.5-4.5,15.8-20.5,15.8-20.5s-25,28.2-29.9,34.7
				c-4.9,6.6-7.1,8.9-7.4,10C184.4,140.6,182.7,146.6,182.7,146.6z"/>
			<path class="st27" d="M100.6,440.4c0,0,19.2-89.2,17.9-91.6c-2.7-4.7-16.6,20.2-24.6,66.5C90.7,433.3,100.6,440.4,100.6,440.4z"
				/>
			<path class="st27" d="M214.4,442.9c0,0-13.6-92-11.5-93.7c8.4-6.6,19.8,36.5,21.7,73.8C225.5,441.3,214.4,442.9,214.4,442.9z"/>
			<path class="st26" d="M170.8,257.8c0,0,1-3.7,5.6-6.5c6.3-3.9,12.1-1.5,12.1-1.5s-9,1-12.5,7.4c-3,5.4-2.2,12.5-2.2,12.5
				L170.8,257.8z"/>
			<path class="st46" d="M109.1,181.1c11.5-8.7,13.2-2.1,12.5-1.4c-1.4,1.5-12.2,4.8-16.7,8.6c-0.2,0.2-5.5,4.6-5.5,4.6l-6.7-3.5
				c0,0,0.9-1.5,3.1-0.1c2.7,1.7,3.8,1.6,3.8,1.6l3.9-5.1C103.6,185.8,107,182.7,109.1,181.1z"/>
			<path class="st47" d="M96.4,189.7c-1.4-1-2.6-1-2.6-1s1.1-0.3,2.4,0.6c1.1,0.8,3.2,1.7,3.4,1.4c0.2-0.3,3.1-3.8,3.1-3.8
				s-2.6,4-3.3,4.3C99,191.4,97.5,190.5,96.4,189.7z"/>
			<path class="st47" d="M92.7,189.4c0,0,1.2-0.3,1.7,0.1c0.5,0.4,0.1,0.7,0.1,0.7L92.7,189.4z"/>
			<path class="st20" d="M102.7,186.9c0.3-0.2,3.2-2.8,10.8-8.2c4-2.9,6.9-1.8,6.9-1.8s-6.6-5.2-10-1.5
				C106.8,179.4,102.7,186.9,102.7,186.9z"/>
			
				<radialGradient id="SVGID_15_" cx="13144.3086" cy="-14462.6768" r="1.8222" gradientTransform="matrix(3.550000e-02 -0.9994 -0.9994 -3.550000e-02 -14818.4404 12796.8711)" gradientUnits="userSpaceOnUse">
				<stop  offset="0" style="stop-color:#DC9B60"/>
				<stop  offset="0.1919" style="stop-color:#DD9D63"/>
				<stop  offset="0.415" style="stop-color:#E0A46B"/>
				<stop  offset="0.6536" style="stop-color:#E6B179"/>
				<stop  offset="0.9016" style="stop-color:#EFC590"/>
				<stop  offset="1" style="stop-color:#F4CF9C"/>
			</radialGradient>
			<path class="st48" d="M100.2,173.4c0,0,1,1,2.2,0.9s1-0.8,1-0.8L100.2,173.4z"/>
			<path class="st33" d="M98,459.8c-2-4.4-11.5,17.8-10,17.8c2.7-0.1,11.1,0.7,11.1,0.7C99.4,477.1,99.2,462.3,98,459.8z"/>
			<path class="st33" d="M216.6,459.7c2-4.4,11.5,17.8,10,17.8c-2.7-0.1-11.1,0.7-11.1,0.7C215.3,477.1,215.5,462.2,216.6,459.7z"/>
		</g>
	</g>
	<path class="st1" d="M151.7,232.5c-1.6-11.6-12.9-19.5-25.2-17.8c-7.9,1.1-14.3,5.9-17.4,12.3c-4.8-5.3-12.2-8.2-20.1-7.1
		c-12.3,1.7-20.9,12.5-19.3,24c0.8,5.5,3.7,10.2,8,13.4l37.5,24.5l30.8-32.2C150.3,245.1,152.5,239,151.7,232.5L151.7,232.5z"/>
	<path class="st1" d="M69.5,78.7c-4.4-4.7-12-4.6-17,0.1c-3.2,3-4.5,7.2-3.9,11.1c-3.8-0.8-8.1,0.2-11.3,3.3c-5,4.7-5.4,12.3-1,17
		c2.1,2.2,4.9,3.4,7.9,3.5l24.7-1l3.5-24.3C72.9,84.8,71.9,81.3,69.5,78.7L69.5,78.7z"/>
	<path class="st1" d="M196.3,299.7c1.6-11.6,12.9-19.5,25.2-17.8c7.9,1.1,14.3,5.9,17.4,12.3c4.8-5.3,12.2-8.2,20.1-7.1
		c12.3,1.7,20.9,12.5,19.3,24c-0.8,5.5-3.7,10.2-8,13.4L232.8,349L202,316.8C197.7,312.3,195.4,306.1,196.3,299.7L196.3,299.7z"/>
	<path class="st1" d="M264.6,190c4.4-4.7,12-4.6,17,0.1c3.2,3,4.5,7.2,3.9,11.1c3.8-0.8,8.1,0.2,11.3,3.3c5,4.7,5.4,12.3,1,17
		c-2.1,2.2-4.9,3.4-7.9,3.5l-24.7-1l-3.5-24.3C261.1,196.1,262.1,192.6,264.6,190L264.6,190z"/>
	<path class="st1" d="M177.3,123.7c1.8-10.3,12.2-17,23.1-15.1c7,1.3,12.6,5.8,15.1,11.6c4.4-4.6,11.2-6.9,18.2-5.7
		c10.9,2,18.3,11.9,16.4,22.1c-0.9,4.9-3.7,9-7.6,11.7l-34.4,20.6L181.6,139C178.2,135,176.3,129.4,177.3,123.7L177.3,123.7z"/>
	<path class="st1" d="M63.5,166c-2-7.9,3.1-16,11.5-18.2c5.4-1.4,10.8,0,14.5,3.3c1.7-4.7,5.7-8.5,11.1-9.9
		c8.4-2.2,16.8,2.5,18.8,10.3c1,3.8,0.3,7.6-1.6,10.7L100.1,188l-28.4-12.5C67.7,173.7,64.6,170.3,63.5,166L63.5,166z"/>
</g>
</svg>
