<?xml version="1.0" encoding="utf-8"?>
<!-- Generator: Adobe Illustrator 20.1.0, SVG Export Plug-In . SVG Version: 6.00 Build 0)  -->
<svg version="1.1" id="Слой_1" xmlns="http://www.w3.org/2000/svg" xmlns:xlink="http://www.w3.org/1999/xlink" x="0px" y="0px"
	 width="520px" height="500px" viewBox="0 0 520 500" style="enable-background:new 0 0 520 500;" xml:space="preserve">
<style type="text/css">
	.st0{fill:#EFEFEF;}
	.st1{fill:#E2E2E2;}
	.st2{fill:#FFFFFF;}
	.st3{fill:#D49063;}
	.st4{fill:#EED964;}
	.st5{fill:#E9B745;}
	.st6{fill:#975143;}
	.st7{fill:#CE7B46;}
	.st8{fill:#F7E688;}
	.st9{fill:#E5C5A2;}
	.st10{fill:url(#SVGID_1_);}
	.st11{fill:url(#SVGID_2_);}
	.st12{fill:#CA6145;}
	.st13{fill:#9E4D47;}
	.st14{fill:url(#SVGID_3_);}
	.st15{fill:#D8685E;}
	.st16{fill:#BB4F45;}
	.st17{fill:#E9BC7E;}
	.st18{fill:#2C2425;}
	.st19{fill:#333333;}
	.st20{fill:#1F1918;}
	.st21{fill:url(#SVGID_4_);}
	.st22{fill:url(#SVGID_5_);}
	.st23{fill:url(#SVGID_6_);}
	.st24{fill:#F8E0C0;}
	.st25{fill:url(#SVGID_7_);}
	.st26{fill:url(#SVGID_8_);}
	.st27{fill:url(#SVGID_9_);}
	.st28{fill:url(#SVGID_10_);}
	.st29{fill:url(#SVGID_11_);}
	.st30{fill:url(#SVGID_12_);}
	.st31{fill:#807DA6;}
	.st32{fill:#847EB3;}
	.st33{fill:url(#SVGID_13_);}
	.st34{fill:#F5DBBB;}
	.st35{fill:#1E191A;}
	.st36{fill:#D5506E;}
	.st37{fill:#EAEAF4;}
	.st38{fill:url(#SVGID_14_);}
	.st39{fill:url(#SVGID_15_);}
	.st40{fill:#F9E6D4;}
	.st41{fill:#CB8247;}
	.st42{fill:url(#SVGID_16_);}
	.st43{fill:#EEC388;}
	.st44{fill:#A44F58;}
	.st45{fill:#CC4B44;}
	.st46{fill:#8CBB5B;}
	.st47{fill:#459FD0;}
	.st48{fill:#D24C43;}
	.st49{fill:#634E80;}
	.st50{fill:#F2E747;}
	.st51{fill:#EDB344;}
	.st52{fill:#42497C;}
	.st53{fill:#101112;}
	.st54{fill:#F9FBFB;}
	.st55{fill:#E1DFEF;}
	.st56{fill:#D883AD;}
	.st57{fill:url(#SVGID_17_);}
	.st58{fill:url(#SVGID_18_);}
	.st59{fill:#CB5891;}
	.st60{fill:url(#SVGID_19_);}
	.st61{fill:url(#SVGID_20_);}
	.st62{fill:url(#SVGID_21_);}
	.st63{fill:url(#SVGID_22_);}
	.st64{fill:#F6D7AD;}
	.st65{fill:url(#SVGID_23_);}
	.st66{fill:url(#SVGID_24_);}
	.st67{fill:url(#SVGID_25_);}
	.st68{fill:#DC9F71;}
	.st69{fill:#ECBB8E;}
	.st70{fill:url(#SVGID_26_);}
</style>
<ellipse class="st0" cx="261" cy="486.3" rx="85.7" ry="10.7"/>
<g>
	<g>
		<polygon class="st1" points="71.4,4.2 75.9,9.7 81.2,4.9 84.9,11 90.8,7 93.6,13.5 100.1,10.4 101.9,17.3 108.7,15.1 109.6,22.2 
			116.6,21 116.4,28.2 123.6,28 122.4,35 129.5,35.9 127.3,42.7 134.2,44.5 131.1,51 137.6,53.8 133.6,59.7 139.7,63.4 134.9,68.7 
			140.4,73.2 134.9,77.8 139.7,83.1 133.6,86.8 137.6,92.7 131.1,95.5 134.2,101.9 127.3,103.8 129.5,110.6 122.4,111.4 
			123.6,118.5 116.4,118.3 116.6,125.4 109.6,124.3 108.7,131.3 101.9,129.2 100.1,136.1 93.6,132.9 90.8,139.5 84.9,135.5 
			81.2,141.6 75.9,136.8 71.4,142.3 66.8,136.8 61.5,141.6 57.8,135.5 51.9,139.5 49.1,132.9 42.7,136.1 40.8,129.2 34,131.3 
			33.2,124.3 26.1,125.4 26.3,118.3 19.2,118.5 20.3,111.4 13.3,110.6 15.4,103.8 8.5,101.9 11.6,95.5 5.1,92.7 9.1,86.8 3,83.1 
			7.8,77.8 2.3,73.2 7.8,68.7 3,63.4 9.1,59.7 5.1,53.8 11.6,51 8.5,44.5 15.4,42.7 13.3,35.9 20.3,35 19.2,28 26.3,28.2 26.1,21 
			33.2,22.2 34,15.1 40.8,17.3 42.7,10.4 49.1,13.5 51.9,7 57.8,11 61.5,4.9 66.8,9.7 		"/>
	</g>
	<g>
		<g>
			<polygon class="st2" points="71.6,111.4 73.5,115.3 77.9,116 74.7,119 75.5,123.4 71.6,121.3 67.7,123.4 68.5,119 65.3,116 
				69.7,115.3 			"/>
			<polygon class="st2" points="58.7,111.4 59.8,113.7 62.3,114 60.5,115.8 61,118.3 58.7,117.1 56.5,118.3 56.9,115.8 55.1,114 
				57.6,113.7 			"/>
			<polygon class="st2" points="84.5,111.4 85.6,113.7 88.1,114 86.3,115.8 86.7,118.3 84.5,117.1 82.3,118.3 82.7,115.8 80.9,114 
				83.4,113.7 			"/>
		</g>
		<g>
			<polygon class="st2" points="71.6,23.7 73.5,27.6 77.9,28.2 74.7,31.3 75.5,35.6 71.6,33.6 67.7,35.6 68.5,31.3 65.3,28.2 
				69.7,27.6 			"/>
			<polygon class="st2" points="58.7,28.7 59.8,31 62.3,31.4 60.5,33.1 61,35.6 58.7,34.4 56.5,35.6 56.9,33.1 55.1,31.4 57.6,31 
							"/>
			<polygon class="st2" points="84.5,28.7 85.6,31 88.1,31.4 86.3,33.1 86.7,35.6 84.5,34.4 82.3,35.6 82.7,33.1 80.9,31.4 83.4,31 
							"/>
		</g>
	</g>
	<g>
		<path class="st2" d="M90.6,68.1c0,7.8-6.2,14-13.9,14c-7.8,0-14-6.2-14-13.9c0-7.8,6.2-14,13.9-14C84.4,54.2,90.6,60.4,90.6,68.1z
			"/>
		<g>
			<path class="st2" d="M40.1,73.8c0-9.5,0-19,0-28.4c0-1.1,0.2-2.2,1.3-2.7c0.5-0.2,1-0.3,1.5-0.3c19.2,0,38.3,0,57.5,0
				c1.9,0,2.9,1,2.9,2.9c0,19.1,0,38.2,0,57.4c0,1.9-1,2.9-2.9,2.9c-19.1,0-38.2,0-57.3,0c-2,0-2.9-1-2.9-3
				C40.1,92.9,40.1,83.3,40.1,73.8z M46.6,70.8c0,9.4,0,18.8,0,28.2c16.8,0,33.5,0,50.2,0c0-9.4,0-18.8,0-28.1c-2.3,0-4.5,0-6.7,0
				c1.4,7.5-2,14.7-8,18.6c-6.7,4.3-13.7,4.5-20.5,0.2s-9.5-10.8-8.5-18.8C51,70.8,48.8,70.8,46.6,70.8z M71.6,86.4
				c7,0,12.6-5.5,12.6-12.5s-5.5-12.6-12.5-12.6s-12.6,5.5-12.6,12.5S64.6,86.4,71.6,86.4z M84.4,48.7c0,0.2-0.1,0.3-0.1,0.4
				c0,3.8,0,7.7,0,11.5c0,0.6,0.4,0.6,0.8,0.6c3.7,0,7.3,0,11,0c0.7,0,0.9-0.2,0.9-0.9c0-3.6,0-7.2,0-10.9c0-0.3,0-0.5-0.1-0.8
				C92.6,48.7,88.5,48.7,84.4,48.7z"/>
			<path class="st1" d="M46.6,70.8c2.2,0,4.4,0,6.6,0c-1,8,1.7,14.5,8.5,18.8c6.7,4.3,13.8,4.1,20.5-0.2c6-3.9,9.4-11.1,8-18.6
				c2.2,0,4.4,0,6.7,0c0,9.4,0,18.7,0,28.1c-16.8,0-33.5,0-50.2,0C46.6,89.6,46.6,80.2,46.6,70.8z"/>
			<path class="st1" d="M71.6,86.4c-7,0-12.5-5.6-12.5-12.6s5.6-12.5,12.6-12.5s12.5,5.6,12.5,12.6S78.6,86.4,71.6,86.4z"/>
			<path class="st1" d="M84.4,48.7c4.1,0,8.3,0,12.4,0c0,0.3,0.1,0.6,0.1,0.8c0,3.6,0,7.2,0,10.9c0,0.7-0.2,0.9-0.9,0.9
				c-3.7,0-7.3,0-11,0c-0.4,0-0.8,0.1-0.8-0.6c0-3.8,0-7.7,0-11.5C84.3,49,84.3,48.8,84.4,48.7z"/>
		</g>
	</g>
</g>
<g>
	<path class="st3" d="M276.9,105.1l-4.7,23.7c0,0,6.7-8.2,11.8-4.5c4.6,3.4,22.6,23.1,22.6,23.1s-18.1-40.3-22.3-42.3
		C280.3,103.2,276.9,105.1,276.9,105.1z"/>
	<path class="st4" d="M271.5,46.6c0,0-2.9-23.8-32.9-20.1c-17.8,2.2-29,21.3-18.3,39.2C224.7,72.9,271.5,46.6,271.5,46.6z"/>
	<g>
		<path class="st4" d="M249.5,40.7c5.1-4.9,13.7-4.2,14.9,2.1c0.6,3.2-1.8,4.5-2.8,4.8c-1.1,0.3-3.5-0.1-3.7-2.4
			c-0.2-1.8,1.3-2.4,2.1-2.3c1.1,0.1,1.5,1.4,1.4,1.2s-0.8-0.4-1.2-0.1c-0.5,0.3-0.6,1.1,0,1.5c0.5,0.4,1.3,0.3,1.7-0.5
			c0.9-1.7-1.3-4-3.9-2.7c-1.7,0.9-2.1,3.8-0.4,5.3c3.3,3.2,7,0.7,7.8-2.3c0.7-2.8-0.5-6.5,2-7.9c5.2-2.9,8.5,2.1,9.5,3
			c1.6,1.4,3.1,0.4,2.9-0.4c-0.3-1.4-2.5-1.1-2.5-1.1s2.7-3.1,5.9-0.3c3.1,2.8,0.4,7.6-5.7,5.1c-4.3-1.8-7.8-0.2-8,2.2
			c2.4-1.8,5.4-2.5,7.9-1.2c3.7,1.9,2.4,5.4,1.7,6.7c-0.9,1.5-3.6,3.7-6,1.8c-2-1.6-1.1-3.7-0.2-4.6c1.2-1.1,3-0.2,2.7-0.3
			c-0.2-0.1-1.1,0.5-1.3,1.1c-0.2,0.8,0.4,1.6,1.4,1.4c0.9-0.2,1.5-1.1,1.2-2.3c-0.7-2.5-5-1.8-5.8,1.9c-0.5,2.3,0.8,5.2,4.3,4.8
			c2.6-0.4,7.8-4.8,3.3-10.2c-0.2-0.2,3.3-0.6,4.4,0.6c1.8-5.2,6.9-7,10.9-6.5c4.9,0.6,6,4.6,5.8,6.1c-0.3,1.7-2.2,5.4-6.4,4.1
			c-2.9-0.9-3-3.9-2.4-5c0.8-1.5,3.1-1.2,2.7-1.2c-0.3,0-1,0.8-0.9,1.5c0.2,0.8,1.2,1.4,2.1,0.9c0.8-0.5,1.1-1.6,0.3-2.6
			c-1.9-2.2-5.8-0.1-5,3.8c0.8,4.1,10.7,2.9,7.7,13.6c-0.7,2.4-0.5,4.1,0.8,5.3c1.9,1.6,4.3,1,5.1,0.1c2.2-2.6,0.3-5.8-2-4.8
			c-1,0.4-1.3,1.4-0.8,2.1c0.5,0.8,1.5,0.7,2,0.1c0.4-0.5,0.1-1.4-0.1-1.5c-0.3-0.1,1.4,0.6,1.4,2c0,1.1-1.1,2.5-3.2,2.4
			c-2.9-0.1-3.3-3.6-2.9-5c0.4-1.2,2.8-3.5,6.8-2.1c6.5,2.3,7.7,13.2-2.7,14.9c-1.2,0.2-0.3,1.2,0.6,0.6c5.3-3.9,8.2,1.6,7.8,5.2
			s-4.1,4.9-4.1,4.9s1.2-2.1,0.4-3.4c-1.1-1.8-3.4-0.9-2.7,1.5c0.3,1.1,2.5,7.2-2.4,9.1c-3.2,1.3-4.4-1.9-6.7-3
			c-2.6-1.1-6.4,0.1-6,4.1c0.1,2,2.4,3.3,4,2.6c2.3-1.1,1.9-3.9,0.2-4.2c-0.8-0.1-1.3,0.3-1.3,0.9s0.6,1,1.1,0.8
			c0.4-0.1,0.6-0.8,0.5-0.9c-0.1-0.2,0.6,0.8,0.1,1.6c-0.4,0.6-1.7,1.3-2.8,0.2c-1.5-1.4-0.5-3.3,0.3-3.9c0.7-0.5,3-1.4,4.9,0.7
			c3.8,4.3-1.4,8.6-7.5,10.4c-4.3,1.3-21.9-0.7-23-10.3C265.3,86.5,243.8,46.2,249.5,40.7z"/>
		<path class="st4" d="M230.9,42.7c-6.5,1.5-12.4,11.1-6.4,16.4c2.3,2.1,4.5,1.2,5.2,0.6c0.8-0.7,1.8-2.8,0.1-4.3
			c-1.3-1.1-2.5-0.4-2.9,0.3c-0.5,0.9,0.3,2,0.2,1.8c-0.1-0.1,0.1-0.8,0.5-1c0.5-0.2,1.1,0.2,1.2,0.8c0,0.6-0.5,1.2-1.3,1
			c-1.8-0.3-2.4-3.4,0-4.6c1.6-0.8,4.1,0.5,4.3,2.7c0.5,3.8-4.2,6-6.6,4.3c-2.8-2-4-4.2-6.6-3.5c-4.9,1.3-3,9.1-2.8,10.4
			c0.2,1.7-0.9,2.4-1.4,1.9c-0.7-0.7,0.8-1.7,0.8-1.7s-4.3,0.6-4.2,3.8c0.1,4.3,5.9,4.7,7.1-1.6c0.8-4,3.6-4.4,4.8-4.4
			c-1.6,0.1-3.6,2.2-3.9,4.9c-0.5,4,2.9,5.1,4.3,5.2c1.6,0.2,4.8-0.7,4.6-3.7c-0.2-2.5-2.3-3-3.5-2.8c-1.5,0.3-1.7,2.2-1.7,1.9
			c0-0.2,1-0.6,1.6-0.4c0.7,0.3,1,1.3,0.4,1.9s-1.7,0.5-2.5-0.3c-1.6-2,1.3-5,4.6-3.4c2.1,1,3.5,4,1.3,6.5c-1.7,1.8-9.5,2.6-9.7-4.9
			c0-0.3-1.7,3.1-1.9,5.3c-4.2-2.3-8.6-0.1-11.3,4.3c-2.4,4,0.7,7.7,2,8.4c1.4,0.8,5.4,1.4,6.7-2.6c0.9-2.8-1.4-4.6-2.6-4.8
			c-1.6-0.2-2.6,1.8-2.4,1.5c0.1-0.2,1.2-0.3,1.7,0.2c0.6,0.6,0.5,1.7-0.4,2.2c-0.8,0.4-2,0-2.2-1.3c-0.3-2.2,3-4.4,5.6-1.5
			c3,3.3-2.7,12,5,13.4c5.8,1,5.9,4,6.3,4.8c-1.1-0.6-2.5,3.1-3.7,3.2c-3.2,0.2-4.7-3.1-2.7-4.3c0.9-0.6,1.8-0.2,2.1,0.6
			c0.3,0.8-0.3,1.6-1,1.6c-0.6,0-1.2-0.7-1.1-0.9c0.1-0.3-0.5,1.4,0.7,2.2c0.8,0.6,2.7,1,3.7-1.3c1.2-2.7-1.1-4.5-2.5-4.9
			c-1.2-0.4-4.2-0.7-5.2,3.3c-1.7,6.4,5.8,13.8,13.4,7.1c2.8-2.5,5-0.4,4.8,0.4c0.4,1-0.8,2-1.4,1.9c-5.5-0.9-6.4,5-2.9,7.3
			c2.3,1.5,5.7-0.3,5.7-0.3s-2.3-0.3-3.1-1.6c-0.7-1,0.6-2.6,2.4-1c0.8,0.7,4.2,6.1,8.4,3.4c2.7-1.8,0.8-4.5,1.3-7
			c0.5-2.7,3.5-5,6.5-2.3c1.5,1.2,1.3,3.8-0.1,4.6c-2.1,1.2-4.1-0.7-3.4-2.2c0.3-0.7,0.9-0.8,1.4-0.5s0.4,1,0.1,1.3
			c-0.3,0.2-0.9,0.1-1-0.1s0.3,1,1.2,1c0.7,0,1.9-0.6,1.7-2.1c-0.3-2-2.3-2.3-3.2-2c-0.8,0.3-2.7,1.6-2.1,4.3
			c1.3,5.5,7.5,3.8,12.2,0.1C260.3,109.3,240.8,40.4,230.9,42.7z"/>
	</g>
	<path class="st5" d="M246.6,48.6c0.1,0.1,6.7-3.2,15.1-2.2c5.6,0.6,11.3,8.1,6.8,13.1c-1.8,1.9,2.5-2.5,4.8-2.2
		c4.2,0.6,3.3,7.4,3.3,8.4c0,1.4,0.9,1.9,1.3,1.4c0.6-0.6-0.8-1.3-0.8-1.3s3.6,0.1,3.8,2.8c0.3,3.6-4.6,2.2-4.3,4.1
		c3.3-2.3,7.2-0.9,9.8,2.5c2.4,3.1,0.1,6.5-0.9,7.2c-1.1,0.8-4.4,1.7-5.8-1.6c-1-2.3,0.8-4,1.7-4.3c1.3-0.4,2.3,1.3,2.1,1
		c-0.1-0.2-1-0.1-1.4,0.3c-0.4,0.6-0.2,1.5,0.6,1.8c0.7,0.2,1.7-0.2,1.7-1.3c0.1-1.9-2.9-3.4-4.8-0.7c-2.2,3.1,3.3,9.8-2.9,11.7
		c-4.7,1.4-4.5,3.9-4.8,4.6c0.9-0.6,2.4,2.3,3.4,2.3c2.7-0.1,3.6-3,1.8-3.9c-0.8-0.4-1.5,0-1.7,0.7c-0.2,0.7,0.4,1.3,0.9,1.3
		s0.9-0.7,0.9-0.9c-0.1-0.3,0.5,1.1-0.4,1.9c-0.6,0.6-2.1,1.1-3.2-0.7c-1.3-2.2,0.5-3.9,1.6-4.3c1-0.4,3.4-1,4.6,2.3
		c2,5.2-3.6,12.1-10.5,7.2c-2.6-1.8-4.2,0.1-4,0.8c-0.3,0.8,0.9,1.6,1.4,1.5c4.5-1.3,5.8,3.6,3.1,5.8c-1.8,1.5-7.4,3.6-11.1,1.7
		c-2.4-1.2-8.2-0.1-12.5-2.8c-3-1.9-10.9-13.7-5.8-19.7C242.8,84.3,246.6,48.6,246.6,48.6z"/>
	<path class="st5" d="M261.4,54.8c0.1,0.1-7.6-11-6-11c5.6-0.3,20.6,1,17.9,7.1c-1.1,2.4,1.6-3.2,3.9-3.6c4.1-0.7,5.4,6,5.8,7
		c0.4,1.4,1.5,1.5,1.7,1c0.3-0.8-1.2-1-1.2-1s3.4-1.1,4.5,1.4c1.4,3.3-3.7,3.6-2.8,5.2c2.4-3.2,6.5-3.1,10.1-0.7
		c3.3,2.2,2.1,6.2,1.4,7.1c-0.8,1.1-3.6,3-6,0.3c-1.7-1.9-0.5-4,0.3-4.6c1.1-0.7,2.6,0.5,2.3,0.3c-0.2-0.1-1,0.2-1.2,0.7
		c-0.2,0.7,0.3,1.5,1.1,1.5c0.8,0,1.5-0.7,1.2-1.7c-0.5-1.8-3.8-2.3-4.8,0.8c-1.1,3.6,6.2,8.3,0.9,12c-4,2.8-3,5.1-3.2,5.9
		c0.6-0.8,3,1.5,3.9,1.1c2.5-0.9,2.5-4,0.5-4.2c-0.9-0.1-1.4,0.5-1.4,1.2s0.8,1.1,1.3,0.9c0.4-0.2,0.7-1,0.6-1.1
		c-0.2-0.2,0.8,0.9,0.2,1.9c-0.4,0.8-1.7,1.7-3.3,0.3c-1.9-1.7-0.7-3.8,0.1-4.6c0.8-0.7,2.9-2,5.1,0.7c3.5,4.3,0.4,12.6-7.7,10.1
		c-3-0.9-4,1.4-3.5,2c0,0.9,1.3,1.2,1.8,1c3.9-2.6,6.6,1.6,4.8,4.6c-1.2,2-4.5,1.8-4.5,1.8s1.7-1,1.8-2.3c0.1-1-1.4-1.8-2.2,0.1
		c-0.4,0.9-1.1,6.2-5.2,5.5c-2.7-0.4-2.2-3.2-3.4-4.9c-1.3-1.8-4.4-2.6-5.7,0.5c-0.7,1.4,0.3,3.4,1.7,3.5c2,0.2,2.8-2,1.8-2.9
		c-0.5-0.4-1-0.3-1.2,0.1c-0.2,0.4,0,0.9,0.4,1c0.3,0.1,0.7-0.3,0.7-0.4c0-0.2,0.1,0.8-0.6,1.2c-0.5,0.3-1.6,0.2-2-1
		c-0.5-1.7,1-2.6,1.7-2.7c0.7-0.1,2.6,0.2,3.1,2.6c0.9,4.7-4.3,5.5-9.2,4.3c-3.4-0.9-14.7-9.5-11.7-16.9
		C256.7,82.4,261.4,54.8,261.4,54.8z"/>
	<path class="st6" d="M253.2,58.9c0.1,0.1-1.6-10-0.1-10.1c5.1-0.3,9.9-0.3,12.4,0.1c3.8,0.7,12.1,4.9,11.7,10.8
		c-0.2,3.3-3.3,3.2-2.5,4.7c2.2-2.9,5.9-2.8,9.1-0.6c3,2,1.9,5.6,1.3,6.5c-0.7,1-3.3,2.7-5.4,0.3c-1.5-1.7-0.5-3.7,0.3-4.2
		c1-0.7,2.3,0.4,2.1,0.3c-0.2-0.1-0.9,0.2-1.1,0.7c-0.2,0.6,0.2,1.4,1,1.4c0.7,0,1.4-0.6,1.1-1.6c-0.5-1.7-3.5-2.1-4.3,0.7
		c-1,3.3,5.6,7.5,0.8,10.9c-3.7,2.6-2.8,4.6-2.9,5.3c0.6-0.7,2.7,1.3,3.6,1c2.3-0.9,2.3-3.6,0.5-3.8c-0.8-0.1-1.3,0.4-1.3,1.1
		s0.7,1,1.2,0.8c0.4-0.2,0.6-0.9,0.5-1c-0.2-0.2,0.7,0.8,0.2,1.7c-0.4,0.7-1.5,1.6-3,0.3c-1.7-1.5-0.6-3.5,0.1-4.2
		c0.7-0.6,2.6-1.8,4.6,0.6c3.2,3.9,0.3,11.4-7,9.1c-2.7-0.8-3.6,1.3-3.2,1.8c0,0.8,1.2,1.1,1.6,0.9c3.5-2.4,6,1.5,4.3,4.1
		c-1.1,1.8-4,1.6-4,1.6s1.5-0.9,1.7-2.1c0.1-0.9-1.2-1.6-2,0.1c-0.3,0.8-1,5.6-4.7,5c-2.4-0.4-2-2.9-3.1-4.4c-1.2-1.7-4-2.4-5.2,0.4
		c-0.6,1.3,0.3,3,1.5,3.2c1.8,0.2,2.6-1.8,1.6-2.6c-0.4-0.4-0.9-0.3-1.1,0.1s0,0.8,0.4,0.9c0.3,0.1,0.7-0.3,0.7-0.4
		c0-0.2,0.1,0.8-0.5,1.1c-0.5,0.2-1.5,0.2-1.8-0.9c-0.4-1.5,0.9-2.3,1.6-2.4c0.6-0.1,2.4,0.2,2.8,2.3c0.8,4.2-3.9,5-8.3,3.9
		c-3.1-0.8-13.3-8.6-10.6-15.3C249,83.9,253.2,58.9,253.2,58.9z"/>
	<path class="st6" d="M253.1,58.4c0,0.1-1.7-10-3.1-9.6c-4.9,1.3-12.4,5.1-8.3,9.6c1.6,1.8-2.3-2.3-4.3-2c-3.8,0.5-3,6.7-3,7.6
		c0,1.3-0.8,1.7-1.2,1.3c-0.5-0.6,0.7-1.2,0.7-1.2s-3.2,0.1-3.4,2.5c-0.3,3.3,4.2,2,3.9,3.7c-3-2.1-6.5-0.8-8.9,2.3
		c-2.2,2.9-0.1,5.9,0.8,6.5c1,0.7,3.9,1.5,5.2-1.4c0.9-2.1-0.7-3.6-1.6-3.9c-1.2-0.3-2.1,1.1-1.9,0.9c0.1-0.2,0.9-0.1,1.2,0.3
		c0.4,0.5,0.2,1.4-0.5,1.6s-1.5-0.2-1.5-1.1c-0.1-1.7,2.6-3.1,4.3-0.7c2,2.8-3,8.9,2.7,10.6c4.3,1.3,4.1,3.5,4.4,4.2
		c-0.8-0.5-2.2,2.1-3.1,2.1c-2.5-0.1-3.3-2.7-1.7-3.5c0.7-0.4,1.4,0,1.5,0.6c0.2,0.7-0.3,1.2-0.8,1.1c-0.4,0-0.8-0.6-0.8-0.8
		c0.1-0.2-0.5,1,0.3,1.7c0.6,0.5,1.9,1,2.9-0.7c1.1-2-0.5-3.5-1.4-3.9s-3.1-0.9-4.2,2c-1.8,4.7,3.3,10.9,9.5,6.5
		c2.3-1.7,3.8,0.1,3.6,0.7c0.2,0.8-0.8,1.5-1.2,1.3c-4.1-1.2-5.2,3.3-2.8,5.3c1.6,1.3,4.3,0.3,4.3,0.3s-1.7-0.4-2.2-1.5
		c-0.4-0.8,0.7-1.9,1.9-0.6c0.6,0.6,2.7,5,6.1,3.3c2.2-1.1,1-3.4,1.6-5.2c0.6-2,3-3.5,5-1.2c1,1,0.7,3-0.5,3.5c-1.7,0.8-3-0.9-2.4-2
		c0.3-0.5,0.8-0.5,1.1-0.3c0.3,0.3,0.3,0.8-0.1,1c-0.3,0.2-0.7,0-0.7-0.1c0-0.2,0.1,0.7,0.8,0.9c0.5,0.1,1.5-0.3,1.4-1.5
		c-0.1-1.6-1.5-1.9-2.3-1.8c-0.6,0.1-2.2,1-1.9,3.1c0.5,4.3,5.3,3.5,9.1,1.1c2.7-1.7,9.9-12.4,5.2-17.8
		C265,80.9,253.1,58.4,253.1,58.4z"/>
	<path class="st7" d="M229.3,33.2c0,0-3.9,1.3-6.1,6.3c-1.3,3-1.3,5-1.3,5l-2.1,6c0,0-1.9-5.8,3.5-12.6c3.1-3.9,5.6-4.5,5.6-4.5
		L229.3,33.2z"/>
	<path class="st4" d="M225.5,53c0,0-5.5-5.9-1.7-13.1c7.6-14.8,25-11.5,30.1-3.3c6.2,9.9,2.4,14.8,2.4,14.8s-4.2-8.2-15.6-7.9
		C228.7,43.8,225.5,53,225.5,53z"/>
	<path class="st5" d="M229,33.5c0,0-5.5,4.1-6.1,8.8c-0.6,4.6,4.7,7.2,4.7,7.2s0.7-0.9,1.7-1.8c1-0.9,1.9-1.4,1.9-1.4
		s-4.9-1.2-5.4-5.3C225.3,36.8,229,33.5,229,33.5z"/>
	<path class="st5" d="M246.7,31c0,0,5.5,0.9,9.1,8.6c3.6,7.7,0.8,12.6,0.8,12.6s-2-2.7-2.2-8.5C254.1,34.1,246.7,31,246.7,31z"/>
	<path class="st8" d="M228.1,35.4c-0.3,0.1,2.8-5.8,11.2-5.8c5.4,0,9.1,3.4,10.1,4.7c0.9,1.4-2-2-9.4-2
		C232.7,32.3,230.3,34.3,228.1,35.4z"/>
	<path class="st8" d="M235.3,30.7c0,0-1.6,1.5-1.1,5.9c0.2,2.2,1.7,7.4,1.7,7.4s-3-5-3.4-8C232.1,32.2,235.3,30.7,235.3,30.7z"/>
	<path class="st8" d="M229.5,33.5c0,0-1.4,2.6,0.7,5.5c1.3,1.8,5.4,5.1,5.4,5.1s-5.7-1.8-7.2-4.4C226.3,35.9,229.5,33.5,229.5,33.5z
		"/>
	<path class="st5" d="M249.8,33.7c0,0,2.6,2.6,3.2,6.5c0.5,3.9-0.5,7.4-0.5,7.4s-2.5-2.4-4.2-3c-2.8-1-5.6-1.1-5.6-1.1
		s5.2-1.3,7.1-3.9C251.9,36.5,249.8,33.7,249.8,33.7z"/>
	<path class="st8" d="M254.1,36.7c0,0,3.6,3.1,4.2,7c1,6.1-1.7,8.6-1.7,8.6s0.7-1.6,1-4.1C258.3,42.2,254.1,36.7,254.1,36.7z"/>
	<path class="st8" d="M222.2,43.1c0,0-0.4,5.3,1.7,11.2c1.3,3.6,0.1,8.7,0.1,8.7s-4-3.9-4.3-9.2C219.4,48.6,222.2,43.1,222.2,43.1z"
		/>
	<path class="st7" d="M249.8,59.2c0,0-3.8,10.7,0,14.3c2.9,2.7,10.2,3.9,12.1,6.2c3.6,4.3-2.5,4.8-1,7.8c1.7,3.3,5.6,1.5,7.7,3.3
		c1.3,1.1,1,2.8,0.3,3.6c-1.3,1.5-3.8,0.3-3.8,0.3s1.9,1.6,3.4,1.3c2.4-0.5,4.6-4.1-1.9-7c-7.6-3.3-2.9-5.2-2.6-8.1
		c0.8-6.8-5.2-7.8-9.6-9.7C251.2,69.7,249.8,59.2,249.8,59.2z"/>
	<path class="st7" d="M250,62.1c-7.1,0.6-6.6-6.1-6.6-6.1s0.2,6.8,10.1,4.7c4.3-0.9,8.6-0.8,10.2,2c2.9,4.9-0.5,6.6,0.5,10.6
		c1.4,5.7,6.2,3.3,7.5,5.9c1.5,2.9-2.4,5.5-2.2,7.9c0.1,1.5,1.2,2.1,2.1,2c1.7-0.2,2.4-2.4,2.4-2.4s0.2,2.2-0.8,3.1
		c-1.5,1.4-5.3,0.7-3.5-5.6c2-6.9-3.7-6.3-5.6-7.3c-3.9-2.2-1.8-5.4-2.3-9.5C261.2,61.5,252,62,250,62.1z"/>
	<path class="st9" d="M251.2,87.2c0,0,0.3,11.9,3.6,15.7c4.6,5.4,27.5,0.8,27.5,0.8l-7.8,22.4l-49,0.6l1.8-9.5c0,0,10-1.6,11.9-5.1
		c3.4-6.1-2.9-23-2.9-23L251.2,87.2z"/>
	
		<linearGradient id="SVGID_1_" gradientUnits="userSpaceOnUse" x1="149.0273" y1="584.3039" x2="153.313" y2="584.3039" gradientTransform="matrix(0.9948 -0.1021 0.1021 0.9948 12.4586 -495.3392)">
		<stop  offset="0" style="stop-color:#F2C68A"/>
		<stop  offset="0.377" style="stop-color:#F2C78C"/>
		<stop  offset="0.6939" style="stop-color:#F3CC94"/>
		<stop  offset="0.9889" style="stop-color:#F5D4A1"/>
		<stop  offset="1" style="stop-color:#F6D4A2"/>
	</linearGradient>
	<path class="st10" d="M223.3,64.8c-0.2,0-1-2.1-2.5,0.3s-0.2,7.1,1.9,10.1c2.1,3,2.6,1,2.6,1L223.3,64.8z"/>
	
		<linearGradient id="SVGID_2_" gradientUnits="userSpaceOnUse" x1="-7846.8564" y1="1130.7655" x2="-7842.5708" y2="1130.7655" gradientTransform="matrix(-0.9717 0.2362 0.2362 0.9717 -7629.749 819.6959)">
		<stop  offset="0" style="stop-color:#F2C68A"/>
		<stop  offset="0.377" style="stop-color:#F2C78C"/>
		<stop  offset="0.6939" style="stop-color:#F3CC94"/>
		<stop  offset="0.9889" style="stop-color:#F5D4A1"/>
		<stop  offset="1" style="stop-color:#F6D4A2"/>
	</linearGradient>
	<path class="st11" d="M257.4,60.5c0.2-0.1,0.2-2.3,2.5-0.6c2.2,1.7,2.6,6.7,1.6,10.1c-1,3.5-2.1,1.8-2.1,1.8L257.4,60.5z"/>
	<path class="st3" d="M237,87.6c0,0,4,2,7,1.8c4.7-0.4,7.1-2.7,7.1-2.7s0.9,8.8-5.2,10C240.2,97.8,237,87.6,237,87.6z"/>
	<path class="st12" d="M257.1,57.5c-2.4-7.5-6.3-15.3-18.6-13.5c-13.6,2-14.4,8.4-14.8,17.2c-0.4,7.9-0.2,13.9,6.5,22.7
		c3.6,4.7,11.8,9.5,15.2,8.8c4.8-0.6,8.7-7.4,11.2-11.5C262,72.2,258.7,62.3,257.1,57.5z"/>
	<path class="st9" d="M258,61.1c-1.1-2.7-0.3-5.1-1.9-8c-3.8-7.2-8.2-11-17.8-9.9c-8.6,1-12.5,5-14.6,13c-1,3.6,0.8,6,0.5,7.6
		c-1.3,7.8,2.4,14.8,6.7,20.4c3.2,4.2,10.7,8.2,14.1,7.5c4.8-0.6,9.9-7,12-11.4C259.9,74.2,259.7,65.2,258,61.1z"/>
	<path class="st13" d="M240.6,74.8c0-0.2,0.3-0.4,0.6-0.4c0.5-0.1,1.1,0,1.2,0.3c0,0.1-0.9,0.3-1.2,0.4
		C240.9,75.2,240.5,75.1,240.6,74.8z"/>
	<path class="st13" d="M245.7,74.2c-0.1-0.2-0.4-0.3-0.7-0.3c-0.5,0.1-1.1,0.3-1.1,0.6c0,0.1,1,0.1,1.2,0.1
		C245.4,74.6,245.8,74.4,245.7,74.2z"/>
	<linearGradient id="SVGID_3_" gradientUnits="userSpaceOnUse" x1="238.5603" y1="74.5319" x2="204.3846" y2="78.1294">
		<stop  offset="0" style="stop-color:#E5C5A2"/>
		<stop  offset="0.1873" style="stop-color:#E5C39F"/>
		<stop  offset="0.3451" style="stop-color:#E2BC97"/>
		<stop  offset="0.492" style="stop-color:#DFB189"/>
		<stop  offset="0.6325" style="stop-color:#DAA378"/>
		<stop  offset="0.7672" style="stop-color:#D59366"/>
		<stop  offset="0.7879" style="stop-color:#D49063"/>
		<stop  offset="0.8606" style="stop-color:#D49063"/>
		<stop  offset="0.9758" style="stop-color:#D49063"/>
	</linearGradient>
	<path class="st14" d="M230.9,80.6c1.5,0.2,8-1.9,2.9-7.7c-3.8-4.3-8.4-2.8-7.9,0.6C226.6,78.2,229.5,80.4,230.9,80.6z"/>
	<path class="st15" d="M250.3,77.1c0,0-1.2,0.8-4.6,0.4c-1.1-0.1-1.4,0.5-2.4,0.7c-1.2,0.2-1.8-0.3-2.5,0.2
		c-2.4,1.5-4.5,1.3-4.5,1.3s3.3,5.5,8.2,4.6C248.5,83.5,250.3,77.1,250.3,77.1z"/>
	<ellipse transform="matrix(0.9773 -0.212 0.212 0.9773 -12.0427 53.2491)" class="st2" cx="242.3" cy="82.8" rx="0.3" ry="0.4"/>
	<path class="st2" d="M236.7,67.8c0.7-0.4,0.9-0.8,0.9-0.8s-1.8-3.5-6.8-2.5c-4.6,0.9-3.3,2.3-3.3,2.3s1.8,2.1,4.7,2.1
		C233.9,68.9,235.7,68.3,236.7,67.8z"/>
	<path class="st2" d="M247.7,66.2c-0.8-0.2-1.1-0.5-1.1-0.5s1-3.9,6.1-4c4.6-0.1,3.8,1.8,3.8,1.8s-0.6,2-4.2,2.8
		C250.6,66.7,248.8,66.5,247.7,66.2z"/>
	<path class="st16" d="M238.1,80.4c0,0,3.6,0.1,4.7-0.2c1.2-0.3,6.2-1.5,6.2-1.5s-0.8,2.3-5.1,2.9C239.8,82.2,238.1,80.4,238.1,80.4
		z"/>
	<path class="st2" d="M238.1,80.4c0,0,3.5-0.3,5.1-0.5c1.3-0.2,5.9-1.3,5.8-1.2c-0.1,0.1-3.1,1.6-5.7,2
		C240.8,81.1,238.1,80.4,238.1,80.4z"/>
	<path class="st2" d="M240.6,81.6c0,0,1.7,0.4,3.2,0.1c1.6-0.3,3.1-0.9,3.1-0.9s-1.3,0.1-3.4,0.4C241.5,81.4,240.6,81.6,240.6,81.6z
		"/>
	<path class="st17" d="M247.1,66c0,0,2.7,0.4,4.9,0s4.4-2.2,4.4-2.2s-1.2,2.5-4.5,3.1C249.7,67.3,247.1,66,247.1,66z"/>
	<g>
		<g>
			<path class="st18" d="M229.5,64.2c0,0-0.2,2.6,1.3,3.5c0.2,0.2,0.5,0.5,2.1,0.5c0.5,0,1.2-0.4,1.4-0.4c1.8-0.9,1-3.2,1-3.2
				L229.5,64.2z"/>
			<path class="st19" d="M230,66.4c0,0,0.3,0.5,0.6,0.8c0.5,0.5,1.2,0.7,2.3,0.6c1.1,0,1.5-0.5,1.8-0.9s0.3-0.7,0.3-0.7
				s-1.5-0.8-2.9-0.7C230.8,65.7,230,66.4,230,66.4z"/>
			<path class="st20" d="M232.4,64.3c-0.7,0.1-1,0.3-1.2,0.7c-0.2,0.3-0.4,2.4,1.5,2.2c2-0.2,1.3-2.2,1.1-2.5
				C233.5,64.4,233.2,64.2,232.4,64.3z"/>
			<path class="st2" d="M230.6,66.3c0.3-0.1,1.4-0.6,1.5-0.2s-1.1,0.9-1.4,1C230.2,67.3,229.9,66.5,230.6,66.3z"/>
		</g>
		<linearGradient id="SVGID_4_" gradientUnits="userSpaceOnUse" x1="232.114" y1="67.0667" x2="231.9093" y2="57.2982">
			<stop  offset="0" style="stop-color:#F5D5AC"/>
			<stop  offset="0.142" style="stop-color:#F4D2A9"/>
			<stop  offset="0.2616" style="stop-color:#EFCAA0"/>
			<stop  offset="0.3731" style="stop-color:#E9BD91"/>
			<stop  offset="0.4796" style="stop-color:#E1AB7F"/>
			<stop  offset="0.5818" style="stop-color:#D8986B"/>
			<stop  offset="0.6218" style="stop-color:#D49063"/>
		</linearGradient>
		<path class="st21" d="M237.6,66.9c0,0-0.9-1.8-3.5-2.4c-4.8-1.1-7.5,1.4-7.5,1.4s1.4-5.8,7-3.9C236.5,63.1,237.6,66.9,237.6,66.9z
			"/>
	</g>
	<path class="st20" d="M237.6,66.7c0,0-1.8-2.5-6.1-2.2c-3.3,0.2-3.7,1.9-4.2,2c-0.2,0.1-1-0.3-0.8-0.4c2.3-2.6,5.7-3.1,8.3-1.9
		C236.8,65.1,237.6,66.7,237.6,66.7z"/>
	<path class="st17" d="M227.3,66.5c0,0,1.6,1.4,4.8,1.5c2.2,0.1,5.4-0.6,5.4-0.6s-2.2,2-5.6,1.8C228.5,69,227.3,66.5,227.3,66.5z"/>
	<path class="st2" d="M247.7,66.3c-0.8-0.2-1.1-0.6-1.1-0.6s1-3.8,6.2-3.8c4.6-0.1,3.7,1.6,3.7,1.6s-1.3,2.4-4.1,3
		C250.7,66.8,248.8,66.7,247.7,66.3z"/>
	<g>
		<g>
			<path class="st18" d="M254,61.3c0,0,0.7,2.5-0.5,3.7c-0.2,0.2-0.4,0.6-1.9,0.9c-0.5,0.1-1.3-0.1-1.4-0.2
				c-1.9-0.6-1.6-2.9-1.6-2.9L254,61.3z"/>
			<path class="st19" d="M254,63.6c0,0-0.2,0.6-0.5,0.9c-0.4,0.6-1,0.9-2.1,1.1c-1,0.2-1.6-0.2-1.9-0.5c-0.4-0.3-0.5-0.6-0.5-0.6
				s1-0.9,2.4-1.1C253,63.1,254,63.6,254,63.6z"/>
			<path class="st20" d="M251.2,62c0.7-0.1,1,0.1,1.3,0.4c0.3,0.3,0.9,2.3-1,2.5c-2,0.2-1.8-1.8-1.5-2.2
				C250.1,62.4,250.4,62.1,251.2,62z"/>
			<path class="st2" d="M253.4,63.7c-0.3,0-1.5-0.3-1.6,0.1s1.3,0.6,1.5,0.7C253.9,64.6,254.1,63.8,253.4,63.7z"/>
		</g>
		<linearGradient id="SVGID_5_" gradientUnits="userSpaceOnUse" x1="252.5973" y1="65.6813" x2="247.3871" y2="54.657">
			<stop  offset="0" style="stop-color:#F5D5AC"/>
			<stop  offset="0.142" style="stop-color:#F4D2A9"/>
			<stop  offset="0.2616" style="stop-color:#EFCAA0"/>
			<stop  offset="0.3731" style="stop-color:#E9BD91"/>
			<stop  offset="0.4796" style="stop-color:#E1AB7F"/>
			<stop  offset="0.5818" style="stop-color:#D8986B"/>
			<stop  offset="0.6218" style="stop-color:#D49063"/>
		</linearGradient>
		<path class="st22" d="M246.6,65.7c0,0,0.5-2,3-3.1c4.5-2,7.5-0.1,7.5-0.1s-2.3-4.9-7.9-2C246.4,61.9,246.6,65.7,246.6,65.7z"/>
	</g>
	<path class="st20" d="M246.7,65.4c0,0,1.2-2.8,5.5-3.4c3.3-0.4,4,1.2,4.5,1.1c0.5,0,0.6-0.6,0.5-0.7c-2.4-1.7-5.5-2-8.4,0
		C246.9,63.7,246.7,65.4,246.7,65.4z"/>
	<path class="st17" d="M256.7,63.3c0,0-2.2,1.8-4.4,2.4s-5.5,0.4-5.5,0.4s2.6,1.5,5.8,0.6C254.8,66.1,256.7,63.3,256.7,63.3z"/>
	<path class="st17" d="M234.2,54.2c1.6,1,1.9,2.9,1.4,3.6c-0.1,0.1-2.4-1.8-6-3.2c-4.2-1.6-6.2,2.6-6.2,2.6s0.9-4.7,5.7-4.3
		C230.3,53,233.3,53.6,234.2,54.2z"/>
	<path class="st7" d="M235.6,57.7c-0.1,0-1.7-1.1-4.4-2.5c-2.9-1.5-4.4-0.9-4.4-0.9s2.8-1.7,7.6,1.6
		C235.9,56.9,235.6,57.7,235.6,57.7z"/>
	<path class="st17" d="M245.6,52.8c-1.3,1.1-1.2,2.7-0.5,3.2c0.1,0.1,0.9-1.7,4-3.4c5.4-3,7.5,1.2,7.5,1.2s-1.9-4.3-6.7-2.9
		C248.9,51.2,247,51.6,245.6,52.8z"/>
	<path class="st7" d="M245.1,56c0.1,0,0.2-0.8,2.3-2.4c1.8-1.4,4.5-2,4.5-2s-2.8-0.1-5.9,2.3C244.8,54.9,245.1,56,245.1,56z"/>
	<linearGradient id="SVGID_6_" gradientUnits="userSpaceOnUse" x1="247.9276" y1="74.3639" x2="279.6713" y2="66.3221">
		<stop  offset="0" style="stop-color:#E5C5A2"/>
		<stop  offset="0.1873" style="stop-color:#E5C39F"/>
		<stop  offset="0.3451" style="stop-color:#E2BC97"/>
		<stop  offset="0.492" style="stop-color:#DFB189"/>
		<stop  offset="0.6325" style="stop-color:#DAA378"/>
		<stop  offset="0.7672" style="stop-color:#D59366"/>
		<stop  offset="0.7879" style="stop-color:#D49063"/>
		<stop  offset="0.8606" style="stop-color:#D49063"/>
		<stop  offset="0.9758" style="stop-color:#D49063"/>
	</linearGradient>
	<path class="st23" d="M251.5,75.5c1.8,5.1,6.9,1.9,7.6-2.5c0.8-4.4-1.5-7.7-4.1-5.6S250.3,72.1,251.5,75.5z"/>
	<path class="st24" d="M241.8,66.5c-0.1,0.6-0.5,4.8-0.5,4.8s0.4,2,1.4,1.9c1.5-0.2,1.4-2.2,1.4-2.2s-1.3-4.1-1.6-4.7
		c-0.5-1.2-0.6-1.9-0.6-1.9S241.9,65.5,241.8,66.5z"/>
	<path class="st24" d="M244.7,85.6c3.2-0.3,4.6,1.1,3,3c-1.7,2-3.2,2.2-5.5,0.7C239.6,87.7,241.6,85.9,244.7,85.6z"/>
	
		<linearGradient id="SVGID_7_" gradientUnits="userSpaceOnUse" x1="165.9083" y1="582.2814" x2="166.7199" y2="582.2814" gradientTransform="matrix(0.9948 -0.1021 0.1021 0.9948 12.4586 -495.3392)">
		<stop  offset="0" style="stop-color:#F2C68A"/>
		<stop  offset="0.377" style="stop-color:#F2C78C"/>
		<stop  offset="0.6939" style="stop-color:#F3CC94"/>
		<stop  offset="0.9889" style="stop-color:#F5D4A1"/>
		<stop  offset="1" style="stop-color:#F6D4A2"/>
	</linearGradient>
	<path class="st25" d="M237.4,66.4c0,0,0.2,0.7-0.4,1.1c0,0,1-0.3,0.7-0.7C237.5,66.5,237.4,66.4,237.4,66.4z"/>
	
		<linearGradient id="SVGID_8_" gradientUnits="userSpaceOnUse" x1="-8041.4414" y1="582.0106" x2="-8040.6445" y2="582.0106" gradientTransform="matrix(-0.9948 0.1021 0.1021 0.9948 -7811.8389 307.7256)">
		<stop  offset="0" style="stop-color:#F2C68A"/>
		<stop  offset="0.377" style="stop-color:#F2C78C"/>
		<stop  offset="0.6939" style="stop-color:#F3CC94"/>
		<stop  offset="0.9889" style="stop-color:#F5D4A1"/>
		<stop  offset="1" style="stop-color:#F6D4A2"/>
	</linearGradient>
	<path class="st26" d="M246.7,65.2c0,0-0.1,0.7,0.6,1c0.1,0-1-0.1-0.8-0.6C246.6,65.3,246.7,65.2,246.7,65.2z"/>
	<g>
		<g>
			<g>
				
					<linearGradient id="SVGID_9_" gradientUnits="userSpaceOnUse" x1="890.0276" y1="-376.0234" x2="887.9627" y2="-392.269" gradientTransform="matrix(0.9971 -7.560000e-02 7.560000e-02 0.9971 -602.5901 519.7887)">
					<stop  offset="0" style="stop-color:#F7D997"/>
					<stop  offset="3.054619e-02" style="stop-color:#E7CB90"/>
					<stop  offset="0.3702" style="stop-color:#856C5B"/>
					<stop  offset="0.6564" style="stop-color:#54403C"/>
					<stop  offset="0.875" style="stop-color:#3D2C2C"/>
					<stop  offset="1" style="stop-color:#362626"/>
				</linearGradient>
				<path class="st27" d="M258.4,72.8c2.3-1,2.6-1.1,4.3-3.9c2.3-3.8,1.8-10.5-1.8-12.8c-3.3-2.2-9.4-1.6-13.6,0.6
					c-1.8,1-4.1,2.6-4.5,4.3c-1,4,2.6,7.9,4.4,9.8C250.5,74.2,255.6,74.1,258.4,72.8z"/>
			</g>
			
				<linearGradient id="SVGID_10_" gradientUnits="userSpaceOnUse" x1="866.1592" y1="-378.0093" x2="863.6799" y2="-392.5309" gradientTransform="matrix(0.9971 -7.560000e-02 7.560000e-02 0.9971 -602.5901 519.7887)">
				<stop  offset="0" style="stop-color:#F7D997"/>
				<stop  offset="0.1067" style="stop-color:#CBAF81"/>
				<stop  offset="0.4122" style="stop-color:#7A6254"/>
				<stop  offset="0.6737" style="stop-color:#513D39"/>
				<stop  offset="0.878" style="stop-color:#3D2C2B"/>
				<stop  offset="1" style="stop-color:#362626"/>
			</linearGradient>
			<path class="st28" d="M233.1,75.5c2.3-1,4-2.4,5.7-5.2c1.4-2.4,2.1-6.5,0.9-9.2c-0.7-1.7-3.1-2.2-3.3-2.3
				c-4.3-1.6-10.1-1.7-14.4,0.6c-6.1,3.3-2.9,11.9-0.4,14.5C225,77.2,230.3,76.7,233.1,75.5z"/>
		</g>
		
			<linearGradient id="SVGID_11_" gradientUnits="userSpaceOnUse" x1="304.1148" y1="-243.578" x2="296.1788" y2="-255.8784" gradientTransform="matrix(0.9998 1.940000e-02 -1.940000e-02 0.9998 -75.9696 311.0535)">
			<stop  offset="0" style="stop-color:#F7D997"/>
			<stop  offset="0.1067" style="stop-color:#CBAF81"/>
			<stop  offset="0.4122" style="stop-color:#7A6254"/>
			<stop  offset="0.6737" style="stop-color:#513D39"/>
			<stop  offset="0.878" style="stop-color:#3D2C2B"/>
			<stop  offset="1" style="stop-color:#362626"/>
		</linearGradient>
		<path class="st29" d="M237.4,65.3c-0.6,0-14.7,4.8-15.3,5.9s5.2,5.3,10.4,2.3C237.2,70.9,237.4,65.3,237.4,65.3z"/>
		
			<linearGradient id="SVGID_12_" gradientUnits="userSpaceOnUse" x1="-24.8513" y1="-196.9167" x2="-33.1321" y2="-209.7517" gradientTransform="matrix(-0.9545 0.2981 0.2981 0.9545 287.1003 266.7516)">
			<stop  offset="0" style="stop-color:#F7D997"/>
			<stop  offset="0.1067" style="stop-color:#CBAF81"/>
			<stop  offset="0.4122" style="stop-color:#7A6254"/>
			<stop  offset="0.6737" style="stop-color:#513D39"/>
			<stop  offset="0.878" style="stop-color:#3D2C2B"/>
			<stop  offset="1" style="stop-color:#362626"/>
		</linearGradient>
		<path class="st30" d="M244.7,65.1c0.6-0.2,17.2,0.4,17.8,1c0.9,0.9-3.6,6.7-9.8,5.3C246.4,70.1,244.7,65.1,244.7,65.1z"/>
		<ellipse transform="matrix(0.9047 -0.426 0.426 0.9047 -8.8889 106.2156)" class="st2" cx="233" cy="73" rx="1" ry="0.2"/>
	</g>
	<path class="st2" d="M236.4,58.7c0,0-0.9-1.7-10.5-1s-8,7.2-7.7,9.2c0.4,2,2.6,6,2.6,6s-4.4-8.7-0.7-12
		C225.2,56.2,236.4,58.7,236.4,58.7z"/>
	<path class="st31" d="M188.6,94.6c0,0-2.1-1.2-3-1c-0.9,0.2-1.4,0.6-1.4,0.6s0.7-1.3,1.9-1.4c1.2,0,2.1,0.6,2,0.4
		c-0.1-0.2-2.9-3-2.9-3l2.6,2l-0.5-2.6l1,2.3l-0.4-4l1.3,3.4l0.5-3.3l0.3,2.5l2.3-2.7c0,0-0.8,2.2-0.7,2.4c0,0.3,2.5-1.3,2.5-1.3
		s-1.4,1.1-1.4,1.5s2.3-0.2,3.2,0.2c0.9,0.4,0.9,1.1,0.9,1.1s-3.3-0.8-4.2-0.2c-0.9,0.6-0.4,1.2-0.4,1.2L188.6,94.6z"/>
	<path class="st32" d="M191.9,96.3c0,0-5.9-3.4-4.4-10.1c0-0.2,0.7,2.8,2.2,6.5C189.9,93.1,191.9,96.3,191.9,96.3z"/>
	<path class="st32" d="M191.6,95.3c0,0-2.5-3.5-2.3-6.6s1.3-3.9,1.3-3.9s-0.4,4.3,0.1,6.4C191.1,93.3,191.6,95.3,191.6,95.3z"/>
	<path class="st32" d="M191.9,95.2c0,0-1.5-3.4-0.8-6c0.8-2.6,1.8-3.1,1.8-3.1s-1.1,3.6-1.2,5.5C191.8,93.5,191.9,95.2,191.9,95.2z"
		/>
	
		<linearGradient id="SVGID_13_" gradientUnits="userSpaceOnUse" x1="103.0542" y1="230.4674" x2="107.5748" y2="230.4674" gradientTransform="matrix(0.9633 -0.2684 0.2684 0.9633 25.5263 -98.1721)">
		<stop  offset="0" style="stop-color:#FFFFFF"/>
		<stop  offset="1" style="stop-color:#D25385"/>
	</linearGradient>
	<path class="st33" d="M187.7,94.2c0,0,3.8-1.9,4.4-1.6c1.3,1,1.8,1.5,2.5,2.6c0.9,1.3-5.1,2.3-5.7,2
		C187.3,96.3,187.7,94.2,187.7,94.2z"/>
	<path class="st31" d="M176.5,116.3c0,0,0.1,1.1,0,1.3c-0.1,0.2-1.8,3.2-1.8,3.2l1.7-2.3l0.2,2.4l0.3-2.1l0.6,3.5l0.3-3.2l1.1,2.6
		l-0.4-2.2l1.3,2.2c0,0,0.2-2.1,0.1-2.4c0-0.2,0.6,2.1,0.6,2.1s1.3-1.5,7.2-2.7c0.3-0.1,3.9-2.4,3.9-2.4H176.5z"/>
	<path class="st34" d="M208,302.3c0,0-1.3,7.8,1.6,10.2c2.9,2.4,6.7-4.1,5-8.5C212.9,299.6,208,302.3,208,302.3z"/>
	<path class="st31" d="M179.3,106.7c0,0-3.8-0.3-4.3,1.6c-1.1,3.8-1.5,9.6,3,10.8c5.4,1.4,14.3-2.9,15.8,1.4s3.1,16.5,0,17.3
		c-3.1,0.8-6.1-7.1-10.2-4.1c-1,0.8-3.1,2.1-3.8,5.4c-0.6,3,1.4,4.3,2.1,3.8c2.4-2,3.1-6.5,4-5.2c2.3,3.1,1.5,11.4,5.6,10.2
		c0.5-0.1,3.6-1.1,3.7-0.4c0.7,3.7,3.1,13.6,5.1,16.6c1.2,1.8,10.3,7.9,10.3,16.9c0,7.8,5.9,7.5,10.6,5c0.8-0.4,5-9.4,2-20.8
		c-0.4-1.6-2.3-8.9-3.4-13.7c-4-18.3-2.2-23.6-11.9-37.6c-3.2-4.7-1.3-8.2-4.8-13.8c-1.2-2-3.3-4.4-3.3-6.6
		c-0.1-6.2-6.7-8.3-6.7-8.3s0.6,5.9-0.8,9.7c-0.1,0.4-0.9,1.1-1.3,1.2c-0.2,0.1-4.5,0.9-5.9,0.6c-3.1-0.6-6,0.9-7.1,2.3
		c-2.2,2.8-2.2,5-0.8,5.3C181,105.1,179.3,106.7,179.3,106.7z"/>
	<path class="st35" d="M173.8,106.8c0,0,0.6,3.2,1.1,2.5s1.7-2.2,1.5-2.5S173.8,106.8,173.8,106.8z"/>
	<path class="st36" d="M194.9,126.5c0,0-0.7,0.9-0.1,5.2c0.4,2.8-0.2,9-5.6,2.9c-2.4-2.8-3.3,2.9-3.3,5c0,4.2,5.4,13.9,14.3,24.6
		c4.2,5,7.9,8.9,5.8,14.8c-1.6,4.6,1.9,12.4,7.7,14.1c5.9,1.7,18-9,11.3-29.5c-5.8-17.8-4.4-31.8-10.7-37.1
		C212.4,124.6,194.9,126.5,194.9,126.5z"/>
	<path class="st37" d="M194.3,86.4c0,0,1.9,1,3.3,5.4c1.2,3.6-3.1,5-3.1,5L194.3,86.4z"/>
	<path class="st37" d="M196.9,99.5c0.1-1.7,0.6-3.5,2.9-1.3c2.4,2.4,5.3,6.9,6.2,14.4c0.3,2.5,3.6,5.8,3.6,5.8l-5,0.6l-2.3-4.6
		l-4-0.8l3.6-2.4l-3,0.3l1.6-4.9l-2.1,2.1c0,0,2.3-4.3,0.4-8C198,99.1,196.9,99.5,196.9,99.5z"/>
	<path class="st2" d="M176.9,117.3c0,0-1.8-0.4-1.9-3.3c-0.1-2.9,0.7-4,0.7-4s-0.7,2.2,0.5,5.8C176.6,116.9,176.9,117.3,176.9,117.3
		z"/>
	<path class="st2" d="M180.1,115.5c0,0-1.8,0.3-3-2.3c-1.2-2.6-0.9-4-0.9-4s0.2,2.3,2.7,5.2C179.6,115.3,180.1,115.5,180.1,115.5z"
		/>
	<path class="st2" d="M181.2,112.3c0,0-1.3,0.8-3-0.8c-1.7-1.6-1.9-2.7-1.9-2.7s0.9,1.7,3.6,3C180.9,112.3,181.2,112.3,181.2,112.3z
		"/>
	<linearGradient id="SVGID_14_" gradientUnits="userSpaceOnUse" x1="193.5337" y1="132.9792" x2="214.9962" y2="195.8761">
		<stop  offset="0" style="stop-color:#F7DEAD"/>
		<stop  offset="1" style="stop-color:#D88050"/>
	</linearGradient>
	<path class="st38" d="M190.1,155.1l8.2,3.6l-0.6,9.6c0,0-1.2,3,4.2,7.4c3.8,3.1,28.2,20.4,28.2,20.4l4.6,11.7
		c0,0-9.3,4.4-24.9-12.6c-16.6-18-18.7-22.6-18.8-24.1C190.8,169.6,190.1,155.1,190.1,155.1z"/>
	<g>
		<linearGradient id="SVGID_15_" gradientUnits="userSpaceOnUse" x1="193.1342" y1="133.1156" x2="214.5965" y2="196.0118">
			<stop  offset="0" style="stop-color:#F7DEAD"/>
			<stop  offset="1" style="stop-color:#D88050"/>
		</linearGradient>
		<path class="st39" d="M191.3,169.5l-2.4-23.9l4-6.4c0,0,7.4-3.7,7.5-3.3c0.6,2.3-6.4,4.5-6.4,4.5l-2,5.1l7.7-5.4l8.6-4.3
			c0,0,0.9,2.8-3.5,6.2c-2.2,1.7-4.3,5.2-4.3,5.2l10.2-3c0,0,0.3,1.7-3.5,2.5c-0.9,0.2-1.7,0.8-2.6,1.6c-1.3,1.2-2.7,1.6-3.7,2.5
			c-2.4,2.2-3.5,16.8-4.9,18.5C194.7,170.8,191.3,169.5,191.3,169.5z"/>
		<path class="st40" d="M197.9,136.9l3.9-1.9c0,0-1.2,1.5-2.1,1.8C198.6,137,197.9,136.9,197.9,136.9z"/>
		<path class="st40" d="M208.2,144.9l4.1-1.2c0,0-1.4,1.3-2.4,1.4C208.9,145.2,208.2,144.9,208.2,144.9z"/>
		<path class="st40" d="M205.5,137.8l4.4-3.3c0,0-0.1,1.4-1.5,2.4C206.9,138.1,205.5,137.8,205.5,137.8z"/>
		<path class="st41" d="M200.4,142.1c0,0-3.6,4.2-4.4,3.9C195.1,145.7,200.4,142.1,200.4,142.1z"/>
	</g>
	<path class="st20" d="M247.8,469.9c0,0,4.6,11.3-0.4,16.2c-2.7,2.6-8.2,2-10.2,0c-5-5-2.6-9.6-2.6-9.6L247.8,469.9z"/>
	
		<linearGradient id="SVGID_16_" gradientUnits="userSpaceOnUse" x1="-5136.564" y1="470.4213" x2="-5133.9229" y2="296.7473" gradientTransform="matrix(1 0 0 1 5353.7095 0)">
		<stop  offset="0" style="stop-color:#F2CB95"/>
		<stop  offset="0.1649" style="stop-color:#F1C892"/>
		<stop  offset="0.333" style="stop-color:#EEBE88"/>
		<stop  offset="0.5027" style="stop-color:#EAAF78"/>
		<stop  offset="0.6736" style="stop-color:#E49B66"/>
		<stop  offset="0.8435" style="stop-color:#DE8552"/>
		<stop  offset="1" style="stop-color:#D97043"/>
	</linearGradient>
	<path class="st42" d="M248.8,479.5c0.7-6.5-0.9-17.6-3.9-27.7c-5.8-19.7-4.9-45-6.8-66c-2.2-25.1-9.8-44.2-14.5-53
		c0-0.8-0.3-1.5-0.3-2.3c0-4.2-1.2-56.6-1.2-56.6l-33.7-11.5c0,0,18.3,64,18.8,66.6c0.5,2.4,2.6,8.2,3.1,15.1
		c0.1,5.9-0.4,22.6,4.4,45.1c5.7,26.4,22.3,55.7,21.2,69.8c-0.2,2.7,1.4,9.6-1,15c-1,4.8,0.7,7.4,1.5,8.9
		C238.3,486.1,247.7,489.2,248.8,479.5z"/>
	<path class="st20" d="M249,480.5c0,0-2,1.5-8.9,0.4c-1.5-0.2-6.1-1.7-6.1-1.7l1-5.6c0,0,2.3,2.3,6.2,2.4c5.3,0.1,7.8-1.5,7.8-1.5
		V480.5z"/>
	<path class="st20" d="M267.5,476c0,0,1.1,12.2,7.8,14.2c3.6,1.1,7.7-2.1,9.1-4.7c2.1-4-2.3-8.2-2.3-8.2L267.5,476z"/>
	<path class="st43" d="M283.2,475.3c-3.4-3.5-8.4-15.3-12.6-22.9c-3.1-5.8-9.9-46.3-10.9-59.4c-3.1-40.9-14.2-48.4-19.9-57.3
		c-5.8-8.8,0.5-55.1,0.5-55.1s-16.2,7.7-21.3,31.4c-0.6,2.6,1.3,13.2,1.5,16.2c0.5,10.7,4.7,13.4,6.5,18.7
		c1.1,3.1,5.3,24.4,10.2,40.8c4,13.7,21.8,49.1,22.5,62.2c0.5,8.9,4.3,17.5,6.1,25.2c3.9,16.4,12.5,13.7,12.5,13.7
		S289.3,481.6,283.2,475.3z"/>
	<path class="st20" d="M270,485.2c0,0,5.3-0.6,9.3-4c3-2.5,5.4-3.7,5.4-3.7l-2.6-3.7c0,0-1.7,2.1-6,3.7c-4.6,1.8-9.4,1.7-9.4,1.7
		L270,485.2z"/>
	<path class="st12" d="M218.7,314.4l-6.5-0.3c0,0,5.6,21.7,7.9,25.4c2.3,3.7,9.3,29.7,11.1,33.5s7.4,19,7.4,19s-8.6-33.2-10.9-42.1
		c-1.5-5.7-4.1-9.6-5.8-14.5C220.2,330.6,218.7,314.4,218.7,314.4z"/>
	<g>
		<path class="st44" d="M224.2,163.7c2.9-9.4-6.4-37.7-8.8-34.9c-12.4,14.4,4.2,26.5-3.3,58.3C209.5,194.3,221.8,181.5,224.2,163.7z
			"/>
	</g>
	<path class="st45" d="M247.1,219.6c-3.1-12-16.3-22.5-5.5-40.8c12.8-21.5,27.8-41.9,27.8-41.9s-3.4-8.6-14.3-8.6
		c-7.2,0-14.1,6.8-15.2,6.8c-0.6,0-8.3-8.2-14.1-8.8c-5.6-0.6-5.8,1.7-9.8,5.6c-2.4,3.1-4.3,6.6-0.3,11.3c3.2,3.7,7.4,6,8.3,15.4
		c1.4,14.7-5.7,27-23.8,41.2c-11.4,8.9-17.3,27.1-14.5,47.6c3,22.6,15.4,61.4,16.9,63.6c4.2,5.8,33.9,2.8,34.1-0.2
		C239,281.9,253.3,243.7,247.1,219.6z"/>
	<path class="st9" d="M220.6,127.1c-3.5-13.4,2.5-13.2,2.5-13.2l59.8-12.3c0,0,0.2,23.3-10.4,38.8c-8.7,12.8-37.7,34.6-37.6,53.3
		c0,8.2-2.2,11.7-7.2,18.5c-8.6,11.8-26-10.4-20.6-18.3C229.3,161.8,222.6,134.6,220.6,127.1z"/>
	<path class="st45" d="M235.3,139.6c17-0.4,28-28.4,38.2-35.5c1.7-1.2,3.8-1.5,4.6-1c0,0-0.6,4.3-1.7,10c-2,10.7,0.1,18.6-1.7,24.1
		c-1.1,3.5-14.3,17.5-14.3,17.5s-12.1,11.7-17.8,20.8c-12.6,20.2,0.2,42.8-8.4,42.3c-2.6-0.1-25.1,12-33.2,7.7
		c-6.8-3.6,0.1-22.9,4.3-28.9c16-22.4,17.4-45.6,17.4-45.6s-7.9-34.6,5.4-38.2C230.8,112.1,220.2,140,235.3,139.6z"/>
	<path class="st2" d="M277.1,103.7c0,0-3.4,0.2-7.3,4.9c-5,6.1-13.1,19.2-18.7,24.3c-10.2,9.5-17.2,8.7-17.2,8.7l-0.3,4.3
		c0,0,8.1,0.4,17.9-8.3c6.6-5.9,12.3-14.3,15.3-19.7C274.1,104.9,277.1,103.7,277.1,103.7z"/>
	<path class="st2" d="M227.5,113.4c0,0-2.8,10.8-2,18.5c0.7,6.6,7.8,9.8,7.8,9.8l-0.5,3.9c0,0-8.9-1.6-9.6-12.6
		C222.7,124.9,227.5,113.4,227.5,113.4z"/>
	<g>
		<circle class="st46" cx="201" cy="159" r="1.1"/>
		<circle class="st47" cx="203.6" cy="153.8" r="1.1"/>
		<circle class="st48" cx="208.5" cy="160.1" r="1.1"/>
		<circle class="st49" cx="210.6" cy="154.9" r="1.1"/>
		<circle class="st50" cx="208.9" cy="149.3" r="1.1"/>
		<circle class="st51" cx="208.5" cy="171" r="1.1"/>
		<circle class="st46" cx="211.1" cy="166.2" r="1.1"/>
		<circle class="st52" cx="205.8" cy="164.6" r="1.1"/>
	</g>
	<path class="st2" d="M233,139.2c0,0,0.9,17.6-8.1,33.9s-17.4,23.7-21.9,49c-4.5,25.3,12,91.7,12,91.7l1.4-0.4
		c0,0-16.4-61.4-12.3-89.8c4.1-29,17.3-38.1,23-52.6c6.4-16.4,7.1-31.7,7.1-31.7L233,139.2z"/>
	<g>
		<path d="M180.4,180.3c0,0-20.5,7.9-14.8,15.6c3.2,4.3,17.8,14.2,26.5,14.3s4.6-20.6,4.6-20.6L180.4,180.3z"/>
		<path class="st2" d="M164.6,193.1c0.1,0.2,20.1,16.4,26.8,14.7c6.6-1.8,3.9-18.9,3.9-18.9l0.5,0.3c0,0,2.4,17.4-4.3,19.1
			c-6.7,1.8-27-14.7-27-14.7L164.6,193.1z"/>
		<path class="st2" d="M178.4,181.7c0,0-8.1,3.2-6,7.1c2,3.9,11.9,11.7,16.7,9.7c4.9-1.9,5.5-9.6,5.5-9.6s-0.2,9.1-5.7,10.7
			c-5.4,1.6-16.4-7.3-17.6-10.9C170.3,185.3,178.4,181.7,178.4,181.7z"/>
		<g>
			<path class="st2" d="M183.2,193.4c0.9,0.6,1.3,1.7,0.7,2.5c-0.5,0.7-1.8,0.8-2.7,0.1c-0.9-0.6-1.3-1.7-0.7-2.5
				C181,192.9,182.2,192.8,183.2,193.4z"/>
			<path class="st53" d="M182.9,193.8c0.7,0.5,0.9,1.2,0.5,1.7c-0.4,0.5-1.2,0.6-1.9,0.1c-0.7-0.5-0.9-1.2-0.5-1.7
				C181.4,193.3,182.2,193.3,182.9,193.8z"/>
		</g>
	</g>
	<circle class="st2" cx="174.5" cy="107.3" r="0.3"/>
	<path d="M197.9,171c0,0,2,2.8,1.2,7.3c-1.1,6.4-5.2,9.8-5.2,9.8l2.7,1.6c0,0,5.1-5.8,4-13.8C200.1,171.9,197.9,171,197.9,171z"/>
	<path d="M180.4,180.3c0,0,3.7-3.8,6.2-5.6c2.6-1.8,4.6-2.7,4.6-2.7s0.3,0.8,0.4,1c0.1,0.2-1.5,0.8-4.4,3.3
		c-2.2,1.8-4.6,5.4-4.6,5.4L180.4,180.3z"/>
	<path class="st31" d="M183.5,96.8c0,0-3-0.3-7,3c-2.5,2.1-2.2,4.3-2.2,4.3s1.7-1.9,3.7-3.6C180.3,98.3,183.5,96.8,183.5,96.8z"/>
	<path class="st31" d="M181.5,97.6c0,0-2.4,0.4-4.9,3.8c-1.5,2.1-0.8,3.8-0.8,3.8s0.9-1.8,2.1-3.6C179.4,99.5,181.5,97.6,181.5,97.6
		z"/>
	<path class="st54" d="M184.8,104.3c0.9,0.3,1.5,2,0.6,2.6c-1.2,0.8-2.1-0.5-2-1.4C183.5,104.7,183.9,104,184.8,104.3z"/>
	<path class="st20" d="M184.6,104.3c-0.5-0.1-1,0.3-1.1,1.2c-0.1,0.9,0.5,1.6,1.2,1.4s0.8-0.7,0.7-1.5
		C185.3,104.7,185.1,104.4,184.6,104.3z"/>
	<circle class="st54" cx="185" cy="106.3" r="0.3"/>
	<path class="st37" d="M195.1,96.8c-1.8,0.1-7.9,0.7-11.5,6.4c-1,1.6-1.5,4.6-1.5,4.6s1.1-1.8,2.8-3.7c1.8-2,3.4-3.1,3.4-3.1
		s-1.9,3-2.3,4c-1,2.4,0,6.6,0,6.6s0.2-2.8,1.6-5.5c1.3-2.6,2.2-3.1,2.2-3.1s-0.7,2.2-0.9,3c-0.3,1.9,0.6,3.9,0.6,3.9s0.5-2,1.1-3.4
		c0.3-0.6,1.4-2,1.4-2l3.4,6.5c0,0-0.9-5.2-1-5.6c-0.1-0.2,3.2,3,3.2,3s-2.9-5.5-3-6.3c-0.1-0.5,3.2,3,3.2,4.4
		c0,0.2,2.2-7.1,0.5-9.3C198,97,197.3,96.7,195.1,96.8z"/>
	<path class="st2" d="M185.8,102.2c0,0-0.4-1.3,2.1-2.7c2.5-1.5,5.7-1.9,5.7-1.9s-2.9,0.9-5.3,2.5
		C187.3,100.7,185.8,102.2,185.8,102.2z"/>
	<path class="st2" d="M190.1,104.1c0,0-1.2-1.5,0.6-3.8c1.7-2.3,3.1-2.7,3.1-2.7s-2,1.3-3.3,4.8
		C190.1,103.7,190.1,104.1,190.1,104.1z"/>
	<path class="st2" d="M193.3,103.6c0,0-1.3-0.7-0.7-3s1.5-2.9,1.5-2.9s-1.1,1.6-1,4.6C193.2,103.2,193.3,103.6,193.3,103.6z"/>
	<path class="st55" d="M202,118c-3.2,1.5-4.9,5.6-4.9,5.6l4.9-3.7l-2.9,4.8l4.1-3.3l-0.9,7.7c1.1-1.9,3.2-5.3,3.2-5.3
		s0.5,4.1,0.5,3.6c-0.1-1.6,1.5-3.6,1.5-4c0-0.5,1.5,1.5,1.5,1.5s-0.7-1.5-0.3-2.3s2.4,0.5,3.2,1c0.1,0.1-1.8-4.3-1.6-6
		C210.5,116.5,205.2,116.4,202,118z"/>
	<path class="st36" d="M192.8,119.3c0.3,0.2-1.4,2.7,0.9,4.9c1.1,1.1,2.5-0.9,4.2-2.6c2-2,3.1-2.8,3.4-3.6
		C201.6,117.8,192.1,118.7,192.8,119.3z"/>
	<path class="st56" d="M216.5,116.8c0.2-2.8-1.8-4-1.7-4.1c1.3-0.5,1.3-3.4-0.3-4.5c-1.4-0.9-5.1-0.8-6.8,1c-1.1,1.1-3,5.3-3.4,6.7
		c0,0.2,0.1,0.4,0.3,0.5c1.4,0.6,4.6,1.5,6.2,2.4C214,120.6,216.4,118.7,216.5,116.8z"/>
	<path class="st36" d="M205.8,117c0,0,7.7-1.2,8.8,0.2c1.1,1.4-0.4,2.3-2.4,1.7C211.3,118.6,205.8,117,205.8,117z"/>
	<g>
		
			<linearGradient id="SVGID_17_" gradientUnits="userSpaceOnUse" x1="4318.625" y1="545.0428" x2="4311.668" y2="562.3236" gradientTransform="matrix(-0.4924 0.8704 0.8704 0.4924 1833.0468 -3912.8638)">
			<stop  offset="0" style="stop-color:#FFFFFF"/>
			<stop  offset="1" style="stop-color:#D25385"/>
		</linearGradient>
		<path class="st57" d="M202.2,117c-1-1-7.7-8.3-10.3-6.2c-2.5,2.1-3.6,7.3-3.3,8.8c0.5,1.9,1.2,1.8,2.5,1.6
			C192.5,121,203.2,118,202.2,117z"/>
		<path class="st36" d="M191.1,120.9c-0.8,0.1-2-0.1-1.9-1c0.1-0.9,1.8-2.4,5.1-2.4c3.3,0,7.5-0.4,7.5-0.4S192,120.8,191.1,120.9z"
			/>
	</g>
	<path class="st36" d="M201.8,116.8c0,0-5.2-4.2-5.6-3.8c-0.4,0.4,1.7,1.8,1.7,2.1c0,0.3-1.1,0.3-0.6,1.1
		C197.8,116.9,201.8,116.8,201.8,116.8z"/>
	<linearGradient id="SVGID_18_" gradientUnits="userSpaceOnUse" x1="200.9388" y1="116.7813" x2="206.4153" y2="116.7813">
		<stop  offset="0" style="stop-color:#FFFFFF"/>
		<stop  offset="1" style="stop-color:#D25385"/>
	</linearGradient>
	<path class="st58" d="M201,115.1c0,0,3.1-1.4,3.5-0.9c1,1.3,1.2,1.8,1.8,2.9c0.7,1.4-4.1,3.9-5,1.1
		C200.7,116.6,201,115.1,201,115.1z"/>
	<path class="st56" d="M201.3,115.1c0.1-0.2,2.4-1.4,3-1c0.6,0.3,2.2,2.8,2.1,3.5c-0.1,0.7-3.2,3.1-3.7,1.9
		C202.1,118.2,201.3,115.1,201.3,115.1z"/>
	<path class="st59" d="M209.8,108.3c0,0-0.6,3,0.3,4c0.8,0.9,3.4,0.9,3.4,0.9s-2.5,0.9-2.1,1.9s2.7,1.8,2.7,1.8s-1.4-0.3-3.4-0.3
		s-4.4,0.3-4.4,0.3l-1.6-2.3c0,0,1.4-3.5,2.3-4.5C207.8,109.1,209.8,108.3,209.8,108.3z"/>
	<path class="st36" d="M205.4,115.4c0,0,1.2-2.8,1.8-3.6c1.2-1.8,2.7-1,1.4,0.7c-1.2,1.6-2.1,1.9-1.8,2.4c0.4,0.5,2.1-0.9,2.3,0.3
		c0.2,1.2-3.5,0.6-3.5,0.6L205.4,115.4z"/>
	<g>
		<g>
			
				<linearGradient id="SVGID_19_" gradientUnits="userSpaceOnUse" x1="-1367.6693" y1="1825.2188" x2="-1400.9894" y2="1763.2063" gradientTransform="matrix(0.9724 0.2329 -0.2329 0.9724 2018.7596 -1446.4062)">
				<stop  offset="0" style="stop-color:#E5C5A2"/>
				<stop  offset="0.1873" style="stop-color:#E5C39F"/>
				<stop  offset="0.3451" style="stop-color:#E2BC97"/>
				<stop  offset="0.492" style="stop-color:#DFB189"/>
				<stop  offset="0.6325" style="stop-color:#DAA378"/>
				<stop  offset="0.7672" style="stop-color:#D59366"/>
				<stop  offset="0.7879" style="stop-color:#D49063"/>
				<stop  offset="0.8606" style="stop-color:#D49063"/>
				<stop  offset="0.9758" style="stop-color:#D49063"/>
			</linearGradient>
			<path class="st60" d="M308.3,125.3c10.6,11,6.7,25.1,6.6,25.2c-9.6,5.3-35.2-42.1-47.9-62.4c-2.3-3.6,5.5-1,6.4,0
				C280.5,96.2,296.2,112.7,308.3,125.3z"/>
		</g>
		<g>
			
				<radialGradient id="SVGID_20_" cx="-3475.8997" cy="-484.9133" r="8.0629" gradientTransform="matrix(0.9388 -0.3446 0.3446 0.9388 3699.2598 -662.1521)" gradientUnits="userSpaceOnUse">
				<stop  offset="0" style="stop-color:#F5D7A9"/>
				<stop  offset="1" style="stop-color:#E2B17B"/>
			</radialGradient>
			<path class="st61" d="M274,88.5c0,0,0.1-0.6,0.4-7.4c0.2-4.4-1.7-9.7-1.7-9.7s-1.7,1.1-3.9,0.9c-1.7-0.1-3.6-1.2-3.4,0
				c0.4,2.8,0.7,5.4-2.1,7c-2.1,1.2-0.3,6,4.1,8.9C269.9,89.7,274,88.5,274,88.5z"/>
			
				<radialGradient id="SVGID_21_" cx="-3477.5903" cy="-487.2421" r="8.8974" gradientTransform="matrix(0.9388 -0.3446 0.3446 0.9388 3699.2598 -662.1521)" gradientUnits="userSpaceOnUse">
				<stop  offset="0" style="stop-color:#F5D7A9"/>
				<stop  offset="1" style="stop-color:#E2B17B"/>
			</radialGradient>
			<path class="st62" d="M265.7,77.8c-2.9-1.4-1.4-4.9-3.2-7.5c-1.3-1.9-2.6-1.1-2.6-1.1s0.2,0.8,0.5,3c0.3,1.7,1.3,6.3,1.6,9.1
				c0.2,2.3,2.7,7.1,8.7,7.9c2.9,0.4,4.6-2.4,2.4-7.8L265.7,77.8z"/>
			
				<radialGradient id="SVGID_22_" cx="-3475.8445" cy="-502.8663" r="7.4319" gradientTransform="matrix(0.9388 -0.3446 0.3446 0.9388 3699.2598 -662.1521)" gradientUnits="userSpaceOnUse">
				<stop  offset="0" style="stop-color:#F5D7A9"/>
				<stop  offset="1" style="stop-color:#E2B17B"/>
			</radialGradient>
			<path class="st63" d="M268.7,72.3c0,0-2.6,1.3-3.2,0.2c-0.9-1.8-2.8-9.2-2.8-9.2s-3.5-3.9-4.7-5.8c-0.4-0.6-0.5-1.4-0.4-2.1
				c0.1-0.7,0.7-1,0.7-1s6,7.1,6.4,8C265,63,268,70.5,268.7,72.3z"/>
			<path class="st64" d="M270.5,78.6c-2.5,7,0.7,9.5,1.2,10.2s3.3,1.4,2.9-4.6c-0.1-1.3-0.6-7.1,1.7-12.5c0.1-0.3,1.1-3.6,1.1-3.6
				s0.2-0.5-0.1-0.8c-0.4-0.5-5.8-5.3-5.8-5.3s-1.2,1.7,0.9,3.2c2.9,2.2,2.9,3.1,2.9,3.1l-2.3,3.5l-5.1-8.1l-10.4-0.8
				c0,0-0.5,1.7,2,2.4c2.7,0.8,7,0.7,7,0.7l2.9,7C269.4,73,271.4,76,270.5,78.6z"/>
			<path class="st64" d="M273.2,72.5l-3.9-7.5l-10.2,0.9c0,0-0.1,1.4,2.5,1.9s5.7-0.2,5.7-0.2l2.5,6L273.2,72.5z"/>
			<path class="st3" d="M273.7,71.9c0,0-3.3,4.6-4.1,10.4c-0.4,2.7,0.7,4.3,0.7,4.3s-6.2-1.9-4.7-8.7
				C266.2,74.5,273.7,71.9,273.7,71.9z"/>
			
				<linearGradient id="SVGID_23_" gradientUnits="userSpaceOnUse" x1="-3489.072" y1="-386.8859" x2="-3489.9109" y2="-388.0057" gradientTransform="matrix(0.9501 -0.312 0.312 0.9501 3695.6692 -664.8751)">
				<stop  offset="0" style="stop-color:#ECBB8E"/>
				<stop  offset="0.4903" style="stop-color:#F2CA9F"/>
				<stop  offset="1" style="stop-color:#F6D7AD"/>
			</linearGradient>
			<path class="st65" d="M258.2,54c0,0-0.4,1,0.7,2.2c0.6,0.7,1.3,0.2,1.3,0.2L258.2,54z"/>
			
				<linearGradient id="SVGID_24_" gradientUnits="userSpaceOnUse" x1="-3492.2446" y1="-380.0465" x2="-3492.8743" y2="-380.8872" gradientTransform="matrix(0.9501 -0.312 0.312 0.9501 3695.6692 -664.8751)">
				<stop  offset="0" style="stop-color:#ECBB8E"/>
				<stop  offset="0.4903" style="stop-color:#F2CA9F"/>
				<stop  offset="1" style="stop-color:#F6D7AD"/>
			</linearGradient>
			<path class="st66" d="M257.2,62.8l2.5,0.3c0,0-0.1,0.9-1.4,0.7C257.4,63.7,257.2,62.8,257.2,62.8z"/>
			
				<linearGradient id="SVGID_25_" gradientUnits="userSpaceOnUse" x1="-3491.6729" y1="-377.2005" x2="-3492.2014" y2="-377.906" gradientTransform="matrix(0.9501 -0.312 0.312 0.9501 3695.6692 -664.8751)">
				<stop  offset="0" style="stop-color:#ECBB8E"/>
				<stop  offset="0.4903" style="stop-color:#F2CA9F"/>
				<stop  offset="1" style="stop-color:#F6D7AD"/>
			</linearGradient>
			<path class="st67" d="M258.8,65.7l2.3-0.1c0,0-0.1,0.8-0.9,0.7C259,66.4,258.8,65.7,258.8,65.7z"/>
			<path class="st68" d="M264.7,67.9c-1.9,0.2-3.8-0.4-3.8-0.4s3.1,0.4,5.6-0.1c0.8-0.2,1.6-0.4,1.6-0.4s0.3,1.3,0.8,2.5
				c0.6,1.2,0.6,1.7,1,2.3c0.6,0.9,1.7,0.7,1.7,0.7s-0.9,0.5-1.8-0.3c-0.4-0.4-1.9-4.3-2.2-4.6C267.6,67.6,266.6,67.8,264.7,67.9z"
				/>
			<path class="st68" d="M272.7,65.2c-1.1-0.7-1.5-2-1.5-2s-0.1,1.3,1.4,2.3c1.2,0.8,2.9,2.6,2.7,2.9c-0.2,0.3-2.4,3.7-2.4,3.7
				s2.9-3.5,2.9-3.8C275.6,67.6,274.1,66,272.7,65.2z"/>
			<path class="st69" d="M271.4,61.9c0,0,0.3,1.4,0.9,1.7c0.6,0.3,0.7-0.2,0.7-0.2L271.4,61.9z"/>
		</g>
	</g>
	<path class="st3" d="M266.6,87.4l7.7,12.7l8.6,14c0,0-11.3-25-12.7-25.9C268.9,87.4,266.6,87.4,266.6,87.4z"/>
	<linearGradient id="SVGID_26_" gradientUnits="userSpaceOnUse" x1="267.3349" y1="106.0461" x2="284.6261" y2="132.2232">
		<stop  offset="0" style="stop-color:#F3CB9E"/>
		<stop  offset="0.8621" style="stop-color:#D49063"/>
	</linearGradient>
	<path class="st70" d="M275.5,135.3c0,0-0.3-17,4.2-21.3c5.8-5.5,8.8,14.2,8.8,14.2s-6.1-5.1-8.7-1.5
		C277.2,130.4,275.5,135.3,275.5,135.3z"/>
</g>
</svg>
