<?xml version="1.0" encoding="utf-8"?><svg xmlns="http://www.w3.org/2000/svg" xmlns:xlink="http://www.w3.org/1999/xlink"><symbol viewBox="0 0 640 512" class="asvg-inline--fa afa-ambulance afa-w-20" id="ambulance" xmlns="http://www.w3.org/2000/svg"><path d="M624 352h-16V243.9c0-12.7-5.1-24.9-14.1-33.9L494 110.1c-9-9-21.2-14.1-33.9-14.1H416V48c0-26.5-21.5-48-48-48H48C21.5 0 0 21.5 0 48v320c0 26.5 21.5 48 48 48h16c0 53 43 96 96 96s96-43 96-96h128c0 53 43 96 96 96s96-43 96-96h48c8.8 0 16-7.2 16-16v-32c0-8.8-7.2-16-16-16zM160 464c-26.5 0-48-21.5-48-48s21.5-48 48-48 48 21.5 48 48-21.5 48-48 48zm144-248c0 4.4-3.6 8-8 8h-56v56c0 4.4-3.6 8-8 8h-48c-4.4 0-8-3.6-8-8v-56h-56c-4.4 0-8-3.6-8-8v-48c0-4.4 3.6-8 8-8h56v-56c0-4.4 3.6-8 8-8h48c4.4 0 8 3.6 8 8v56h56c4.4 0 8 3.6 8 8v48zm176 248c-26.5 0-48-21.5-48-48s21.5-48 48-48 48 21.5 48 48-21.5 48-48 48zm80-208H416V144h44.1l99.9 99.9V256z"/></symbol><symbol viewBox="0 0 512 512" class="bsvg-inline--fa bfa-sack bfa-w-16" id="bag" xmlns="http://www.w3.org/2000/svg"><g class="bfa-group"><path d="M192 96h128l47.4-71.12A16 16 0 00354.09 0H157.94a16 16 0 00-13.31 24.88zm128 32H192C-10.38 243.4.09 396.64.09 416c0 53 49.11 96 109.68 96h292.48c60.58 0 109.68-43 109.68-96 0-19 9.35-173.24-191.93-288z" class="bfa-secondary"/><path d="M337 104v16a8 8 0 01-8 8H183a8 8 0 01-8-8v-16a8 8 0 018-8h146a8 8 0 018 8z" class="bfa-primary"/></g></symbol><symbol viewBox="0 0 576 512" class="csvg-inline--fa cfa-shopping-cart cfa-w-18" id="cart" xmlns="http://www.w3.org/2000/svg"><path d="M528.12 301.319l47.273-208C578.806 78.301 567.391 64 551.99 64H159.208l-9.166-44.81C147.758 8.021 137.93 0 126.529 0H24C10.745 0 0 10.745 0 24v16c0 13.255 10.745 24 24 24h69.883l70.248 343.435C147.325 417.1 136 435.222 136 456c0 30.928 25.072 56 56 56s56-25.072 56-56c0-15.674-6.447-29.835-16.824-40h209.647C430.447 426.165 424 440.326 424 456c0 30.928 25.072 56 56 56s56-25.072 56-56c0-22.172-12.888-41.332-31.579-50.405l5.517-24.276c3.413-15.018-8.002-29.319-23.403-29.319H218.117l-6.545-32h293.145c11.206 0 20.92-7.754 23.403-18.681z"/></symbol><symbol viewBox="0 0 640 512" class="dsvg-inline--fa dfa-crown dfa-w-20" id="crown" xmlns="http://www.w3.org/2000/svg"><path d="M528 448H112c-8.8 0-16 7.2-16 16v32c0 8.8 7.2 16 16 16h416c8.8 0 16-7.2 16-16v-32c0-8.8-7.2-16-16-16zm64-320c-26.5 0-48 21.5-48 48 0 7.1 1.6 13.7 4.4 19.8L476 239.2c-15.4 9.2-35.3 4-44.2-11.6L350.3 85C361 76.2 368 63 368 48c0-26.5-21.5-48-48-48s-48 21.5-48 48c0 15 7 28.2 17.7 37l-81.5 142.6c-8.9 15.6-28.9 20.8-44.2 11.6l-72.3-43.4c2.7-6 4.4-12.7 4.4-19.8 0-26.5-21.5-48-48-48S0 149.5 0 176s21.5 48 48 48c2.6 0 5.2-.4 7.7-.8L128 416h384l72.3-192.8c2.5.4 5.1.8 7.7.8 26.5 0 48-21.5 48-48s-21.5-48-48-48z"/></symbol><symbol viewBox="0 0 576 512" class="esvg-inline--fa efa-eye efa-w-18" id="eye" xmlns="http://www.w3.org/2000/svg"><path d="M288 144a110.94 110.94 0 00-31.24 5 55.4 55.4 0 017.24 27 56 56 0 01-56 56 55.4 55.4 0 01-27-7.24A111.71 111.71 0 10288 144zm284.52 97.4C518.29 135.59 410.93 64 288 64S57.68 135.64 3.48 241.41a32.35 32.35 0 000 29.19C57.71 376.41 165.07 448 288 448s230.32-71.64 284.52-177.41a32.35 32.35 0 000-29.19zM288 400c-98.65 0-189.09-55-237.93-144C98.91 167 189.34 112 288 112s189.09 55 237.93 144C477.1 345 386.66 400 288 400z"/></symbol><symbol viewBox="0 0 512 512" class="fsvg-inline--fa ffa-heart ffa-w-16" id="heart" xmlns="http://www.w3.org/2000/svg"><path d="M462.3 62.6C407.5 15.9 326 24.3 275.7 76.2L256 96.5l-19.7-20.3C186.1 24.3 104.5 15.9 49.7 62.6c-62.8 53.6-66.1 149.8-9.9 207.9l193.5 199.8c12.5 12.9 32.8 12.9 45.3 0l193.5-199.8c56.3-58.1 53-154.3-9.8-207.9z"/></symbol><symbol viewBox="0 0 500 500" id="heart_bag" xmlns="http://www.w3.org/2000/svg"><path d="M322.6 74.6h7.7c3.4 1.5 6.9 2.8 10.1 4.7 1.7 1 3.1 1.6 5 1.6 4.3.2 8.6.2 12.7 2.6-.8.9-1.4 1.7-2.1 2.4-7.5 8.4-14.9 16.9-20.4 26.8-3.1 5.5-5.8 11.4-8.3 17.2-1.9 4.5-.1 7.4 4.7 8.5 1.8.4 3.6.7 5.4 1.1 7 1.4 13.6 3.6 18.5 9.2 3.7 4.1 4.6 8.6 2.5 13.7-1 2.6-2.2 5.2-3.2 7.9-1.4 3.8-1.2 7.5 1.4 10.9 1 1.4 2 3.3 2.1 5 .5 8.2-.7 15.7-8.5 20.6-.9.6-1.8 1.3-2.6 2-1.3 1.2-2 2.4-1.2 4.3 1.6 3.6.7 7-1.6 10-1.3 1.7-3.1 3.2-4.3 5-2.2 3.3-4.7 6.6-6 10.2-1.5 4-1 7.7 3.2 11 12.7 9.6 23.8 20.9 33.6 33.4 13.1 16.7 22.9 35 27.3 55.9 1 4.9 1.7 9.9 2.5 14.8v15.4c-.8 2.8-1.5 5.6-2.5 8.3-5.2 14.2-15.7 23.5-28.5 30.7-18.7 10.4-39.3 14.5-60.2 17.1-4.8.6-9.6 1.1-14.4 1.7h-19.8c-4.6-.7-9.2-1.2-13.8-2-23.4-4.2-41.4-17-55.3-35.7-13-17.5-18.3-37.2-13.2-58.7 3.7-15.9 11.1-30.1 21.6-42.7.5-.7 1-1.3 1.7-2.2-.9-.3-1.4-.6-1.9-.6-4.2.1-8.3.5-12.5.5-1.6 0-2.8.6-3 2.1-.5 3.5-1.1 7-1.1 10.5 0 4.6 0 4.9-4.6 5.5-.5.1-1.1 0-1.6.1-3.4.5-6.9 1-10.3 1.6-1.6.3-2.4 1.4-2.3 3.2.2 3 .4 6 .4 9 .1 2.9 0 5.8 0 8.8-14.3.8-28 3-42 2.2v-2.9c-.4-12.4-.5-24.9-1.2-37.3-.8-15.6-3.5-31-8-46-4.1-13.8-10.8-26.5-17.1-39.4-3.9-8.1-8.2-16.1-12.3-24.1v-2.2c1.9-.9 3.8-2.3 5.8-2.6 3.9-.6 7.8-.5 11.8-.7 20.1-.8 40.2-1.4 60.4-2.3 6.4-.3 11.9-2.6 16-8.4 8.6-12.3 17.9-24.1 26.8-36.1 2.1-2.9 5-4.3 8.3-4.7 2.8-.4 5.6-.3 8.5-.3 3.7-.1 7.5.1 11.2-.2 2.8-.2 4.2-2.3 3.3-5-.6-1.9-1.6-3.7-2.7-5.3-4.5-6.4-9.2-12.8-13.7-19.2-2.5-3.5-1.7-6.2 2.3-7.8 1.9-.8 4.1-1.1 6-1.9 4.8-2 9.1-1 13.1 2.1 2.3 1.8 4.5 3.7 6.9 5.4 3.2 2.2 6.2 2 8.9-.9 1.7-1.8 3.2-4 4.5-6.2 1.9-3.1 4.7-4.8 8.2-3.7 3.6 1.1 6.8 3.4 10.4 4.8 2.8 1.1 5.9 2.2 8.8 2.2 1.5 0 3-2.3 4.4-3.6 4-4 9-5.8 14.2-7.3zm-61.8 57.8v-.1c-9.9 0-19.8 0-29.7.1-1.1 0-2.5.7-3.2 1.5-10.8 14.2-21.5 28.4-32.3 42.6-.5.6-.7 1.5-.7 2.3-.1 12.9-.6 25.8-.1 38.7.6 17 2 34 2.9 51 .1 1.9.6 2.5 2.6 2.5 7.2.1 14.5 0 21.7.6 5.6.5 9.4-1.1 13.1-5.5 7.4-8.9 15.3-17.5 21-27.7.7-1.3 1.1-2.9 1-4.3-.8-8.9-.9-17.7.6-26.5.2-1.2.8-2.8.3-3.7-2.7-5.6-2.8-11.4-2-17.4.9-6.3 1-12.8 6.2-17.6 1.1-1 1.6-2.4 2.7-3.5 3.2-3.3 6.2-7 9.9-9.8 4.1-3.2 5.1-2.8 9 .6 3.8 3.3 7.4 6.8 11.2 10.1 3.9 3.3 8.4 5.1 13.6 4.7 3.5-.3 5.2-3.1 3.9-6.2-.6-1.3-1.1-2.7-1.9-4-5-8.3-10.2-16.5-15-24.9-1.5-2.6-3.2-3.4-5.9-3.4-9.5-.1-19.2-.1-28.9-.1zm16 69.9c8.4-.5 15.8-.9 23.2-1.4 13.1-.8 26.3-1.8 39.4-2.5 5.5-.3 9.3-3.3 10.1-8.5.7-4.3-2.6-9.3-7.4-10.5-3.2-.8-6.7-1.2-10-1.1-14.1.7-28.1 1.6-42.1 2.5-6.7.5-13.4 1.5-19.6 4.4-4.6 2.1-6.3 8-3.8 12.3 2.5 4.5 6.4 5.6 10.2 4.8zm.9 26.1c10.7-.3 21.4-.6 32.1-1 6-.2 12.1-.5 18.1-1 1.7-.1 3.6-1 5-2 2.7-2.1 3.9-5.1 3.3-8.5-.6-3.3-3.3-4.8-6.3-5.4-1.9-.4-3.8-.6-5.7-.5-16.5.8-32.9 1.7-49.4 2.5-3.3.2-5.9 2.3-6.7 5.4-1.5 6.4 2.6 10.8 9.6 10.5zm-88.6 58.2c.1-34.5-2-68.7-4-102.9-1.9-.4-3-.7-4.2-.8-3.6-.3-4.7.6-4.6 4.1.1 5.2.3 10.4.5 15.6.6 19.2 1.1 38.4 1.8 57.6.2 7.2.7 14.4 1.2 21.6.4 5.6 1.8 6.4 7.4 5.2.6.1 1.1-.1 1.9-.4zm116-48.3c-10.3.6-19.6 1-28.9 1.9-2.3.2-4.6 1.6-6.5 3.1-2.4 1.9-3 4.8-2.1 7.7s3.3 4 6 4.5c1.1.2 2.2.1 3.3 0 7.7-.4 15.3-.7 23-1.1 5.6-.3 11.1-.6 16.7-1 4-.3 5.9-2.3 6-6.3.1-4.4-1.7-6.9-5.5-7.4-4.2-.7-8.6-1.1-12-1.4zm14.3-87.3c.4 4.3 2.9 9.9 6.7 13.4 1.7 1.5 4.5 2 7 2.3 4.7.7 9.5 1.1 14-1 1-.5 2.1-1.8 2.3-2.9.9-6.1-2.1-11-8.2-11.6-7.2-.7-14.5-.2-21.8-.2zM290 308.2c-9.2-9.2-27.4-8.7-34.4 6.5-3.3 7.2-3.3 14.7-1.9 22.3 1.9 10.4 7.1 19.1 14.3 26.6 7.7 8 16.8 14.2 26.2 19.9.5.3 1.6.1 2.2-.2 7.9-4.5 15.5-9.5 22.4-15.5 11.1-9.7 18.5-21.5 19.6-36.6.4-5.9-.3-11.6-3.1-16.9-3.5-6.6-8.8-10.8-16.6-11.6-7.7-.7-13.9 2.1-19.1 7.6-1.2 1.4-2.5 2.7-3.3 3.5-2.1-1.8-4.3-3.6-6.3-5.6z"/></symbol><symbol viewBox="0 0 24 24" id="instagram" xmlns="http://www.w3.org/2000/svg"><path d="M11.999 7.377a4.624 4.624 0 100 9.248 4.624 4.624 0 000-9.248zm0 7.627a3.004 3.004 0 110-6.008 3.004 3.004 0 010 6.008zm4.807-6.719a1.078 1.078 0 100-2.156 1.078 1.078 0 000 2.156z"/><path d="M20.533 6.11A4.605 4.605 0 0017.9 3.48a6.607 6.607 0 00-2.186-.42c-.963-.042-1.268-.054-3.71-.054s-2.755 0-3.71.054a6.554 6.554 0 00-2.184.42 4.6 4.6 0 00-2.633 2.63 6.585 6.585 0 00-.419 2.186c-.043.962-.056 1.267-.056 3.71 0 2.442 0 2.753.056 3.71.015.748.156 1.486.419 2.187a4.61 4.61 0 002.634 2.632 6.583 6.583 0 002.185.45c.963.042 1.268.055 3.71.055s2.755 0 3.71-.055a6.616 6.616 0 002.186-.42 4.613 4.613 0 002.633-2.632c.263-.7.404-1.438.419-2.186.043-.962.056-1.267.056-3.71s0-2.753-.056-3.71a6.583 6.583 0 00-.421-2.217zm-1.218 9.533a5.046 5.046 0 01-.311 1.688 2.987 2.987 0 01-1.712 1.71c-.535.2-1.1.305-1.67.312-.95.044-1.218.055-3.654.055-2.438 0-2.687 0-3.655-.055a4.961 4.961 0 01-1.67-.311 2.984 2.984 0 01-1.718-1.711 5.08 5.08 0 01-.311-1.67c-.043-.95-.053-1.217-.053-3.653 0-2.437 0-2.686.053-3.655a5.038 5.038 0 01.311-1.687c.305-.79.93-1.41 1.719-1.712a5.01 5.01 0 011.669-.311c.95-.043 1.218-.055 3.655-.055s2.687 0 3.654.055a4.96 4.96 0 011.67.31 2.99 2.99 0 011.712 1.713 5.06 5.06 0 01.311 1.669c.043.95.054 1.218.054 3.655 0 2.436 0 2.698-.043 3.654h-.011v-.001z"/></symbol><symbol viewBox="0 0 384 512" class="isvg-inline--fa ifa-question ifa-w-12" id="question-sign" xmlns="http://www.w3.org/2000/svg"><path d="M202.021 0C122.202 0 70.503 32.703 29.914 91.026c-7.363 10.58-5.093 25.086 5.178 32.874l43.138 32.709c10.373 7.865 25.132 6.026 33.253-4.148 25.049-31.381 43.63-49.449 82.757-49.449 30.764 0 68.816 19.799 68.816 49.631 0 22.552-18.617 34.134-48.993 51.164-35.423 19.86-82.299 44.576-82.299 106.405V320c0 13.255 10.745 24 24 24h72.471c13.255 0 24-10.745 24-24v-5.773c0-42.86 125.268-44.645 125.268-160.627C377.504 66.256 286.902 0 202.021 0zM192 373.459c-38.196 0-69.271 31.075-69.271 69.271 0 38.195 31.075 69.27 69.271 69.27s69.271-31.075 69.271-69.271-31.075-69.27-69.271-69.27z"/></symbol><symbol viewBox="0 0 512 512" class="jsvg-inline--fa jfa-sync-alt jfa-w-16" id="refresh" xmlns="http://www.w3.org/2000/svg"><path d="M370.72 133.28C339.458 104.008 298.888 87.962 255.848 88c-77.458.068-144.328 53.178-162.791 126.85-1.344 5.363-6.122 9.15-11.651 9.15H24.103c-7.498 0-13.194-6.807-11.807-14.176C33.933 94.924 134.813 8 256 8c66.448 0 126.791 26.136 171.315 68.685L463.03 40.97C478.149 25.851 504 36.559 504 57.941V192c0 13.255-10.745 24-24 24H345.941c-21.382 0-32.09-25.851-16.971-40.971l41.75-41.749zM32 296h134.059c21.382 0 32.09 25.851 16.971 40.971l-41.75 41.75c31.262 29.273 71.835 45.319 114.876 45.28 77.418-.07 144.315-53.144 162.787-126.849 1.344-5.363 6.122-9.15 11.651-9.15h57.304c7.498 0 13.194 6.807 11.807 14.176C478.067 417.076 377.187 504 256 504c-66.448 0-126.791-26.136-171.315-68.685L48.97 471.03C33.851 486.149 8 475.441 8 454.059V320c0-13.255 10.745-24 24-24z"/></symbol><symbol viewBox="0 0 512 512" class="ksvg-inline--fa kfa-sign-out-alt kfa-w-16" id="sign-out" xmlns="http://www.w3.org/2000/svg"><path d="M497 273L329 441c-15 15-41 4.5-41-17v-96H152c-13.3 0-24-10.7-24-24v-96c0-13.3 10.7-24 24-24h136V88c0-21.4 25.9-32 41-17l168 168c9.3 9.4 9.3 24.6 0 34zM192 436v-40c0-6.6-5.4-12-12-12H96c-17.7 0-32-14.3-32-32V160c0-17.7 14.3-32 32-32h84c6.6 0 12-5.4 12-12V76c0-6.6-5.4-12-12-12H96c-53 0-96 43-96 96v192c0 53 43 96 96 96h84c6.6 0 12-5.4 12-12z"/></symbol><symbol viewBox="0 0 448 512" class="lsvg-inline--fa lfa-user lfa-w-14" id="user" xmlns="http://www.w3.org/2000/svg"><path d="M224 256c70.7 0 128-57.3 128-128S294.7 0 224 0 96 57.3 96 128s57.3 128 128 128zm89.6 32h-16.7c-22.2 10.2-46.9 16-72.9 16s-50.6-5.8-72.9-16h-16.7C60.2 288 0 348.2 0 422.4V464c0 26.5 21.5 48 48 48h352c26.5 0 48-21.5 48-48v-41.6c0-74.2-60.2-134.4-134.4-134.4z"/></symbol></svg>