<?xml version="1.0" encoding="utf-8"?>
<!-- Generator: Adobe Illustrator 20.1.0, SVG Export Plug-In . SVG Version: 6.00 Build 0)  -->
<svg version="1.1" id="Слой_1" xmlns="http://www.w3.org/2000/svg" xmlns:xlink="http://www.w3.org/1999/xlink" x="0px" y="0px"
	 width="500px" height="500px" viewBox="0 0 500 500" style="enable-background:new 0 0 500 500;" xml:space="preserve">
<style type="text/css">
	.st0{fill:#18A689;}
</style>
<g>
	<path class="st0" d="M322.6,74.6c2.6,0,5.1,0,7.7,0c3.4,1.5,6.9,2.8,10.1,4.7c1.7,1,3.1,1.6,5,1.6c4.3,0.2,8.6,0.2,12.7,2.6
		c-0.8,0.9-1.4,1.7-2.1,2.4c-7.5,8.4-14.9,16.9-20.4,26.8c-3.1,5.5-5.8,11.4-8.3,17.2c-1.9,4.5-0.1,7.4,4.7,8.5
		c1.8,0.4,3.6,0.7,5.4,1.1c7,1.4,13.6,3.6,18.5,9.2c3.7,4.1,4.6,8.6,2.5,13.7c-1,2.6-2.2,5.2-3.2,7.9c-1.4,3.8-1.2,7.5,1.4,10.9
		c1,1.4,2,3.3,2.1,5c0.5,8.2-0.7,15.7-8.5,20.6c-0.9,0.6-1.8,1.3-2.6,2c-1.3,1.2-2,2.4-1.2,4.3c1.6,3.6,0.7,7-1.6,10
		c-1.3,1.7-3.1,3.2-4.3,5c-2.2,3.3-4.7,6.6-6,10.2c-1.5,4-1,7.7,3.2,11c12.7,9.6,23.8,20.9,33.6,33.4c13.1,16.7,22.9,35,27.3,55.9
		c1,4.9,1.7,9.9,2.5,14.8c0,5.1,0,10.3,0,15.4c-0.8,2.8-1.5,5.6-2.5,8.3c-5.2,14.2-15.7,23.5-28.5,30.7
		c-18.7,10.4-39.3,14.5-60.2,17.1c-4.8,0.6-9.6,1.1-14.4,1.7c-6.6,0-13.2,0-19.8,0c-4.6-0.7-9.2-1.2-13.8-2
		c-23.4-4.2-41.4-17-55.3-35.7c-13-17.5-18.3-37.2-13.2-58.7c3.7-15.9,11.1-30.1,21.6-42.7c0.5-0.7,1-1.3,1.7-2.2
		c-0.9-0.3-1.4-0.6-1.9-0.6c-4.2,0.1-8.3,0.5-12.5,0.5c-1.6,0-2.8,0.6-3,2.1c-0.5,3.5-1.1,7-1.1,10.5c0,4.6,0,4.9-4.6,5.5
		c-0.5,0.1-1.1,0-1.6,0.1c-3.4,0.5-6.9,1-10.3,1.6c-1.6,0.3-2.4,1.4-2.3,3.2c0.2,3,0.4,6,0.4,9c0.1,2.9,0,5.8,0,8.8
		c-14.3,0.8-28,3-42,2.2c0-1.2,0-2.1,0-2.9c-0.4-12.4-0.5-24.9-1.2-37.3c-0.8-15.6-3.5-31-8-46c-4.1-13.8-10.8-26.5-17.1-39.4
		c-3.9-8.1-8.2-16.1-12.3-24.1c0-0.7,0-1.5,0-2.2c1.9-0.9,3.8-2.3,5.8-2.6c3.9-0.6,7.8-0.5,11.8-0.7c20.1-0.8,40.2-1.4,60.4-2.3
		c6.4-0.3,11.9-2.6,16-8.4c8.6-12.3,17.9-24.1,26.8-36.1c2.1-2.9,5-4.3,8.3-4.7c2.8-0.4,5.6-0.3,8.5-0.3c3.7-0.1,7.5,0.1,11.2-0.2
		c2.8-0.2,4.2-2.3,3.3-5c-0.6-1.9-1.6-3.7-2.7-5.3c-4.5-6.4-9.2-12.8-13.7-19.2c-2.5-3.5-1.7-6.2,2.3-7.8c1.9-0.8,4.1-1.1,6-1.9
		c4.8-2,9.1-1,13.1,2.1c2.3,1.8,4.5,3.7,6.9,5.4c3.2,2.2,6.2,2,8.9-0.9c1.7-1.8,3.2-4,4.5-6.2c1.9-3.1,4.7-4.8,8.2-3.7
		c3.6,1.1,6.8,3.4,10.4,4.8c2.8,1.1,5.9,2.2,8.8,2.2c1.5,0,3-2.3,4.4-3.6C312.4,77.9,317.4,76.1,322.6,74.6z M260.8,132.4v-0.1
		c-9.9,0-19.8,0-29.7,0.1c-1.1,0-2.5,0.7-3.2,1.5c-10.8,14.2-21.5,28.4-32.3,42.6c-0.5,0.6-0.7,1.5-0.7,2.3
		c-0.1,12.9-0.6,25.8-0.1,38.7c0.6,17,2,34,2.9,51c0.1,1.9,0.6,2.5,2.6,2.5c7.2,0.1,14.5,0,21.7,0.6c5.6,0.5,9.4-1.1,13.1-5.5
		c7.4-8.9,15.3-17.5,21-27.7c0.7-1.3,1.1-2.9,1-4.3c-0.8-8.9-0.9-17.7,0.6-26.5c0.2-1.2,0.8-2.8,0.3-3.7c-2.7-5.6-2.8-11.4-2-17.4
		c0.9-6.3,1-12.8,6.2-17.6c1.1-1,1.6-2.4,2.7-3.5c3.2-3.3,6.2-7,9.9-9.8c4.1-3.2,5.1-2.8,9,0.6c3.8,3.3,7.4,6.8,11.2,10.1
		c3.9,3.3,8.4,5.1,13.6,4.7c3.5-0.3,5.2-3.1,3.9-6.2c-0.6-1.3-1.1-2.7-1.9-4c-5-8.3-10.2-16.5-15-24.9c-1.5-2.6-3.2-3.4-5.9-3.4
		C280.2,132.4,270.5,132.4,260.8,132.4z M276.8,202.3c8.4-0.5,15.8-0.9,23.2-1.4c13.1-0.8,26.3-1.8,39.4-2.5
		c5.5-0.3,9.3-3.3,10.1-8.5c0.7-4.3-2.6-9.3-7.4-10.5c-3.2-0.8-6.7-1.2-10-1.1c-14.1,0.7-28.1,1.6-42.1,2.5
		c-6.7,0.5-13.4,1.5-19.6,4.4c-4.6,2.1-6.3,8-3.8,12.3C269.1,202,273,203.1,276.8,202.3z M277.7,228.4c10.7-0.3,21.4-0.6,32.1-1
		c6-0.2,12.1-0.5,18.1-1c1.7-0.1,3.6-1,5-2c2.7-2.1,3.9-5.1,3.3-8.5c-0.6-3.3-3.3-4.8-6.3-5.4c-1.9-0.4-3.8-0.6-5.7-0.5
		c-16.5,0.8-32.9,1.7-49.4,2.5c-3.3,0.2-5.9,2.3-6.7,5.4C266.6,224.3,270.7,228.7,277.7,228.4z M189.1,286.6
		c0.1-34.5-2-68.7-4-102.9c-1.9-0.4-3-0.7-4.2-0.8c-3.6-0.3-4.7,0.6-4.6,4.1c0.1,5.2,0.3,10.4,0.5,15.6c0.6,19.2,1.1,38.4,1.8,57.6
		c0.2,7.2,0.7,14.4,1.2,21.6c0.4,5.6,1.8,6.4,7.4,5.2C187.8,287.1,188.3,286.9,189.1,286.6z M305.1,238.3c-10.3,0.6-19.6,1-28.9,1.9
		c-2.3,0.2-4.6,1.6-6.5,3.1c-2.4,1.9-3,4.8-2.1,7.7s3.3,4,6,4.5c1.1,0.2,2.2,0.1,3.3,0c7.7-0.4,15.3-0.7,23-1.1
		c5.6-0.3,11.1-0.6,16.7-1c4-0.3,5.9-2.3,6-6.3c0.1-4.4-1.7-6.9-5.5-7.4C312.9,239,308.5,238.6,305.1,238.3z M319.4,151
		c0.4,4.3,2.9,9.9,6.7,13.4c1.7,1.5,4.5,2,7,2.3c4.7,0.7,9.5,1.1,14-1c1-0.5,2.1-1.8,2.3-2.9c0.9-6.1-2.1-11-8.2-11.6
		C334,150.5,326.7,151,319.4,151z M290,308.2c-9.2-9.2-27.4-8.7-34.4,6.5c-3.3,7.2-3.3,14.7-1.9,22.3c1.9,10.4,7.1,19.1,14.3,26.6
		c7.7,8,16.8,14.2,26.2,19.9c0.5,0.3,1.6,0.1,2.2-0.2c7.9-4.5,15.5-9.5,22.4-15.5c11.1-9.7,18.5-21.5,19.6-36.6
		c0.4-5.9-0.3-11.6-3.1-16.9c-3.5-6.6-8.8-10.8-16.6-11.6c-7.7-0.7-13.9,2.1-19.1,7.6c-1.2,1.4-2.5,2.7-3.3,3.5
		C294.2,312,292,310.2,290,308.2z"/>
</g>
</svg>
